G75*
G70*
%OFA0B0*%
%FSLAX24Y24*%
%IPPOS*%
%LPD*%
%AMOC8*
5,1,8,0,0,1.08239X$1,22.5*
%
%ADD10C,0.0000*%
%ADD11C,0.0080*%
%ADD12C,0.0050*%
%ADD13C,0.0060*%
D10*
X002328Y000101D02*
X002328Y007097D01*
X017298Y007097D01*
X017298Y000101D01*
X002328Y000101D01*
D11*
X004368Y003180D02*
X004368Y003461D01*
X004368Y003321D02*
X004789Y003321D01*
X004648Y003180D01*
X005078Y003601D02*
X005078Y006601D01*
X007828Y006601D01*
X007828Y003601D01*
X005078Y003601D01*
X006578Y003851D02*
X007578Y003851D01*
X014337Y003961D02*
X014407Y003891D01*
X014547Y003891D01*
X014617Y003961D01*
X014617Y004241D01*
X014547Y004311D01*
X014407Y004311D01*
X014337Y004241D01*
X014798Y004241D02*
X014868Y004311D01*
X015008Y004311D01*
X015078Y004241D01*
X015078Y003961D01*
X015008Y003891D01*
X014868Y003891D01*
X014798Y003961D01*
X015258Y004031D02*
X015258Y004311D01*
X015538Y004311D02*
X015538Y004031D01*
X015398Y003891D01*
X015258Y004031D01*
X015258Y003311D02*
X015538Y003311D01*
X015398Y003311D02*
X015398Y002891D01*
X015078Y002891D02*
X014798Y003311D01*
X014617Y003311D02*
X014407Y003311D01*
X014337Y003241D01*
X014337Y002961D01*
X014407Y002891D01*
X014617Y002891D01*
X014617Y003311D01*
X014798Y002891D02*
X015078Y003311D01*
X015078Y002311D02*
X014798Y001891D01*
X014617Y001891D02*
X014407Y001891D01*
X014337Y001961D01*
X014337Y002241D01*
X014407Y002311D01*
X014617Y002311D01*
X014617Y001891D01*
X014798Y002311D02*
X015078Y001891D01*
X015258Y001891D02*
X015398Y002031D01*
X015328Y002031D02*
X015538Y002031D01*
X015538Y001891D02*
X015538Y002311D01*
X015328Y002311D01*
X015258Y002241D01*
X015258Y002101D01*
X015328Y002031D01*
X015328Y001311D02*
X015258Y001241D01*
X015258Y001101D01*
X015328Y001031D01*
X015538Y001031D01*
X015398Y001031D02*
X015258Y000891D01*
X015538Y000891D02*
X015538Y001311D01*
X015328Y001311D01*
X015078Y001311D02*
X014798Y001311D01*
X014938Y001311D02*
X014938Y000891D01*
X014617Y000961D02*
X014547Y000891D01*
X014407Y000891D01*
X014337Y000961D01*
X014337Y001031D01*
X014407Y001101D01*
X014547Y001101D01*
X014617Y001171D01*
X014617Y001241D01*
X014547Y001311D01*
X014407Y001311D01*
X014337Y001241D01*
X014407Y004891D02*
X014547Y004891D01*
X014617Y004961D01*
X014407Y004891D02*
X014337Y004961D01*
X014337Y005031D01*
X014407Y005101D01*
X014547Y005101D01*
X014617Y005171D01*
X014617Y005241D01*
X014547Y005311D01*
X014407Y005311D01*
X014337Y005241D01*
X014798Y005311D02*
X015078Y005311D01*
X014938Y005311D02*
X014938Y004891D01*
X015258Y004961D02*
X015328Y004891D01*
X015468Y004891D01*
X015538Y004961D01*
X015538Y005241D01*
X015468Y005311D01*
X015328Y005311D01*
X015258Y005241D01*
X015328Y005891D02*
X015258Y005961D01*
X015258Y006101D01*
X015398Y006101D01*
X015258Y006241D02*
X015328Y006311D01*
X015468Y006311D01*
X015538Y006241D01*
X015538Y005961D01*
X015468Y005891D01*
X015328Y005891D01*
X015078Y005891D02*
X015078Y006311D01*
X014798Y005891D01*
X014798Y006311D01*
X014617Y006311D02*
X014407Y006311D01*
X014337Y006241D01*
X014337Y005961D01*
X014407Y005891D01*
X014617Y005891D01*
X014617Y006311D01*
D12*
X007553Y006271D02*
X007553Y006001D01*
X007553Y006091D02*
X007418Y006091D01*
X007373Y006136D01*
X007373Y006226D01*
X007418Y006271D01*
X007553Y006271D01*
X007463Y006091D02*
X007373Y006001D01*
X007259Y006046D02*
X007214Y006001D01*
X007123Y006001D01*
X007078Y006046D01*
X007078Y006091D01*
X007123Y006136D01*
X007214Y006136D01*
X007259Y006181D01*
X007259Y006226D01*
X007214Y006271D01*
X007123Y006271D01*
X007078Y006226D01*
X006964Y006271D02*
X006784Y006271D01*
X006874Y006271D02*
X006874Y006001D01*
X006303Y006046D02*
X006303Y006226D01*
X006258Y006271D01*
X006168Y006271D01*
X006123Y006226D01*
X006123Y006136D02*
X006213Y006136D01*
X006123Y006136D02*
X006123Y006046D01*
X006168Y006001D01*
X006258Y006001D01*
X006303Y006046D01*
X006009Y006001D02*
X006009Y006271D01*
X005828Y006001D01*
X005828Y006271D01*
X005714Y006271D02*
X005579Y006271D01*
X005534Y006226D01*
X005534Y006046D01*
X005579Y006001D01*
X005714Y006001D01*
X005714Y006271D01*
X005669Y005271D02*
X005714Y005226D01*
X005714Y005181D01*
X005669Y005136D01*
X005579Y005136D01*
X005534Y005091D01*
X005534Y005046D01*
X005579Y005001D01*
X005669Y005001D01*
X005714Y005046D01*
X005828Y005046D02*
X005828Y005226D01*
X005873Y005271D01*
X005964Y005271D01*
X006009Y005226D01*
X006009Y005046D01*
X005964Y005001D01*
X005873Y005001D01*
X005828Y005046D01*
X006123Y005001D02*
X006123Y005271D01*
X006213Y005181D01*
X006303Y005271D01*
X006303Y005001D01*
X006784Y005001D02*
X006919Y005136D01*
X006964Y005091D02*
X006784Y005271D01*
X006964Y005271D02*
X006964Y005001D01*
X007078Y005046D02*
X007123Y005001D01*
X007214Y005001D01*
X007259Y005046D01*
X007259Y005226D01*
X007214Y005271D01*
X007123Y005271D01*
X007078Y005226D01*
X007373Y005226D02*
X007418Y005271D01*
X007508Y005271D01*
X007553Y005226D01*
X007553Y005181D01*
X007508Y005136D01*
X007418Y005136D01*
X007373Y005091D01*
X007373Y005046D01*
X007418Y005001D01*
X007508Y005001D01*
X007553Y005046D01*
X007553Y004271D02*
X007463Y004181D01*
X007373Y004271D01*
X007373Y004001D01*
X007259Y004001D02*
X007169Y004001D01*
X007214Y004001D02*
X007214Y004271D01*
X007259Y004271D02*
X007169Y004271D01*
X007062Y004226D02*
X007062Y004181D01*
X007017Y004136D01*
X006927Y004136D01*
X006882Y004091D01*
X006882Y004046D01*
X006927Y004001D01*
X007017Y004001D01*
X007062Y004046D01*
X007062Y004226D02*
X007017Y004271D01*
X006927Y004271D01*
X006882Y004226D01*
X006767Y004226D02*
X006722Y004271D01*
X006632Y004271D01*
X006587Y004226D01*
X006587Y004046D01*
X006632Y004001D01*
X006722Y004001D01*
X006767Y004046D01*
X006767Y004226D01*
X006303Y004271D02*
X006303Y004091D01*
X006213Y004001D01*
X006123Y004091D01*
X006123Y004271D01*
X006009Y004226D02*
X005964Y004271D01*
X005873Y004271D01*
X005828Y004226D01*
X005828Y004181D01*
X005873Y004136D01*
X005828Y004091D01*
X005828Y004046D01*
X005873Y004001D01*
X005964Y004001D01*
X006009Y004046D01*
X005919Y004136D02*
X005873Y004136D01*
X005714Y004226D02*
X005669Y004271D01*
X005579Y004271D01*
X005534Y004226D01*
X005534Y004181D01*
X005579Y004136D01*
X005534Y004091D01*
X005534Y004046D01*
X005579Y004001D01*
X005669Y004001D01*
X005714Y004046D01*
X005624Y004136D02*
X005579Y004136D01*
X007553Y004001D02*
X007553Y004271D01*
X005419Y005001D02*
X005329Y005001D01*
X005374Y005001D02*
X005374Y005271D01*
X005419Y005271D02*
X005329Y005271D01*
X005534Y005226D02*
X005579Y005271D01*
X005669Y005271D01*
X005981Y000696D02*
X005981Y000426D01*
X006026Y000426D02*
X005936Y000426D01*
X005830Y000471D02*
X005785Y000426D01*
X005695Y000426D01*
X005650Y000471D01*
X005650Y000561D01*
X005695Y000606D01*
X005785Y000606D01*
X005830Y000561D01*
X005830Y000471D01*
X005535Y000471D02*
X005490Y000426D01*
X005355Y000426D01*
X005355Y000381D02*
X005355Y000606D01*
X005490Y000606D01*
X005535Y000561D01*
X005535Y000471D01*
X005400Y000336D02*
X005355Y000381D01*
X005400Y000336D02*
X005445Y000336D01*
X005241Y000471D02*
X005196Y000426D01*
X005061Y000426D01*
X005061Y000381D02*
X005061Y000606D01*
X005196Y000606D01*
X005241Y000561D01*
X005241Y000471D01*
X005106Y000336D02*
X005061Y000381D01*
X005106Y000336D02*
X005151Y000336D01*
X004946Y000471D02*
X004901Y000426D01*
X004811Y000426D01*
X004766Y000516D02*
X004946Y000516D01*
X004946Y000471D02*
X004946Y000561D01*
X004901Y000606D01*
X004811Y000606D01*
X004766Y000561D01*
X004766Y000516D01*
X004651Y000516D02*
X004561Y000606D01*
X004516Y000606D01*
X004651Y000606D02*
X004651Y000426D01*
X005981Y000696D02*
X006026Y000696D01*
X006141Y000561D02*
X006321Y000561D01*
X006436Y000606D02*
X006571Y000606D01*
X006616Y000561D01*
X006571Y000516D01*
X006481Y000516D01*
X006436Y000471D01*
X006481Y000426D01*
X006616Y000426D01*
X006730Y000426D02*
X006865Y000426D01*
X006910Y000471D01*
X006910Y000561D01*
X006865Y000606D01*
X006730Y000606D01*
X006730Y000696D02*
X006730Y000426D01*
X007025Y000471D02*
X007025Y000561D01*
X007070Y000606D01*
X007160Y000606D01*
X007205Y000561D01*
X007205Y000471D01*
X007160Y000426D01*
X007070Y000426D01*
X007025Y000471D01*
X007319Y000471D02*
X007319Y000561D01*
X007365Y000606D01*
X007455Y000606D01*
X007500Y000561D01*
X007500Y000471D01*
X007455Y000426D01*
X007365Y000426D01*
X007319Y000471D01*
X007614Y000471D02*
X007614Y000606D01*
X007794Y000606D02*
X007794Y000471D01*
X007749Y000426D01*
X007704Y000471D01*
X007659Y000426D01*
X007614Y000471D01*
X007905Y000426D02*
X008040Y000516D01*
X007905Y000606D01*
X008040Y000696D02*
X008040Y000426D01*
X008154Y000426D02*
X008289Y000426D01*
X008334Y000471D01*
X008334Y000561D01*
X008289Y000606D01*
X008154Y000606D01*
X008449Y000561D02*
X008449Y000426D01*
X008584Y000426D01*
X008629Y000471D01*
X008584Y000516D01*
X008449Y000516D01*
X008449Y000561D02*
X008494Y000606D01*
X008584Y000606D01*
X008744Y000561D02*
X008789Y000606D01*
X008924Y000606D01*
X008924Y000696D02*
X008924Y000426D01*
X008789Y000426D01*
X008744Y000471D01*
X008744Y000561D01*
X009038Y000696D02*
X009218Y000426D01*
X009333Y000471D02*
X009378Y000426D01*
X009513Y000426D01*
X009513Y000336D02*
X009513Y000606D01*
X009378Y000606D01*
X009333Y000561D01*
X009333Y000471D01*
X009628Y000696D02*
X009808Y000426D01*
X009922Y000426D02*
X009922Y000561D01*
X009967Y000606D01*
X010012Y000561D01*
X010012Y000426D01*
X010102Y000426D02*
X010102Y000606D01*
X010057Y000606D01*
X010012Y000561D01*
X010217Y000561D02*
X010217Y000471D01*
X010262Y000426D01*
X010352Y000426D01*
X010397Y000471D01*
X010397Y000561D01*
X010352Y000606D01*
X010262Y000606D01*
X010217Y000561D01*
X010511Y000606D02*
X010647Y000606D01*
X010692Y000561D01*
X010692Y000471D01*
X010647Y000426D01*
X010511Y000426D01*
X010794Y000426D02*
X010839Y000426D01*
X010839Y000471D01*
X010794Y000471D01*
X010794Y000426D01*
X010953Y000516D02*
X011134Y000516D01*
X011134Y000471D02*
X011134Y000561D01*
X011089Y000606D01*
X010998Y000606D01*
X010953Y000561D01*
X010953Y000516D01*
X010998Y000426D02*
X011089Y000426D01*
X011134Y000471D01*
X011240Y000426D02*
X011330Y000426D01*
X011285Y000426D02*
X011285Y000696D01*
X011330Y000696D01*
X011444Y000606D02*
X011580Y000606D01*
X011625Y000561D01*
X011625Y000471D01*
X011580Y000426D01*
X011444Y000426D01*
X011444Y000381D02*
X011444Y000606D01*
X011739Y000561D02*
X011739Y000471D01*
X011784Y000426D01*
X011874Y000426D01*
X011919Y000471D01*
X011919Y000561D01*
X011874Y000606D01*
X011784Y000606D01*
X011739Y000561D01*
X012034Y000561D02*
X012034Y000471D01*
X012079Y000426D01*
X012169Y000426D01*
X012214Y000471D01*
X012214Y000561D01*
X012169Y000606D01*
X012079Y000606D01*
X012034Y000561D01*
X012328Y000606D02*
X012464Y000606D01*
X012509Y000561D01*
X012509Y000471D01*
X012464Y000426D01*
X012328Y000426D01*
X012328Y000381D02*
X012328Y000606D01*
X012611Y000471D02*
X012611Y000426D01*
X012656Y000426D01*
X012656Y000471D01*
X012611Y000471D01*
X012770Y000516D02*
X012770Y000561D01*
X012815Y000606D01*
X012906Y000606D01*
X012951Y000561D01*
X012951Y000471D01*
X012906Y000426D01*
X012815Y000426D01*
X012770Y000516D02*
X012951Y000516D01*
X013065Y000426D02*
X013200Y000426D01*
X013245Y000471D01*
X013245Y000561D01*
X013200Y000606D01*
X013065Y000606D01*
X013065Y000696D02*
X013065Y000426D01*
X013360Y000471D02*
X013360Y000561D01*
X013405Y000606D01*
X013495Y000606D01*
X013540Y000561D01*
X013540Y000471D01*
X013495Y000426D01*
X013405Y000426D01*
X013360Y000471D01*
X013654Y000426D02*
X013789Y000426D01*
X013834Y000471D01*
X013834Y000561D01*
X013789Y000606D01*
X013654Y000606D01*
X013949Y000696D02*
X014129Y000426D01*
X014244Y000696D02*
X014424Y000426D01*
X014526Y000426D02*
X014526Y000471D01*
X014571Y000471D01*
X014571Y000426D01*
X014526Y000426D01*
X014686Y000471D02*
X014731Y000426D01*
X014866Y000426D01*
X014866Y000336D02*
X014866Y000606D01*
X014731Y000606D01*
X014686Y000561D01*
X014686Y000471D01*
X014571Y000561D02*
X014571Y000606D01*
X014526Y000606D01*
X014526Y000561D01*
X014571Y000561D01*
X014972Y000606D02*
X015062Y000606D01*
X015017Y000651D02*
X015017Y000471D01*
X014972Y000426D01*
X015169Y000426D02*
X015214Y000471D01*
X015214Y000651D01*
X015259Y000606D02*
X015169Y000606D01*
X015373Y000561D02*
X015373Y000426D01*
X015553Y000426D02*
X015553Y000696D01*
X015508Y000606D02*
X015418Y000606D01*
X015373Y000561D01*
X015508Y000606D02*
X015553Y000561D01*
X012419Y000336D02*
X012373Y000336D01*
X012328Y000381D01*
X011535Y000336D02*
X011490Y000336D01*
X011444Y000381D01*
D13*
X004828Y003851D02*
X004578Y003601D01*
X003078Y003601D01*
X002828Y003851D01*
X002828Y004351D01*
X003078Y004601D01*
X004578Y004601D01*
X004828Y004851D01*
X004828Y005351D01*
X004578Y005601D01*
X004828Y005851D01*
X004828Y006351D01*
X004578Y006601D01*
X003078Y006601D01*
X002828Y006351D01*
X002828Y005851D01*
X003078Y005601D01*
X004578Y005601D01*
X003078Y005601D02*
X002828Y005351D01*
X002828Y004851D01*
X003078Y004601D01*
X004578Y004601D02*
X004828Y004351D01*
X004828Y003851D01*
M02*
