%
M48
M72
T01C0.0320
T02C0.0400
%
T01
X3328Y1351
X4328Y1351
X3828Y601
X9328Y2101
X9328Y3101
X12328Y3101
X12328Y2101
X12328Y5101
X12328Y6101
X8328Y6101
X8328Y5101
T02
X4328Y5101
X3328Y5101
X3328Y6101
X4328Y6101
X4328Y4101
X3328Y4101
X16328Y4101
X16328Y5101
X16328Y6101
X16328Y3101
X16328Y2101
X16328Y1101
M30
