G75*
G70*
%OFA0B0*%
%FSLAX24Y24*%
%IPPOS*%
%LPD*%
%AMOC8*
5,1,8,0,0,1.08239X$1,22.5*
%
%ADD10C,0.0560*%
%ADD11C,0.0848*%
%ADD12OC8,0.0820*%
%ADD13C,0.0820*%
%ADD14C,0.0050*%
%ADD15R,0.0820X0.0820*%
%ADD16C,0.0740*%
%ADD17R,0.0730X0.0730*%
%ADD18C,0.0730*%
%ADD19C,0.0780*%
%ADD20C,0.1380*%
%ADD21C,0.0420*%
D10*
X002433Y015314D02*
X002433Y015794D01*
X003433Y015794D02*
X003433Y015314D01*
X004433Y015314D02*
X004433Y015794D01*
X005433Y015794D02*
X005433Y015314D01*
X006433Y015314D02*
X006433Y015794D01*
X007433Y015794D02*
X007433Y015314D01*
X008433Y015314D02*
X008433Y015794D01*
X009433Y015794D02*
X009433Y015314D01*
X010433Y015314D02*
X010433Y015794D01*
X011433Y015794D02*
X011433Y015314D01*
X012433Y015314D02*
X012433Y015794D01*
X013433Y015794D02*
X013433Y015314D01*
X014433Y015314D02*
X014433Y015794D01*
X015433Y015794D02*
X015433Y015314D01*
X015433Y018314D02*
X015433Y018794D01*
X014433Y018794D02*
X014433Y018314D01*
X013433Y018314D02*
X013433Y018794D01*
X012433Y018794D02*
X012433Y018314D01*
X011433Y018314D02*
X011433Y018794D01*
X010433Y018794D02*
X010433Y018314D01*
X009433Y018314D02*
X009433Y018794D01*
X008433Y018794D02*
X008433Y018314D01*
X007433Y018314D02*
X007433Y018794D01*
X006433Y018794D02*
X006433Y018314D01*
X005433Y018314D02*
X005433Y018794D01*
X004433Y018794D02*
X004433Y018314D01*
X003433Y018314D02*
X003433Y018794D01*
X002433Y018794D02*
X002433Y018314D01*
D11*
X009433Y023804D03*
X017307Y023804D03*
D12*
X016293Y008554D03*
X016293Y007554D03*
X016293Y006554D03*
X015293Y006554D03*
X015293Y007554D03*
X015293Y008554D03*
D13*
X016073Y004584D03*
X016073Y002024D03*
X014293Y002024D03*
X012573Y002024D03*
X010793Y002024D03*
X010793Y004584D03*
X010193Y006554D03*
X010193Y007554D03*
X010193Y008554D03*
X010591Y011161D03*
X009591Y011161D03*
X008591Y011161D03*
X007591Y011161D03*
X006591Y011161D03*
X006219Y009444D03*
X005219Y009444D03*
X004219Y009444D03*
X003219Y009444D03*
X002219Y009444D03*
X001219Y009444D03*
X007293Y004584D03*
X009073Y004584D03*
X009073Y002024D03*
X007293Y002024D03*
X012573Y004584D03*
X014293Y004584D03*
X012591Y011161D03*
X011591Y011161D03*
X009233Y027274D03*
X008233Y027274D03*
D14*
X001779Y024700D02*
X001799Y024630D01*
X001805Y024558D01*
X001799Y024486D01*
X001779Y024416D01*
X001746Y024351D01*
X001700Y024295D01*
X001645Y024248D01*
X001581Y024212D01*
X001512Y024190D01*
X001439Y024182D01*
X001373Y024187D01*
X001309Y024204D01*
X001249Y024231D01*
X001194Y024268D01*
X001147Y024314D01*
X001108Y024368D01*
X001080Y024428D01*
X001062Y024491D01*
X001055Y024557D01*
X001062Y024623D01*
X001080Y024687D01*
X001109Y024746D01*
X001148Y024800D01*
X001195Y024846D01*
X001250Y024883D01*
X001310Y024910D01*
X001374Y024927D01*
X001440Y024931D01*
X001512Y024924D01*
X001581Y024902D01*
X001645Y024867D01*
X001700Y024820D01*
X001745Y024764D01*
X001779Y024700D01*
X001785Y024680D02*
X001078Y024680D01*
X001065Y024632D02*
X001799Y024632D01*
X001803Y024583D02*
X001058Y024583D01*
X001058Y024535D02*
X001803Y024535D01*
X001799Y024486D02*
X001063Y024486D01*
X001077Y024438D02*
X001785Y024438D01*
X001765Y024389D02*
X001098Y024389D01*
X001128Y024341D02*
X001737Y024341D01*
X001697Y024292D02*
X001170Y024292D01*
X001231Y024243D02*
X001637Y024243D01*
X001526Y024195D02*
X001344Y024195D01*
X001101Y024729D02*
X001764Y024729D01*
X001735Y024777D02*
X001131Y024777D01*
X001174Y024826D02*
X001694Y024826D01*
X001631Y024875D02*
X001237Y024875D01*
X001361Y024923D02*
X001514Y024923D01*
X001443Y021928D02*
X001515Y021921D01*
X001584Y021899D01*
X001648Y021864D01*
X001703Y021817D01*
X001748Y021761D01*
X001782Y021697D01*
X001802Y021627D01*
X001808Y021555D01*
X001802Y021483D01*
X001782Y021413D01*
X001749Y021348D01*
X001703Y021292D01*
X001648Y021245D01*
X001584Y021209D01*
X001515Y021187D01*
X001442Y021179D01*
X001376Y021184D01*
X001312Y021201D01*
X001252Y021228D01*
X001197Y021265D01*
X001150Y021311D01*
X001111Y021365D01*
X001083Y021425D01*
X001065Y021489D01*
X001058Y021554D01*
X001065Y021620D01*
X001083Y021684D01*
X001112Y021743D01*
X001151Y021797D01*
X001198Y021843D01*
X001253Y021880D01*
X001313Y021907D01*
X001377Y021924D01*
X001443Y021928D01*
X001538Y021913D02*
X001337Y021913D01*
X001230Y021865D02*
X001646Y021865D01*
X001704Y021816D02*
X001171Y021816D01*
X001130Y021768D02*
X001743Y021768D01*
X001770Y021719D02*
X001100Y021719D01*
X001079Y021671D02*
X001789Y021671D01*
X001803Y021622D02*
X001066Y021622D01*
X001060Y021574D02*
X001807Y021574D01*
X001806Y021525D02*
X001061Y021525D01*
X001068Y021476D02*
X001800Y021476D01*
X001786Y021428D02*
X001082Y021428D01*
X001105Y021379D02*
X001765Y021379D01*
X001735Y021331D02*
X001136Y021331D01*
X001180Y021282D02*
X001692Y021282D01*
X001628Y021234D02*
X001243Y021234D01*
X001373Y021185D02*
X001495Y021185D01*
X013586Y011362D02*
X013564Y011293D01*
X013556Y011221D01*
X013561Y011155D01*
X013577Y011091D01*
X013604Y011031D01*
X013642Y010976D01*
X013688Y010929D01*
X013741Y010890D01*
X013801Y010861D01*
X013865Y010843D01*
X013930Y010836D01*
X013996Y010843D01*
X014060Y010861D01*
X014120Y010889D01*
X014173Y010928D01*
X014219Y010975D01*
X014257Y011030D01*
X014284Y011090D01*
X014300Y011154D01*
X014305Y011220D01*
X014297Y011293D01*
X014275Y011362D01*
X014240Y011426D01*
X014193Y011481D01*
X014136Y011527D01*
X014072Y011560D01*
X014002Y011580D01*
X013929Y011586D01*
X013857Y011580D01*
X013788Y011560D01*
X013724Y011526D01*
X013667Y011481D01*
X013621Y011426D01*
X013586Y011362D01*
X013595Y011379D02*
X014266Y011379D01*
X014285Y011331D02*
X013576Y011331D01*
X013563Y011282D02*
X014298Y011282D01*
X014304Y011234D02*
X013558Y011234D01*
X013559Y011185D02*
X014303Y011185D01*
X014296Y011137D02*
X013566Y011137D01*
X013579Y011088D02*
X014283Y011088D01*
X014261Y011040D02*
X013601Y011040D01*
X013631Y010991D02*
X014230Y010991D01*
X014188Y010943D02*
X013674Y010943D01*
X013736Y010894D02*
X014126Y010894D01*
X014006Y010846D02*
X013856Y010846D01*
X013623Y011428D02*
X014238Y011428D01*
X014197Y011477D02*
X013663Y011477D01*
X013722Y011525D02*
X014138Y011525D01*
X014024Y011574D02*
X013835Y011574D01*
X016566Y011282D02*
X017302Y011282D01*
X017300Y011296D02*
X017308Y011223D01*
X017303Y011157D01*
X017287Y011093D01*
X017260Y011033D01*
X017222Y010978D01*
X017176Y010931D01*
X017123Y010892D01*
X017063Y010864D01*
X016999Y010846D01*
X016933Y010839D01*
X016868Y010846D01*
X016804Y010864D01*
X016744Y010893D01*
X016691Y010932D01*
X016645Y010979D01*
X016607Y011034D01*
X016580Y011094D01*
X016564Y011158D01*
X016559Y011224D01*
X016567Y011296D01*
X016589Y011365D01*
X016624Y011429D01*
X016670Y011484D01*
X016727Y011529D01*
X016791Y011563D01*
X016860Y011583D01*
X016932Y011589D01*
X017005Y011583D01*
X017075Y011563D01*
X017139Y011530D01*
X017196Y011484D01*
X017243Y011429D01*
X017278Y011365D01*
X017300Y011296D01*
X017289Y011331D02*
X016578Y011331D01*
X016597Y011379D02*
X017270Y011379D01*
X017243Y011428D02*
X016623Y011428D01*
X016664Y011477D02*
X017203Y011477D01*
X017145Y011525D02*
X016721Y011525D01*
X016828Y011574D02*
X017038Y011574D01*
X017298Y011137D02*
X016570Y011137D01*
X016562Y011185D02*
X017306Y011185D01*
X017307Y011234D02*
X016560Y011234D01*
X016583Y011088D02*
X017285Y011088D01*
X017263Y011040D02*
X016605Y011040D01*
X016636Y010991D02*
X017231Y010991D01*
X017188Y010943D02*
X016680Y010943D01*
X016743Y010894D02*
X017125Y010894D01*
X016996Y010846D02*
X016873Y010846D01*
D15*
X005591Y011161D03*
D16*
X006433Y019554D03*
X007433Y019554D03*
D17*
X017013Y019114D03*
D18*
X017013Y020114D03*
X010418Y019554D03*
X008449Y019554D03*
X009418Y014554D03*
X007449Y014554D03*
X006418Y012179D03*
X004449Y012179D03*
D19*
X004433Y024570D03*
X004433Y026539D03*
D20*
X001233Y001361D03*
X017363Y001350D03*
X017370Y027310D03*
X001233Y027334D03*
D21*
X003473Y017354D03*
X004913Y016554D03*
X004433Y014474D03*
X004913Y013674D03*
X005553Y012714D03*
X006513Y013034D03*
X006993Y012394D03*
X007473Y010154D03*
X008113Y009994D03*
X007473Y008874D03*
X009073Y007594D03*
X010833Y009674D03*
X011633Y007594D03*
X012753Y005994D03*
X013393Y005674D03*
X013233Y006634D03*
X011313Y005194D03*
X012913Y010314D03*
X014033Y012234D03*
X014833Y013354D03*
X015153Y013994D03*
X015633Y012714D03*
X015153Y009994D03*
X016113Y009674D03*
X013393Y013674D03*
X011633Y013034D03*
X010513Y013994D03*
X010193Y014474D03*
X009553Y012394D03*
X010193Y011914D03*
X008913Y012074D03*
X008593Y013674D03*
X008913Y017674D03*
X010193Y017674D03*
X002513Y013354D03*
X003153Y005194D03*
X017713Y005194D03*
M02*
