%
M48
M72
T01C0.0200
T02C0.0276
T03C0.0320
T04C0.0354
T05C0.0400
T06C0.0512
T07C0.1300
%
T01
X3032Y4952
X7352Y8632
X7992Y9752
X7352Y9912
X8792Y11832
X9432Y12152
X10072Y11672
X10392Y13752
X10072Y14232
X8472Y13432
X6872Y12152
X6392Y12792
X5432Y12472
X4792Y13432
X4312Y14232
X4792Y16312
X3352Y17112
X2392Y13112
X8792Y17432
X10072Y17432
X11512Y12792
X13272Y13432
X13912Y11992
X14712Y13112
X15032Y13752
X15387Y12472
X15032Y9752
X13742Y9432
X12792Y10072
X11062Y8312
X11512Y7352
X12632Y5752
X13112Y6392
X13272Y5432
X13812Y7312
X11192Y4952
X8952Y7352
X10712Y9432
X17592Y4952
T02
X9297Y14312
X7328Y14312
X6297Y11937
X4328Y11937
X8328Y19312
X10297Y19312
X16892Y18872
X16892Y19872
T03
X15312Y18312
X14312Y18312
X13312Y18312
X12312Y18312
X11312Y18312
X10312Y18312
X9312Y18312
X8312Y18312
X7312Y18312
X7312Y19312
X6312Y19312
X6312Y18312
X5312Y18312
X4312Y18312
X3312Y18312
X2312Y18312
X2312Y15312
X3312Y15312
X4312Y15312
X5312Y15312
X6312Y15312
X7312Y15312
X8312Y15312
X9312Y15312
X10312Y15312
X11312Y15312
X12312Y15312
X13312Y15312
X14312Y15312
X15312Y15312
T04
X4312Y24328
X4312Y26297
T05
X1312Y24312
X1312Y21312
X8112Y27032
X9112Y27032
X9470Y10919
X10470Y10919
X11470Y10919
X12470Y10919
X13812Y10972
X14952Y8312
X14952Y7312
X14952Y6312
X15952Y6312
X15952Y7312
X15952Y8312
X16812Y10972
X15952Y4342
X14172Y4342
X14172Y1782
X15952Y1782
X12452Y1782
X10672Y1782
X10672Y4342
X10072Y6312
X10072Y7312
X10072Y8312
X8470Y10919
X7470Y10919
X6470Y10919
X5470Y10919
X5098Y9202
X4098Y9202
X3098Y9202
X2098Y9202
X1098Y9202
X6098Y9202
X7172Y4342
X8952Y4342
X8952Y1782
X7172Y1782
X12452Y4342
T06
X9312Y23562
X17186Y23562
T07
X1237Y1245
X17117Y1233
X17124Y26943
X1237Y26967
M30
