G75*
G70*
%OFA0B0*%
%FSLAX24Y24*%
%IPPOS*%
%LPD*%
%AMOC8*
5,1,8,0,0,1.08239X$1,22.5*
%
%ADD10C,0.0560*%
%ADD11C,0.0848*%
%ADD12OC8,0.0820*%
%ADD13C,0.0820*%
%ADD14C,0.0050*%
%ADD15R,0.0820X0.0820*%
%ADD16C,0.0740*%
%ADD17R,0.0730X0.0730*%
%ADD18C,0.0730*%
%ADD19C,0.0780*%
%ADD20C,0.1380*%
%ADD21C,0.0420*%
D10*
X002312Y015072D02*
X002312Y015552D01*
X003312Y015552D02*
X003312Y015072D01*
X004312Y015072D02*
X004312Y015552D01*
X005312Y015552D02*
X005312Y015072D01*
X006312Y015072D02*
X006312Y015552D01*
X007312Y015552D02*
X007312Y015072D01*
X008312Y015072D02*
X008312Y015552D01*
X009312Y015552D02*
X009312Y015072D01*
X010312Y015072D02*
X010312Y015552D01*
X011312Y015552D02*
X011312Y015072D01*
X012312Y015072D02*
X012312Y015552D01*
X013312Y015552D02*
X013312Y015072D01*
X014312Y015072D02*
X014312Y015552D01*
X015312Y015552D02*
X015312Y015072D01*
X015312Y018072D02*
X015312Y018552D01*
X014312Y018552D02*
X014312Y018072D01*
X013312Y018072D02*
X013312Y018552D01*
X012312Y018552D02*
X012312Y018072D01*
X011312Y018072D02*
X011312Y018552D01*
X010312Y018552D02*
X010312Y018072D01*
X009312Y018072D02*
X009312Y018552D01*
X008312Y018552D02*
X008312Y018072D01*
X007312Y018072D02*
X007312Y018552D01*
X006312Y018552D02*
X006312Y018072D01*
X005312Y018072D02*
X005312Y018552D01*
X004312Y018552D02*
X004312Y018072D01*
X003312Y018072D02*
X003312Y018552D01*
X002312Y018552D02*
X002312Y018072D01*
D11*
X009312Y023562D03*
X017186Y023562D03*
D12*
X015952Y008312D03*
X015952Y007312D03*
X015952Y006312D03*
X014952Y006312D03*
X014952Y007312D03*
X014952Y008312D03*
D13*
X012470Y010919D03*
X011470Y010919D03*
X010470Y010919D03*
X009470Y010919D03*
X008470Y010919D03*
X007470Y010919D03*
X006470Y010919D03*
X006098Y009202D03*
X005098Y009202D03*
X004098Y009202D03*
X003098Y009202D03*
X002098Y009202D03*
X001098Y009202D03*
X007172Y004342D03*
X008952Y004342D03*
X010072Y006312D03*
X010072Y007312D03*
X010072Y008312D03*
X010672Y004342D03*
X012452Y004342D03*
X012452Y001782D03*
X010672Y001782D03*
X008952Y001782D03*
X007172Y001782D03*
X014172Y001782D03*
X015952Y001782D03*
X015952Y004342D03*
X014172Y004342D03*
X009112Y027032D03*
X008112Y027032D03*
D14*
X001468Y024390D02*
X001480Y024354D01*
X001484Y024315D01*
X001481Y024277D01*
X001469Y024241D01*
X001450Y024208D01*
X001423Y024180D01*
X001391Y024159D01*
X001355Y024146D01*
X001317Y024140D01*
X001277Y024144D01*
X001239Y024156D01*
X001205Y024177D01*
X001175Y024205D01*
X001153Y024238D01*
X001139Y024276D01*
X001133Y024315D01*
X001139Y024355D01*
X001152Y024392D01*
X001174Y024425D01*
X001202Y024453D01*
X001236Y024473D01*
X001274Y024486D01*
X001313Y024489D01*
X001352Y024485D01*
X001388Y024472D01*
X001421Y024451D01*
X001448Y024423D01*
X001468Y024390D01*
X001152Y024390D01*
X001137Y024341D02*
X001482Y024341D01*
X001482Y024293D02*
X001137Y024293D01*
X001151Y024244D02*
X001470Y024244D01*
X001438Y024196D02*
X001185Y024196D01*
X001267Y024147D02*
X001360Y024147D01*
X001433Y024438D02*
X001188Y024438D01*
X001288Y024487D02*
X001333Y024487D01*
X001316Y021486D02*
X001277Y021483D01*
X001239Y021470D01*
X001205Y021450D01*
X001177Y021422D01*
X001155Y021389D01*
X001142Y021352D01*
X001136Y021312D01*
X001142Y021273D01*
X001156Y021235D01*
X001178Y021202D01*
X001208Y021174D01*
X001242Y021153D01*
X001280Y021141D01*
X001320Y021137D01*
X001358Y021143D01*
X001394Y021156D01*
X001426Y021177D01*
X001453Y021205D01*
X001472Y021238D01*
X001484Y021274D01*
X001487Y021312D01*
X001483Y021351D01*
X001471Y021387D01*
X001451Y021420D01*
X001424Y021448D01*
X001391Y021469D01*
X001355Y021482D01*
X001316Y021486D01*
X001367Y021477D02*
X001261Y021477D01*
X001184Y021429D02*
X001442Y021429D01*
X001473Y021380D02*
X001152Y021380D01*
X001139Y021332D02*
X001485Y021332D01*
X001485Y021283D02*
X001141Y021283D01*
X001156Y021235D02*
X001470Y021235D01*
X001435Y021186D02*
X001195Y021186D01*
X001320Y021138D02*
X001321Y021138D01*
X013674Y011081D02*
X013702Y011108D01*
X013734Y011128D01*
X013771Y011140D01*
X013809Y011144D01*
X013848Y011141D01*
X013884Y011129D01*
X013917Y011110D01*
X013945Y011083D01*
X013966Y011051D01*
X013979Y011015D01*
X013984Y010977D01*
X013981Y010937D01*
X013969Y010899D01*
X013948Y010865D01*
X013920Y010835D01*
X013887Y010813D01*
X013849Y010799D01*
X013809Y010793D01*
X013770Y010799D01*
X013733Y010812D01*
X013700Y010834D01*
X013672Y010862D01*
X013652Y010896D01*
X013639Y010934D01*
X013635Y010973D01*
X013640Y011012D01*
X013653Y011048D01*
X013674Y011081D01*
X013683Y011089D02*
X013938Y011089D01*
X013970Y011041D02*
X013650Y011041D01*
X013638Y010992D02*
X013982Y010992D01*
X013981Y010943D02*
X013638Y010943D01*
X013653Y010895D02*
X013966Y010895D01*
X013931Y010846D02*
X013688Y010846D01*
X013776Y010798D02*
X013841Y010798D01*
X013858Y011138D02*
X013763Y011138D01*
X016638Y010976D02*
X016643Y011015D01*
X016656Y011051D01*
X016677Y011084D01*
X016705Y011111D01*
X016737Y011131D01*
X016774Y011143D01*
X016812Y011147D01*
X016851Y011144D01*
X016887Y011132D01*
X016920Y011113D01*
X016948Y011086D01*
X016969Y011054D01*
X016982Y011018D01*
X016987Y010980D01*
X016984Y010940D01*
X016972Y010902D01*
X016951Y010868D01*
X016923Y010838D01*
X016890Y010816D01*
X016852Y010802D01*
X016812Y010796D01*
X016773Y010802D01*
X016736Y010815D01*
X016703Y010837D01*
X016675Y010865D01*
X016655Y010899D01*
X016642Y010937D01*
X016638Y010976D01*
X016640Y010992D02*
X016986Y010992D01*
X016984Y010943D02*
X016642Y010943D01*
X016657Y010895D02*
X016967Y010895D01*
X016931Y010846D02*
X016694Y010846D01*
X016802Y010798D02*
X016822Y010798D01*
X016974Y011041D02*
X016652Y011041D01*
X016682Y011089D02*
X016945Y011089D01*
X016871Y011138D02*
X016757Y011138D01*
D15*
X005470Y010919D03*
D16*
X006312Y019312D03*
X007312Y019312D03*
D17*
X016892Y018872D03*
D18*
X016892Y019872D03*
X010297Y019312D03*
X008328Y019312D03*
X009297Y014312D03*
X007328Y014312D03*
X006297Y011937D03*
X004328Y011937D03*
D19*
X004312Y024328D03*
X004312Y026297D03*
D20*
X001237Y001245D03*
X017117Y001233D03*
X017124Y026943D03*
X001237Y026967D03*
D21*
X003352Y017112D03*
X004792Y016312D03*
X004312Y014232D03*
X004792Y013432D03*
X005432Y012472D03*
X006392Y012792D03*
X006872Y012152D03*
X007352Y009912D03*
X007992Y009752D03*
X007352Y008632D03*
X008952Y007352D03*
X010712Y009432D03*
X011062Y008312D03*
X011512Y007352D03*
X012632Y005752D03*
X013112Y006392D03*
X013272Y005432D03*
X013812Y007312D03*
X013742Y009432D03*
X012792Y010072D03*
X013912Y011992D03*
X014712Y013112D03*
X015032Y013752D03*
X015387Y012472D03*
X015032Y009752D03*
X013272Y013432D03*
X011512Y012792D03*
X010392Y013752D03*
X010072Y014232D03*
X009432Y012152D03*
X010072Y011672D03*
X008792Y011832D03*
X008472Y013432D03*
X008792Y017432D03*
X010072Y017432D03*
X002392Y013112D03*
X003032Y004952D03*
X011192Y004952D03*
X017592Y004952D03*
M02*
