G75*
G70*
%OFA0B0*%
%FSLAX24Y24*%
%IPPOS*%
%LPD*%
%AMOC8*
5,1,8,0,0,1.08239X$1,22.5*
%
%ADD10C,0.0560*%
%ADD11C,0.0848*%
%ADD12OC8,0.0820*%
%ADD13C,0.0820*%
%ADD14C,0.0050*%
%ADD15R,0.0820X0.0820*%
%ADD16C,0.0740*%
%ADD17R,0.0730X0.0730*%
%ADD18C,0.0730*%
%ADD19C,0.0780*%
%ADD20C,0.1380*%
%ADD21C,0.0420*%
D10*
X002433Y015314D02*
X002433Y015794D01*
X003433Y015794D02*
X003433Y015314D01*
X004433Y015314D02*
X004433Y015794D01*
X005433Y015794D02*
X005433Y015314D01*
X006433Y015314D02*
X006433Y015794D01*
X007433Y015794D02*
X007433Y015314D01*
X008433Y015314D02*
X008433Y015794D01*
X009433Y015794D02*
X009433Y015314D01*
X010433Y015314D02*
X010433Y015794D01*
X011433Y015794D02*
X011433Y015314D01*
X012433Y015314D02*
X012433Y015794D01*
X013433Y015794D02*
X013433Y015314D01*
X014433Y015314D02*
X014433Y015794D01*
X015433Y015794D02*
X015433Y015314D01*
X015433Y018314D02*
X015433Y018794D01*
X014433Y018794D02*
X014433Y018314D01*
X013433Y018314D02*
X013433Y018794D01*
X012433Y018794D02*
X012433Y018314D01*
X011433Y018314D02*
X011433Y018794D01*
X010433Y018794D02*
X010433Y018314D01*
X009433Y018314D02*
X009433Y018794D01*
X008433Y018794D02*
X008433Y018314D01*
X007433Y018314D02*
X007433Y018794D01*
X006433Y018794D02*
X006433Y018314D01*
X005433Y018314D02*
X005433Y018794D01*
X004433Y018794D02*
X004433Y018314D01*
X003433Y018314D02*
X003433Y018794D01*
X002433Y018794D02*
X002433Y018314D01*
D11*
X009433Y023804D03*
X017307Y023804D03*
D12*
X016293Y008554D03*
X016293Y007554D03*
X016293Y006554D03*
X015293Y006554D03*
X015293Y007554D03*
X015293Y008554D03*
D13*
X016073Y004584D03*
X016073Y002024D03*
X014293Y002024D03*
X012573Y002024D03*
X010793Y002024D03*
X010793Y004584D03*
X010193Y006554D03*
X010193Y007554D03*
X010193Y008554D03*
X010591Y011161D03*
X009591Y011161D03*
X008591Y011161D03*
X007591Y011161D03*
X006591Y011161D03*
X006219Y009444D03*
X005219Y009444D03*
X004219Y009444D03*
X003219Y009444D03*
X002219Y009444D03*
X001219Y009444D03*
X007293Y004584D03*
X009073Y004584D03*
X009073Y002024D03*
X007293Y002024D03*
X012573Y004584D03*
X014293Y004584D03*
X012591Y011161D03*
X011591Y011161D03*
X009233Y027274D03*
X008233Y027274D03*
D14*
X001589Y024632D02*
X001601Y024596D01*
X001605Y024557D01*
X001602Y024519D01*
X001590Y024483D01*
X001571Y024450D01*
X001544Y024422D01*
X001512Y024401D01*
X001476Y024388D01*
X001438Y024382D01*
X001398Y024386D01*
X001360Y024398D01*
X001326Y024419D01*
X001296Y024446D01*
X001274Y024480D01*
X001260Y024517D01*
X001254Y024557D01*
X001259Y024597D01*
X001273Y024634D01*
X001295Y024667D01*
X001323Y024695D01*
X001357Y024715D01*
X001395Y024728D01*
X001434Y024731D01*
X001473Y024727D01*
X001509Y024714D01*
X001542Y024693D01*
X001569Y024665D01*
X001589Y024632D01*
X001272Y024632D01*
X001258Y024583D02*
X001603Y024583D01*
X001603Y024535D02*
X001258Y024535D01*
X001272Y024486D02*
X001591Y024486D01*
X001559Y024438D02*
X001306Y024438D01*
X001388Y024389D02*
X001481Y024389D01*
X001554Y024680D02*
X001309Y024680D01*
X001409Y024729D02*
X001454Y024729D01*
X001437Y021728D02*
X001476Y021724D01*
X001512Y021711D01*
X001545Y021690D01*
X001572Y021662D01*
X001592Y021629D01*
X001604Y021593D01*
X001608Y021554D01*
X001605Y021516D01*
X001593Y021480D01*
X001574Y021447D01*
X001547Y021419D01*
X001515Y021398D01*
X001479Y021385D01*
X001441Y021379D01*
X001401Y021383D01*
X001363Y021395D01*
X001329Y021416D01*
X001299Y021443D01*
X001277Y021477D01*
X001263Y021514D01*
X001257Y021554D01*
X001262Y021594D01*
X001276Y021631D01*
X001298Y021664D01*
X001326Y021692D01*
X001360Y021712D01*
X001398Y021725D01*
X001437Y021728D01*
X001488Y021719D02*
X001382Y021719D01*
X001305Y021671D02*
X001563Y021671D01*
X001594Y021622D02*
X001273Y021622D01*
X001260Y021574D02*
X001606Y021574D01*
X001606Y021525D02*
X001261Y021525D01*
X001277Y021476D02*
X001591Y021476D01*
X001556Y021428D02*
X001316Y021428D01*
X001441Y021379D02*
X001442Y021379D01*
X013774Y011290D02*
X013761Y011254D01*
X013756Y011215D01*
X013760Y011176D01*
X013773Y011138D01*
X013793Y011104D01*
X013821Y011076D01*
X013854Y011054D01*
X013891Y011040D01*
X013930Y011035D01*
X013970Y011041D01*
X014008Y011055D01*
X014041Y011077D01*
X014069Y011106D01*
X014090Y011141D01*
X014102Y011179D01*
X014105Y011219D01*
X014100Y011257D01*
X014087Y011293D01*
X014066Y011325D01*
X014038Y011352D01*
X014005Y011371D01*
X013969Y011383D01*
X013930Y011386D01*
X013892Y011382D01*
X013855Y011370D01*
X013823Y011350D01*
X013795Y011323D01*
X013774Y011290D01*
X013771Y011282D02*
X014091Y011282D01*
X014103Y011234D02*
X013759Y011234D01*
X013759Y011185D02*
X014102Y011185D01*
X014087Y011137D02*
X013774Y011137D01*
X013809Y011088D02*
X014052Y011088D01*
X013962Y011040D02*
X013897Y011040D01*
X013803Y011331D02*
X014059Y011331D01*
X013979Y011379D02*
X013884Y011379D01*
X016759Y011218D02*
X016764Y011257D01*
X016777Y011293D01*
X016798Y011326D01*
X016826Y011353D01*
X016858Y011373D01*
X016895Y011385D01*
X016933Y011389D01*
X016972Y011386D01*
X017008Y011374D01*
X017041Y011355D01*
X017069Y011328D01*
X017090Y011296D01*
X017103Y011260D01*
X017108Y011222D01*
X017105Y011182D01*
X017093Y011144D01*
X017072Y011109D01*
X017044Y011080D01*
X017011Y011058D01*
X016973Y011044D01*
X016933Y011038D01*
X016894Y011043D01*
X016857Y011057D01*
X016824Y011079D01*
X016796Y011107D01*
X016776Y011141D01*
X016763Y011179D01*
X016759Y011218D01*
X016761Y011234D02*
X017107Y011234D01*
X017105Y011185D02*
X016763Y011185D01*
X016778Y011137D02*
X017088Y011137D01*
X017052Y011088D02*
X016815Y011088D01*
X016923Y011040D02*
X016943Y011040D01*
X017095Y011282D02*
X016773Y011282D01*
X016803Y011331D02*
X017066Y011331D01*
X016991Y011379D02*
X016878Y011379D01*
D15*
X005591Y011161D03*
D16*
X006433Y019554D03*
X007433Y019554D03*
D17*
X017013Y019114D03*
D18*
X017013Y020114D03*
X010418Y019554D03*
X008449Y019554D03*
X009418Y014554D03*
X007449Y014554D03*
X006418Y012179D03*
X004449Y012179D03*
D19*
X004433Y024570D03*
X004433Y026539D03*
D20*
X001233Y001361D03*
X017363Y001350D03*
X017370Y027310D03*
X001233Y027334D03*
D21*
X003473Y017354D03*
X004913Y016554D03*
X004433Y014474D03*
X004913Y013674D03*
X005553Y012714D03*
X006513Y013034D03*
X006993Y012394D03*
X007473Y010154D03*
X008113Y009994D03*
X007473Y008874D03*
X009073Y007594D03*
X010833Y009674D03*
X011633Y007594D03*
X012753Y005994D03*
X013393Y005674D03*
X013233Y006634D03*
X011313Y005194D03*
X012913Y010314D03*
X014033Y012234D03*
X014833Y013354D03*
X015153Y013994D03*
X015633Y012714D03*
X015153Y009994D03*
X016113Y009674D03*
X013393Y013674D03*
X011633Y013034D03*
X010513Y013994D03*
X010193Y014474D03*
X009553Y012394D03*
X010193Y011914D03*
X008913Y012074D03*
X008593Y013674D03*
X008913Y017674D03*
X010193Y017674D03*
X002513Y013354D03*
X003153Y005194D03*
X017713Y005194D03*
M02*
