G75*
G70*
%OFA0B0*%
%FSLAX24Y24*%
%IPPOS*%
%LPD*%
%AMOC8*
5,1,8,0,0,1.08239X$1,22.5*
%
%ADD10C,0.0000*%
D10*
X000433Y000554D02*
X000433Y028113D01*
X018150Y028113D01*
X018150Y000554D01*
X000433Y000554D01*
X000583Y001361D02*
X000585Y001411D01*
X000591Y001461D01*
X000601Y001511D01*
X000614Y001559D01*
X000631Y001607D01*
X000652Y001653D01*
X000676Y001697D01*
X000704Y001739D01*
X000735Y001779D01*
X000769Y001816D01*
X000806Y001851D01*
X000845Y001882D01*
X000886Y001911D01*
X000930Y001936D01*
X000976Y001958D01*
X001023Y001976D01*
X001071Y001990D01*
X001120Y002001D01*
X001170Y002008D01*
X001220Y002011D01*
X001271Y002010D01*
X001321Y002005D01*
X001371Y001996D01*
X001419Y001984D01*
X001467Y001967D01*
X001513Y001947D01*
X001558Y001924D01*
X001601Y001897D01*
X001641Y001867D01*
X001679Y001834D01*
X001714Y001798D01*
X001747Y001759D01*
X001776Y001718D01*
X001802Y001675D01*
X001825Y001630D01*
X001844Y001583D01*
X001859Y001535D01*
X001871Y001486D01*
X001879Y001436D01*
X001883Y001386D01*
X001883Y001336D01*
X001879Y001286D01*
X001871Y001236D01*
X001859Y001187D01*
X001844Y001139D01*
X001825Y001092D01*
X001802Y001047D01*
X001776Y001004D01*
X001747Y000963D01*
X001714Y000924D01*
X001679Y000888D01*
X001641Y000855D01*
X001601Y000825D01*
X001558Y000798D01*
X001513Y000775D01*
X001467Y000755D01*
X001419Y000738D01*
X001371Y000726D01*
X001321Y000717D01*
X001271Y000712D01*
X001220Y000711D01*
X001170Y000714D01*
X001120Y000721D01*
X001071Y000732D01*
X001023Y000746D01*
X000976Y000764D01*
X000930Y000786D01*
X000886Y000811D01*
X000845Y000840D01*
X000806Y000871D01*
X000769Y000906D01*
X000735Y000943D01*
X000704Y000983D01*
X000676Y001025D01*
X000652Y001069D01*
X000631Y001115D01*
X000614Y001163D01*
X000601Y001211D01*
X000591Y001261D01*
X000585Y001311D01*
X000583Y001361D01*
X000583Y027334D02*
X000585Y027384D01*
X000591Y027434D01*
X000601Y027484D01*
X000614Y027532D01*
X000631Y027580D01*
X000652Y027626D01*
X000676Y027670D01*
X000704Y027712D01*
X000735Y027752D01*
X000769Y027789D01*
X000806Y027824D01*
X000845Y027855D01*
X000886Y027884D01*
X000930Y027909D01*
X000976Y027931D01*
X001023Y027949D01*
X001071Y027963D01*
X001120Y027974D01*
X001170Y027981D01*
X001220Y027984D01*
X001271Y027983D01*
X001321Y027978D01*
X001371Y027969D01*
X001419Y027957D01*
X001467Y027940D01*
X001513Y027920D01*
X001558Y027897D01*
X001601Y027870D01*
X001641Y027840D01*
X001679Y027807D01*
X001714Y027771D01*
X001747Y027732D01*
X001776Y027691D01*
X001802Y027648D01*
X001825Y027603D01*
X001844Y027556D01*
X001859Y027508D01*
X001871Y027459D01*
X001879Y027409D01*
X001883Y027359D01*
X001883Y027309D01*
X001879Y027259D01*
X001871Y027209D01*
X001859Y027160D01*
X001844Y027112D01*
X001825Y027065D01*
X001802Y027020D01*
X001776Y026977D01*
X001747Y026936D01*
X001714Y026897D01*
X001679Y026861D01*
X001641Y026828D01*
X001601Y026798D01*
X001558Y026771D01*
X001513Y026748D01*
X001467Y026728D01*
X001419Y026711D01*
X001371Y026699D01*
X001321Y026690D01*
X001271Y026685D01*
X001220Y026684D01*
X001170Y026687D01*
X001120Y026694D01*
X001071Y026705D01*
X001023Y026719D01*
X000976Y026737D01*
X000930Y026759D01*
X000886Y026784D01*
X000845Y026813D01*
X000806Y026844D01*
X000769Y026879D01*
X000735Y026916D01*
X000704Y026956D01*
X000676Y026998D01*
X000652Y027042D01*
X000631Y027088D01*
X000614Y027136D01*
X000601Y027184D01*
X000591Y027234D01*
X000585Y027284D01*
X000583Y027334D01*
X016720Y027310D02*
X016722Y027360D01*
X016728Y027410D01*
X016738Y027460D01*
X016751Y027508D01*
X016768Y027556D01*
X016789Y027602D01*
X016813Y027646D01*
X016841Y027688D01*
X016872Y027728D01*
X016906Y027765D01*
X016943Y027800D01*
X016982Y027831D01*
X017023Y027860D01*
X017067Y027885D01*
X017113Y027907D01*
X017160Y027925D01*
X017208Y027939D01*
X017257Y027950D01*
X017307Y027957D01*
X017357Y027960D01*
X017408Y027959D01*
X017458Y027954D01*
X017508Y027945D01*
X017556Y027933D01*
X017604Y027916D01*
X017650Y027896D01*
X017695Y027873D01*
X017738Y027846D01*
X017778Y027816D01*
X017816Y027783D01*
X017851Y027747D01*
X017884Y027708D01*
X017913Y027667D01*
X017939Y027624D01*
X017962Y027579D01*
X017981Y027532D01*
X017996Y027484D01*
X018008Y027435D01*
X018016Y027385D01*
X018020Y027335D01*
X018020Y027285D01*
X018016Y027235D01*
X018008Y027185D01*
X017996Y027136D01*
X017981Y027088D01*
X017962Y027041D01*
X017939Y026996D01*
X017913Y026953D01*
X017884Y026912D01*
X017851Y026873D01*
X017816Y026837D01*
X017778Y026804D01*
X017738Y026774D01*
X017695Y026747D01*
X017650Y026724D01*
X017604Y026704D01*
X017556Y026687D01*
X017508Y026675D01*
X017458Y026666D01*
X017408Y026661D01*
X017357Y026660D01*
X017307Y026663D01*
X017257Y026670D01*
X017208Y026681D01*
X017160Y026695D01*
X017113Y026713D01*
X017067Y026735D01*
X017023Y026760D01*
X016982Y026789D01*
X016943Y026820D01*
X016906Y026855D01*
X016872Y026892D01*
X016841Y026932D01*
X016813Y026974D01*
X016789Y027018D01*
X016768Y027064D01*
X016751Y027112D01*
X016738Y027160D01*
X016728Y027210D01*
X016722Y027260D01*
X016720Y027310D01*
X016713Y001350D02*
X016715Y001400D01*
X016721Y001450D01*
X016731Y001500D01*
X016744Y001548D01*
X016761Y001596D01*
X016782Y001642D01*
X016806Y001686D01*
X016834Y001728D01*
X016865Y001768D01*
X016899Y001805D01*
X016936Y001840D01*
X016975Y001871D01*
X017016Y001900D01*
X017060Y001925D01*
X017106Y001947D01*
X017153Y001965D01*
X017201Y001979D01*
X017250Y001990D01*
X017300Y001997D01*
X017350Y002000D01*
X017401Y001999D01*
X017451Y001994D01*
X017501Y001985D01*
X017549Y001973D01*
X017597Y001956D01*
X017643Y001936D01*
X017688Y001913D01*
X017731Y001886D01*
X017771Y001856D01*
X017809Y001823D01*
X017844Y001787D01*
X017877Y001748D01*
X017906Y001707D01*
X017932Y001664D01*
X017955Y001619D01*
X017974Y001572D01*
X017989Y001524D01*
X018001Y001475D01*
X018009Y001425D01*
X018013Y001375D01*
X018013Y001325D01*
X018009Y001275D01*
X018001Y001225D01*
X017989Y001176D01*
X017974Y001128D01*
X017955Y001081D01*
X017932Y001036D01*
X017906Y000993D01*
X017877Y000952D01*
X017844Y000913D01*
X017809Y000877D01*
X017771Y000844D01*
X017731Y000814D01*
X017688Y000787D01*
X017643Y000764D01*
X017597Y000744D01*
X017549Y000727D01*
X017501Y000715D01*
X017451Y000706D01*
X017401Y000701D01*
X017350Y000700D01*
X017300Y000703D01*
X017250Y000710D01*
X017201Y000721D01*
X017153Y000735D01*
X017106Y000753D01*
X017060Y000775D01*
X017016Y000800D01*
X016975Y000829D01*
X016936Y000860D01*
X016899Y000895D01*
X016865Y000932D01*
X016834Y000972D01*
X016806Y001014D01*
X016782Y001058D01*
X016761Y001104D01*
X016744Y001152D01*
X016731Y001200D01*
X016721Y001250D01*
X016715Y001300D01*
X016713Y001350D01*
M02*
