%
M48
M72
T01C0.0200
T02C0.0276
T03C0.0320
T04C0.0354
T05C0.0400
T06C0.0512
T07C0.1300
%
T01
X3153Y5194
X7473Y8874
X7473Y10154
X8113Y9994
X8913Y12074
X9553Y12394
X10193Y11914
X10513Y13994
X10193Y14474
X8593Y13674
X6993Y12394
X6513Y13034
X5553Y12714
X4913Y13674
X4433Y14474
X4913Y16554
X3473Y17354
X2513Y13354
X8913Y17674
X10193Y17674
X11633Y13034
X13393Y13674
X14033Y12234
X14833Y13354
X15153Y13994
X15633Y12714
X15153Y9994
X16113Y9674
X13233Y6634
X12753Y5994
X13393Y5674
X11633Y7594
X10833Y9674
X9073Y7594
X11313Y5194
X12913Y10314
X17713Y5194
T02
X9418Y14554
X7449Y14554
X6418Y12179
X4449Y12179
X8449Y19554
X10418Y19554
X17013Y19114
X17013Y20114
T03
X15433Y18554
X14433Y18554
X13433Y18554
X12433Y18554
X11433Y18554
X10433Y18554
X9433Y18554
X8433Y18554
X7433Y18554
X7433Y19554
X6433Y19554
X6433Y18554
X5433Y18554
X4433Y18554
X3433Y18554
X2433Y18554
X2433Y15554
X3433Y15554
X4433Y15554
X5433Y15554
X6433Y15554
X7433Y15554
X8433Y15554
X9433Y15554
X10433Y15554
X11433Y15554
X12433Y15554
X13433Y15554
X14433Y15554
X15433Y15554
T04
X4433Y24570
X4433Y26539
T05
X1433Y24554
X1433Y21554
X5591Y11161
X6591Y11161
X7591Y11161
X8591Y11161
X9591Y11161
X10591Y11161
X11591Y11161
X12591Y11161
X13933Y11214
X15293Y8554
X15293Y7554
X15293Y6554
X16293Y6554
X16293Y7554
X16293Y8554
X16933Y11214
X16073Y4584
X16073Y2024
X14293Y2024
X12573Y2024
X10793Y2024
X10793Y4584
X10193Y6554
X10193Y7554
X10193Y8554
X9073Y4584
X7293Y4584
X7293Y2024
X9073Y2024
X12573Y4584
X14293Y4584
X6219Y9444
X5219Y9444
X4219Y9444
X3219Y9444
X2219Y9444
X1219Y9444
X8233Y27274
X9233Y27274
T06
X9433Y23804
X17307Y23804
T07
X1233Y1361
X17363Y1350
X17370Y27310
X1233Y27334
M30
