G75*
G70*
%OFA0B0*%
%FSLAX24Y24*%
%IPPOS*%
%LPD*%
%AMOC8*
5,1,8,0,0,1.08239X$1,22.5*
%
%ADD10C,0.0560*%
%ADD11C,0.0848*%
%ADD12OC8,0.0820*%
%ADD13C,0.0820*%
%ADD14C,0.0050*%
%ADD15R,0.0820X0.0820*%
%ADD16C,0.0740*%
%ADD17R,0.0730X0.0730*%
%ADD18C,0.0730*%
%ADD19C,0.0780*%
%ADD20C,0.1380*%
%ADD21C,0.0420*%
D10*
X002312Y015072D02*
X002312Y015552D01*
X003312Y015552D02*
X003312Y015072D01*
X004312Y015072D02*
X004312Y015552D01*
X005312Y015552D02*
X005312Y015072D01*
X006312Y015072D02*
X006312Y015552D01*
X007312Y015552D02*
X007312Y015072D01*
X008312Y015072D02*
X008312Y015552D01*
X009312Y015552D02*
X009312Y015072D01*
X010312Y015072D02*
X010312Y015552D01*
X011312Y015552D02*
X011312Y015072D01*
X012312Y015072D02*
X012312Y015552D01*
X013312Y015552D02*
X013312Y015072D01*
X014312Y015072D02*
X014312Y015552D01*
X015312Y015552D02*
X015312Y015072D01*
X015312Y018072D02*
X015312Y018552D01*
X014312Y018552D02*
X014312Y018072D01*
X013312Y018072D02*
X013312Y018552D01*
X012312Y018552D02*
X012312Y018072D01*
X011312Y018072D02*
X011312Y018552D01*
X010312Y018552D02*
X010312Y018072D01*
X009312Y018072D02*
X009312Y018552D01*
X008312Y018552D02*
X008312Y018072D01*
X007312Y018072D02*
X007312Y018552D01*
X006312Y018552D02*
X006312Y018072D01*
X005312Y018072D02*
X005312Y018552D01*
X004312Y018552D02*
X004312Y018072D01*
X003312Y018072D02*
X003312Y018552D01*
X002312Y018552D02*
X002312Y018072D01*
D11*
X009312Y023562D03*
X017186Y023562D03*
D12*
X015952Y008312D03*
X015952Y007312D03*
X015952Y006312D03*
X014952Y006312D03*
X014952Y007312D03*
X014952Y008312D03*
D13*
X012470Y010919D03*
X011470Y010919D03*
X010470Y010919D03*
X009470Y010919D03*
X008470Y010919D03*
X007470Y010919D03*
X006470Y010919D03*
X006098Y009202D03*
X005098Y009202D03*
X004098Y009202D03*
X003098Y009202D03*
X002098Y009202D03*
X001098Y009202D03*
X007172Y004342D03*
X008952Y004342D03*
X010072Y006312D03*
X010072Y007312D03*
X010072Y008312D03*
X010672Y004342D03*
X012452Y004342D03*
X012452Y001782D03*
X010672Y001782D03*
X008952Y001782D03*
X007172Y001782D03*
X014172Y001782D03*
X015952Y001782D03*
X015952Y004342D03*
X014172Y004342D03*
X009112Y027032D03*
X008112Y027032D03*
D14*
X001658Y024458D02*
X001678Y024389D01*
X001684Y024316D01*
X001678Y024244D01*
X001658Y024174D01*
X001625Y024109D01*
X001579Y024053D01*
X001524Y024006D01*
X001460Y023971D01*
X001391Y023949D01*
X001318Y023940D01*
X001252Y023945D01*
X001188Y023962D01*
X001128Y023989D01*
X001073Y024026D01*
X001026Y024073D01*
X000987Y024126D01*
X000959Y024186D01*
X000941Y024250D01*
X000934Y024315D01*
X000941Y024381D01*
X000959Y024445D01*
X000988Y024504D01*
X001027Y024558D01*
X001074Y024604D01*
X001129Y024641D01*
X001189Y024668D01*
X001253Y024685D01*
X001319Y024689D01*
X001391Y024682D01*
X001460Y024660D01*
X001524Y024625D01*
X001579Y024579D01*
X001625Y024522D01*
X001658Y024458D01*
X001664Y024438D02*
X000957Y024438D01*
X000944Y024390D02*
X001678Y024390D01*
X001682Y024341D02*
X000937Y024341D01*
X000937Y024293D02*
X001682Y024293D01*
X001678Y024244D02*
X000942Y024244D01*
X000956Y024196D02*
X001664Y024196D01*
X001644Y024147D02*
X000977Y024147D01*
X001007Y024099D02*
X001616Y024099D01*
X001576Y024050D02*
X001049Y024050D01*
X001110Y024002D02*
X001516Y024002D01*
X001405Y023953D02*
X001223Y023953D01*
X000980Y024487D02*
X001643Y024487D01*
X001614Y024536D02*
X001010Y024536D01*
X001053Y024584D02*
X001573Y024584D01*
X001510Y024633D02*
X001116Y024633D01*
X001240Y024681D02*
X001393Y024681D01*
X001322Y021686D02*
X001256Y021682D01*
X001192Y021665D01*
X001132Y021638D01*
X001077Y021601D01*
X001030Y021555D01*
X000991Y021501D01*
X000962Y021442D01*
X000944Y021378D01*
X000937Y021312D01*
X000944Y021247D01*
X000962Y021183D01*
X000990Y021123D01*
X001029Y021070D01*
X001076Y021023D01*
X001131Y020986D01*
X001191Y020959D01*
X001255Y020942D01*
X001321Y020937D01*
X001394Y020946D01*
X001463Y020968D01*
X001527Y021003D01*
X001582Y021050D01*
X001628Y021106D01*
X001661Y021171D01*
X001681Y021241D01*
X001687Y021313D01*
X001681Y021386D01*
X001661Y021455D01*
X001628Y021519D01*
X001582Y021576D01*
X001527Y021622D01*
X001463Y021657D01*
X001394Y021679D01*
X001322Y021686D01*
X001417Y021671D02*
X001216Y021671D01*
X001109Y021623D02*
X001525Y021623D01*
X001583Y021574D02*
X001050Y021574D01*
X001009Y021526D02*
X001622Y021526D01*
X001649Y021477D02*
X000979Y021477D01*
X000958Y021429D02*
X001669Y021429D01*
X001682Y021380D02*
X000945Y021380D01*
X000939Y021332D02*
X001686Y021332D01*
X001685Y021283D02*
X000940Y021283D01*
X000947Y021235D02*
X001679Y021235D01*
X001665Y021186D02*
X000961Y021186D01*
X000984Y021138D02*
X001644Y021138D01*
X001614Y021089D02*
X001015Y021089D01*
X001059Y021040D02*
X001571Y021040D01*
X001507Y020992D02*
X001122Y020992D01*
X001252Y020943D02*
X001374Y020943D01*
X013500Y011184D02*
X013546Y011239D01*
X013603Y011285D01*
X013667Y011318D01*
X013736Y011338D01*
X013808Y011344D01*
X013881Y011338D01*
X013951Y011318D01*
X014015Y011285D01*
X014072Y011239D01*
X014119Y011184D01*
X014154Y011120D01*
X014176Y011051D01*
X014184Y010978D01*
X014179Y010912D01*
X014163Y010848D01*
X014136Y010788D01*
X014099Y010733D01*
X014052Y010686D01*
X013999Y010647D01*
X013939Y010619D01*
X013875Y010601D01*
X013809Y010594D01*
X013744Y010601D01*
X013680Y010619D01*
X013620Y010648D01*
X013567Y010687D01*
X013521Y010734D01*
X013484Y010789D01*
X013456Y010849D01*
X013440Y010913D01*
X013435Y010979D01*
X013443Y011051D01*
X013465Y011120D01*
X013500Y011184D01*
X013502Y011186D02*
X014117Y011186D01*
X014145Y011138D02*
X013474Y011138D01*
X013455Y011089D02*
X014164Y011089D01*
X014177Y011041D02*
X013442Y011041D01*
X013437Y010992D02*
X014183Y010992D01*
X014182Y010943D02*
X013438Y010943D01*
X013445Y010895D02*
X014175Y010895D01*
X014162Y010846D02*
X013458Y010846D01*
X013480Y010798D02*
X014140Y010798D01*
X014109Y010749D02*
X013510Y010749D01*
X013553Y010701D02*
X014067Y010701D01*
X014005Y010652D02*
X013615Y010652D01*
X013735Y010604D02*
X013885Y010604D01*
X014076Y011235D02*
X013542Y011235D01*
X013601Y011283D02*
X014017Y011283D01*
X013904Y011332D02*
X013714Y011332D01*
X016445Y011041D02*
X017181Y011041D01*
X017179Y011054D02*
X017187Y010981D01*
X017182Y010915D01*
X017166Y010851D01*
X017139Y010791D01*
X017102Y010736D01*
X017055Y010689D01*
X017002Y010650D01*
X016942Y010622D01*
X016878Y010604D01*
X016812Y010597D01*
X016747Y010604D01*
X016683Y010622D01*
X016623Y010651D01*
X016570Y010690D01*
X016524Y010737D01*
X016487Y010792D01*
X016459Y010852D01*
X016443Y010916D01*
X016438Y010982D01*
X016446Y011054D01*
X016468Y011123D01*
X016503Y011187D01*
X016549Y011242D01*
X016606Y011288D01*
X016670Y011321D01*
X016739Y011341D01*
X016811Y011347D01*
X016884Y011341D01*
X016954Y011321D01*
X017018Y011288D01*
X017075Y011242D01*
X017122Y011187D01*
X017157Y011123D01*
X017179Y011054D01*
X017168Y011089D02*
X016457Y011089D01*
X016476Y011138D02*
X017149Y011138D01*
X017122Y011186D02*
X016502Y011186D01*
X016543Y011235D02*
X017082Y011235D01*
X017024Y011283D02*
X016600Y011283D01*
X016707Y011332D02*
X016917Y011332D01*
X017186Y010992D02*
X016439Y010992D01*
X016441Y010943D02*
X017185Y010943D01*
X017177Y010895D02*
X016449Y010895D01*
X016462Y010846D02*
X017164Y010846D01*
X017142Y010798D02*
X016484Y010798D01*
X016516Y010749D02*
X017110Y010749D01*
X017067Y010701D02*
X016559Y010701D01*
X016622Y010652D02*
X017004Y010652D01*
X016875Y010604D02*
X016752Y010604D01*
D15*
X005470Y010919D03*
D16*
X006312Y019312D03*
X007312Y019312D03*
D17*
X016892Y018872D03*
D18*
X016892Y019872D03*
X010297Y019312D03*
X008328Y019312D03*
X009297Y014312D03*
X007328Y014312D03*
X006297Y011937D03*
X004328Y011937D03*
D19*
X004312Y024328D03*
X004312Y026297D03*
D20*
X001237Y001245D03*
X017117Y001233D03*
X017124Y026943D03*
X001237Y026967D03*
D21*
X003352Y017112D03*
X004792Y016312D03*
X004312Y014232D03*
X004792Y013432D03*
X005432Y012472D03*
X006392Y012792D03*
X006872Y012152D03*
X007352Y009912D03*
X007992Y009752D03*
X007352Y008632D03*
X008952Y007352D03*
X010712Y009432D03*
X011062Y008312D03*
X011512Y007352D03*
X012632Y005752D03*
X013112Y006392D03*
X013272Y005432D03*
X013812Y007312D03*
X013742Y009432D03*
X012792Y010072D03*
X013912Y011992D03*
X014712Y013112D03*
X015032Y013752D03*
X015387Y012472D03*
X015032Y009752D03*
X013272Y013432D03*
X011512Y012792D03*
X010392Y013752D03*
X010072Y014232D03*
X009432Y012152D03*
X010072Y011672D03*
X008792Y011832D03*
X008472Y013432D03*
X008792Y017432D03*
X010072Y017432D03*
X002392Y013112D03*
X003032Y004952D03*
X011192Y004952D03*
X017592Y004952D03*
M02*
