G75*
G70*
%OFA0B0*%
%FSLAX24Y24*%
%IPPOS*%
%LPD*%
%AMOC8*
5,1,8,0,0,1.08239X$1,22.5*
%
%ADD10C,0.0480*%
%ADD11C,0.0768*%
%ADD12OC8,0.0740*%
%ADD13C,0.0740*%
%ADD14C,0.0800*%
%ADD15R,0.0740X0.0740*%
%ADD16C,0.0660*%
%ADD17R,0.0650X0.0650*%
%ADD18C,0.0650*%
%ADD19C,0.0700*%
%ADD20C,0.0100*%
%ADD21C,0.0080*%
%ADD22C,0.0340*%
%ADD23C,0.0240*%
D10*
X002312Y015072D02*
X002312Y015552D01*
X003312Y015552D02*
X003312Y015072D01*
X004312Y015072D02*
X004312Y015552D01*
X005312Y015552D02*
X005312Y015072D01*
X006312Y015072D02*
X006312Y015552D01*
X007312Y015552D02*
X007312Y015072D01*
X008312Y015072D02*
X008312Y015552D01*
X009312Y015552D02*
X009312Y015072D01*
X010312Y015072D02*
X010312Y015552D01*
X011312Y015552D02*
X011312Y015072D01*
X012312Y015072D02*
X012312Y015552D01*
X013312Y015552D02*
X013312Y015072D01*
X014312Y015072D02*
X014312Y015552D01*
X015312Y015552D02*
X015312Y015072D01*
X015312Y018072D02*
X015312Y018552D01*
X014312Y018552D02*
X014312Y018072D01*
X013312Y018072D02*
X013312Y018552D01*
X012312Y018552D02*
X012312Y018072D01*
X011312Y018072D02*
X011312Y018552D01*
X010312Y018552D02*
X010312Y018072D01*
X009312Y018072D02*
X009312Y018552D01*
X008312Y018552D02*
X008312Y018072D01*
X007312Y018072D02*
X007312Y018552D01*
X006312Y018552D02*
X006312Y018072D01*
X005312Y018072D02*
X005312Y018552D01*
X004312Y018552D02*
X004312Y018072D01*
X003312Y018072D02*
X003312Y018552D01*
X002312Y018552D02*
X002312Y018072D01*
D11*
X009312Y023562D03*
X017186Y023562D03*
D12*
X015952Y008312D03*
X015952Y007312D03*
X015952Y006312D03*
X014952Y006312D03*
X014952Y007312D03*
X014952Y008312D03*
D13*
X012470Y010919D03*
X011470Y010919D03*
X010470Y010919D03*
X009470Y010919D03*
X008470Y010919D03*
X007470Y010919D03*
X006470Y010919D03*
X006098Y009202D03*
X005098Y009202D03*
X004098Y009202D03*
X003098Y009202D03*
X002098Y009202D03*
X001098Y009202D03*
X007172Y004342D03*
X008952Y004342D03*
X010072Y006312D03*
X010072Y007312D03*
X010072Y008312D03*
X010672Y004342D03*
X012452Y004342D03*
X012452Y001782D03*
X010672Y001782D03*
X008952Y001782D03*
X007172Y001782D03*
X014172Y001782D03*
X015952Y001782D03*
X015952Y004342D03*
X014172Y004342D03*
X009112Y027032D03*
X008112Y027032D03*
D14*
X001312Y024312D03*
X001312Y021312D03*
X013812Y010972D03*
X016812Y010972D03*
D15*
X005470Y010919D03*
D16*
X006312Y019312D03*
X007312Y019312D03*
D17*
X016892Y018872D03*
D18*
X016892Y019872D03*
X010297Y019312D03*
X008328Y019312D03*
X009297Y014312D03*
X007328Y014312D03*
X006297Y011937D03*
X004328Y011937D03*
D19*
X004312Y024328D03*
X004312Y026297D03*
D20*
X006312Y019312D02*
X006312Y018312D01*
X007312Y018312D02*
X007312Y019312D01*
D21*
X000562Y009005D02*
X000562Y001945D01*
X000744Y002097D01*
X000744Y002097D01*
X001066Y002214D01*
X001066Y002214D01*
X001237Y002214D01*
X001284Y002214D01*
X001408Y002214D01*
X001729Y002097D01*
X001729Y002097D01*
X001991Y001878D01*
X001991Y001878D01*
X002162Y001581D01*
X002162Y001581D01*
X002222Y001245D01*
X002222Y001244D01*
X002162Y000908D01*
X002162Y000908D01*
X002035Y000687D01*
X016311Y000687D01*
X016191Y000896D01*
X016191Y000896D01*
X016132Y001233D01*
X016132Y001233D01*
X016133Y001240D01*
X016066Y001212D01*
X015839Y001212D01*
X015630Y001299D01*
X015469Y001460D01*
X015382Y001669D01*
X015382Y001896D01*
X015469Y002105D01*
X015630Y002266D01*
X015632Y002267D01*
X015632Y003858D01*
X015630Y003859D01*
X015469Y004020D01*
X015382Y004229D01*
X015382Y004456D01*
X015469Y004665D01*
X015630Y004826D01*
X015839Y004912D01*
X016066Y004912D01*
X016275Y004826D01*
X016436Y004665D01*
X016522Y004456D01*
X016522Y004229D01*
X016436Y004020D01*
X016275Y003859D01*
X016272Y003858D01*
X016272Y002267D01*
X016275Y002266D01*
X016436Y002105D01*
X016490Y001973D01*
X016624Y002086D01*
X016624Y002086D01*
X016946Y002203D01*
X016946Y002203D01*
X017069Y002203D01*
X017104Y002203D01*
X017117Y002203D01*
X017164Y002203D01*
X017288Y002203D01*
X017288Y002203D01*
X017609Y002086D01*
X017609Y002086D01*
X017687Y002020D01*
X017687Y004591D01*
X017666Y004582D01*
X017519Y004582D01*
X017383Y004639D01*
X017279Y004743D01*
X017222Y004879D01*
X017222Y005026D01*
X017279Y005162D01*
X017352Y005236D01*
X017352Y010708D01*
X017321Y010633D01*
X017152Y010464D01*
X016932Y010372D01*
X016693Y010372D01*
X016473Y010464D01*
X016304Y010633D01*
X016212Y010853D01*
X016212Y011092D01*
X016304Y011312D01*
X016473Y011481D01*
X016693Y011572D01*
X016932Y011572D01*
X017152Y011481D01*
X017321Y011312D01*
X017352Y011236D01*
X017352Y016853D01*
X017013Y017192D01*
X010356Y017192D01*
X010282Y017119D01*
X010146Y017062D01*
X009999Y017062D01*
X009863Y017119D01*
X009759Y017223D01*
X009702Y017359D01*
X009702Y017506D01*
X009759Y017642D01*
X009863Y017746D01*
X009972Y017791D01*
X009939Y017823D01*
X009872Y017985D01*
X009872Y018640D01*
X009939Y018802D01*
X010053Y018915D01*
X009994Y018958D01*
X009942Y019009D01*
X009899Y019069D01*
X009866Y019134D01*
X009843Y019204D01*
X009832Y019276D01*
X009832Y019283D01*
X010268Y019283D01*
X010268Y019341D01*
X009832Y019341D01*
X009832Y019349D01*
X009843Y019421D01*
X009866Y019491D01*
X009899Y019556D01*
X009942Y019615D01*
X009994Y019667D01*
X010053Y019710D01*
X010118Y019743D01*
X010188Y019766D01*
X010260Y019777D01*
X010268Y019777D01*
X010268Y019342D01*
X010326Y019342D01*
X010326Y019777D01*
X010333Y019777D01*
X010406Y019766D01*
X010475Y019743D01*
X010540Y019710D01*
X010600Y019667D01*
X010651Y019615D01*
X010694Y019556D01*
X010728Y019491D01*
X010750Y019421D01*
X010762Y019349D01*
X010762Y019341D01*
X010326Y019341D01*
X010326Y019283D01*
X010762Y019283D01*
X010762Y019276D01*
X010750Y019204D01*
X010728Y019134D01*
X010694Y019069D01*
X010651Y019009D01*
X010600Y018958D01*
X010557Y018927D01*
X010562Y018925D01*
X010685Y018802D01*
X010752Y018640D01*
X010752Y017985D01*
X010873Y017985D01*
X010872Y017985D02*
X010939Y017823D01*
X011063Y017699D01*
X011128Y017672D01*
X010496Y017672D01*
X010562Y017699D01*
X010685Y017823D01*
X010752Y017985D01*
X010752Y018063D02*
X010872Y018063D01*
X010872Y017985D02*
X010872Y018640D01*
X010939Y018802D01*
X011063Y018925D01*
X011225Y018992D01*
X011400Y018992D01*
X011562Y018925D01*
X011685Y018802D01*
X011752Y018640D01*
X011752Y017985D01*
X011873Y017985D01*
X011872Y017985D02*
X011939Y017823D01*
X012063Y017699D01*
X012128Y017672D01*
X011496Y017672D01*
X011562Y017699D01*
X011685Y017823D01*
X011752Y017985D01*
X011752Y018063D02*
X011872Y018063D01*
X011872Y017985D02*
X011872Y018640D01*
X011939Y018802D01*
X012063Y018925D01*
X012225Y018992D01*
X012400Y018992D01*
X012562Y018925D01*
X012685Y018802D01*
X012752Y018640D01*
X012752Y017985D01*
X012873Y017985D01*
X012872Y017985D02*
X012939Y017823D01*
X013063Y017699D01*
X013128Y017672D01*
X012496Y017672D01*
X012562Y017699D01*
X012685Y017823D01*
X012752Y017985D01*
X012752Y018063D02*
X012872Y018063D01*
X012872Y017985D02*
X012872Y018640D01*
X012939Y018802D01*
X013063Y018925D01*
X013225Y018992D01*
X013400Y018992D01*
X013562Y018925D01*
X013685Y018802D01*
X013752Y018640D01*
X013752Y017985D01*
X013873Y017985D01*
X013872Y017985D02*
X013939Y017823D01*
X014063Y017699D01*
X014128Y017672D01*
X013496Y017672D01*
X013562Y017699D01*
X013685Y017823D01*
X013752Y017985D01*
X013752Y018063D02*
X013872Y018063D01*
X013872Y017985D02*
X013872Y018640D01*
X013939Y018802D01*
X014063Y018925D01*
X014225Y018992D01*
X014400Y018992D01*
X014562Y018925D01*
X014685Y018802D01*
X014752Y018640D01*
X014752Y017985D01*
X014873Y017985D01*
X014872Y017985D02*
X014939Y017823D01*
X015063Y017699D01*
X015128Y017672D01*
X014496Y017672D01*
X014562Y017699D01*
X014685Y017823D01*
X014752Y017985D01*
X014752Y018063D02*
X014872Y018063D01*
X014872Y017985D02*
X014872Y018640D01*
X014939Y018802D01*
X015063Y018925D01*
X015225Y018992D01*
X015400Y018992D01*
X015562Y018925D01*
X015685Y018802D01*
X015752Y018640D01*
X015752Y017985D01*
X017687Y017985D01*
X017687Y018063D02*
X015752Y018063D01*
X015752Y017985D02*
X015685Y017823D01*
X015562Y017699D01*
X015496Y017672D01*
X017160Y017672D01*
X017248Y017636D01*
X017316Y017568D01*
X017687Y017197D01*
X017687Y023246D01*
X017681Y023232D01*
X017517Y023067D01*
X017303Y022979D01*
X017070Y022979D01*
X016856Y023067D01*
X016691Y023232D01*
X016603Y023446D01*
X016603Y023559D01*
X013304Y026712D01*
X009597Y026712D01*
X009596Y026710D01*
X009435Y026549D01*
X009226Y026462D01*
X008999Y026462D01*
X008790Y026549D01*
X008629Y026710D01*
X008580Y026828D01*
X008549Y026765D01*
X008501Y026700D01*
X008445Y026643D01*
X008380Y026596D01*
X008308Y026560D01*
X008285Y026552D01*
X008376Y026552D01*
X008494Y026504D01*
X008584Y026414D01*
X008632Y026296D01*
X008632Y023882D01*
X008813Y023882D01*
X008817Y023893D01*
X008982Y024057D01*
X009196Y024146D01*
X009429Y024146D01*
X009643Y024057D01*
X009807Y023893D01*
X009812Y023882D01*
X013139Y023882D01*
X013266Y023882D01*
X013384Y023834D01*
X016820Y020397D01*
X016997Y020397D01*
X017190Y020317D01*
X017337Y020170D01*
X017417Y019977D01*
X017417Y019768D01*
X017337Y019575D01*
X017190Y019427D01*
X016997Y019347D01*
X016788Y019347D01*
X016595Y019427D01*
X016447Y019575D01*
X016367Y019768D01*
X016367Y019945D01*
X013070Y023242D01*
X009812Y023242D01*
X009807Y023232D01*
X009643Y023067D01*
X009429Y022979D01*
X009196Y022979D01*
X008982Y023067D01*
X008817Y023232D01*
X008813Y023242D01*
X008648Y023242D01*
X008648Y019735D01*
X008773Y019610D01*
X008853Y019417D01*
X008853Y019208D01*
X008773Y019015D01*
X008641Y018883D01*
X008641Y018846D01*
X008685Y018802D01*
X008752Y018640D01*
X008752Y017985D01*
X008942Y017985D01*
X008947Y017962D02*
X008976Y017892D01*
X009017Y017830D01*
X009070Y017777D01*
X009132Y017736D01*
X009202Y017707D01*
X009272Y017693D01*
X009272Y018272D01*
X008932Y018272D01*
X008932Y018035D01*
X008947Y017962D01*
X008970Y017906D02*
X008720Y017906D01*
X008687Y017828D02*
X009020Y017828D01*
X008995Y017749D02*
X009112Y017749D01*
X009078Y017671D02*
X009787Y017671D01*
X009738Y017592D02*
X009127Y017592D01*
X009106Y017642D02*
X009002Y017746D01*
X008866Y017802D01*
X008719Y017802D01*
X008626Y017764D01*
X008685Y017823D01*
X008752Y017985D01*
X008752Y018063D02*
X008932Y018063D01*
X008932Y018142D02*
X008752Y018142D01*
X008752Y018220D02*
X008932Y018220D01*
X008932Y018352D02*
X009272Y018352D01*
X009272Y018272D01*
X009352Y018272D01*
X009352Y017693D01*
X009423Y017707D01*
X009492Y017736D01*
X009555Y017777D01*
X009608Y017830D01*
X009649Y017892D01*
X009678Y017962D01*
X009692Y018035D01*
X009692Y018272D01*
X009353Y018272D01*
X009353Y018352D01*
X009692Y018352D01*
X009692Y018590D01*
X009678Y018663D01*
X009649Y018732D01*
X009608Y018795D01*
X009555Y018848D01*
X009492Y018889D01*
X009423Y018918D01*
X009352Y018932D01*
X009352Y018353D01*
X009272Y018353D01*
X009272Y018932D01*
X009202Y018918D01*
X009132Y018889D01*
X009070Y018848D01*
X009017Y018795D01*
X008976Y018732D01*
X008947Y018663D01*
X008932Y018590D01*
X008932Y018352D01*
X008932Y018377D02*
X008752Y018377D01*
X008752Y018299D02*
X009272Y018299D01*
X009272Y018377D02*
X009352Y018377D01*
X009353Y018299D02*
X009872Y018299D01*
X009872Y018377D02*
X009692Y018377D01*
X009692Y018456D02*
X009872Y018456D01*
X009872Y018534D02*
X009692Y018534D01*
X009688Y018613D02*
X009872Y018613D01*
X009894Y018692D02*
X009666Y018692D01*
X009624Y018770D02*
X009926Y018770D01*
X009986Y018849D02*
X009553Y018849D01*
X009376Y018927D02*
X010036Y018927D01*
X009946Y019006D02*
X008764Y019006D01*
X008802Y019084D02*
X009891Y019084D01*
X009856Y019163D02*
X008834Y019163D01*
X008853Y019241D02*
X009837Y019241D01*
X009840Y019398D02*
X008853Y019398D01*
X008853Y019320D02*
X010268Y019320D01*
X010326Y019320D02*
X016500Y019320D01*
X016513Y019328D02*
X016481Y019309D01*
X016455Y019283D01*
X016437Y019251D01*
X016427Y019216D01*
X016427Y018901D01*
X016863Y018901D01*
X016863Y018843D01*
X016921Y018843D01*
X016921Y018407D01*
X017236Y018407D01*
X017271Y018417D01*
X017303Y018435D01*
X017329Y018461D01*
X017348Y018493D01*
X017357Y018529D01*
X017357Y018843D01*
X016922Y018843D01*
X016922Y018901D01*
X017357Y018901D01*
X017357Y019216D01*
X017348Y019251D01*
X017329Y019283D01*
X017303Y019309D01*
X017271Y019328D01*
X017236Y019337D01*
X016921Y019337D01*
X016921Y018902D01*
X016863Y018902D01*
X016863Y019337D01*
X016549Y019337D01*
X016513Y019328D01*
X016434Y019241D02*
X010756Y019241D01*
X010737Y019163D02*
X016427Y019163D01*
X016427Y019084D02*
X010702Y019084D01*
X010648Y019006D02*
X016427Y019006D01*
X016427Y018927D02*
X015557Y018927D01*
X015638Y018849D02*
X016863Y018849D01*
X016863Y018843D02*
X016427Y018843D01*
X016427Y018529D01*
X016437Y018493D01*
X016455Y018461D01*
X016481Y018435D01*
X016513Y018417D01*
X016549Y018407D01*
X016863Y018407D01*
X016863Y018843D01*
X016922Y018849D02*
X017687Y018849D01*
X017687Y018927D02*
X017357Y018927D01*
X017357Y019006D02*
X017687Y019006D01*
X017687Y019084D02*
X017357Y019084D01*
X017357Y019163D02*
X017687Y019163D01*
X017687Y019241D02*
X017351Y019241D01*
X017285Y019320D02*
X017687Y019320D01*
X017687Y019398D02*
X017120Y019398D01*
X017239Y019477D02*
X017687Y019477D01*
X017687Y019556D02*
X017318Y019556D01*
X017362Y019634D02*
X017687Y019634D01*
X017687Y019713D02*
X017394Y019713D01*
X017417Y019791D02*
X017687Y019791D01*
X017687Y019870D02*
X017417Y019870D01*
X017417Y019948D02*
X017687Y019948D01*
X017687Y020027D02*
X017397Y020027D01*
X017364Y020105D02*
X017687Y020105D01*
X017687Y020184D02*
X017323Y020184D01*
X017245Y020262D02*
X017687Y020262D01*
X017687Y020341D02*
X017133Y020341D01*
X016798Y020420D02*
X017687Y020420D01*
X017687Y020498D02*
X016719Y020498D01*
X016641Y020577D02*
X017687Y020577D01*
X017687Y020655D02*
X016562Y020655D01*
X016484Y020734D02*
X017687Y020734D01*
X017687Y020812D02*
X016405Y020812D01*
X016327Y020891D02*
X017687Y020891D01*
X017687Y020969D02*
X016248Y020969D01*
X016170Y021048D02*
X017687Y021048D01*
X017687Y021126D02*
X016091Y021126D01*
X016012Y021205D02*
X017687Y021205D01*
X017687Y021284D02*
X015934Y021284D01*
X015855Y021362D02*
X017687Y021362D01*
X017687Y021441D02*
X015777Y021441D01*
X015698Y021519D02*
X017687Y021519D01*
X017687Y021598D02*
X015620Y021598D01*
X015541Y021676D02*
X017687Y021676D01*
X017687Y021755D02*
X015463Y021755D01*
X015384Y021833D02*
X017687Y021833D01*
X017687Y021912D02*
X015306Y021912D01*
X015227Y021990D02*
X017687Y021990D01*
X017687Y022069D02*
X015148Y022069D01*
X015070Y022147D02*
X017687Y022147D01*
X017687Y022226D02*
X014991Y022226D01*
X014913Y022305D02*
X017687Y022305D01*
X017687Y022383D02*
X014834Y022383D01*
X014756Y022462D02*
X017687Y022462D01*
X017687Y022540D02*
X014677Y022540D01*
X014599Y022619D02*
X017687Y022619D01*
X017687Y022697D02*
X014520Y022697D01*
X014442Y022776D02*
X017687Y022776D01*
X017687Y022854D02*
X014363Y022854D01*
X014284Y022933D02*
X017687Y022933D01*
X017687Y023011D02*
X017382Y023011D01*
X017540Y023090D02*
X017687Y023090D01*
X017687Y023169D02*
X017618Y023169D01*
X016991Y023011D02*
X014206Y023011D01*
X014127Y023090D02*
X016833Y023090D01*
X016755Y023169D02*
X014049Y023169D01*
X013970Y023247D02*
X016685Y023247D01*
X016653Y023326D02*
X013892Y023326D01*
X013813Y023404D02*
X016620Y023404D01*
X016603Y023483D02*
X013735Y023483D01*
X013656Y023561D02*
X016601Y023561D01*
X016518Y023640D02*
X013578Y023640D01*
X013499Y023718D02*
X016436Y023718D01*
X016354Y023797D02*
X013421Y023797D01*
X013283Y023875D02*
X016272Y023875D01*
X016190Y023954D02*
X009747Y023954D01*
X009668Y024033D02*
X016108Y024033D01*
X016025Y024111D02*
X009514Y024111D01*
X009111Y024111D02*
X008632Y024111D01*
X008632Y024033D02*
X008957Y024033D01*
X008878Y023954D02*
X008632Y023954D01*
X008632Y024190D02*
X015943Y024190D01*
X015861Y024268D02*
X008632Y024268D01*
X008632Y024347D02*
X015779Y024347D01*
X015697Y024425D02*
X008632Y024425D01*
X008632Y024504D02*
X015615Y024504D01*
X015532Y024582D02*
X008632Y024582D01*
X008632Y024661D02*
X015450Y024661D01*
X015368Y024739D02*
X008632Y024739D01*
X008632Y024818D02*
X015286Y024818D01*
X015204Y024896D02*
X008632Y024896D01*
X008632Y024975D02*
X015122Y024975D01*
X015039Y025054D02*
X008632Y025054D01*
X008632Y025132D02*
X014957Y025132D01*
X014875Y025211D02*
X008632Y025211D01*
X008632Y025289D02*
X014793Y025289D01*
X014711Y025368D02*
X008632Y025368D01*
X008632Y025446D02*
X014629Y025446D01*
X014546Y025525D02*
X008632Y025525D01*
X008632Y025603D02*
X014464Y025603D01*
X014382Y025682D02*
X008632Y025682D01*
X008632Y025760D02*
X014300Y025760D01*
X014218Y025839D02*
X008632Y025839D01*
X008632Y025918D02*
X014136Y025918D01*
X014053Y025996D02*
X008632Y025996D01*
X008632Y026075D02*
X013971Y026075D01*
X013889Y026153D02*
X008632Y026153D01*
X008632Y026232D02*
X013807Y026232D01*
X013725Y026310D02*
X008627Y026310D01*
X008594Y026389D02*
X013643Y026389D01*
X013560Y026467D02*
X009238Y026467D01*
X009427Y026546D02*
X013478Y026546D01*
X013396Y026624D02*
X009511Y026624D01*
X009589Y026703D02*
X013314Y026703D01*
X013144Y023169D02*
X009744Y023169D01*
X009666Y023090D02*
X013222Y023090D01*
X013301Y023011D02*
X009508Y023011D01*
X009117Y023011D02*
X008648Y023011D01*
X008648Y022933D02*
X013379Y022933D01*
X013458Y022854D02*
X008648Y022854D01*
X008648Y022776D02*
X013536Y022776D01*
X013615Y022697D02*
X008648Y022697D01*
X008648Y022619D02*
X013694Y022619D01*
X013772Y022540D02*
X008648Y022540D01*
X008648Y022462D02*
X013851Y022462D01*
X013929Y022383D02*
X008648Y022383D01*
X008648Y022305D02*
X014008Y022305D01*
X014086Y022226D02*
X008648Y022226D01*
X008648Y022147D02*
X014165Y022147D01*
X014243Y022069D02*
X008648Y022069D01*
X008648Y021990D02*
X014322Y021990D01*
X014400Y021912D02*
X008648Y021912D01*
X008648Y021833D02*
X014479Y021833D01*
X014558Y021755D02*
X008648Y021755D01*
X008648Y021676D02*
X014636Y021676D01*
X014715Y021598D02*
X008648Y021598D01*
X008648Y021519D02*
X014793Y021519D01*
X014872Y021441D02*
X008648Y021441D01*
X008648Y021362D02*
X014950Y021362D01*
X015029Y021284D02*
X008648Y021284D01*
X008648Y021205D02*
X015107Y021205D01*
X015186Y021126D02*
X008648Y021126D01*
X008648Y021048D02*
X015264Y021048D01*
X015343Y020969D02*
X008648Y020969D01*
X008648Y020891D02*
X015421Y020891D01*
X015500Y020812D02*
X008648Y020812D01*
X008648Y020734D02*
X015579Y020734D01*
X015657Y020655D02*
X008648Y020655D01*
X008648Y020577D02*
X015736Y020577D01*
X015814Y020498D02*
X008648Y020498D01*
X008648Y020420D02*
X015893Y020420D01*
X015971Y020341D02*
X008648Y020341D01*
X008648Y020262D02*
X016050Y020262D01*
X016128Y020184D02*
X008648Y020184D01*
X008648Y020105D02*
X016207Y020105D01*
X016285Y020027D02*
X008648Y020027D01*
X008648Y019948D02*
X016364Y019948D01*
X016367Y019870D02*
X008648Y019870D01*
X008648Y019791D02*
X016367Y019791D01*
X016390Y019713D02*
X010535Y019713D01*
X010633Y019634D02*
X016423Y019634D01*
X016467Y019556D02*
X010695Y019556D01*
X010732Y019477D02*
X016545Y019477D01*
X016665Y019398D02*
X010754Y019398D01*
X010557Y018927D02*
X011067Y018927D01*
X010986Y018849D02*
X010638Y018849D01*
X010699Y018770D02*
X010926Y018770D01*
X010894Y018692D02*
X010731Y018692D01*
X010752Y018613D02*
X010872Y018613D01*
X010872Y018534D02*
X010752Y018534D01*
X010752Y018456D02*
X010872Y018456D01*
X010872Y018377D02*
X010752Y018377D01*
X010752Y018299D02*
X010872Y018299D01*
X010872Y018220D02*
X010752Y018220D01*
X010752Y018142D02*
X010872Y018142D01*
X010905Y017906D02*
X010720Y017906D01*
X010687Y017828D02*
X010938Y017828D01*
X011014Y017749D02*
X010611Y017749D01*
X010284Y017121D02*
X017085Y017121D01*
X017163Y017042D02*
X006642Y017042D01*
X006721Y016964D02*
X017242Y016964D01*
X017320Y016885D02*
X006799Y016885D01*
X006878Y016807D02*
X017352Y016807D01*
X017352Y016728D02*
X006956Y016728D01*
X007008Y016676D02*
X007076Y016608D01*
X007112Y016520D01*
X007112Y015876D01*
X007132Y015889D01*
X007202Y015918D01*
X007272Y015932D01*
X007272Y015353D01*
X007352Y015353D01*
X007352Y015932D01*
X007423Y015918D01*
X007492Y015889D01*
X007555Y015848D01*
X007608Y015795D01*
X007649Y015732D01*
X007678Y015663D01*
X007692Y015590D01*
X007692Y015352D01*
X007353Y015352D01*
X007353Y015272D01*
X007692Y015272D01*
X007692Y015035D01*
X007678Y014962D01*
X007649Y014892D01*
X007608Y014830D01*
X007555Y014777D01*
X007505Y014744D01*
X007507Y014743D01*
X007572Y014710D01*
X007631Y014667D01*
X007683Y014615D01*
X007726Y014556D01*
X007759Y014491D01*
X007782Y014421D01*
X007793Y014349D01*
X007793Y014341D01*
X007357Y014341D01*
X007357Y014283D01*
X007357Y013847D01*
X007365Y013847D01*
X007437Y013859D01*
X007507Y013881D01*
X007572Y013915D01*
X007631Y013958D01*
X007683Y014009D01*
X007726Y014069D01*
X007759Y014134D01*
X007782Y014204D01*
X007793Y014276D01*
X007793Y014283D01*
X007357Y014283D01*
X007299Y014283D01*
X007299Y013847D01*
X007292Y013847D01*
X007219Y013859D01*
X007150Y013881D01*
X007084Y013915D01*
X007025Y013958D01*
X006974Y014009D01*
X006952Y014039D01*
X006952Y012520D01*
X007082Y012466D01*
X007186Y012362D01*
X007242Y012226D01*
X007242Y012079D01*
X007186Y011943D01*
X007082Y011839D01*
X006946Y011782D01*
X006801Y011782D01*
X006742Y011640D01*
X006594Y011492D01*
X006584Y011488D01*
X006793Y011402D01*
X006953Y011242D01*
X006970Y011201D01*
X006987Y011242D01*
X007147Y011402D01*
X007356Y011489D01*
X007583Y011489D01*
X007793Y011402D01*
X007953Y011242D01*
X007970Y011201D01*
X007987Y011242D01*
X008147Y011402D01*
X008232Y011437D01*
X008232Y013149D01*
X008159Y013223D01*
X008102Y013359D01*
X008102Y013506D01*
X008159Y013642D01*
X008263Y013746D01*
X008399Y013802D01*
X008546Y013802D01*
X008682Y013746D01*
X008786Y013642D01*
X008810Y013583D01*
X008952Y013725D01*
X008952Y013914D01*
X008852Y014015D01*
X008772Y014208D01*
X008772Y014417D01*
X008852Y014610D01*
X008983Y014742D01*
X008984Y014779D01*
X008939Y014823D01*
X008872Y014985D01*
X008872Y015640D01*
X008939Y015802D01*
X009063Y015925D01*
X009225Y015992D01*
X009400Y015992D01*
X009562Y015925D01*
X009685Y015802D01*
X009752Y015640D01*
X009752Y014985D01*
X009685Y014823D01*
X009624Y014762D01*
X009623Y014728D01*
X009742Y014610D01*
X009796Y014479D01*
X009863Y014546D01*
X009999Y014602D01*
X010072Y014602D01*
X010072Y014696D01*
X010063Y014699D01*
X009939Y014823D01*
X009872Y014985D01*
X009872Y015640D01*
X009939Y015802D01*
X010063Y015925D01*
X010225Y015992D01*
X010400Y015992D01*
X010562Y015925D01*
X010685Y015802D01*
X010752Y015640D01*
X010752Y014985D01*
X010685Y014823D01*
X010573Y014711D01*
X012196Y013088D01*
X012232Y013000D01*
X012232Y012905D01*
X012232Y012412D01*
X013032Y011612D01*
X013032Y013149D01*
X012959Y013223D01*
X012902Y013359D01*
X012902Y013506D01*
X012959Y013642D01*
X013063Y013746D01*
X013199Y013802D01*
X013346Y013802D01*
X013482Y013746D01*
X013586Y013642D01*
X013642Y013506D01*
X013642Y013359D01*
X013586Y013223D01*
X013512Y013149D01*
X013512Y011498D01*
X013693Y011572D01*
X013932Y011572D01*
X014152Y011481D01*
X014312Y011321D01*
X014312Y012693D01*
X014256Y012749D01*
X014189Y012816D01*
X014152Y012905D01*
X014152Y014662D01*
X014152Y014662D01*
X014152Y012276D01*
X014226Y012202D01*
X014282Y012066D01*
X014282Y011919D01*
X014226Y011783D01*
X014122Y011679D01*
X013986Y011622D01*
X013839Y011622D01*
X013703Y011679D01*
X013599Y011783D01*
X013542Y011919D01*
X013542Y012066D01*
X013599Y012202D01*
X013672Y012276D01*
X013672Y014773D01*
X013654Y014792D01*
X013562Y014699D01*
X013400Y014632D01*
X013225Y014632D01*
X013063Y014699D01*
X012939Y014823D01*
X012872Y014985D01*
X012872Y015640D01*
X012939Y015802D01*
X013063Y015925D01*
X013225Y015992D01*
X013400Y015992D01*
X013562Y015925D01*
X013685Y015802D01*
X013752Y015640D01*
X013752Y015372D01*
X013872Y015252D01*
X013872Y015640D01*
X013939Y015802D01*
X014063Y015925D01*
X014225Y015992D01*
X014400Y015992D01*
X014562Y015925D01*
X014685Y015802D01*
X014752Y015640D01*
X014752Y014985D01*
X014685Y014823D01*
X014632Y014770D01*
X014632Y013480D01*
X014639Y013482D01*
X014779Y013482D01*
X014719Y013543D01*
X014662Y013679D01*
X014662Y013826D01*
X014719Y013962D01*
X014823Y014066D01*
X014959Y014122D01*
X015106Y014122D01*
X015242Y014066D01*
X015346Y013962D01*
X015402Y013826D01*
X015402Y013679D01*
X015346Y013543D01*
X015272Y013469D01*
X015272Y012825D01*
X015314Y012842D01*
X015461Y012842D01*
X015597Y012786D01*
X015701Y012682D01*
X015757Y012546D01*
X015757Y012399D01*
X015701Y012263D01*
X015631Y012193D01*
X015675Y008841D01*
X015716Y008882D01*
X016189Y008882D01*
X016522Y008549D01*
X016522Y008076D01*
X016258Y007812D01*
X016522Y007549D01*
X016522Y007076D01*
X016258Y006812D01*
X016522Y006549D01*
X016522Y006076D01*
X016189Y005742D01*
X015716Y005742D01*
X015410Y006049D01*
X015164Y005802D01*
X014992Y005802D01*
X014992Y006272D01*
X014912Y006272D01*
X014912Y005802D01*
X014741Y005802D01*
X014632Y005911D01*
X014632Y005865D01*
X014596Y005776D01*
X014528Y005709D01*
X013568Y004749D01*
X013480Y004712D01*
X013385Y004712D01*
X012888Y004712D01*
X012936Y004665D01*
X013022Y004456D01*
X013022Y004229D01*
X012936Y004020D01*
X012775Y003859D01*
X012772Y003858D01*
X012772Y002267D01*
X012775Y002266D01*
X012936Y002105D01*
X013022Y001896D01*
X013022Y001669D01*
X012936Y001460D01*
X012775Y001299D01*
X012566Y001212D01*
X012339Y001212D01*
X012130Y001299D01*
X011969Y001460D01*
X011882Y001669D01*
X011882Y001896D01*
X011969Y002105D01*
X012130Y002266D01*
X012132Y002267D01*
X012132Y003858D01*
X012130Y003859D01*
X011969Y004020D01*
X011882Y004229D01*
X011882Y004343D01*
X011678Y004139D01*
X011590Y004102D01*
X011495Y004102D01*
X011190Y004102D01*
X011156Y004020D01*
X010995Y003859D01*
X010912Y003825D01*
X010912Y002300D01*
X010995Y002266D01*
X011156Y002105D01*
X011242Y001896D01*
X011242Y001669D01*
X011156Y001460D01*
X010995Y001299D01*
X010786Y001212D01*
X010559Y001212D01*
X010350Y001299D01*
X010189Y001460D01*
X010102Y001669D01*
X010102Y001896D01*
X010189Y002105D01*
X010350Y002266D01*
X010432Y002300D01*
X010432Y003825D01*
X010350Y003859D01*
X010189Y004020D01*
X010102Y004229D01*
X010102Y004456D01*
X010189Y004665D01*
X010350Y004826D01*
X010559Y004912D01*
X010786Y004912D01*
X010822Y004897D01*
X010822Y005026D01*
X010879Y005162D01*
X010983Y005266D01*
X011119Y005322D01*
X011223Y005322D01*
X012552Y006652D01*
X012552Y009789D01*
X012479Y009863D01*
X012422Y009999D01*
X012422Y010146D01*
X012479Y010282D01*
X012546Y010349D01*
X012356Y010349D01*
X012147Y010436D01*
X011987Y010596D01*
X011970Y010636D01*
X011953Y010596D01*
X011793Y010436D01*
X011710Y010401D01*
X011710Y007671D01*
X011722Y007666D01*
X011826Y007562D01*
X011882Y007426D01*
X011882Y007279D01*
X011826Y007143D01*
X011722Y007039D01*
X011586Y006982D01*
X011439Y006982D01*
X011303Y007039D01*
X011199Y007143D01*
X011142Y007279D01*
X011142Y007426D01*
X011199Y007562D01*
X011230Y007593D01*
X011230Y007981D01*
X011168Y007956D01*
X010641Y007429D01*
X010642Y007426D01*
X010642Y007199D01*
X010556Y006990D01*
X010395Y006829D01*
X010355Y006812D01*
X010395Y006796D01*
X010556Y006635D01*
X010642Y006426D01*
X010642Y006199D01*
X010556Y005990D01*
X010395Y005829D01*
X010186Y005742D01*
X009959Y005742D01*
X009750Y005829D01*
X009589Y005990D01*
X009502Y006199D01*
X009502Y006426D01*
X009589Y006635D01*
X009750Y006796D01*
X009790Y006812D01*
X009750Y006829D01*
X009589Y006990D01*
X009502Y007199D01*
X009502Y007426D01*
X009589Y007635D01*
X009750Y007796D01*
X009868Y007844D01*
X009805Y007876D01*
X009740Y007923D01*
X009683Y007980D01*
X009636Y008045D01*
X009600Y008117D01*
X009575Y008193D01*
X009562Y008272D01*
X009562Y008272D01*
X010032Y008272D01*
X010032Y008352D01*
X009562Y008352D01*
X009562Y008353D01*
X009575Y008432D01*
X009600Y008508D01*
X009636Y008580D01*
X009683Y008645D01*
X009740Y008701D01*
X009805Y008749D01*
X009877Y008785D01*
X009953Y008810D01*
X010032Y008822D01*
X010032Y008822D01*
X010032Y008353D01*
X010112Y008353D01*
X010112Y008822D01*
X010113Y008822D01*
X010192Y008810D01*
X010268Y008785D01*
X010340Y008749D01*
X010405Y008701D01*
X010461Y008645D01*
X010509Y008580D01*
X010545Y008508D01*
X010570Y008432D01*
X010582Y008353D01*
X010582Y008352D01*
X010113Y008352D01*
X010113Y008272D01*
X010580Y008272D01*
X010692Y008385D01*
X010692Y008386D01*
X010749Y008522D01*
X010853Y008626D01*
X010989Y008682D01*
X011136Y008682D01*
X011230Y008643D01*
X011230Y010401D01*
X011147Y010436D01*
X010987Y010596D01*
X010970Y010636D01*
X010953Y010596D01*
X010793Y010436D01*
X010710Y010401D01*
X010710Y009802D01*
X010786Y009802D01*
X010922Y009746D01*
X011026Y009642D01*
X011082Y009506D01*
X011082Y009359D01*
X011026Y009223D01*
X010922Y009119D01*
X010786Y009062D01*
X010639Y009062D01*
X010503Y009119D01*
X010399Y009223D01*
X010342Y009359D01*
X010342Y009463D01*
X010334Y009471D01*
X010334Y009471D01*
X010266Y009539D01*
X010230Y009627D01*
X010230Y010401D01*
X010147Y010436D01*
X009987Y010596D01*
X009970Y010636D01*
X009953Y010596D01*
X009793Y010436D01*
X009583Y010349D01*
X009356Y010349D01*
X009147Y010436D01*
X008987Y010596D01*
X008970Y010636D01*
X008953Y010596D01*
X008793Y010436D01*
X008583Y010349D01*
X008356Y010349D01*
X008147Y010436D01*
X007987Y010596D01*
X007970Y010636D01*
X007953Y010596D01*
X007793Y010436D01*
X007583Y010349D01*
X007356Y010349D01*
X007147Y010436D01*
X006987Y010596D01*
X006970Y010636D01*
X006953Y010596D01*
X006793Y010436D01*
X006583Y010349D01*
X006356Y010349D01*
X006147Y010436D01*
X005987Y010596D01*
X005980Y010612D01*
X005980Y010530D01*
X005970Y010495D01*
X005952Y010463D01*
X005926Y010437D01*
X005894Y010418D01*
X005858Y010409D01*
X005510Y010409D01*
X005510Y010879D01*
X005430Y010879D01*
X004960Y010879D01*
X004960Y010530D01*
X004969Y010495D01*
X004988Y010463D01*
X005014Y010437D01*
X005046Y010418D01*
X005081Y010409D01*
X005430Y010409D01*
X005430Y010879D01*
X005430Y010959D01*
X005430Y011429D01*
X005081Y011429D01*
X005046Y011419D01*
X005014Y011401D01*
X004988Y011375D01*
X004969Y011343D01*
X004960Y011307D01*
X004960Y010959D01*
X005430Y010959D01*
X005510Y010959D01*
X005510Y011429D01*
X005858Y011429D01*
X005894Y011419D01*
X005926Y011401D01*
X005952Y011375D01*
X005970Y011343D01*
X005980Y011307D01*
X005980Y011225D01*
X005987Y011242D01*
X006147Y011402D01*
X006182Y011417D01*
X005999Y011492D01*
X005852Y011640D01*
X005772Y011833D01*
X005772Y012042D01*
X005852Y012235D01*
X005999Y012382D01*
X006192Y012462D01*
X006222Y012462D01*
X006183Y012479D01*
X006079Y012583D01*
X006022Y012719D01*
X006022Y012866D01*
X006072Y012987D01*
X006072Y014696D01*
X006063Y014699D01*
X005939Y014823D01*
X005872Y014985D01*
X005872Y015640D01*
X005939Y015802D01*
X006063Y015925D01*
X006225Y015992D01*
X006400Y015992D01*
X006562Y015925D01*
X006632Y015855D01*
X006632Y016373D01*
X006133Y016872D01*
X003636Y016872D01*
X003562Y016799D01*
X003426Y016742D01*
X003279Y016742D01*
X003143Y016799D01*
X003039Y016903D01*
X002982Y017039D01*
X002982Y017186D01*
X003017Y017269D01*
X002574Y017712D01*
X002562Y017699D01*
X002400Y017632D01*
X002225Y017632D01*
X002063Y017699D01*
X001939Y017823D01*
X001872Y017985D01*
X001872Y018640D01*
X001939Y018802D01*
X002063Y018925D01*
X002225Y018992D01*
X002400Y018992D01*
X002562Y018925D01*
X002685Y018802D01*
X002752Y018640D01*
X002752Y018212D01*
X002872Y018092D01*
X002872Y018640D01*
X002939Y018802D01*
X003063Y018925D01*
X003225Y018992D01*
X003400Y018992D01*
X003562Y018925D01*
X003685Y018802D01*
X003752Y018640D01*
X003752Y017985D01*
X003873Y017985D01*
X003872Y017985D02*
X003939Y017823D01*
X004063Y017699D01*
X004128Y017672D01*
X003496Y017672D01*
X003562Y017699D01*
X003685Y017823D01*
X003752Y017985D01*
X003752Y018063D02*
X003872Y018063D01*
X003872Y017985D02*
X003872Y018640D01*
X003939Y018802D01*
X004063Y018925D01*
X004072Y018929D01*
X004072Y019592D01*
X001360Y019592D01*
X001265Y019592D01*
X001176Y019629D01*
X001109Y019696D01*
X001072Y019785D01*
X001072Y020762D01*
X000973Y020804D01*
X000804Y020973D01*
X000712Y021193D01*
X000712Y021432D01*
X000804Y021652D01*
X000973Y021821D01*
X001193Y021912D01*
X001432Y021912D01*
X001652Y021821D01*
X001821Y021652D01*
X001912Y021432D01*
X001912Y021193D01*
X001821Y020973D01*
X001652Y020804D01*
X001552Y020762D01*
X001552Y020072D01*
X004360Y020072D01*
X004448Y020036D01*
X004516Y019968D01*
X004552Y019880D01*
X004552Y019785D01*
X004552Y018929D01*
X004562Y018925D01*
X004685Y018802D01*
X004752Y018640D01*
X004752Y017985D01*
X004873Y017985D01*
X004872Y017985D02*
X004939Y017823D01*
X005063Y017699D01*
X005128Y017672D01*
X004496Y017672D01*
X004562Y017699D01*
X004685Y017823D01*
X004752Y017985D01*
X004752Y018063D02*
X004872Y018063D01*
X004872Y017985D02*
X004872Y018640D01*
X004939Y018802D01*
X005063Y018925D01*
X005225Y018992D01*
X005400Y018992D01*
X005562Y018925D01*
X005685Y018802D01*
X005752Y018640D01*
X005752Y017985D01*
X005873Y017985D01*
X005872Y017985D02*
X005939Y017823D01*
X006063Y017699D01*
X006128Y017672D01*
X005496Y017672D01*
X005562Y017699D01*
X005685Y017823D01*
X005752Y017985D01*
X005752Y018063D02*
X005872Y018063D01*
X005872Y017985D02*
X005872Y018640D01*
X005939Y018802D01*
X006007Y018869D01*
X005863Y019012D01*
X005782Y019207D01*
X005782Y019418D01*
X005863Y019613D01*
X006012Y019762D01*
X006207Y019842D01*
X006418Y019842D01*
X006613Y019762D01*
X006762Y019613D01*
X006812Y019490D01*
X006863Y019613D01*
X007012Y019762D01*
X007207Y019842D01*
X007418Y019842D01*
X007613Y019762D01*
X007762Y019613D01*
X007823Y019465D01*
X007883Y019610D01*
X008008Y019735D01*
X008008Y023461D01*
X007992Y023499D01*
X007992Y023626D01*
X007992Y025912D01*
X004706Y025912D01*
X004624Y025830D01*
X004422Y025747D01*
X004203Y025747D01*
X004001Y025830D01*
X003846Y025985D01*
X003762Y026187D01*
X003762Y026406D01*
X003846Y026608D01*
X004001Y026763D01*
X004203Y026847D01*
X004422Y026847D01*
X004624Y026763D01*
X004779Y026608D01*
X004802Y026552D01*
X007940Y026552D01*
X007917Y026560D01*
X007845Y026596D01*
X007780Y026643D01*
X007723Y026700D01*
X007676Y026765D01*
X007640Y026837D01*
X007615Y026913D01*
X007602Y026992D01*
X007602Y026992D01*
X008072Y026992D01*
X008072Y027072D01*
X007602Y027072D01*
X007602Y027073D01*
X007615Y027152D01*
X007640Y027228D01*
X007676Y027300D01*
X007723Y027365D01*
X007780Y027421D01*
X007845Y027469D01*
X007917Y027505D01*
X007993Y027530D01*
X008072Y027542D01*
X008072Y027542D01*
X008072Y027073D01*
X008152Y027073D01*
X008152Y027542D01*
X008153Y027542D01*
X008232Y027530D01*
X008308Y027505D01*
X008380Y027469D01*
X008445Y027421D01*
X008501Y027365D01*
X008549Y027300D01*
X008580Y027237D01*
X008629Y027355D01*
X008790Y027516D01*
X008903Y027562D01*
X002013Y027562D01*
X002162Y027304D01*
X002162Y027304D01*
X002222Y026967D01*
X002222Y026967D01*
X002162Y026630D01*
X002162Y026630D01*
X001991Y026334D01*
X001991Y026334D01*
X001991Y026334D01*
X001729Y026114D01*
X001729Y026114D01*
X001408Y025997D01*
X001408Y025997D01*
X001237Y025997D01*
X001189Y025997D01*
X001066Y025997D01*
X001066Y025997D01*
X000744Y026114D01*
X000744Y026114D01*
X000562Y026266D01*
X000562Y009399D01*
X000615Y009525D01*
X000775Y009685D01*
X000984Y009772D01*
X001211Y009772D01*
X001421Y009685D01*
X001581Y009525D01*
X001598Y009484D01*
X001615Y009525D01*
X001775Y009685D01*
X001984Y009772D01*
X002211Y009772D01*
X002421Y009685D01*
X002581Y009525D01*
X002598Y009484D01*
X002615Y009525D01*
X002775Y009685D01*
X002984Y009772D01*
X003211Y009772D01*
X003421Y009685D01*
X003581Y009525D01*
X003598Y009484D01*
X003615Y009525D01*
X003775Y009685D01*
X003984Y009772D01*
X004211Y009772D01*
X004283Y009742D01*
X004373Y009832D01*
X003400Y009832D01*
X003305Y009832D01*
X003216Y009869D01*
X003176Y009909D01*
X003109Y009976D01*
X003072Y010065D01*
X003072Y014696D01*
X003063Y014699D01*
X002939Y014823D01*
X002872Y014985D01*
X002872Y015640D01*
X002939Y015802D01*
X003063Y015925D01*
X003225Y015992D01*
X003400Y015992D01*
X003562Y015925D01*
X003685Y015802D01*
X003752Y015640D01*
X003752Y014985D01*
X003685Y014823D01*
X003562Y014699D01*
X003552Y014696D01*
X003552Y010312D01*
X007240Y010312D01*
X007313Y010282D01*
X007426Y010282D01*
X007562Y010226D01*
X007666Y010122D01*
X007717Y010000D01*
X007783Y010066D01*
X007919Y010122D01*
X008066Y010122D01*
X008202Y010066D01*
X008306Y009962D01*
X008362Y009826D01*
X008362Y009679D01*
X008306Y009543D01*
X008202Y009439D01*
X008066Y009382D01*
X007953Y009382D01*
X007880Y009352D01*
X007785Y009352D01*
X006825Y009352D01*
X006736Y009389D01*
X006669Y009456D01*
X006613Y009512D01*
X006503Y009512D01*
X006534Y009469D01*
X006570Y009398D01*
X006595Y009322D01*
X006608Y009242D01*
X006608Y009242D01*
X006138Y009242D01*
X006138Y009162D01*
X006608Y009162D01*
X006608Y009162D01*
X006595Y009083D01*
X006570Y009006D01*
X006534Y008935D01*
X006487Y008870D01*
X006430Y008813D01*
X006365Y008766D01*
X006294Y008730D01*
X006217Y008705D01*
X006138Y008692D01*
X006138Y008692D01*
X006138Y009162D01*
X006058Y009162D01*
X006058Y008692D01*
X006058Y008692D01*
X005978Y008705D01*
X005902Y008730D01*
X005831Y008766D01*
X005766Y008813D01*
X005709Y008870D01*
X005662Y008935D01*
X005630Y008997D01*
X005581Y008879D01*
X005421Y008719D01*
X005211Y008632D01*
X004984Y008632D01*
X004775Y008719D01*
X004615Y008879D01*
X004598Y008920D01*
X004581Y008879D01*
X004421Y008719D01*
X004211Y008632D01*
X003984Y008632D01*
X003775Y008719D01*
X003615Y008879D01*
X003598Y008920D01*
X003581Y008879D01*
X003421Y008719D01*
X003272Y008658D01*
X003272Y005236D01*
X003346Y005162D01*
X003402Y005026D01*
X003402Y004879D01*
X003346Y004743D01*
X003242Y004639D01*
X003106Y004582D01*
X002959Y004582D01*
X002823Y004639D01*
X002719Y004743D01*
X002662Y004879D01*
X002662Y005026D01*
X002719Y005162D01*
X002792Y005236D01*
X002792Y008712D01*
X002775Y008719D01*
X002615Y008879D01*
X002598Y008920D01*
X002581Y008879D01*
X002421Y008719D01*
X002211Y008632D01*
X001984Y008632D01*
X001775Y008719D01*
X001615Y008879D01*
X001598Y008920D01*
X001581Y008879D01*
X001421Y008719D01*
X001211Y008632D01*
X000984Y008632D01*
X000775Y008719D01*
X000615Y008879D01*
X000562Y009005D01*
X000562Y008952D02*
X000584Y008952D01*
X000562Y008874D02*
X000620Y008874D01*
X000562Y008795D02*
X000699Y008795D01*
X000781Y008717D02*
X000562Y008717D01*
X000562Y008638D02*
X000970Y008638D01*
X001225Y008638D02*
X001970Y008638D01*
X001781Y008717D02*
X001415Y008717D01*
X001497Y008795D02*
X001699Y008795D01*
X001620Y008874D02*
X001575Y008874D01*
X001591Y009502D02*
X001605Y009502D01*
X001670Y009581D02*
X001526Y009581D01*
X001447Y009659D02*
X001749Y009659D01*
X001901Y009738D02*
X001295Y009738D01*
X000901Y009738D02*
X000562Y009738D01*
X000562Y009816D02*
X004357Y009816D01*
X004632Y009752D02*
X004098Y009218D01*
X004098Y009202D01*
X004497Y008795D02*
X004699Y008795D01*
X004620Y008874D02*
X004575Y008874D01*
X004415Y008717D02*
X004781Y008717D01*
X004970Y008638D02*
X004225Y008638D01*
X003970Y008638D02*
X003272Y008638D01*
X003272Y008559D02*
X006982Y008559D01*
X007039Y008423D01*
X007112Y008349D01*
X007112Y004912D01*
X007059Y004912D01*
X006850Y004826D01*
X006689Y004665D01*
X006602Y004456D01*
X006602Y004229D01*
X006689Y004020D01*
X006850Y003859D01*
X006932Y003825D01*
X006932Y002300D01*
X006850Y002266D01*
X006689Y002105D01*
X006602Y001896D01*
X006602Y001669D01*
X006689Y001460D01*
X006850Y001299D01*
X007059Y001212D01*
X007286Y001212D01*
X007495Y001299D01*
X007656Y001460D01*
X007742Y001669D01*
X007742Y001896D01*
X007656Y002105D01*
X007495Y002266D01*
X007412Y002300D01*
X007412Y003825D01*
X007495Y003859D01*
X007656Y004020D01*
X007742Y004229D01*
X007742Y004456D01*
X007656Y004665D01*
X007592Y004729D01*
X007592Y008349D01*
X007666Y008423D01*
X007722Y008559D01*
X007722Y008706D01*
X007666Y008842D01*
X007562Y008946D01*
X007426Y009002D01*
X007279Y009002D01*
X007143Y008946D01*
X007039Y008842D01*
X006982Y008706D01*
X006982Y008559D01*
X006982Y008638D02*
X005225Y008638D01*
X005415Y008717D02*
X005942Y008717D01*
X006058Y008717D02*
X006138Y008717D01*
X006138Y008795D02*
X006058Y008795D01*
X006058Y008874D02*
X006138Y008874D01*
X006138Y008952D02*
X006058Y008952D01*
X006058Y009031D02*
X006138Y009031D01*
X006138Y009109D02*
X006058Y009109D01*
X006138Y009188D02*
X010434Y009188D01*
X010381Y009266D02*
X006604Y009266D01*
X006588Y009345D02*
X010348Y009345D01*
X010342Y009423D02*
X008165Y009423D01*
X008265Y009502D02*
X010303Y009502D01*
X010249Y009581D02*
X008322Y009581D01*
X008354Y009659D02*
X010230Y009659D01*
X010230Y009738D02*
X008362Y009738D01*
X008362Y009816D02*
X010230Y009816D01*
X010230Y009895D02*
X008334Y009895D01*
X008295Y009973D02*
X010230Y009973D01*
X010230Y010052D02*
X008216Y010052D01*
X008315Y010366D02*
X007625Y010366D01*
X007579Y010209D02*
X010230Y010209D01*
X010230Y010287D02*
X007300Y010287D01*
X007315Y010366D02*
X006625Y010366D01*
X006802Y010445D02*
X007138Y010445D01*
X007059Y010523D02*
X006880Y010523D01*
X006955Y010602D02*
X006984Y010602D01*
X007192Y010072D02*
X003352Y010072D01*
X003312Y010112D01*
X003312Y015312D01*
X003752Y015314D02*
X003872Y015314D01*
X003872Y015236D02*
X003752Y015236D01*
X003752Y015157D02*
X003872Y015157D01*
X003872Y015079D02*
X003752Y015079D01*
X003752Y015000D02*
X003872Y015000D01*
X003872Y014985D02*
X003939Y014823D01*
X004063Y014699D01*
X004225Y014632D01*
X004400Y014632D01*
X004552Y014696D01*
X004552Y013716D01*
X004479Y013642D01*
X004422Y013506D01*
X004422Y013359D01*
X004479Y013223D01*
X004583Y013119D01*
X004719Y013062D01*
X004866Y013062D01*
X005002Y013119D01*
X005072Y013189D01*
X005072Y012570D01*
X005062Y012546D01*
X005062Y012399D01*
X005119Y012263D01*
X005223Y012159D01*
X005359Y012102D01*
X005506Y012102D01*
X005642Y012159D01*
X005746Y012263D01*
X005802Y012399D01*
X005802Y012546D01*
X005746Y012682D01*
X005642Y012786D01*
X005552Y012823D01*
X005552Y014696D01*
X005562Y014699D01*
X005685Y014823D01*
X005752Y014985D01*
X005752Y015640D01*
X005685Y015802D01*
X005562Y015925D01*
X005400Y015992D01*
X005225Y015992D01*
X005063Y015925D01*
X005032Y015895D01*
X005032Y016029D01*
X005106Y016103D01*
X005162Y016239D01*
X005162Y016386D01*
X005106Y016522D01*
X005002Y016626D01*
X004866Y016682D01*
X004719Y016682D01*
X004583Y016626D01*
X004479Y016522D01*
X004422Y016386D01*
X004422Y016239D01*
X004479Y016103D01*
X004552Y016029D01*
X004552Y015929D01*
X004400Y015992D01*
X004225Y015992D01*
X004063Y015925D01*
X003939Y015802D01*
X003872Y015640D01*
X003872Y014985D01*
X003899Y014921D02*
X003726Y014921D01*
X003694Y014843D02*
X003931Y014843D01*
X003998Y014764D02*
X003627Y014764D01*
X003552Y014686D02*
X004096Y014686D01*
X004529Y014686D02*
X004552Y014686D01*
X004552Y014607D02*
X003552Y014607D01*
X003552Y014529D02*
X004552Y014529D01*
X004552Y014450D02*
X003552Y014450D01*
X003552Y014372D02*
X004552Y014372D01*
X004552Y014293D02*
X003552Y014293D01*
X003552Y014215D02*
X004552Y014215D01*
X004552Y014136D02*
X003552Y014136D01*
X003552Y014058D02*
X004552Y014058D01*
X004552Y013979D02*
X003552Y013979D01*
X003552Y013900D02*
X004552Y013900D01*
X004552Y013822D02*
X003552Y013822D01*
X003552Y013743D02*
X004552Y013743D01*
X004502Y013665D02*
X003552Y013665D01*
X003552Y013586D02*
X004456Y013586D01*
X004423Y013508D02*
X003552Y013508D01*
X003552Y013429D02*
X004422Y013429D01*
X004426Y013351D02*
X003552Y013351D01*
X003552Y013272D02*
X004458Y013272D01*
X004508Y013194D02*
X003552Y013194D01*
X003552Y013115D02*
X004592Y013115D01*
X004792Y013432D02*
X004792Y016312D01*
X005137Y016178D02*
X006632Y016178D01*
X006632Y016100D02*
X005103Y016100D01*
X005032Y016021D02*
X006632Y016021D01*
X006632Y015943D02*
X006520Y015943D01*
X006623Y015864D02*
X006632Y015864D01*
X006632Y016257D02*
X005162Y016257D01*
X005162Y016335D02*
X006632Y016335D01*
X006592Y016414D02*
X005151Y016414D01*
X005118Y016492D02*
X006513Y016492D01*
X006435Y016571D02*
X005057Y016571D01*
X004946Y016649D02*
X006356Y016649D01*
X006277Y016728D02*
X000562Y016728D01*
X000562Y016807D02*
X003135Y016807D01*
X003057Y016885D02*
X000562Y016885D01*
X000562Y016964D02*
X003014Y016964D01*
X002982Y017042D02*
X000562Y017042D01*
X000562Y017121D02*
X002982Y017121D01*
X002988Y017199D02*
X000562Y017199D01*
X000562Y017278D02*
X003008Y017278D01*
X002929Y017356D02*
X000562Y017356D01*
X000562Y017435D02*
X002851Y017435D01*
X002772Y017513D02*
X000562Y017513D01*
X000562Y017592D02*
X002693Y017592D01*
X002615Y017671D02*
X002492Y017671D01*
X002133Y017671D02*
X000562Y017671D01*
X000562Y017749D02*
X002014Y017749D01*
X001938Y017828D02*
X000562Y017828D01*
X000562Y017906D02*
X001905Y017906D01*
X001873Y017985D02*
X000562Y017985D01*
X000562Y018063D02*
X001872Y018063D01*
X001872Y018142D02*
X000562Y018142D01*
X000562Y018220D02*
X001872Y018220D01*
X001872Y018299D02*
X000562Y018299D01*
X000562Y018377D02*
X001872Y018377D01*
X001872Y018456D02*
X000562Y018456D01*
X000562Y018534D02*
X001872Y018534D01*
X001872Y018613D02*
X000562Y018613D01*
X000562Y018692D02*
X001894Y018692D01*
X001926Y018770D02*
X000562Y018770D01*
X000562Y018849D02*
X001986Y018849D01*
X002067Y018927D02*
X000562Y018927D01*
X000562Y019006D02*
X004072Y019006D01*
X004072Y019084D02*
X000562Y019084D01*
X000562Y019163D02*
X004072Y019163D01*
X004072Y019241D02*
X000562Y019241D01*
X000562Y019320D02*
X004072Y019320D01*
X004072Y019398D02*
X000562Y019398D01*
X000562Y019477D02*
X004072Y019477D01*
X004072Y019556D02*
X000562Y019556D01*
X000562Y019634D02*
X001171Y019634D01*
X001102Y019713D02*
X000562Y019713D01*
X000562Y019791D02*
X001072Y019791D01*
X001072Y019870D02*
X000562Y019870D01*
X000562Y019948D02*
X001072Y019948D01*
X001072Y020027D02*
X000562Y020027D01*
X000562Y020105D02*
X001072Y020105D01*
X001072Y020184D02*
X000562Y020184D01*
X000562Y020262D02*
X001072Y020262D01*
X001072Y020341D02*
X000562Y020341D01*
X000562Y020420D02*
X001072Y020420D01*
X001072Y020498D02*
X000562Y020498D01*
X000562Y020577D02*
X001072Y020577D01*
X001072Y020655D02*
X000562Y020655D01*
X000562Y020734D02*
X001072Y020734D01*
X000964Y020812D02*
X000562Y020812D01*
X000562Y020891D02*
X000886Y020891D01*
X000807Y020969D02*
X000562Y020969D01*
X000562Y021048D02*
X000773Y021048D01*
X000740Y021126D02*
X000562Y021126D01*
X000562Y021205D02*
X000712Y021205D01*
X000712Y021284D02*
X000562Y021284D01*
X000562Y021362D02*
X000712Y021362D01*
X000716Y021441D02*
X000562Y021441D01*
X000562Y021519D02*
X000749Y021519D01*
X000781Y021598D02*
X000562Y021598D01*
X000562Y021676D02*
X000828Y021676D01*
X000906Y021755D02*
X000562Y021755D01*
X000562Y021833D02*
X001002Y021833D01*
X001192Y021912D02*
X000562Y021912D01*
X000562Y021990D02*
X008008Y021990D01*
X008008Y021912D02*
X001433Y021912D01*
X001623Y021833D02*
X008008Y021833D01*
X008008Y021755D02*
X001719Y021755D01*
X001797Y021676D02*
X008008Y021676D01*
X008008Y021598D02*
X001844Y021598D01*
X001876Y021519D02*
X008008Y021519D01*
X008008Y021441D02*
X001909Y021441D01*
X001912Y021362D02*
X008008Y021362D01*
X008008Y021284D02*
X001912Y021284D01*
X001912Y021205D02*
X008008Y021205D01*
X008008Y021126D02*
X001885Y021126D01*
X001852Y021048D02*
X008008Y021048D01*
X008008Y020969D02*
X001818Y020969D01*
X001739Y020891D02*
X008008Y020891D01*
X008008Y020812D02*
X001661Y020812D01*
X001552Y020734D02*
X008008Y020734D01*
X008008Y020655D02*
X001552Y020655D01*
X001552Y020577D02*
X008008Y020577D01*
X008008Y020498D02*
X001552Y020498D01*
X001552Y020420D02*
X008008Y020420D01*
X008008Y020341D02*
X001552Y020341D01*
X001552Y020262D02*
X008008Y020262D01*
X008008Y020184D02*
X001552Y020184D01*
X001552Y020105D02*
X008008Y020105D01*
X008008Y020027D02*
X004457Y020027D01*
X004524Y019948D02*
X008008Y019948D01*
X008008Y019870D02*
X004552Y019870D01*
X004552Y019791D02*
X006083Y019791D01*
X005963Y019713D02*
X004552Y019713D01*
X004552Y019634D02*
X005885Y019634D01*
X005839Y019556D02*
X004552Y019556D01*
X004552Y019477D02*
X005807Y019477D01*
X005782Y019398D02*
X004552Y019398D01*
X004552Y019320D02*
X005782Y019320D01*
X005782Y019241D02*
X004552Y019241D01*
X004552Y019163D02*
X005801Y019163D01*
X005833Y019084D02*
X004552Y019084D01*
X004552Y019006D02*
X005870Y019006D01*
X005948Y018927D02*
X005557Y018927D01*
X005638Y018849D02*
X005986Y018849D01*
X005926Y018770D02*
X005699Y018770D01*
X005731Y018692D02*
X005894Y018692D01*
X005872Y018613D02*
X005752Y018613D01*
X005752Y018534D02*
X005872Y018534D01*
X005872Y018456D02*
X005752Y018456D01*
X005752Y018377D02*
X005872Y018377D01*
X005872Y018299D02*
X005752Y018299D01*
X005752Y018220D02*
X005872Y018220D01*
X005872Y018142D02*
X005752Y018142D01*
X005720Y017906D02*
X005905Y017906D01*
X005938Y017828D02*
X005687Y017828D01*
X005611Y017749D02*
X006014Y017749D01*
X006232Y017112D02*
X006872Y016472D01*
X006872Y014872D01*
X006712Y014712D01*
X006712Y012312D01*
X006872Y012152D01*
X007140Y012408D02*
X008232Y012408D01*
X008232Y012330D02*
X007200Y012330D01*
X007232Y012251D02*
X008232Y012251D01*
X008232Y012172D02*
X007242Y012172D01*
X007242Y012094D02*
X008232Y012094D01*
X008232Y012015D02*
X007216Y012015D01*
X007180Y011937D02*
X008232Y011937D01*
X008232Y011858D02*
X007102Y011858D01*
X006800Y011780D02*
X008232Y011780D01*
X008232Y011701D02*
X006767Y011701D01*
X006724Y011623D02*
X008232Y011623D01*
X008232Y011544D02*
X006646Y011544D01*
X006639Y011466D02*
X007301Y011466D01*
X007132Y011387D02*
X006808Y011387D01*
X006886Y011309D02*
X007054Y011309D01*
X006982Y011230D02*
X006958Y011230D01*
X006315Y010366D02*
X003552Y010366D01*
X003552Y010445D02*
X005006Y010445D01*
X004962Y010523D02*
X003552Y010523D01*
X003552Y010602D02*
X004960Y010602D01*
X004960Y010680D02*
X003552Y010680D01*
X003552Y010759D02*
X004960Y010759D01*
X004960Y010837D02*
X003552Y010837D01*
X003552Y010916D02*
X005430Y010916D01*
X005430Y010994D02*
X005510Y010994D01*
X005510Y011073D02*
X005430Y011073D01*
X005430Y011151D02*
X005510Y011151D01*
X005510Y011230D02*
X005430Y011230D01*
X005430Y011309D02*
X005510Y011309D01*
X005510Y011387D02*
X005430Y011387D01*
X005000Y011387D02*
X003552Y011387D01*
X003552Y011309D02*
X004960Y011309D01*
X004960Y011230D02*
X003552Y011230D01*
X003552Y011151D02*
X004960Y011151D01*
X004960Y011073D02*
X003552Y011073D01*
X003552Y010994D02*
X004960Y010994D01*
X005430Y010837D02*
X005510Y010837D01*
X005510Y010759D02*
X005430Y010759D01*
X005430Y010680D02*
X005510Y010680D01*
X005510Y010602D02*
X005430Y010602D01*
X005430Y010523D02*
X005510Y010523D01*
X005510Y010445D02*
X005430Y010445D01*
X005934Y010445D02*
X006138Y010445D01*
X006059Y010523D02*
X005978Y010523D01*
X005980Y010602D02*
X005984Y010602D01*
X005980Y011230D02*
X005982Y011230D01*
X005980Y011309D02*
X006054Y011309D01*
X006132Y011387D02*
X005940Y011387D01*
X006064Y011466D02*
X003552Y011466D01*
X003552Y011544D02*
X004078Y011544D01*
X004084Y011540D02*
X004150Y011506D01*
X004219Y011484D01*
X004292Y011472D01*
X004299Y011472D01*
X004299Y011908D01*
X004357Y011908D01*
X004357Y011472D01*
X004365Y011472D01*
X004437Y011484D01*
X004507Y011506D01*
X004572Y011540D01*
X004631Y011583D01*
X004683Y011634D01*
X004726Y011694D01*
X004759Y011759D01*
X004782Y011829D01*
X004793Y011901D01*
X004793Y011908D01*
X004357Y011908D01*
X004357Y011966D01*
X004793Y011966D01*
X004793Y011974D01*
X004782Y012046D01*
X004759Y012116D01*
X004726Y012181D01*
X004683Y012240D01*
X004631Y012292D01*
X004572Y012335D01*
X004507Y012368D01*
X004437Y012391D01*
X004365Y012402D01*
X004357Y012402D01*
X004357Y011967D01*
X004299Y011967D01*
X004299Y012402D01*
X004292Y012402D01*
X004219Y012391D01*
X004150Y012368D01*
X004084Y012335D01*
X004025Y012292D01*
X003974Y012240D01*
X003930Y012181D01*
X003897Y012116D01*
X003875Y012046D01*
X003863Y011974D01*
X003863Y011966D01*
X004299Y011966D01*
X004299Y011908D01*
X003863Y011908D01*
X003863Y011901D01*
X003875Y011829D01*
X003897Y011759D01*
X003930Y011694D01*
X003974Y011634D01*
X004025Y011583D01*
X004084Y011540D01*
X003985Y011623D02*
X003552Y011623D01*
X003552Y011701D02*
X003927Y011701D01*
X003890Y011780D02*
X003552Y011780D01*
X003552Y011858D02*
X003870Y011858D01*
X003870Y012015D02*
X003552Y012015D01*
X003552Y011937D02*
X004299Y011937D01*
X004357Y011937D02*
X005772Y011937D01*
X005772Y012015D02*
X004787Y012015D01*
X004766Y012094D02*
X005793Y012094D01*
X005826Y012172D02*
X005656Y012172D01*
X005734Y012251D02*
X005868Y012251D01*
X005946Y012330D02*
X005774Y012330D01*
X005802Y012408D02*
X006061Y012408D01*
X006175Y012487D02*
X005802Y012487D01*
X005794Y012565D02*
X006096Y012565D01*
X006054Y012644D02*
X005762Y012644D01*
X005706Y012722D02*
X006022Y012722D01*
X006022Y012801D02*
X005606Y012801D01*
X005552Y012879D02*
X006028Y012879D01*
X006061Y012958D02*
X005552Y012958D01*
X005552Y013036D02*
X006072Y013036D01*
X006072Y013115D02*
X005552Y013115D01*
X005552Y013194D02*
X006072Y013194D01*
X006072Y013272D02*
X005552Y013272D01*
X005552Y013351D02*
X006072Y013351D01*
X006072Y013429D02*
X005552Y013429D01*
X005552Y013508D02*
X006072Y013508D01*
X006072Y013586D02*
X005552Y013586D01*
X005552Y013665D02*
X006072Y013665D01*
X006072Y013743D02*
X005552Y013743D01*
X005552Y013822D02*
X006072Y013822D01*
X006072Y013900D02*
X005552Y013900D01*
X005552Y013979D02*
X006072Y013979D01*
X006072Y014058D02*
X005552Y014058D01*
X005552Y014136D02*
X006072Y014136D01*
X006072Y014215D02*
X005552Y014215D01*
X005552Y014293D02*
X006072Y014293D01*
X006072Y014372D02*
X005552Y014372D01*
X005552Y014450D02*
X006072Y014450D01*
X006072Y014529D02*
X005552Y014529D01*
X005552Y014607D02*
X006072Y014607D01*
X006072Y014686D02*
X005552Y014686D01*
X005627Y014764D02*
X005998Y014764D01*
X005931Y014843D02*
X005694Y014843D01*
X005726Y014921D02*
X005899Y014921D01*
X005872Y015000D02*
X005752Y015000D01*
X005752Y015079D02*
X005872Y015079D01*
X005872Y015157D02*
X005752Y015157D01*
X005752Y015236D02*
X005872Y015236D01*
X005872Y015314D02*
X005752Y015314D01*
X005752Y015393D02*
X005872Y015393D01*
X005872Y015471D02*
X005752Y015471D01*
X005752Y015550D02*
X005872Y015550D01*
X005872Y015628D02*
X005752Y015628D01*
X005725Y015707D02*
X005900Y015707D01*
X005933Y015785D02*
X005692Y015785D01*
X005623Y015864D02*
X006002Y015864D01*
X006105Y015943D02*
X005520Y015943D01*
X005312Y015312D02*
X005312Y012592D01*
X005432Y012472D01*
X005209Y012172D02*
X004730Y012172D01*
X004672Y012251D02*
X005131Y012251D01*
X005091Y012330D02*
X004580Y012330D01*
X004357Y012330D02*
X004299Y012330D01*
X004299Y012251D02*
X004357Y012251D01*
X004357Y012172D02*
X004299Y012172D01*
X004299Y012094D02*
X004357Y012094D01*
X004357Y012015D02*
X004299Y012015D01*
X004299Y011858D02*
X004357Y011858D01*
X004357Y011780D02*
X004299Y011780D01*
X004299Y011701D02*
X004357Y011701D01*
X004357Y011623D02*
X004299Y011623D01*
X004299Y011544D02*
X004357Y011544D01*
X004578Y011544D02*
X005948Y011544D01*
X005869Y011623D02*
X004671Y011623D01*
X004730Y011701D02*
X005826Y011701D01*
X005794Y011780D02*
X004766Y011780D01*
X004786Y011858D02*
X005772Y011858D01*
X006392Y012792D02*
X006312Y012872D01*
X006312Y015312D01*
X007112Y015943D02*
X008105Y015943D01*
X008063Y015925D02*
X008225Y015992D01*
X008400Y015992D01*
X008562Y015925D01*
X008685Y015802D01*
X008752Y015640D01*
X008752Y014985D01*
X008685Y014823D01*
X008562Y014699D01*
X008400Y014632D01*
X008225Y014632D01*
X008063Y014699D01*
X007939Y014823D01*
X007872Y014985D01*
X007872Y015640D01*
X007939Y015802D01*
X008063Y015925D01*
X008002Y015864D02*
X007530Y015864D01*
X007614Y015785D02*
X007933Y015785D01*
X007900Y015707D02*
X007660Y015707D01*
X007685Y015628D02*
X007872Y015628D01*
X007872Y015550D02*
X007692Y015550D01*
X007692Y015471D02*
X007872Y015471D01*
X007872Y015393D02*
X007692Y015393D01*
X007692Y015236D02*
X007872Y015236D01*
X007872Y015314D02*
X007353Y015314D01*
X007352Y015272D02*
X007352Y014693D01*
X007357Y014694D01*
X007357Y014342D01*
X007299Y014342D01*
X007299Y014777D01*
X007292Y014777D01*
X007272Y014774D01*
X007272Y015272D01*
X007352Y015272D01*
X007352Y015236D02*
X007272Y015236D01*
X007272Y015157D02*
X007352Y015157D01*
X007352Y015079D02*
X007272Y015079D01*
X007272Y015000D02*
X007352Y015000D01*
X007352Y014921D02*
X007272Y014921D01*
X007272Y014843D02*
X007352Y014843D01*
X007352Y014764D02*
X007299Y014764D01*
X007299Y014686D02*
X007357Y014686D01*
X007357Y014607D02*
X007299Y014607D01*
X007299Y014529D02*
X007357Y014529D01*
X007357Y014450D02*
X007299Y014450D01*
X007299Y014372D02*
X007357Y014372D01*
X007357Y014293D02*
X008772Y014293D01*
X008772Y014215D02*
X007783Y014215D01*
X007760Y014136D02*
X008801Y014136D01*
X008834Y014058D02*
X007718Y014058D01*
X007652Y013979D02*
X008888Y013979D01*
X008952Y013900D02*
X007544Y013900D01*
X007357Y013900D02*
X007299Y013900D01*
X007299Y013979D02*
X007357Y013979D01*
X007357Y014058D02*
X007299Y014058D01*
X007299Y014136D02*
X007357Y014136D01*
X007357Y014215D02*
X007299Y014215D01*
X007112Y013900D02*
X006952Y013900D01*
X006952Y013822D02*
X008952Y013822D01*
X008952Y013743D02*
X008685Y013743D01*
X008763Y013665D02*
X008892Y013665D01*
X008814Y013586D02*
X008809Y013586D01*
X008472Y013432D02*
X008472Y010921D01*
X008470Y010919D01*
X008802Y010445D02*
X009138Y010445D01*
X009059Y010523D02*
X008880Y010523D01*
X008955Y010602D02*
X008984Y010602D01*
X009315Y010366D02*
X008625Y010366D01*
X008138Y010445D02*
X007802Y010445D01*
X007880Y010523D02*
X008059Y010523D01*
X007984Y010602D02*
X007955Y010602D01*
X007658Y010130D02*
X010230Y010130D01*
X010230Y010366D02*
X009625Y010366D01*
X009802Y010445D02*
X010138Y010445D01*
X010059Y010523D02*
X009880Y010523D01*
X009955Y010602D02*
X009984Y010602D01*
X010470Y010919D02*
X010470Y013675D01*
X010392Y013752D01*
X010072Y014232D02*
X010072Y011672D01*
X009432Y012152D02*
X009432Y010956D01*
X009470Y010919D01*
X010470Y010919D02*
X010470Y009675D01*
X010712Y009432D01*
X010991Y009188D02*
X011230Y009188D01*
X011230Y009266D02*
X011044Y009266D01*
X011077Y009345D02*
X011230Y009345D01*
X011230Y009423D02*
X011082Y009423D01*
X011082Y009502D02*
X011230Y009502D01*
X011230Y009581D02*
X011052Y009581D01*
X011009Y009659D02*
X011230Y009659D01*
X011230Y009738D02*
X010930Y009738D01*
X010710Y009816D02*
X011230Y009816D01*
X011230Y009895D02*
X010710Y009895D01*
X010710Y009973D02*
X011230Y009973D01*
X011230Y010052D02*
X010710Y010052D01*
X010710Y010130D02*
X011230Y010130D01*
X011230Y010209D02*
X010710Y010209D01*
X010710Y010287D02*
X011230Y010287D01*
X011230Y010366D02*
X010710Y010366D01*
X010802Y010445D02*
X011138Y010445D01*
X011059Y010523D02*
X010880Y010523D01*
X010955Y010602D02*
X010984Y010602D01*
X011470Y010919D02*
X011470Y007395D01*
X011512Y007352D01*
X011274Y007067D02*
X010588Y007067D01*
X010620Y007146D02*
X011198Y007146D01*
X011165Y007224D02*
X010642Y007224D01*
X010642Y007303D02*
X011142Y007303D01*
X011142Y007381D02*
X010642Y007381D01*
X010672Y007460D02*
X011156Y007460D01*
X011189Y007538D02*
X010751Y007538D01*
X010830Y007617D02*
X011230Y007617D01*
X011230Y007696D02*
X010908Y007696D01*
X010987Y007774D02*
X011230Y007774D01*
X011230Y007853D02*
X011065Y007853D01*
X011144Y007931D02*
X011230Y007931D01*
X011710Y007931D02*
X012552Y007931D01*
X012552Y007853D02*
X011710Y007853D01*
X011710Y007774D02*
X012552Y007774D01*
X012552Y007696D02*
X011710Y007696D01*
X011771Y007617D02*
X012552Y007617D01*
X012552Y007538D02*
X011836Y007538D01*
X011868Y007460D02*
X012552Y007460D01*
X012552Y007381D02*
X011882Y007381D01*
X011882Y007303D02*
X012552Y007303D01*
X012552Y007224D02*
X011860Y007224D01*
X011827Y007146D02*
X012552Y007146D01*
X012552Y007067D02*
X011750Y007067D01*
X011601Y006989D02*
X012552Y006989D01*
X012552Y006910D02*
X010476Y006910D01*
X010398Y006832D02*
X012552Y006832D01*
X012552Y006753D02*
X010438Y006753D01*
X010516Y006674D02*
X012552Y006674D01*
X012496Y006596D02*
X010572Y006596D01*
X010604Y006517D02*
X012418Y006517D01*
X012339Y006439D02*
X010637Y006439D01*
X010642Y006360D02*
X012261Y006360D01*
X012182Y006282D02*
X010642Y006282D01*
X010642Y006203D02*
X012104Y006203D01*
X012025Y006125D02*
X010612Y006125D01*
X010579Y006046D02*
X011947Y006046D01*
X011868Y005968D02*
X010534Y005968D01*
X010455Y005889D02*
X011790Y005889D01*
X011711Y005810D02*
X010350Y005810D01*
X009795Y005810D02*
X009272Y005810D01*
X009272Y005732D02*
X011633Y005732D01*
X011554Y005653D02*
X009272Y005653D01*
X009272Y005575D02*
X011475Y005575D01*
X011397Y005496D02*
X009272Y005496D01*
X009272Y005418D02*
X011318Y005418D01*
X011240Y005339D02*
X009272Y005339D01*
X009272Y005261D02*
X010977Y005261D01*
X010899Y005182D02*
X009272Y005182D01*
X009272Y005104D02*
X010855Y005104D01*
X010822Y005025D02*
X009272Y005025D01*
X009272Y004946D02*
X010822Y004946D01*
X011192Y004952D02*
X012792Y006552D01*
X012792Y010072D01*
X012525Y009816D02*
X011710Y009816D01*
X011710Y009738D02*
X012552Y009738D01*
X012552Y009659D02*
X011710Y009659D01*
X011710Y009581D02*
X012552Y009581D01*
X012552Y009502D02*
X011710Y009502D01*
X011710Y009423D02*
X012552Y009423D01*
X012552Y009345D02*
X011710Y009345D01*
X011710Y009266D02*
X012552Y009266D01*
X012552Y009188D02*
X011710Y009188D01*
X011710Y009109D02*
X012552Y009109D01*
X012552Y009031D02*
X011710Y009031D01*
X011710Y008952D02*
X012552Y008952D01*
X012552Y008874D02*
X011710Y008874D01*
X011710Y008795D02*
X012552Y008795D01*
X012552Y008717D02*
X011710Y008717D01*
X011710Y008638D02*
X012552Y008638D01*
X012552Y008559D02*
X011710Y008559D01*
X011710Y008481D02*
X012552Y008481D01*
X012552Y008402D02*
X011710Y008402D01*
X011710Y008324D02*
X012552Y008324D01*
X012552Y008245D02*
X011710Y008245D01*
X011710Y008167D02*
X012552Y008167D01*
X012552Y008088D02*
X011710Y008088D01*
X011710Y008010D02*
X012552Y008010D01*
X013272Y006712D02*
X013272Y013432D01*
X013557Y013194D02*
X013672Y013194D01*
X013672Y013272D02*
X013606Y013272D01*
X013639Y013351D02*
X013672Y013351D01*
X013672Y013429D02*
X013642Y013429D01*
X013642Y013508D02*
X013672Y013508D01*
X013672Y013586D02*
X013609Y013586D01*
X013563Y013665D02*
X013672Y013665D01*
X013672Y013743D02*
X013485Y013743D01*
X013672Y013822D02*
X011462Y013822D01*
X011384Y013900D02*
X013672Y013900D01*
X013672Y013979D02*
X011305Y013979D01*
X011227Y014058D02*
X013672Y014058D01*
X013672Y014136D02*
X011148Y014136D01*
X011070Y014215D02*
X013672Y014215D01*
X013672Y014293D02*
X010991Y014293D01*
X010913Y014372D02*
X013672Y014372D01*
X013672Y014450D02*
X010834Y014450D01*
X010755Y014529D02*
X013672Y014529D01*
X013672Y014607D02*
X010677Y014607D01*
X010598Y014686D02*
X011096Y014686D01*
X011063Y014699D02*
X011225Y014632D01*
X011400Y014632D01*
X011562Y014699D01*
X011685Y014823D01*
X011752Y014985D01*
X011752Y015640D01*
X011685Y015802D01*
X011562Y015925D01*
X011400Y015992D01*
X011225Y015992D01*
X011063Y015925D01*
X010939Y015802D01*
X010872Y015640D01*
X010872Y014985D01*
X010939Y014823D01*
X011063Y014699D01*
X010998Y014764D02*
X010627Y014764D01*
X010694Y014843D02*
X010931Y014843D01*
X010899Y014921D02*
X010726Y014921D01*
X010752Y015000D02*
X010872Y015000D01*
X010872Y015079D02*
X010752Y015079D01*
X010752Y015157D02*
X010872Y015157D01*
X010872Y015236D02*
X010752Y015236D01*
X010752Y015314D02*
X010872Y015314D01*
X010872Y015393D02*
X010752Y015393D01*
X010752Y015471D02*
X010872Y015471D01*
X010872Y015550D02*
X010752Y015550D01*
X010752Y015628D02*
X010872Y015628D01*
X010900Y015707D02*
X010725Y015707D01*
X010692Y015785D02*
X010933Y015785D01*
X011002Y015864D02*
X010623Y015864D01*
X010520Y015943D02*
X011105Y015943D01*
X011520Y015943D02*
X012105Y015943D01*
X012063Y015925D02*
X011939Y015802D01*
X011872Y015640D01*
X011872Y014985D01*
X011939Y014823D01*
X012063Y014699D01*
X012225Y014632D01*
X012400Y014632D01*
X012562Y014699D01*
X012685Y014823D01*
X012752Y014985D01*
X012752Y015640D01*
X012685Y015802D01*
X012562Y015925D01*
X012400Y015992D01*
X012225Y015992D01*
X012063Y015925D01*
X012002Y015864D02*
X011623Y015864D01*
X011692Y015785D02*
X011933Y015785D01*
X011900Y015707D02*
X011725Y015707D01*
X011752Y015628D02*
X011872Y015628D01*
X011872Y015550D02*
X011752Y015550D01*
X011752Y015471D02*
X011872Y015471D01*
X011872Y015393D02*
X011752Y015393D01*
X011752Y015314D02*
X011872Y015314D01*
X011872Y015236D02*
X011752Y015236D01*
X011752Y015157D02*
X011872Y015157D01*
X011872Y015079D02*
X011752Y015079D01*
X011752Y015000D02*
X011872Y015000D01*
X011899Y014921D02*
X011726Y014921D01*
X011694Y014843D02*
X011931Y014843D01*
X011998Y014764D02*
X011627Y014764D01*
X011529Y014686D02*
X012096Y014686D01*
X012529Y014686D02*
X013096Y014686D01*
X012998Y014764D02*
X012627Y014764D01*
X012694Y014843D02*
X012931Y014843D01*
X012899Y014921D02*
X012726Y014921D01*
X012752Y015000D02*
X012872Y015000D01*
X012872Y015079D02*
X012752Y015079D01*
X012752Y015157D02*
X012872Y015157D01*
X012872Y015236D02*
X012752Y015236D01*
X012752Y015314D02*
X012872Y015314D01*
X012872Y015393D02*
X012752Y015393D01*
X012752Y015471D02*
X012872Y015471D01*
X012872Y015550D02*
X012752Y015550D01*
X012752Y015628D02*
X012872Y015628D01*
X012900Y015707D02*
X012725Y015707D01*
X012692Y015785D02*
X012933Y015785D01*
X013002Y015864D02*
X012623Y015864D01*
X012520Y015943D02*
X013105Y015943D01*
X013520Y015943D02*
X014105Y015943D01*
X014002Y015864D02*
X013623Y015864D01*
X013692Y015785D02*
X013933Y015785D01*
X013900Y015707D02*
X013725Y015707D01*
X013752Y015628D02*
X013872Y015628D01*
X013872Y015550D02*
X013752Y015550D01*
X013752Y015471D02*
X013872Y015471D01*
X013872Y015393D02*
X013752Y015393D01*
X013810Y015314D02*
X013872Y015314D01*
X013472Y015312D02*
X013912Y014872D01*
X013912Y011992D01*
X013648Y012251D02*
X013512Y012251D01*
X013512Y012172D02*
X013587Y012172D01*
X013554Y012094D02*
X013512Y012094D01*
X013512Y012015D02*
X013542Y012015D01*
X013542Y011937D02*
X013512Y011937D01*
X013512Y011858D02*
X013567Y011858D01*
X013602Y011780D02*
X013512Y011780D01*
X013512Y011701D02*
X013680Y011701D01*
X013625Y011544D02*
X013512Y011544D01*
X013512Y011623D02*
X013838Y011623D01*
X013987Y011623D02*
X014312Y011623D01*
X014312Y011701D02*
X014144Y011701D01*
X014223Y011780D02*
X014312Y011780D01*
X014312Y011858D02*
X014257Y011858D01*
X014282Y011937D02*
X014312Y011937D01*
X014312Y012015D02*
X014282Y012015D01*
X014271Y012094D02*
X014312Y012094D01*
X014312Y012172D02*
X014238Y012172D01*
X014177Y012251D02*
X014312Y012251D01*
X014312Y012330D02*
X014152Y012330D01*
X014152Y012408D02*
X014312Y012408D01*
X014312Y012487D02*
X014152Y012487D01*
X014152Y012565D02*
X014312Y012565D01*
X014312Y012644D02*
X014152Y012644D01*
X014152Y012722D02*
X014283Y012722D01*
X014205Y012801D02*
X014152Y012801D01*
X014152Y012879D02*
X014163Y012879D01*
X014152Y012958D02*
X014152Y012958D01*
X014152Y013036D02*
X014152Y013036D01*
X014152Y013115D02*
X014152Y013115D01*
X014152Y013194D02*
X014152Y013194D01*
X014152Y013272D02*
X014152Y013272D01*
X014152Y013351D02*
X014152Y013351D01*
X014152Y013429D02*
X014152Y013429D01*
X014152Y013508D02*
X014152Y013508D01*
X014152Y013586D02*
X014152Y013586D01*
X014152Y013665D02*
X014152Y013665D01*
X014152Y013743D02*
X014152Y013743D01*
X014152Y013822D02*
X014152Y013822D01*
X014152Y013900D02*
X014152Y013900D01*
X014152Y013979D02*
X014152Y013979D01*
X014152Y014058D02*
X014152Y014058D01*
X014152Y014136D02*
X014152Y014136D01*
X014152Y014215D02*
X014152Y014215D01*
X014152Y014293D02*
X014152Y014293D01*
X014152Y014372D02*
X014152Y014372D01*
X014152Y014450D02*
X014152Y014450D01*
X014152Y014529D02*
X014152Y014529D01*
X014152Y014607D02*
X014152Y014607D01*
X014632Y014607D02*
X017352Y014607D01*
X017352Y014529D02*
X014632Y014529D01*
X014632Y014450D02*
X017352Y014450D01*
X017352Y014372D02*
X014632Y014372D01*
X014632Y014293D02*
X017352Y014293D01*
X017352Y014215D02*
X014632Y014215D01*
X014632Y014136D02*
X017352Y014136D01*
X017352Y014058D02*
X015251Y014058D01*
X015329Y013979D02*
X017352Y013979D01*
X017352Y013900D02*
X015372Y013900D01*
X015402Y013822D02*
X017352Y013822D01*
X017352Y013743D02*
X015402Y013743D01*
X015397Y013665D02*
X017352Y013665D01*
X017352Y013586D02*
X015364Y013586D01*
X015311Y013508D02*
X017352Y013508D01*
X017352Y013429D02*
X015272Y013429D01*
X015272Y013351D02*
X017352Y013351D01*
X017352Y013272D02*
X015272Y013272D01*
X015272Y013194D02*
X017352Y013194D01*
X017352Y013115D02*
X015272Y013115D01*
X015272Y013036D02*
X017352Y013036D01*
X017352Y012958D02*
X015272Y012958D01*
X015272Y012879D02*
X017352Y012879D01*
X017352Y012801D02*
X015561Y012801D01*
X015661Y012722D02*
X017352Y012722D01*
X017352Y012644D02*
X015717Y012644D01*
X015749Y012565D02*
X017352Y012565D01*
X017352Y012487D02*
X015757Y012487D01*
X015757Y012408D02*
X017352Y012408D01*
X017352Y012330D02*
X015729Y012330D01*
X015689Y012251D02*
X017352Y012251D01*
X017352Y012172D02*
X015631Y012172D01*
X015632Y012094D02*
X017352Y012094D01*
X017352Y012015D02*
X015633Y012015D01*
X015634Y011937D02*
X017352Y011937D01*
X017352Y011858D02*
X015636Y011858D01*
X015637Y011780D02*
X017352Y011780D01*
X017352Y011701D02*
X015638Y011701D01*
X015639Y011623D02*
X017352Y011623D01*
X017352Y011544D02*
X017000Y011544D01*
X017168Y011466D02*
X017352Y011466D01*
X017352Y011387D02*
X017246Y011387D01*
X017323Y011309D02*
X017352Y011309D01*
X017341Y010680D02*
X017352Y010680D01*
X017352Y010602D02*
X017290Y010602D01*
X017352Y010523D02*
X017212Y010523D01*
X017106Y010445D02*
X017352Y010445D01*
X017352Y010366D02*
X015655Y010366D01*
X015656Y010287D02*
X017352Y010287D01*
X017352Y010209D02*
X015657Y010209D01*
X015658Y010130D02*
X017352Y010130D01*
X017352Y010052D02*
X015659Y010052D01*
X015660Y009973D02*
X017352Y009973D01*
X017352Y009895D02*
X015661Y009895D01*
X015663Y009816D02*
X017352Y009816D01*
X017352Y009738D02*
X015664Y009738D01*
X015665Y009659D02*
X017352Y009659D01*
X017352Y009581D02*
X015666Y009581D01*
X015667Y009502D02*
X017352Y009502D01*
X017352Y009423D02*
X015668Y009423D01*
X015669Y009345D02*
X017352Y009345D01*
X017352Y009266D02*
X015670Y009266D01*
X015671Y009188D02*
X017352Y009188D01*
X017352Y009109D02*
X015672Y009109D01*
X015673Y009031D02*
X017352Y009031D01*
X017352Y008952D02*
X015674Y008952D01*
X015675Y008874D02*
X015708Y008874D01*
X015437Y008687D02*
X015437Y006812D01*
X015937Y006312D01*
X015952Y006312D01*
X015570Y005889D02*
X015250Y005889D01*
X015172Y005810D02*
X015648Y005810D01*
X015491Y005968D02*
X015329Y005968D01*
X015407Y006046D02*
X015413Y006046D01*
X014992Y006046D02*
X014912Y006046D01*
X014912Y005968D02*
X014992Y005968D01*
X014992Y005889D02*
X014912Y005889D01*
X014912Y005810D02*
X014992Y005810D01*
X014733Y005810D02*
X014610Y005810D01*
X014632Y005889D02*
X014655Y005889D01*
X014551Y005732D02*
X017352Y005732D01*
X017352Y005810D02*
X016257Y005810D01*
X016335Y005889D02*
X017352Y005889D01*
X017352Y005968D02*
X016414Y005968D01*
X016492Y006046D02*
X017352Y006046D01*
X017352Y006125D02*
X016522Y006125D01*
X016522Y006203D02*
X017352Y006203D01*
X017352Y006282D02*
X016522Y006282D01*
X016522Y006360D02*
X017352Y006360D01*
X017352Y006439D02*
X016522Y006439D01*
X016522Y006517D02*
X017352Y006517D01*
X017352Y006596D02*
X016475Y006596D01*
X016396Y006674D02*
X017352Y006674D01*
X017352Y006753D02*
X016318Y006753D01*
X016278Y006832D02*
X017352Y006832D01*
X017352Y006910D02*
X016356Y006910D01*
X016435Y006989D02*
X017352Y006989D01*
X017352Y007067D02*
X016513Y007067D01*
X016522Y007146D02*
X017352Y007146D01*
X017352Y007224D02*
X016522Y007224D01*
X016522Y007303D02*
X017352Y007303D01*
X017352Y007381D02*
X016522Y007381D01*
X016522Y007460D02*
X017352Y007460D01*
X017352Y007538D02*
X016522Y007538D01*
X016454Y007617D02*
X017352Y007617D01*
X017352Y007696D02*
X016375Y007696D01*
X016297Y007774D02*
X017352Y007774D01*
X017352Y007853D02*
X016299Y007853D01*
X016377Y007931D02*
X017352Y007931D01*
X017352Y008010D02*
X016456Y008010D01*
X016522Y008088D02*
X017352Y008088D01*
X017352Y008167D02*
X016522Y008167D01*
X016522Y008245D02*
X017352Y008245D01*
X017352Y008324D02*
X016522Y008324D01*
X016522Y008402D02*
X017352Y008402D01*
X017352Y008481D02*
X016522Y008481D01*
X016511Y008559D02*
X017352Y008559D01*
X017352Y008638D02*
X016433Y008638D01*
X016354Y008717D02*
X017352Y008717D01*
X017352Y008795D02*
X016276Y008795D01*
X016197Y008874D02*
X017352Y008874D01*
X016519Y010445D02*
X015654Y010445D01*
X015653Y010523D02*
X016413Y010523D01*
X016335Y010602D02*
X015652Y010602D01*
X015651Y010680D02*
X016284Y010680D01*
X016251Y010759D02*
X015650Y010759D01*
X015649Y010837D02*
X016219Y010837D01*
X016212Y010916D02*
X015648Y010916D01*
X015647Y010994D02*
X016212Y010994D01*
X016212Y011073D02*
X015646Y011073D01*
X015645Y011151D02*
X016237Y011151D01*
X016270Y011230D02*
X015644Y011230D01*
X015643Y011309D02*
X016302Y011309D01*
X016379Y011387D02*
X015642Y011387D01*
X015641Y011466D02*
X016457Y011466D01*
X016625Y011544D02*
X015640Y011544D01*
X015387Y012472D02*
X015437Y008687D01*
X015032Y009752D02*
X015032Y013752D01*
X014754Y013508D02*
X014632Y013508D01*
X014632Y013586D02*
X014701Y013586D01*
X014668Y013665D02*
X014632Y013665D01*
X014632Y013743D02*
X014662Y013743D01*
X014662Y013822D02*
X014632Y013822D01*
X014632Y013900D02*
X014693Y013900D01*
X014736Y013979D02*
X014632Y013979D01*
X014632Y014058D02*
X014814Y014058D01*
X015063Y014699D02*
X015225Y014632D01*
X015400Y014632D01*
X015562Y014699D01*
X015685Y014823D01*
X015752Y014985D01*
X015752Y015640D01*
X015685Y015802D01*
X015562Y015925D01*
X015400Y015992D01*
X015225Y015992D01*
X015063Y015925D01*
X014939Y015802D01*
X014872Y015640D01*
X014872Y014985D01*
X014939Y014823D01*
X015063Y014699D01*
X015096Y014686D02*
X014632Y014686D01*
X014632Y014764D02*
X014998Y014764D01*
X014931Y014843D02*
X014694Y014843D01*
X014726Y014921D02*
X014899Y014921D01*
X014872Y015000D02*
X014752Y015000D01*
X014752Y015079D02*
X014872Y015079D01*
X014872Y015157D02*
X014752Y015157D01*
X014752Y015236D02*
X014872Y015236D01*
X014872Y015314D02*
X014752Y015314D01*
X014752Y015393D02*
X014872Y015393D01*
X014872Y015471D02*
X014752Y015471D01*
X014752Y015550D02*
X014872Y015550D01*
X014872Y015628D02*
X014752Y015628D01*
X014725Y015707D02*
X014900Y015707D01*
X014933Y015785D02*
X014692Y015785D01*
X014623Y015864D02*
X015002Y015864D01*
X015105Y015943D02*
X014520Y015943D01*
X014312Y015312D02*
X014392Y015232D01*
X014392Y012952D01*
X014552Y012792D01*
X014552Y009912D01*
X014232Y009592D01*
X014232Y006232D01*
X013432Y005432D01*
X013272Y005432D01*
X012952Y005752D02*
X013432Y006232D01*
X013432Y006552D01*
X013272Y006712D01*
X013112Y006392D02*
X013112Y011192D01*
X011992Y012312D01*
X011992Y012952D01*
X010312Y014632D01*
X010312Y015312D01*
X009931Y014843D02*
X009694Y014843D01*
X009726Y014921D02*
X009899Y014921D01*
X009872Y015000D02*
X009752Y015000D01*
X009752Y015079D02*
X009872Y015079D01*
X009872Y015157D02*
X009752Y015157D01*
X009752Y015236D02*
X009872Y015236D01*
X009872Y015314D02*
X009752Y015314D01*
X009752Y015393D02*
X009872Y015393D01*
X009872Y015471D02*
X009752Y015471D01*
X009752Y015550D02*
X009872Y015550D01*
X009872Y015628D02*
X009752Y015628D01*
X009725Y015707D02*
X009900Y015707D01*
X009933Y015785D02*
X009692Y015785D01*
X009623Y015864D02*
X010002Y015864D01*
X010105Y015943D02*
X009520Y015943D01*
X009105Y015943D02*
X008520Y015943D01*
X008623Y015864D02*
X009002Y015864D01*
X008933Y015785D02*
X008692Y015785D01*
X008725Y015707D02*
X008900Y015707D01*
X008872Y015628D02*
X008752Y015628D01*
X008752Y015550D02*
X008872Y015550D01*
X008872Y015471D02*
X008752Y015471D01*
X008752Y015393D02*
X008872Y015393D01*
X008872Y015314D02*
X008752Y015314D01*
X008752Y015236D02*
X008872Y015236D01*
X008872Y015157D02*
X008752Y015157D01*
X008752Y015079D02*
X008872Y015079D01*
X008872Y015000D02*
X008752Y015000D01*
X008726Y014921D02*
X008899Y014921D01*
X008931Y014843D02*
X008694Y014843D01*
X008627Y014764D02*
X008984Y014764D01*
X008928Y014686D02*
X008529Y014686D01*
X008786Y014450D02*
X007772Y014450D01*
X007790Y014372D02*
X008772Y014372D01*
X008818Y014529D02*
X007740Y014529D01*
X007689Y014607D02*
X008851Y014607D01*
X008096Y014686D02*
X007605Y014686D01*
X007535Y014764D02*
X007998Y014764D01*
X007931Y014843D02*
X007616Y014843D01*
X007661Y014921D02*
X007899Y014921D01*
X007872Y015000D02*
X007685Y015000D01*
X007692Y015079D02*
X007872Y015079D01*
X007872Y015157D02*
X007692Y015157D01*
X007352Y015393D02*
X007272Y015393D01*
X007272Y015471D02*
X007352Y015471D01*
X007352Y015550D02*
X007272Y015550D01*
X007272Y015628D02*
X007352Y015628D01*
X007352Y015707D02*
X007272Y015707D01*
X007272Y015785D02*
X007352Y015785D01*
X007352Y015864D02*
X007272Y015864D01*
X007112Y016021D02*
X017352Y016021D01*
X017352Y015943D02*
X015520Y015943D01*
X015623Y015864D02*
X017352Y015864D01*
X017352Y015785D02*
X015692Y015785D01*
X015725Y015707D02*
X017352Y015707D01*
X017352Y015628D02*
X015752Y015628D01*
X015752Y015550D02*
X017352Y015550D01*
X017352Y015471D02*
X015752Y015471D01*
X015752Y015393D02*
X017352Y015393D01*
X017352Y015314D02*
X015752Y015314D01*
X015752Y015236D02*
X017352Y015236D01*
X017352Y015157D02*
X015752Y015157D01*
X015752Y015079D02*
X017352Y015079D01*
X017352Y015000D02*
X015752Y015000D01*
X015726Y014921D02*
X017352Y014921D01*
X017352Y014843D02*
X015694Y014843D01*
X015627Y014764D02*
X017352Y014764D01*
X017352Y014686D02*
X015529Y014686D01*
X014712Y013112D02*
X014712Y009752D01*
X014392Y009432D01*
X014392Y005912D01*
X013432Y004952D01*
X012152Y004952D01*
X011542Y004342D01*
X010672Y004342D01*
X010672Y001782D01*
X010456Y001255D02*
X009168Y001255D01*
X009066Y001212D02*
X009275Y001299D01*
X009436Y001460D01*
X009522Y001669D01*
X009522Y001896D01*
X009436Y002105D01*
X009275Y002266D01*
X009272Y002267D01*
X009272Y003858D01*
X009275Y003859D01*
X009436Y004020D01*
X009522Y004229D01*
X009522Y004456D01*
X009436Y004665D01*
X009275Y004826D01*
X009272Y004827D01*
X009272Y007158D01*
X009322Y007279D01*
X009322Y007426D01*
X009266Y007562D01*
X009162Y007666D01*
X009026Y007722D01*
X008879Y007722D01*
X008743Y007666D01*
X008639Y007562D01*
X008582Y007426D01*
X008582Y007279D01*
X008632Y007158D01*
X008632Y004827D01*
X008630Y004826D01*
X008469Y004665D01*
X008382Y004456D01*
X008382Y004229D01*
X008469Y004020D01*
X008630Y003859D01*
X008632Y003858D01*
X008632Y002267D01*
X008630Y002266D01*
X008469Y002105D01*
X008382Y001896D01*
X008382Y001669D01*
X008469Y001460D01*
X008630Y001299D01*
X008839Y001212D01*
X009066Y001212D01*
X009310Y001334D02*
X010315Y001334D01*
X010237Y001412D02*
X009388Y001412D01*
X009448Y001491D02*
X010176Y001491D01*
X010144Y001569D02*
X009481Y001569D01*
X009514Y001648D02*
X010111Y001648D01*
X010102Y001726D02*
X009522Y001726D01*
X009522Y001805D02*
X010102Y001805D01*
X010102Y001883D02*
X009522Y001883D01*
X009495Y001962D02*
X010130Y001962D01*
X010162Y002040D02*
X009463Y002040D01*
X009422Y002119D02*
X010203Y002119D01*
X010281Y002197D02*
X009343Y002197D01*
X009272Y002276D02*
X010375Y002276D01*
X010432Y002355D02*
X009272Y002355D01*
X009272Y002433D02*
X010432Y002433D01*
X010432Y002512D02*
X009272Y002512D01*
X009272Y002590D02*
X010432Y002590D01*
X010432Y002669D02*
X009272Y002669D01*
X009272Y002747D02*
X010432Y002747D01*
X010432Y002826D02*
X009272Y002826D01*
X009272Y002904D02*
X010432Y002904D01*
X010432Y002983D02*
X009272Y002983D01*
X009272Y003061D02*
X010432Y003061D01*
X010432Y003140D02*
X009272Y003140D01*
X009272Y003219D02*
X010432Y003219D01*
X010432Y003297D02*
X009272Y003297D01*
X009272Y003376D02*
X010432Y003376D01*
X010432Y003454D02*
X009272Y003454D01*
X009272Y003533D02*
X010432Y003533D01*
X010432Y003611D02*
X009272Y003611D01*
X009272Y003690D02*
X010432Y003690D01*
X010432Y003768D02*
X009272Y003768D01*
X009272Y003847D02*
X010379Y003847D01*
X010283Y003925D02*
X009342Y003925D01*
X009420Y004004D02*
X010205Y004004D01*
X010163Y004083D02*
X009462Y004083D01*
X009494Y004161D02*
X010131Y004161D01*
X010102Y004240D02*
X009522Y004240D01*
X009522Y004318D02*
X010102Y004318D01*
X010102Y004397D02*
X009522Y004397D01*
X009514Y004475D02*
X010111Y004475D01*
X010143Y004554D02*
X009482Y004554D01*
X009449Y004632D02*
X010176Y004632D01*
X010235Y004711D02*
X009390Y004711D01*
X009312Y004789D02*
X010313Y004789D01*
X010452Y004868D02*
X009272Y004868D01*
X009272Y005889D02*
X009690Y005889D01*
X009611Y005968D02*
X009272Y005968D01*
X009272Y006046D02*
X009566Y006046D01*
X009533Y006125D02*
X009272Y006125D01*
X009272Y006203D02*
X009502Y006203D01*
X009502Y006282D02*
X009272Y006282D01*
X009272Y006360D02*
X009502Y006360D01*
X009508Y006439D02*
X009272Y006439D01*
X009272Y006517D02*
X009540Y006517D01*
X009573Y006596D02*
X009272Y006596D01*
X009272Y006674D02*
X009628Y006674D01*
X009707Y006753D02*
X009272Y006753D01*
X009272Y006832D02*
X009747Y006832D01*
X009669Y006910D02*
X009272Y006910D01*
X009272Y006989D02*
X009590Y006989D01*
X009557Y007067D02*
X009272Y007067D01*
X009272Y007146D02*
X009524Y007146D01*
X009502Y007224D02*
X009300Y007224D01*
X009322Y007303D02*
X009502Y007303D01*
X009502Y007381D02*
X009322Y007381D01*
X009308Y007460D02*
X009517Y007460D01*
X009549Y007538D02*
X009276Y007538D01*
X009211Y007617D02*
X009582Y007617D01*
X009649Y007696D02*
X009091Y007696D01*
X008814Y007696D02*
X007592Y007696D01*
X007592Y007774D02*
X009728Y007774D01*
X009852Y007853D02*
X007592Y007853D01*
X007592Y007931D02*
X009732Y007931D01*
X009662Y008010D02*
X007592Y008010D01*
X007592Y008088D02*
X009614Y008088D01*
X009584Y008167D02*
X007592Y008167D01*
X007592Y008245D02*
X009567Y008245D01*
X009570Y008402D02*
X007646Y008402D01*
X007690Y008481D02*
X009591Y008481D01*
X009626Y008559D02*
X007722Y008559D01*
X007722Y008638D02*
X009679Y008638D01*
X009761Y008717D02*
X007718Y008717D01*
X007686Y008795D02*
X009908Y008795D01*
X010032Y008795D02*
X010112Y008795D01*
X010112Y008717D02*
X010032Y008717D01*
X010032Y008638D02*
X010112Y008638D01*
X010112Y008559D02*
X010032Y008559D01*
X010032Y008481D02*
X010112Y008481D01*
X010112Y008402D02*
X010032Y008402D01*
X010032Y008324D02*
X007592Y008324D01*
X007352Y008632D02*
X007352Y004522D01*
X007172Y004342D01*
X007172Y001782D01*
X006956Y001255D02*
X002220Y001255D01*
X002210Y001176D02*
X016142Y001176D01*
X016155Y001098D02*
X002196Y001098D01*
X002182Y001019D02*
X016169Y001019D01*
X016183Y000941D02*
X002168Y000941D01*
X002136Y000862D02*
X016210Y000862D01*
X016256Y000784D02*
X002091Y000784D01*
X002045Y000705D02*
X016301Y000705D01*
X015736Y001255D02*
X014388Y001255D01*
X014286Y001212D02*
X014495Y001299D01*
X014656Y001460D01*
X014742Y001669D01*
X014742Y001896D01*
X014656Y002105D01*
X014495Y002266D01*
X014412Y002300D01*
X014412Y003825D01*
X014495Y003859D01*
X014656Y004020D01*
X014742Y004229D01*
X014742Y004456D01*
X014656Y004665D01*
X014495Y004826D01*
X014286Y004912D01*
X014059Y004912D01*
X013850Y004826D01*
X013689Y004665D01*
X013602Y004456D01*
X013602Y004229D01*
X013689Y004020D01*
X013850Y003859D01*
X013932Y003825D01*
X013932Y002300D01*
X013850Y002266D01*
X013689Y002105D01*
X013602Y001896D01*
X013602Y001669D01*
X013689Y001460D01*
X013850Y001299D01*
X014059Y001212D01*
X014286Y001212D01*
X014530Y001334D02*
X015595Y001334D01*
X015517Y001412D02*
X014608Y001412D01*
X014668Y001491D02*
X015456Y001491D01*
X015424Y001569D02*
X014701Y001569D01*
X014734Y001648D02*
X015391Y001648D01*
X015382Y001726D02*
X014742Y001726D01*
X014742Y001805D02*
X015382Y001805D01*
X015382Y001883D02*
X014742Y001883D01*
X014715Y001962D02*
X015410Y001962D01*
X015442Y002040D02*
X014683Y002040D01*
X014642Y002119D02*
X015483Y002119D01*
X015561Y002197D02*
X014563Y002197D01*
X014470Y002276D02*
X015632Y002276D01*
X015632Y002355D02*
X014412Y002355D01*
X014412Y002433D02*
X015632Y002433D01*
X015632Y002512D02*
X014412Y002512D01*
X014412Y002590D02*
X015632Y002590D01*
X015632Y002669D02*
X014412Y002669D01*
X014412Y002747D02*
X015632Y002747D01*
X015632Y002826D02*
X014412Y002826D01*
X014412Y002904D02*
X015632Y002904D01*
X015632Y002983D02*
X014412Y002983D01*
X014412Y003061D02*
X015632Y003061D01*
X015632Y003140D02*
X014412Y003140D01*
X014412Y003219D02*
X015632Y003219D01*
X015632Y003297D02*
X014412Y003297D01*
X014412Y003376D02*
X015632Y003376D01*
X015632Y003454D02*
X014412Y003454D01*
X014412Y003533D02*
X015632Y003533D01*
X015632Y003611D02*
X014412Y003611D01*
X014412Y003690D02*
X015632Y003690D01*
X015632Y003768D02*
X014412Y003768D01*
X014466Y003847D02*
X015632Y003847D01*
X015563Y003925D02*
X014562Y003925D01*
X014640Y004004D02*
X015485Y004004D01*
X015443Y004083D02*
X014682Y004083D01*
X014714Y004161D02*
X015411Y004161D01*
X015382Y004240D02*
X014742Y004240D01*
X014742Y004318D02*
X015382Y004318D01*
X015382Y004397D02*
X014742Y004397D01*
X014734Y004475D02*
X015391Y004475D01*
X015423Y004554D02*
X014702Y004554D01*
X014669Y004632D02*
X015456Y004632D01*
X015515Y004711D02*
X014610Y004711D01*
X014532Y004789D02*
X015593Y004789D01*
X015732Y004868D02*
X014393Y004868D01*
X014159Y005339D02*
X017352Y005339D01*
X017352Y005261D02*
X014080Y005261D01*
X014002Y005182D02*
X017299Y005182D01*
X017255Y005104D02*
X013923Y005104D01*
X013844Y005025D02*
X017222Y005025D01*
X017222Y004946D02*
X013766Y004946D01*
X013687Y004868D02*
X013952Y004868D01*
X013813Y004789D02*
X013609Y004789D01*
X013735Y004711D02*
X012890Y004711D01*
X012949Y004632D02*
X013676Y004632D01*
X013643Y004554D02*
X012982Y004554D01*
X013014Y004475D02*
X013611Y004475D01*
X013602Y004397D02*
X013022Y004397D01*
X013022Y004318D02*
X013602Y004318D01*
X013602Y004240D02*
X013022Y004240D01*
X012994Y004161D02*
X013631Y004161D01*
X013663Y004083D02*
X012962Y004083D01*
X012920Y004004D02*
X013705Y004004D01*
X013783Y003925D02*
X012842Y003925D01*
X012772Y003847D02*
X013879Y003847D01*
X013932Y003768D02*
X012772Y003768D01*
X012772Y003690D02*
X013932Y003690D01*
X013932Y003611D02*
X012772Y003611D01*
X012772Y003533D02*
X013932Y003533D01*
X013932Y003454D02*
X012772Y003454D01*
X012772Y003376D02*
X013932Y003376D01*
X013932Y003297D02*
X012772Y003297D01*
X012772Y003219D02*
X013932Y003219D01*
X013932Y003140D02*
X012772Y003140D01*
X012772Y003061D02*
X013932Y003061D01*
X013932Y002983D02*
X012772Y002983D01*
X012772Y002904D02*
X013932Y002904D01*
X013932Y002826D02*
X012772Y002826D01*
X012772Y002747D02*
X013932Y002747D01*
X013932Y002669D02*
X012772Y002669D01*
X012772Y002590D02*
X013932Y002590D01*
X013932Y002512D02*
X012772Y002512D01*
X012772Y002433D02*
X013932Y002433D01*
X013932Y002355D02*
X012772Y002355D01*
X012772Y002276D02*
X013875Y002276D01*
X013781Y002197D02*
X012843Y002197D01*
X012922Y002119D02*
X013703Y002119D01*
X013662Y002040D02*
X012963Y002040D01*
X012995Y001962D02*
X013630Y001962D01*
X013602Y001883D02*
X013022Y001883D01*
X013022Y001805D02*
X013602Y001805D01*
X013602Y001726D02*
X013022Y001726D01*
X013014Y001648D02*
X013611Y001648D01*
X013644Y001569D02*
X012981Y001569D01*
X012948Y001491D02*
X013676Y001491D01*
X013737Y001412D02*
X012888Y001412D01*
X012810Y001334D02*
X013815Y001334D01*
X013956Y001255D02*
X012668Y001255D01*
X012236Y001255D02*
X010888Y001255D01*
X011030Y001334D02*
X012095Y001334D01*
X012017Y001412D02*
X011108Y001412D01*
X011168Y001491D02*
X011956Y001491D01*
X011924Y001569D02*
X011201Y001569D01*
X011234Y001648D02*
X011891Y001648D01*
X011882Y001726D02*
X011242Y001726D01*
X011242Y001805D02*
X011882Y001805D01*
X011882Y001883D02*
X011242Y001883D01*
X011215Y001962D02*
X011910Y001962D01*
X011942Y002040D02*
X011183Y002040D01*
X011142Y002119D02*
X011983Y002119D01*
X012061Y002197D02*
X011063Y002197D01*
X010970Y002276D02*
X012132Y002276D01*
X012132Y002355D02*
X010912Y002355D01*
X010912Y002433D02*
X012132Y002433D01*
X012132Y002512D02*
X010912Y002512D01*
X010912Y002590D02*
X012132Y002590D01*
X012132Y002669D02*
X010912Y002669D01*
X010912Y002747D02*
X012132Y002747D01*
X012132Y002826D02*
X010912Y002826D01*
X010912Y002904D02*
X012132Y002904D01*
X012132Y002983D02*
X010912Y002983D01*
X010912Y003061D02*
X012132Y003061D01*
X012132Y003140D02*
X010912Y003140D01*
X010912Y003219D02*
X012132Y003219D01*
X012132Y003297D02*
X010912Y003297D01*
X010912Y003376D02*
X012132Y003376D01*
X012132Y003454D02*
X010912Y003454D01*
X010912Y003533D02*
X012132Y003533D01*
X012132Y003611D02*
X010912Y003611D01*
X010912Y003690D02*
X012132Y003690D01*
X012132Y003768D02*
X010912Y003768D01*
X010966Y003847D02*
X012132Y003847D01*
X012063Y003925D02*
X011062Y003925D01*
X011140Y004004D02*
X011985Y004004D01*
X011943Y004083D02*
X011182Y004083D01*
X011700Y004161D02*
X011911Y004161D01*
X011882Y004240D02*
X011779Y004240D01*
X011858Y004318D02*
X011882Y004318D01*
X012632Y005752D02*
X012952Y005752D01*
X013812Y007312D02*
X013742Y007382D01*
X013742Y009432D01*
X012466Y009895D02*
X011710Y009895D01*
X011710Y009973D02*
X012433Y009973D01*
X012422Y010052D02*
X011710Y010052D01*
X011710Y010130D02*
X012422Y010130D01*
X012449Y010209D02*
X011710Y010209D01*
X011710Y010287D02*
X012484Y010287D01*
X012315Y010366D02*
X011710Y010366D01*
X011802Y010445D02*
X012138Y010445D01*
X012059Y010523D02*
X011880Y010523D01*
X011955Y010602D02*
X011984Y010602D01*
X011566Y010919D02*
X011470Y010919D01*
X011512Y010961D01*
X011512Y012792D01*
X011934Y013351D02*
X012906Y013351D01*
X012902Y013429D02*
X011855Y013429D01*
X011777Y013508D02*
X012903Y013508D01*
X012936Y013586D02*
X011698Y013586D01*
X011619Y013665D02*
X012982Y013665D01*
X013060Y013743D02*
X011541Y013743D01*
X012012Y013272D02*
X012938Y013272D01*
X012988Y013194D02*
X012091Y013194D01*
X012169Y013115D02*
X013032Y013115D01*
X013032Y013036D02*
X012217Y013036D01*
X012232Y012958D02*
X013032Y012958D01*
X013032Y012879D02*
X012232Y012879D01*
X012232Y012801D02*
X013032Y012801D01*
X013032Y012722D02*
X012232Y012722D01*
X012232Y012644D02*
X013032Y012644D01*
X013032Y012565D02*
X012232Y012565D01*
X012232Y012487D02*
X013032Y012487D01*
X013032Y012408D02*
X012236Y012408D01*
X012315Y012330D02*
X013032Y012330D01*
X013032Y012251D02*
X012393Y012251D01*
X012472Y012172D02*
X013032Y012172D01*
X013032Y012094D02*
X012550Y012094D01*
X012629Y012015D02*
X013032Y012015D01*
X013032Y011937D02*
X012707Y011937D01*
X012786Y011858D02*
X013032Y011858D01*
X013032Y011780D02*
X012864Y011780D01*
X012943Y011701D02*
X013032Y011701D01*
X013022Y011623D02*
X013032Y011623D01*
X013512Y012330D02*
X013672Y012330D01*
X013672Y012408D02*
X013512Y012408D01*
X013512Y012487D02*
X013672Y012487D01*
X013672Y012565D02*
X013512Y012565D01*
X013512Y012644D02*
X013672Y012644D01*
X013672Y012722D02*
X013512Y012722D01*
X013512Y012801D02*
X013672Y012801D01*
X013672Y012879D02*
X013512Y012879D01*
X013512Y012958D02*
X013672Y012958D01*
X013672Y013036D02*
X013512Y013036D01*
X013512Y013115D02*
X013672Y013115D01*
X013672Y014686D02*
X013529Y014686D01*
X013627Y014764D02*
X013672Y014764D01*
X013472Y015312D02*
X013312Y015312D01*
X013014Y017749D02*
X012611Y017749D01*
X012687Y017828D02*
X012938Y017828D01*
X012905Y017906D02*
X012720Y017906D01*
X012752Y018142D02*
X012872Y018142D01*
X012872Y018220D02*
X012752Y018220D01*
X012752Y018299D02*
X012872Y018299D01*
X012872Y018377D02*
X012752Y018377D01*
X012752Y018456D02*
X012872Y018456D01*
X012872Y018534D02*
X012752Y018534D01*
X012752Y018613D02*
X012872Y018613D01*
X012894Y018692D02*
X012731Y018692D01*
X012699Y018770D02*
X012926Y018770D01*
X012986Y018849D02*
X012638Y018849D01*
X012557Y018927D02*
X013067Y018927D01*
X013557Y018927D02*
X014067Y018927D01*
X013986Y018849D02*
X013638Y018849D01*
X013699Y018770D02*
X013926Y018770D01*
X013894Y018692D02*
X013731Y018692D01*
X013752Y018613D02*
X013872Y018613D01*
X013872Y018534D02*
X013752Y018534D01*
X013752Y018456D02*
X013872Y018456D01*
X013872Y018377D02*
X013752Y018377D01*
X013752Y018299D02*
X013872Y018299D01*
X013872Y018220D02*
X013752Y018220D01*
X013752Y018142D02*
X013872Y018142D01*
X013905Y017906D02*
X013720Y017906D01*
X013687Y017828D02*
X013938Y017828D01*
X014014Y017749D02*
X013611Y017749D01*
X014611Y017749D02*
X015014Y017749D01*
X014938Y017828D02*
X014687Y017828D01*
X014720Y017906D02*
X014905Y017906D01*
X014872Y018142D02*
X014752Y018142D01*
X014752Y018220D02*
X014872Y018220D01*
X014872Y018299D02*
X014752Y018299D01*
X014752Y018377D02*
X014872Y018377D01*
X014872Y018456D02*
X014752Y018456D01*
X014752Y018534D02*
X014872Y018534D01*
X014872Y018613D02*
X014752Y018613D01*
X014731Y018692D02*
X014894Y018692D01*
X014926Y018770D02*
X014699Y018770D01*
X014638Y018849D02*
X014986Y018849D01*
X015067Y018927D02*
X014557Y018927D01*
X015611Y017749D02*
X017687Y017749D01*
X017687Y017671D02*
X017165Y017671D01*
X017292Y017592D02*
X017687Y017592D01*
X017687Y017513D02*
X017371Y017513D01*
X017449Y017435D02*
X017687Y017435D01*
X017687Y017356D02*
X017528Y017356D01*
X017606Y017278D02*
X017687Y017278D01*
X017685Y017199D02*
X017687Y017199D01*
X017592Y016952D02*
X017112Y017432D01*
X010072Y017432D01*
X009782Y017199D02*
X009082Y017199D01*
X009106Y017223D02*
X009002Y017119D01*
X008866Y017062D01*
X008719Y017062D01*
X008583Y017119D01*
X008509Y017192D01*
X006492Y017192D01*
X007008Y016676D01*
X007035Y016649D02*
X017352Y016649D01*
X017352Y016571D02*
X007091Y016571D01*
X007112Y016492D02*
X017352Y016492D01*
X017352Y016414D02*
X007112Y016414D01*
X007112Y016335D02*
X017352Y016335D01*
X017352Y016257D02*
X007112Y016257D01*
X007112Y016178D02*
X017352Y016178D01*
X017352Y016100D02*
X007112Y016100D01*
X006564Y017121D02*
X008581Y017121D01*
X008792Y017432D02*
X003192Y017432D01*
X002312Y018312D01*
X002752Y018299D02*
X002872Y018299D01*
X002872Y018377D02*
X002752Y018377D01*
X002752Y018456D02*
X002872Y018456D01*
X002872Y018534D02*
X002752Y018534D01*
X002752Y018613D02*
X002872Y018613D01*
X002894Y018692D02*
X002731Y018692D01*
X002699Y018770D02*
X002926Y018770D01*
X002986Y018849D02*
X002638Y018849D01*
X002557Y018927D02*
X003067Y018927D01*
X003557Y018927D02*
X004068Y018927D01*
X003986Y018849D02*
X003638Y018849D01*
X003699Y018770D02*
X003926Y018770D01*
X003894Y018692D02*
X003731Y018692D01*
X003752Y018613D02*
X003872Y018613D01*
X003872Y018534D02*
X003752Y018534D01*
X003752Y018456D02*
X003872Y018456D01*
X003872Y018377D02*
X003752Y018377D01*
X003752Y018299D02*
X003872Y018299D01*
X003872Y018220D02*
X003752Y018220D01*
X003752Y018142D02*
X003872Y018142D01*
X003905Y017906D02*
X003720Y017906D01*
X003687Y017828D02*
X003938Y017828D01*
X004014Y017749D02*
X003611Y017749D01*
X003352Y017112D02*
X006232Y017112D01*
X006199Y016807D02*
X003570Y016807D01*
X003520Y015943D02*
X004105Y015943D01*
X004002Y015864D02*
X003623Y015864D01*
X003692Y015785D02*
X003933Y015785D01*
X003900Y015707D02*
X003725Y015707D01*
X003752Y015628D02*
X003872Y015628D01*
X003872Y015550D02*
X003752Y015550D01*
X003752Y015471D02*
X003872Y015471D01*
X003872Y015393D02*
X003752Y015393D01*
X003105Y015943D02*
X002520Y015943D01*
X002562Y015925D02*
X002400Y015992D01*
X002225Y015992D01*
X002063Y015925D01*
X001939Y015802D01*
X001872Y015640D01*
X001872Y014985D01*
X001939Y014823D01*
X002063Y014699D01*
X002152Y014662D01*
X002152Y013396D01*
X002079Y013322D01*
X002022Y013186D01*
X002022Y013039D01*
X002079Y012903D01*
X002183Y012799D01*
X002319Y012742D01*
X002466Y012742D01*
X002602Y012799D01*
X002706Y012903D01*
X002762Y013039D01*
X002762Y013186D01*
X002706Y013322D01*
X002632Y013396D01*
X002632Y014770D01*
X002685Y014823D01*
X002752Y014985D01*
X002752Y015640D01*
X002685Y015802D01*
X002562Y015925D01*
X002623Y015864D02*
X003002Y015864D01*
X002933Y015785D02*
X002692Y015785D01*
X002725Y015707D02*
X002900Y015707D01*
X002872Y015628D02*
X002752Y015628D01*
X002752Y015550D02*
X002872Y015550D01*
X002872Y015471D02*
X002752Y015471D01*
X002752Y015393D02*
X002872Y015393D01*
X002872Y015314D02*
X002752Y015314D01*
X002752Y015236D02*
X002872Y015236D01*
X002872Y015157D02*
X002752Y015157D01*
X002752Y015079D02*
X002872Y015079D01*
X002872Y015000D02*
X002752Y015000D01*
X002726Y014921D02*
X002899Y014921D01*
X002931Y014843D02*
X002694Y014843D01*
X002632Y014764D02*
X002998Y014764D01*
X003072Y014686D02*
X002632Y014686D01*
X002632Y014607D02*
X003072Y014607D01*
X003072Y014529D02*
X002632Y014529D01*
X002632Y014450D02*
X003072Y014450D01*
X003072Y014372D02*
X002632Y014372D01*
X002632Y014293D02*
X003072Y014293D01*
X003072Y014215D02*
X002632Y014215D01*
X002632Y014136D02*
X003072Y014136D01*
X003072Y014058D02*
X002632Y014058D01*
X002632Y013979D02*
X003072Y013979D01*
X003072Y013900D02*
X002632Y013900D01*
X002632Y013822D02*
X003072Y013822D01*
X003072Y013743D02*
X002632Y013743D01*
X002632Y013665D02*
X003072Y013665D01*
X003072Y013586D02*
X002632Y013586D01*
X002632Y013508D02*
X003072Y013508D01*
X003072Y013429D02*
X002632Y013429D01*
X002677Y013351D02*
X003072Y013351D01*
X003072Y013272D02*
X002727Y013272D01*
X002759Y013194D02*
X003072Y013194D01*
X003072Y013115D02*
X002762Y013115D01*
X002761Y013036D02*
X003072Y013036D01*
X003072Y012958D02*
X002729Y012958D01*
X002683Y012879D02*
X003072Y012879D01*
X003072Y012801D02*
X002604Y012801D01*
X002392Y013112D02*
X002392Y015232D01*
X002312Y015312D01*
X001872Y015314D02*
X000562Y015314D01*
X000562Y015236D02*
X001872Y015236D01*
X001872Y015157D02*
X000562Y015157D01*
X000562Y015079D02*
X001872Y015079D01*
X001872Y015000D02*
X000562Y015000D01*
X000562Y014921D02*
X001899Y014921D01*
X001931Y014843D02*
X000562Y014843D01*
X000562Y014764D02*
X001998Y014764D01*
X002096Y014686D02*
X000562Y014686D01*
X000562Y014607D02*
X002152Y014607D01*
X002152Y014529D02*
X000562Y014529D01*
X000562Y014450D02*
X002152Y014450D01*
X002152Y014372D02*
X000562Y014372D01*
X000562Y014293D02*
X002152Y014293D01*
X002152Y014215D02*
X000562Y014215D01*
X000562Y014136D02*
X002152Y014136D01*
X002152Y014058D02*
X000562Y014058D01*
X000562Y013979D02*
X002152Y013979D01*
X002152Y013900D02*
X000562Y013900D01*
X000562Y013822D02*
X002152Y013822D01*
X002152Y013743D02*
X000562Y013743D01*
X000562Y013665D02*
X002152Y013665D01*
X002152Y013586D02*
X000562Y013586D01*
X000562Y013508D02*
X002152Y013508D01*
X002152Y013429D02*
X000562Y013429D01*
X000562Y013351D02*
X002107Y013351D01*
X002058Y013272D02*
X000562Y013272D01*
X000562Y013194D02*
X002026Y013194D01*
X002022Y013115D02*
X000562Y013115D01*
X000562Y013036D02*
X002023Y013036D01*
X002056Y012958D02*
X000562Y012958D01*
X000562Y012879D02*
X002102Y012879D01*
X002181Y012801D02*
X000562Y012801D01*
X000562Y012722D02*
X003072Y012722D01*
X003072Y012644D02*
X000562Y012644D01*
X000562Y012565D02*
X003072Y012565D01*
X003072Y012487D02*
X000562Y012487D01*
X000562Y012408D02*
X003072Y012408D01*
X003072Y012330D02*
X000562Y012330D01*
X000562Y012251D02*
X003072Y012251D01*
X003072Y012172D02*
X000562Y012172D01*
X000562Y012094D02*
X003072Y012094D01*
X003072Y012015D02*
X000562Y012015D01*
X000562Y011937D02*
X003072Y011937D01*
X003072Y011858D02*
X000562Y011858D01*
X000562Y011780D02*
X003072Y011780D01*
X003072Y011701D02*
X000562Y011701D01*
X000562Y011623D02*
X003072Y011623D01*
X003072Y011544D02*
X000562Y011544D01*
X000562Y011466D02*
X003072Y011466D01*
X003072Y011387D02*
X000562Y011387D01*
X000562Y011309D02*
X003072Y011309D01*
X003072Y011230D02*
X000562Y011230D01*
X000562Y011151D02*
X003072Y011151D01*
X003072Y011073D02*
X000562Y011073D01*
X000562Y010994D02*
X003072Y010994D01*
X003072Y010916D02*
X000562Y010916D01*
X000562Y010837D02*
X003072Y010837D01*
X003072Y010759D02*
X000562Y010759D01*
X000562Y010680D02*
X003072Y010680D01*
X003072Y010602D02*
X000562Y010602D01*
X000562Y010523D02*
X003072Y010523D01*
X003072Y010445D02*
X000562Y010445D01*
X000562Y010366D02*
X003072Y010366D01*
X003072Y010287D02*
X000562Y010287D01*
X000562Y010209D02*
X003072Y010209D01*
X003072Y010130D02*
X000562Y010130D01*
X000562Y010052D02*
X003078Y010052D01*
X003112Y009973D02*
X000562Y009973D01*
X000562Y009895D02*
X003191Y009895D01*
X003295Y009738D02*
X003901Y009738D01*
X003749Y009659D02*
X003447Y009659D01*
X003526Y009581D02*
X003670Y009581D01*
X003605Y009502D02*
X003591Y009502D01*
X003575Y008874D02*
X003620Y008874D01*
X003699Y008795D02*
X003497Y008795D01*
X003415Y008717D02*
X003781Y008717D01*
X003272Y008481D02*
X007015Y008481D01*
X007059Y008402D02*
X003272Y008402D01*
X003272Y008324D02*
X007112Y008324D01*
X007112Y008245D02*
X003272Y008245D01*
X003272Y008167D02*
X007112Y008167D01*
X007112Y008088D02*
X003272Y008088D01*
X003272Y008010D02*
X007112Y008010D01*
X007112Y007931D02*
X003272Y007931D01*
X003272Y007853D02*
X007112Y007853D01*
X007112Y007774D02*
X003272Y007774D01*
X003272Y007696D02*
X007112Y007696D01*
X007112Y007617D02*
X003272Y007617D01*
X003272Y007538D02*
X007112Y007538D01*
X007112Y007460D02*
X003272Y007460D01*
X003272Y007381D02*
X007112Y007381D01*
X007112Y007303D02*
X003272Y007303D01*
X003272Y007224D02*
X007112Y007224D01*
X007112Y007146D02*
X003272Y007146D01*
X003272Y007067D02*
X007112Y007067D01*
X007112Y006989D02*
X003272Y006989D01*
X003272Y006910D02*
X007112Y006910D01*
X007112Y006832D02*
X003272Y006832D01*
X003272Y006753D02*
X007112Y006753D01*
X007112Y006674D02*
X003272Y006674D01*
X003272Y006596D02*
X007112Y006596D01*
X007112Y006517D02*
X003272Y006517D01*
X003272Y006439D02*
X007112Y006439D01*
X007112Y006360D02*
X003272Y006360D01*
X003272Y006282D02*
X007112Y006282D01*
X007112Y006203D02*
X003272Y006203D01*
X003272Y006125D02*
X007112Y006125D01*
X007112Y006046D02*
X003272Y006046D01*
X003272Y005968D02*
X007112Y005968D01*
X007112Y005889D02*
X003272Y005889D01*
X003272Y005810D02*
X007112Y005810D01*
X007112Y005732D02*
X003272Y005732D01*
X003272Y005653D02*
X007112Y005653D01*
X007112Y005575D02*
X003272Y005575D01*
X003272Y005496D02*
X007112Y005496D01*
X007112Y005418D02*
X003272Y005418D01*
X003272Y005339D02*
X007112Y005339D01*
X007112Y005261D02*
X003272Y005261D01*
X003326Y005182D02*
X007112Y005182D01*
X007112Y005104D02*
X003370Y005104D01*
X003402Y005025D02*
X007112Y005025D01*
X007112Y004946D02*
X003402Y004946D01*
X003398Y004868D02*
X006952Y004868D01*
X006813Y004789D02*
X003365Y004789D01*
X003314Y004711D02*
X006735Y004711D01*
X006676Y004632D02*
X003226Y004632D01*
X003032Y004952D02*
X003032Y009137D01*
X003098Y009202D01*
X002699Y008795D02*
X002497Y008795D01*
X002575Y008874D02*
X002620Y008874D01*
X002781Y008717D02*
X002415Y008717D01*
X002225Y008638D02*
X002792Y008638D01*
X002792Y008559D02*
X000562Y008559D01*
X000562Y008481D02*
X002792Y008481D01*
X002792Y008402D02*
X000562Y008402D01*
X000562Y008324D02*
X002792Y008324D01*
X002792Y008245D02*
X000562Y008245D01*
X000562Y008167D02*
X002792Y008167D01*
X002792Y008088D02*
X000562Y008088D01*
X000562Y008010D02*
X002792Y008010D01*
X002792Y007931D02*
X000562Y007931D01*
X000562Y007853D02*
X002792Y007853D01*
X002792Y007774D02*
X000562Y007774D01*
X000562Y007696D02*
X002792Y007696D01*
X002792Y007617D02*
X000562Y007617D01*
X000562Y007538D02*
X002792Y007538D01*
X002792Y007460D02*
X000562Y007460D01*
X000562Y007381D02*
X002792Y007381D01*
X002792Y007303D02*
X000562Y007303D01*
X000562Y007224D02*
X002792Y007224D01*
X002792Y007146D02*
X000562Y007146D01*
X000562Y007067D02*
X002792Y007067D01*
X002792Y006989D02*
X000562Y006989D01*
X000562Y006910D02*
X002792Y006910D01*
X002792Y006832D02*
X000562Y006832D01*
X000562Y006753D02*
X002792Y006753D01*
X002792Y006674D02*
X000562Y006674D01*
X000562Y006596D02*
X002792Y006596D01*
X002792Y006517D02*
X000562Y006517D01*
X000562Y006439D02*
X002792Y006439D01*
X002792Y006360D02*
X000562Y006360D01*
X000562Y006282D02*
X002792Y006282D01*
X002792Y006203D02*
X000562Y006203D01*
X000562Y006125D02*
X002792Y006125D01*
X002792Y006046D02*
X000562Y006046D01*
X000562Y005968D02*
X002792Y005968D01*
X002792Y005889D02*
X000562Y005889D01*
X000562Y005810D02*
X002792Y005810D01*
X002792Y005732D02*
X000562Y005732D01*
X000562Y005653D02*
X002792Y005653D01*
X002792Y005575D02*
X000562Y005575D01*
X000562Y005496D02*
X002792Y005496D01*
X002792Y005418D02*
X000562Y005418D01*
X000562Y005339D02*
X002792Y005339D01*
X002792Y005261D02*
X000562Y005261D01*
X000562Y005182D02*
X002739Y005182D01*
X002695Y005104D02*
X000562Y005104D01*
X000562Y005025D02*
X002662Y005025D01*
X002662Y004946D02*
X000562Y004946D01*
X000562Y004868D02*
X002667Y004868D01*
X002699Y004789D02*
X000562Y004789D01*
X000562Y004711D02*
X002751Y004711D01*
X002838Y004632D02*
X000562Y004632D01*
X000562Y004554D02*
X006643Y004554D01*
X006611Y004475D02*
X000562Y004475D01*
X000562Y004397D02*
X006602Y004397D01*
X006602Y004318D02*
X000562Y004318D01*
X000562Y004240D02*
X006602Y004240D01*
X006631Y004161D02*
X000562Y004161D01*
X000562Y004083D02*
X006663Y004083D01*
X006705Y004004D02*
X000562Y004004D01*
X000562Y003925D02*
X006783Y003925D01*
X006879Y003847D02*
X000562Y003847D01*
X000562Y003768D02*
X006932Y003768D01*
X006932Y003690D02*
X000562Y003690D01*
X000562Y003611D02*
X006932Y003611D01*
X006932Y003533D02*
X000562Y003533D01*
X000562Y003454D02*
X006932Y003454D01*
X006932Y003376D02*
X000562Y003376D01*
X000562Y003297D02*
X006932Y003297D01*
X006932Y003219D02*
X000562Y003219D01*
X000562Y003140D02*
X006932Y003140D01*
X006932Y003061D02*
X000562Y003061D01*
X000562Y002983D02*
X006932Y002983D01*
X006932Y002904D02*
X000562Y002904D01*
X000562Y002826D02*
X006932Y002826D01*
X006932Y002747D02*
X000562Y002747D01*
X000562Y002669D02*
X006932Y002669D01*
X006932Y002590D02*
X000562Y002590D01*
X000562Y002512D02*
X006932Y002512D01*
X006932Y002433D02*
X000562Y002433D01*
X000562Y002355D02*
X006932Y002355D01*
X006875Y002276D02*
X000562Y002276D01*
X000562Y002197D02*
X001019Y002197D01*
X000803Y002119D02*
X000562Y002119D01*
X000562Y002040D02*
X000676Y002040D01*
X000583Y001962D02*
X000562Y001962D01*
X001454Y002197D02*
X006781Y002197D01*
X006703Y002119D02*
X001670Y002119D01*
X001797Y002040D02*
X006662Y002040D01*
X006630Y001962D02*
X001891Y001962D01*
X001984Y001883D02*
X006602Y001883D01*
X006602Y001805D02*
X002033Y001805D01*
X002079Y001726D02*
X006602Y001726D01*
X006611Y001648D02*
X002124Y001648D01*
X002164Y001569D02*
X006644Y001569D01*
X006676Y001491D02*
X002178Y001491D01*
X002192Y001412D02*
X006737Y001412D01*
X006815Y001334D02*
X002206Y001334D01*
X006254Y008717D02*
X006987Y008717D01*
X007019Y008795D02*
X006405Y008795D01*
X006490Y008874D02*
X007070Y008874D01*
X007158Y008952D02*
X006543Y008952D01*
X006578Y009031D02*
X011230Y009031D01*
X011230Y009109D02*
X010899Y009109D01*
X011230Y008952D02*
X007547Y008952D01*
X007634Y008874D02*
X011230Y008874D01*
X011230Y008795D02*
X010237Y008795D01*
X010384Y008717D02*
X011230Y008717D01*
X010882Y008638D02*
X010466Y008638D01*
X010519Y008559D02*
X010786Y008559D01*
X010732Y008481D02*
X010554Y008481D01*
X010575Y008402D02*
X010699Y008402D01*
X010631Y008324D02*
X010113Y008324D01*
X010526Y009109D02*
X006599Y009109D01*
X006557Y009423D02*
X006702Y009423D01*
X006623Y009502D02*
X006510Y009502D01*
X006712Y009752D02*
X006872Y009592D01*
X007832Y009592D01*
X007992Y009752D01*
X007769Y010052D02*
X007695Y010052D01*
X007352Y009912D02*
X007192Y010072D01*
X006712Y009752D02*
X004632Y009752D01*
X005497Y008795D02*
X005790Y008795D01*
X005706Y008874D02*
X005575Y008874D01*
X005611Y008952D02*
X005653Y008952D01*
X007592Y007617D02*
X008694Y007617D01*
X008629Y007538D02*
X007592Y007538D01*
X007592Y007460D02*
X008596Y007460D01*
X008582Y007381D02*
X007592Y007381D01*
X007592Y007303D02*
X008582Y007303D01*
X008605Y007224D02*
X007592Y007224D01*
X007592Y007146D02*
X008632Y007146D01*
X008632Y007067D02*
X007592Y007067D01*
X007592Y006989D02*
X008632Y006989D01*
X008632Y006910D02*
X007592Y006910D01*
X007592Y006832D02*
X008632Y006832D01*
X008632Y006753D02*
X007592Y006753D01*
X007592Y006674D02*
X008632Y006674D01*
X008632Y006596D02*
X007592Y006596D01*
X007592Y006517D02*
X008632Y006517D01*
X008632Y006439D02*
X007592Y006439D01*
X007592Y006360D02*
X008632Y006360D01*
X008632Y006282D02*
X007592Y006282D01*
X007592Y006203D02*
X008632Y006203D01*
X008632Y006125D02*
X007592Y006125D01*
X007592Y006046D02*
X008632Y006046D01*
X008632Y005968D02*
X007592Y005968D01*
X007592Y005889D02*
X008632Y005889D01*
X008632Y005810D02*
X007592Y005810D01*
X007592Y005732D02*
X008632Y005732D01*
X008632Y005653D02*
X007592Y005653D01*
X007592Y005575D02*
X008632Y005575D01*
X008632Y005496D02*
X007592Y005496D01*
X007592Y005418D02*
X008632Y005418D01*
X008632Y005339D02*
X007592Y005339D01*
X007592Y005261D02*
X008632Y005261D01*
X008632Y005182D02*
X007592Y005182D01*
X007592Y005104D02*
X008632Y005104D01*
X008632Y005025D02*
X007592Y005025D01*
X007592Y004946D02*
X008632Y004946D01*
X008632Y004868D02*
X007592Y004868D01*
X007592Y004789D02*
X008593Y004789D01*
X008515Y004711D02*
X007610Y004711D01*
X007669Y004632D02*
X008456Y004632D01*
X008423Y004554D02*
X007702Y004554D01*
X007734Y004475D02*
X008391Y004475D01*
X008382Y004397D02*
X007742Y004397D01*
X007742Y004318D02*
X008382Y004318D01*
X008382Y004240D02*
X007742Y004240D01*
X007714Y004161D02*
X008411Y004161D01*
X008443Y004083D02*
X007682Y004083D01*
X007640Y004004D02*
X008485Y004004D01*
X008563Y003925D02*
X007562Y003925D01*
X007466Y003847D02*
X008632Y003847D01*
X008632Y003768D02*
X007412Y003768D01*
X007412Y003690D02*
X008632Y003690D01*
X008632Y003611D02*
X007412Y003611D01*
X007412Y003533D02*
X008632Y003533D01*
X008632Y003454D02*
X007412Y003454D01*
X007412Y003376D02*
X008632Y003376D01*
X008632Y003297D02*
X007412Y003297D01*
X007412Y003219D02*
X008632Y003219D01*
X008632Y003140D02*
X007412Y003140D01*
X007412Y003061D02*
X008632Y003061D01*
X008632Y002983D02*
X007412Y002983D01*
X007412Y002904D02*
X008632Y002904D01*
X008632Y002826D02*
X007412Y002826D01*
X007412Y002747D02*
X008632Y002747D01*
X008632Y002669D02*
X007412Y002669D01*
X007412Y002590D02*
X008632Y002590D01*
X008632Y002512D02*
X007412Y002512D01*
X007412Y002433D02*
X008632Y002433D01*
X008632Y002355D02*
X007412Y002355D01*
X007470Y002276D02*
X008632Y002276D01*
X008561Y002197D02*
X007563Y002197D01*
X007642Y002119D02*
X008483Y002119D01*
X008442Y002040D02*
X007683Y002040D01*
X007715Y001962D02*
X008410Y001962D01*
X008382Y001883D02*
X007742Y001883D01*
X007742Y001805D02*
X008382Y001805D01*
X008382Y001726D02*
X007742Y001726D01*
X007734Y001648D02*
X008391Y001648D01*
X008424Y001569D02*
X007701Y001569D01*
X007668Y001491D02*
X008456Y001491D01*
X008517Y001412D02*
X007608Y001412D01*
X007530Y001334D02*
X008595Y001334D01*
X008736Y001255D02*
X007388Y001255D01*
X010555Y006989D02*
X011424Y006989D01*
X014237Y005418D02*
X017352Y005418D01*
X017352Y005496D02*
X014316Y005496D01*
X014394Y005575D02*
X017352Y005575D01*
X017352Y005653D02*
X014473Y005653D01*
X014912Y006125D02*
X014992Y006125D01*
X014992Y006203D02*
X014912Y006203D01*
X014172Y004342D02*
X014172Y001782D01*
X016272Y002276D02*
X017687Y002276D01*
X017687Y002197D02*
X017302Y002197D01*
X017518Y002119D02*
X017687Y002119D01*
X017687Y002040D02*
X017663Y002040D01*
X017687Y002355D02*
X016272Y002355D01*
X016272Y002433D02*
X017687Y002433D01*
X017687Y002512D02*
X016272Y002512D01*
X016272Y002590D02*
X017687Y002590D01*
X017687Y002669D02*
X016272Y002669D01*
X016272Y002747D02*
X017687Y002747D01*
X017687Y002826D02*
X016272Y002826D01*
X016272Y002904D02*
X017687Y002904D01*
X017687Y002983D02*
X016272Y002983D01*
X016272Y003061D02*
X017687Y003061D01*
X017687Y003140D02*
X016272Y003140D01*
X016272Y003219D02*
X017687Y003219D01*
X017687Y003297D02*
X016272Y003297D01*
X016272Y003376D02*
X017687Y003376D01*
X017687Y003454D02*
X016272Y003454D01*
X016272Y003533D02*
X017687Y003533D01*
X017687Y003611D02*
X016272Y003611D01*
X016272Y003690D02*
X017687Y003690D01*
X017687Y003768D02*
X016272Y003768D01*
X016272Y003847D02*
X017687Y003847D01*
X017687Y003925D02*
X016342Y003925D01*
X016420Y004004D02*
X017687Y004004D01*
X017687Y004083D02*
X016462Y004083D01*
X016494Y004161D02*
X017687Y004161D01*
X017687Y004240D02*
X016522Y004240D01*
X016522Y004318D02*
X017687Y004318D01*
X017687Y004397D02*
X016522Y004397D01*
X016514Y004475D02*
X017687Y004475D01*
X017687Y004554D02*
X016482Y004554D01*
X016449Y004632D02*
X017398Y004632D01*
X017311Y004711D02*
X016390Y004711D01*
X016312Y004789D02*
X017259Y004789D01*
X017227Y004868D02*
X016173Y004868D01*
X017592Y004952D02*
X017592Y016952D01*
X017687Y017828D02*
X015687Y017828D01*
X015720Y017906D02*
X017687Y017906D01*
X017687Y018142D02*
X015752Y018142D01*
X015752Y018220D02*
X017687Y018220D01*
X017687Y018299D02*
X015752Y018299D01*
X015752Y018377D02*
X017687Y018377D01*
X017687Y018456D02*
X017324Y018456D01*
X017357Y018534D02*
X017687Y018534D01*
X017687Y018613D02*
X017357Y018613D01*
X017357Y018692D02*
X017687Y018692D01*
X017687Y018770D02*
X017357Y018770D01*
X016921Y018770D02*
X016863Y018770D01*
X016863Y018692D02*
X016921Y018692D01*
X016921Y018613D02*
X016863Y018613D01*
X016863Y018534D02*
X016921Y018534D01*
X016921Y018456D02*
X016863Y018456D01*
X016461Y018456D02*
X015752Y018456D01*
X015752Y018534D02*
X016427Y018534D01*
X016427Y018613D02*
X015752Y018613D01*
X015731Y018692D02*
X016427Y018692D01*
X016427Y018770D02*
X015699Y018770D01*
X016863Y018927D02*
X016921Y018927D01*
X016921Y019006D02*
X016863Y019006D01*
X016863Y019084D02*
X016921Y019084D01*
X016921Y019163D02*
X016863Y019163D01*
X016863Y019241D02*
X016921Y019241D01*
X016921Y019320D02*
X016863Y019320D01*
X012067Y018927D02*
X011557Y018927D01*
X011638Y018849D02*
X011986Y018849D01*
X011926Y018770D02*
X011699Y018770D01*
X011731Y018692D02*
X011894Y018692D01*
X011872Y018613D02*
X011752Y018613D01*
X011752Y018534D02*
X011872Y018534D01*
X011872Y018456D02*
X011752Y018456D01*
X011752Y018377D02*
X011872Y018377D01*
X011872Y018299D02*
X011752Y018299D01*
X011752Y018220D02*
X011872Y018220D01*
X011872Y018142D02*
X011752Y018142D01*
X011720Y017906D02*
X011905Y017906D01*
X011938Y017828D02*
X011687Y017828D01*
X011611Y017749D02*
X012014Y017749D01*
X010326Y019398D02*
X010268Y019398D01*
X010268Y019477D02*
X010326Y019477D01*
X010326Y019556D02*
X010268Y019556D01*
X010268Y019634D02*
X010326Y019634D01*
X010326Y019713D02*
X010268Y019713D01*
X010058Y019713D02*
X008670Y019713D01*
X008749Y019634D02*
X009961Y019634D01*
X009899Y019556D02*
X008796Y019556D01*
X008828Y019477D02*
X009861Y019477D01*
X009352Y018927D02*
X009272Y018927D01*
X009249Y018927D02*
X008685Y018927D01*
X008641Y018849D02*
X009072Y018849D01*
X009001Y018770D02*
X008699Y018770D01*
X008731Y018692D02*
X008959Y018692D01*
X008937Y018613D02*
X008752Y018613D01*
X008752Y018534D02*
X008932Y018534D01*
X008932Y018456D02*
X008752Y018456D01*
X009272Y018456D02*
X009352Y018456D01*
X009352Y018534D02*
X009272Y018534D01*
X009272Y018613D02*
X009352Y018613D01*
X009352Y018692D02*
X009272Y018692D01*
X009272Y018770D02*
X009352Y018770D01*
X009352Y018849D02*
X009272Y018849D01*
X009272Y018220D02*
X009352Y018220D01*
X009352Y018142D02*
X009272Y018142D01*
X009272Y018063D02*
X009352Y018063D01*
X009352Y017985D02*
X009272Y017985D01*
X009272Y017906D02*
X009352Y017906D01*
X009352Y017828D02*
X009272Y017828D01*
X009272Y017749D02*
X009352Y017749D01*
X009512Y017749D02*
X009870Y017749D01*
X009938Y017828D02*
X009605Y017828D01*
X009655Y017906D02*
X009905Y017906D01*
X009873Y017985D02*
X009682Y017985D01*
X009692Y018063D02*
X009872Y018063D01*
X009872Y018142D02*
X009692Y018142D01*
X009692Y018220D02*
X009872Y018220D01*
X009706Y017513D02*
X009159Y017513D01*
X009162Y017506D02*
X009106Y017642D01*
X009162Y017506D02*
X009162Y017359D01*
X009106Y017223D01*
X009129Y017278D02*
X009736Y017278D01*
X009703Y017356D02*
X009161Y017356D01*
X009162Y017435D02*
X009702Y017435D01*
X009861Y017121D02*
X009004Y017121D01*
X009627Y014764D02*
X009998Y014764D01*
X010072Y014686D02*
X009666Y014686D01*
X009743Y014607D02*
X010072Y014607D01*
X009846Y014529D02*
X009775Y014529D01*
X008260Y013743D02*
X006952Y013743D01*
X006952Y013665D02*
X008182Y013665D01*
X008136Y013586D02*
X006952Y013586D01*
X006952Y013508D02*
X008103Y013508D01*
X008102Y013429D02*
X006952Y013429D01*
X006952Y013351D02*
X008106Y013351D01*
X008138Y013272D02*
X006952Y013272D01*
X006952Y013194D02*
X008188Y013194D01*
X008232Y013115D02*
X006952Y013115D01*
X006952Y013036D02*
X008232Y013036D01*
X008232Y012958D02*
X006952Y012958D01*
X006952Y012879D02*
X008232Y012879D01*
X008232Y012801D02*
X006952Y012801D01*
X006952Y012722D02*
X008232Y012722D01*
X008232Y012644D02*
X006952Y012644D01*
X006952Y012565D02*
X008232Y012565D01*
X008232Y012487D02*
X007032Y012487D01*
X007639Y011466D02*
X008232Y011466D01*
X008132Y011387D02*
X007808Y011387D01*
X007886Y011309D02*
X008054Y011309D01*
X007982Y011230D02*
X007958Y011230D01*
X007004Y013979D02*
X006952Y013979D01*
X005072Y013115D02*
X004993Y013115D01*
X005072Y013036D02*
X003552Y013036D01*
X003552Y012958D02*
X005072Y012958D01*
X005072Y012879D02*
X003552Y012879D01*
X003552Y012801D02*
X005072Y012801D01*
X005072Y012722D02*
X003552Y012722D01*
X003552Y012644D02*
X005072Y012644D01*
X005070Y012565D02*
X003552Y012565D01*
X003552Y012487D02*
X005062Y012487D01*
X005062Y012408D02*
X003552Y012408D01*
X003552Y012330D02*
X004077Y012330D01*
X003984Y012251D02*
X003552Y012251D01*
X003552Y012172D02*
X003926Y012172D01*
X003890Y012094D02*
X003552Y012094D01*
X002901Y009738D02*
X002295Y009738D01*
X002447Y009659D02*
X002749Y009659D01*
X002670Y009581D02*
X002526Y009581D01*
X002591Y009502D02*
X002605Y009502D01*
X000749Y009659D02*
X000562Y009659D01*
X000562Y009581D02*
X000670Y009581D01*
X000605Y009502D02*
X000562Y009502D01*
X000562Y009423D02*
X000573Y009423D01*
X000562Y015393D02*
X001872Y015393D01*
X001872Y015471D02*
X000562Y015471D01*
X000562Y015550D02*
X001872Y015550D01*
X001872Y015628D02*
X000562Y015628D01*
X000562Y015707D02*
X001900Y015707D01*
X001933Y015785D02*
X000562Y015785D01*
X000562Y015864D02*
X002002Y015864D01*
X002105Y015943D02*
X000562Y015943D01*
X000562Y016021D02*
X004552Y016021D01*
X004552Y015943D02*
X004520Y015943D01*
X004482Y016100D02*
X000562Y016100D01*
X000562Y016178D02*
X004448Y016178D01*
X004422Y016257D02*
X000562Y016257D01*
X000562Y016335D02*
X004422Y016335D01*
X004434Y016414D02*
X000562Y016414D01*
X000562Y016492D02*
X004467Y016492D01*
X004528Y016571D02*
X000562Y016571D01*
X000562Y016649D02*
X004639Y016649D01*
X005032Y015943D02*
X005105Y015943D01*
X005014Y017749D02*
X004611Y017749D01*
X004687Y017828D02*
X004938Y017828D01*
X004905Y017906D02*
X004720Y017906D01*
X004752Y018142D02*
X004872Y018142D01*
X004872Y018220D02*
X004752Y018220D01*
X004752Y018299D02*
X004872Y018299D01*
X004872Y018377D02*
X004752Y018377D01*
X004752Y018456D02*
X004872Y018456D01*
X004872Y018534D02*
X004752Y018534D01*
X004752Y018613D02*
X004872Y018613D01*
X004894Y018692D02*
X004731Y018692D01*
X004699Y018770D02*
X004926Y018770D01*
X004986Y018849D02*
X004638Y018849D01*
X004557Y018927D02*
X005067Y018927D01*
X004312Y018312D02*
X004312Y019832D01*
X001312Y019832D01*
X001312Y021312D01*
X000562Y022069D02*
X008008Y022069D01*
X008008Y022147D02*
X000562Y022147D01*
X000562Y022226D02*
X008008Y022226D01*
X008008Y022305D02*
X000562Y022305D01*
X000562Y022383D02*
X008008Y022383D01*
X008008Y022462D02*
X000562Y022462D01*
X000562Y022540D02*
X008008Y022540D01*
X008008Y022619D02*
X000562Y022619D01*
X000562Y022697D02*
X008008Y022697D01*
X008008Y022776D02*
X000562Y022776D01*
X000562Y022854D02*
X008008Y022854D01*
X008008Y022933D02*
X000562Y022933D01*
X000562Y023011D02*
X008008Y023011D01*
X008008Y023090D02*
X000562Y023090D01*
X000562Y023169D02*
X008008Y023169D01*
X008008Y023247D02*
X000562Y023247D01*
X000562Y023326D02*
X008008Y023326D01*
X008008Y023404D02*
X000562Y023404D01*
X000562Y023483D02*
X007999Y023483D01*
X007992Y023561D02*
X000562Y023561D01*
X000562Y023640D02*
X007992Y023640D01*
X007992Y023718D02*
X001446Y023718D01*
X001432Y023712D02*
X001652Y023804D01*
X001821Y023973D01*
X001829Y023992D01*
X003870Y023992D01*
X004001Y023862D01*
X004203Y023778D01*
X004422Y023778D01*
X004624Y023862D01*
X004779Y024017D01*
X004862Y024219D01*
X004862Y024438D01*
X004779Y024640D01*
X004624Y024794D01*
X004422Y024878D01*
X004203Y024878D01*
X004001Y024794D01*
X003846Y024640D01*
X003843Y024632D01*
X001829Y024632D01*
X001821Y024652D01*
X001652Y024821D01*
X001432Y024912D01*
X001193Y024912D01*
X000973Y024821D01*
X000804Y024652D01*
X000712Y024432D01*
X000712Y024193D01*
X000804Y023973D01*
X000973Y023804D01*
X001193Y023712D01*
X001432Y023712D01*
X001636Y023797D02*
X004158Y023797D01*
X003987Y023875D02*
X001724Y023875D01*
X001802Y023954D02*
X003909Y023954D01*
X004467Y023797D02*
X007992Y023797D01*
X007992Y023875D02*
X004637Y023875D01*
X004716Y023954D02*
X007992Y023954D01*
X007992Y024033D02*
X004785Y024033D01*
X004818Y024111D02*
X007992Y024111D01*
X007992Y024190D02*
X004850Y024190D01*
X004862Y024268D02*
X007992Y024268D01*
X007992Y024347D02*
X004862Y024347D01*
X004862Y024425D02*
X007992Y024425D01*
X007992Y024504D02*
X004835Y024504D01*
X004802Y024582D02*
X007992Y024582D01*
X007992Y024661D02*
X004758Y024661D01*
X004679Y024739D02*
X007992Y024739D01*
X007992Y024818D02*
X004567Y024818D01*
X004058Y024818D02*
X001655Y024818D01*
X001734Y024739D02*
X003946Y024739D01*
X003867Y024661D02*
X001812Y024661D01*
X001470Y024896D02*
X007992Y024896D01*
X007992Y024975D02*
X000562Y024975D01*
X000562Y024896D02*
X001155Y024896D01*
X000969Y024818D02*
X000562Y024818D01*
X000562Y024739D02*
X000891Y024739D01*
X000812Y024661D02*
X000562Y024661D01*
X000562Y024582D02*
X000775Y024582D01*
X000742Y024504D02*
X000562Y024504D01*
X000562Y024425D02*
X000712Y024425D01*
X000712Y024347D02*
X000562Y024347D01*
X000562Y024268D02*
X000712Y024268D01*
X000714Y024190D02*
X000562Y024190D01*
X000562Y024111D02*
X000746Y024111D01*
X000779Y024033D02*
X000562Y024033D01*
X000562Y023954D02*
X000822Y023954D01*
X000901Y023875D02*
X000562Y023875D01*
X000562Y023797D02*
X000989Y023797D01*
X001179Y023718D02*
X000562Y023718D01*
X000562Y025054D02*
X007992Y025054D01*
X007992Y025132D02*
X000562Y025132D01*
X000562Y025211D02*
X007992Y025211D01*
X007992Y025289D02*
X000562Y025289D01*
X000562Y025368D02*
X007992Y025368D01*
X007992Y025446D02*
X000562Y025446D01*
X000562Y025525D02*
X007992Y025525D01*
X007992Y025603D02*
X000562Y025603D01*
X000562Y025682D02*
X007992Y025682D01*
X007992Y025760D02*
X004455Y025760D01*
X004633Y025839D02*
X007992Y025839D01*
X007806Y026624D02*
X004762Y026624D01*
X004684Y026703D02*
X007721Y026703D01*
X007668Y026782D02*
X004579Y026782D01*
X004312Y026297D02*
X004312Y026232D01*
X004046Y026782D02*
X002189Y026782D01*
X002203Y026860D02*
X007632Y026860D01*
X007611Y026939D02*
X002217Y026939D01*
X002213Y027017D02*
X008072Y027017D01*
X008072Y027096D02*
X008152Y027096D01*
X008152Y027174D02*
X008072Y027174D01*
X008072Y027253D02*
X008152Y027253D01*
X008152Y027331D02*
X008072Y027331D01*
X008072Y027410D02*
X008152Y027410D01*
X008152Y027488D02*
X008072Y027488D01*
X007884Y027488D02*
X002056Y027488D01*
X002101Y027410D02*
X007769Y027410D01*
X007699Y027331D02*
X002146Y027331D01*
X002171Y027253D02*
X007652Y027253D01*
X007622Y027174D02*
X002185Y027174D01*
X002199Y027096D02*
X007606Y027096D01*
X008341Y027488D02*
X008762Y027488D01*
X008684Y027410D02*
X008456Y027410D01*
X008526Y027331D02*
X008619Y027331D01*
X008587Y027253D02*
X008572Y027253D01*
X008557Y026782D02*
X008599Y026782D01*
X008636Y026703D02*
X008503Y026703D01*
X008419Y026624D02*
X008714Y026624D01*
X008797Y026546D02*
X008392Y026546D01*
X008530Y026467D02*
X008987Y026467D01*
X008881Y023169D02*
X008648Y023169D01*
X008648Y023090D02*
X008959Y023090D01*
X008008Y019791D02*
X007542Y019791D01*
X007662Y019713D02*
X007986Y019713D01*
X007907Y019634D02*
X007740Y019634D01*
X007785Y019556D02*
X007861Y019556D01*
X007828Y019477D02*
X007818Y019477D01*
X007083Y019791D02*
X006542Y019791D01*
X006662Y019713D02*
X006963Y019713D01*
X006885Y019634D02*
X006740Y019634D01*
X006785Y019556D02*
X006839Y019556D01*
X002872Y018220D02*
X002752Y018220D01*
X002822Y018142D02*
X002872Y018142D01*
X004170Y025760D02*
X000562Y025760D01*
X000562Y025839D02*
X003992Y025839D01*
X003914Y025918D02*
X000562Y025918D01*
X000562Y025996D02*
X003842Y025996D01*
X003809Y026075D02*
X001621Y026075D01*
X001776Y026153D02*
X003777Y026153D01*
X003762Y026232D02*
X001869Y026232D01*
X001963Y026310D02*
X003762Y026310D01*
X003762Y026389D02*
X002023Y026389D01*
X002068Y026467D02*
X003788Y026467D01*
X003820Y026546D02*
X002114Y026546D01*
X002159Y026624D02*
X003862Y026624D01*
X003941Y026703D02*
X002175Y026703D01*
X000852Y026075D02*
X000562Y026075D01*
X000562Y026153D02*
X000697Y026153D01*
X000604Y026232D02*
X000562Y026232D01*
X014000Y011544D02*
X014312Y011544D01*
X014312Y011466D02*
X014168Y011466D01*
X014246Y011387D02*
X014312Y011387D01*
X016343Y002197D02*
X016931Y002197D01*
X016716Y002119D02*
X016422Y002119D01*
X016463Y002040D02*
X016570Y002040D01*
D22*
X017592Y004952D03*
X015032Y009752D03*
X013742Y009432D03*
X012792Y010072D03*
X013912Y011992D03*
X014712Y013112D03*
X015032Y013752D03*
X015387Y012472D03*
X013272Y013432D03*
X011512Y012792D03*
X010392Y013752D03*
X010072Y014232D03*
X009432Y012152D03*
X010072Y011672D03*
X008792Y011832D03*
X008472Y013432D03*
X006872Y012152D03*
X006392Y012792D03*
X005432Y012472D03*
X004792Y013432D03*
X004312Y014232D03*
X004792Y016312D03*
X003352Y017112D03*
X002392Y013112D03*
X007352Y009912D03*
X007992Y009752D03*
X007352Y008632D03*
X008952Y007352D03*
X010712Y009432D03*
X011062Y008312D03*
X011512Y007352D03*
X012632Y005752D03*
X013112Y006392D03*
X013272Y005432D03*
X013812Y007312D03*
X011192Y004952D03*
X003032Y004952D03*
X008792Y017432D03*
X010072Y017432D03*
D23*
X009312Y017312D02*
X007312Y015312D01*
X007328Y014312D01*
X008792Y013112D02*
X009272Y013592D01*
X009272Y014288D01*
X009297Y014312D01*
X009312Y015312D01*
X009312Y017312D02*
X009312Y018312D01*
X008312Y018312D02*
X008328Y019312D01*
X008328Y023562D01*
X008312Y023562D01*
X008312Y026232D01*
X004312Y026232D01*
X004312Y024328D02*
X004297Y024312D01*
X001312Y024312D01*
X004312Y014232D02*
X004328Y014217D01*
X004328Y011937D01*
X006098Y009202D02*
X010072Y009202D01*
X010072Y008312D01*
X011062Y008302D02*
X010072Y007312D01*
X008952Y007352D02*
X008952Y004342D01*
X008952Y001782D01*
X012452Y001782D02*
X012452Y004342D01*
X011062Y008302D02*
X011062Y008312D01*
X008792Y011832D02*
X008792Y013112D01*
X008328Y023562D02*
X009312Y023562D01*
X013202Y023562D01*
X016892Y019872D01*
X017062Y023562D02*
X013432Y027032D01*
X009112Y027032D01*
X017062Y023562D02*
X017186Y023562D01*
X015952Y004342D02*
X015952Y001782D01*
M02*
