G75*
G70*
%OFA0B0*%
%FSLAX24Y24*%
%IPPOS*%
%LPD*%
%AMOC8*
5,1,8,0,0,1.08239X$1,22.5*
%
%ADD10OC8,0.0740*%
%ADD11C,0.0660*%
%ADD12R,0.0315X0.0472*%
%ADD13C,0.1000*%
%ADD14R,0.0472X0.0177*%
%ADD15R,0.0472X0.0315*%
%ADD16R,0.0984X0.0472*%
%ADD17R,0.0630X0.0551*%
%ADD18C,0.0270*%
%ADD19C,0.0080*%
%ADD20C,0.0160*%
%ADD21C,0.0240*%
%ADD22C,0.0100*%
D10*
X004993Y001562D03*
X005993Y001562D03*
X006993Y001562D03*
X006993Y002562D03*
X005993Y002562D03*
X004993Y002562D03*
D11*
X019907Y002551D03*
X019907Y001551D03*
D12*
X016456Y003850D03*
X015747Y003850D03*
X016241Y006007D03*
X016949Y006007D03*
X022263Y008494D03*
X022972Y008494D03*
X022310Y011010D03*
X021602Y011010D03*
X006919Y010137D03*
X006210Y010137D03*
D13*
X005047Y009950D03*
X022763Y009950D03*
D14*
X021401Y008938D03*
X021401Y008682D03*
X021401Y008427D03*
X021401Y008171D03*
X019688Y008171D03*
X019688Y008427D03*
X019688Y008682D03*
X019688Y008938D03*
D15*
X014729Y005986D03*
X014729Y005277D03*
D16*
X020214Y009913D03*
X020214Y011212D03*
D17*
X019768Y007295D03*
X022917Y007295D03*
X022917Y005523D03*
X019768Y005523D03*
X008030Y005326D03*
X004881Y005326D03*
X004881Y003554D03*
X008030Y003554D03*
X008030Y007098D03*
X004881Y007098D03*
X004881Y008869D03*
X008030Y008869D03*
D18*
X006653Y009537D03*
X006173Y009537D03*
X006173Y010657D03*
X012893Y008897D03*
X013693Y008897D03*
X014653Y008897D03*
X015773Y008897D03*
X014333Y010017D03*
X014013Y010257D03*
X018653Y010017D03*
X018893Y010337D03*
X019293Y010657D03*
X019373Y011297D03*
X020733Y008577D03*
X021053Y007617D03*
X022173Y007137D03*
X018973Y006577D03*
X018733Y006817D03*
X017853Y006817D03*
X017213Y006577D03*
X016573Y007057D03*
X014973Y007297D03*
X014333Y006497D03*
X015293Y006017D03*
X015293Y005537D03*
X015933Y005537D03*
X016733Y005537D03*
X017933Y004737D03*
X016733Y004417D03*
X016893Y003937D03*
X015293Y003937D03*
X013533Y003777D03*
X013213Y004097D03*
X013533Y004417D03*
X013213Y004737D03*
X013533Y005057D03*
X013213Y005377D03*
X013053Y005857D03*
X012413Y005857D03*
X011293Y006177D03*
X011133Y006657D03*
X011293Y007137D03*
X011773Y007297D03*
X013053Y006657D03*
X009853Y006657D03*
X008573Y006017D03*
X006653Y005537D03*
X006013Y005057D03*
X005053Y005857D03*
X004893Y006337D03*
X008093Y004737D03*
X008893Y004897D03*
X009533Y004897D03*
X010013Y004417D03*
X009213Y004097D03*
X008573Y004097D03*
X009693Y003777D03*
X011293Y003937D03*
X012413Y003937D03*
X011933Y002497D03*
X008893Y002177D03*
X008573Y001857D03*
X008093Y002337D03*
X007853Y002977D03*
X007613Y001217D03*
X016091Y002017D03*
X017533Y001377D03*
X017933Y001457D03*
X018333Y001697D03*
X016893Y001217D03*
X017693Y002337D03*
X020973Y004337D03*
X022813Y002017D03*
D19*
X022333Y001537D01*
X020893Y001537D01*
X020413Y002017D01*
X016091Y002017D01*
X016253Y001697D02*
X016413Y001857D01*
X018173Y001857D01*
X018333Y001697D01*
X017933Y001457D02*
X017693Y001697D01*
X016573Y001697D01*
X016413Y001537D01*
X008093Y001537D01*
X007573Y002057D01*
X006493Y002057D01*
X005993Y002557D01*
X005993Y002562D01*
X005493Y002937D02*
X005493Y002057D01*
X004998Y001562D01*
X004993Y001562D01*
X006993Y001562D02*
X007018Y001537D01*
X007773Y001537D01*
X007933Y001377D01*
X016573Y001377D01*
X016733Y001537D01*
X017053Y001537D01*
X017213Y001377D01*
X017533Y001377D01*
X016893Y001217D02*
X007613Y001217D01*
X008573Y001857D02*
X008733Y001697D01*
X016253Y001697D01*
X017693Y002337D02*
X012253Y002337D01*
X012093Y002337D01*
X011933Y002497D01*
X012253Y003617D02*
X012573Y003617D01*
X012733Y003777D01*
X013533Y003777D01*
X013213Y004097D02*
X012733Y004097D01*
X012573Y004257D01*
X012253Y004257D01*
X012093Y004097D01*
X011613Y004097D01*
X011453Y004257D01*
X011133Y004257D01*
X010973Y004097D01*
X009213Y004097D01*
X008573Y004097D02*
X008573Y004097D01*
X008030Y003554D01*
X007293Y003137D02*
X007613Y002817D01*
X007613Y002337D01*
X008093Y001857D01*
X008413Y002177D01*
X008893Y002177D01*
X007293Y003137D02*
X005693Y003137D01*
X005493Y002937D01*
X006813Y004417D02*
X006653Y004577D01*
X006653Y005537D01*
X006333Y005857D01*
X005053Y005857D01*
X005213Y006177D02*
X005373Y006017D01*
X008573Y006017D01*
X009533Y005537D02*
X011773Y005537D01*
X012253Y005057D01*
X013533Y005057D01*
X013213Y005377D02*
X012893Y005377D01*
X012413Y005857D01*
X011293Y006177D02*
X013533Y006177D01*
X014173Y006817D01*
X017853Y006817D01*
X017213Y006577D02*
X018973Y006577D01*
X018733Y006817D02*
X018493Y007057D01*
X016573Y007057D01*
X014973Y007297D02*
X014973Y008577D01*
X014653Y008897D01*
X013693Y008897D02*
X012093Y007297D01*
X012093Y007137D01*
X011933Y006977D01*
X011453Y006977D01*
X011293Y007137D01*
X011773Y007297D02*
X011773Y007777D01*
X012893Y008897D01*
X014333Y010017D02*
X018653Y010017D01*
X018893Y010337D02*
X014093Y010337D01*
X014013Y010257D01*
X008733Y010657D02*
X019293Y010657D01*
X019768Y007295D02*
X019768Y006731D01*
X019133Y006097D01*
X019133Y004817D01*
X019053Y004737D01*
X017933Y004737D01*
X016733Y004417D02*
X015613Y004417D01*
X014813Y005217D01*
X014333Y005217D01*
X014173Y005377D01*
X013213Y004737D02*
X012093Y004737D01*
X011933Y004577D01*
X011453Y004577D01*
X011133Y004897D01*
X009533Y004897D01*
X009373Y004897D01*
X009053Y004577D01*
X008733Y004577D01*
X008573Y004737D01*
X008093Y004737D01*
X008893Y004897D02*
X009533Y005537D01*
X009853Y006657D02*
X009053Y006657D01*
X008733Y006977D01*
X008733Y007457D01*
X008653Y007537D01*
X008013Y007537D01*
X006173Y009377D01*
X006173Y009537D01*
X008030Y009954D02*
X008030Y008869D01*
X008030Y009954D02*
X008733Y010657D01*
X005001Y007137D02*
X004881Y007098D01*
X004893Y006337D02*
X005053Y006177D01*
X005213Y006177D01*
X006813Y004417D02*
X010013Y004417D01*
X013533Y004417D01*
X012413Y003937D02*
X011293Y003937D01*
X010973Y003777D02*
X011133Y003617D01*
X011453Y003617D01*
X011613Y003777D01*
X012093Y003777D01*
X012253Y003617D01*
X010973Y003777D02*
X009693Y003777D01*
X019768Y005523D02*
X019768Y006171D01*
X020573Y007137D01*
X022173Y007137D01*
D20*
X021401Y007965D02*
X021053Y007617D01*
X021401Y007965D02*
X021401Y008171D01*
X019688Y008171D01*
X019380Y008171D01*
X019133Y008417D01*
X019133Y008737D01*
X018973Y008897D01*
X015773Y008897D01*
X019133Y008737D02*
X019335Y008938D01*
X019688Y008938D01*
X019688Y009387D01*
X020214Y009913D01*
X021053Y009537D02*
X021853Y009537D01*
X021053Y009537D02*
X020199Y008682D01*
X019688Y008682D01*
X019688Y008427D02*
X020583Y008427D01*
X020733Y008577D01*
X021401Y008938D02*
X021812Y008938D01*
X022256Y008494D01*
X022263Y008494D01*
X016949Y006007D02*
X016949Y005833D01*
X016733Y005537D01*
X015933Y005537D02*
X015783Y005687D01*
X015783Y005847D01*
X015773Y005857D01*
X015783Y006007D02*
X015773Y006017D01*
X015783Y006007D02*
X016241Y006007D01*
X015293Y006017D02*
X014760Y006017D01*
X014729Y005986D01*
X015293Y005537D02*
X015034Y005277D01*
X014729Y005277D01*
X015293Y003937D02*
X015660Y003937D01*
X015747Y003850D01*
X016456Y003850D02*
X016543Y003937D01*
X016893Y003937D01*
X007853Y002977D02*
X007773Y002977D01*
X006253Y004497D01*
X006253Y004817D01*
X006013Y005057D01*
X005744Y005326D01*
X004881Y005326D01*
X004573Y005634D01*
X004573Y006817D01*
X004854Y007098D01*
X004881Y007098D01*
X005001Y007137D02*
X005080Y007216D01*
X006919Y009962D02*
X006919Y010137D01*
D21*
X006919Y009962D02*
X006919Y009802D01*
X006653Y009537D01*
X005853Y009217D02*
X005120Y009950D01*
X005047Y009950D01*
X006173Y010174D02*
X006210Y010137D01*
X006173Y010174D02*
X006173Y010657D01*
X005853Y009217D02*
X005853Y008417D01*
X005240Y007804D01*
X005080Y007804D01*
X005080Y007216D01*
X011133Y006657D02*
X013053Y006657D01*
X014333Y006497D02*
X015453Y006497D01*
X015773Y006177D01*
X015773Y006017D01*
X015773Y005857D01*
X014729Y005277D02*
X014273Y005277D01*
X014173Y005377D01*
X013693Y005857D01*
X013053Y005857D01*
X014729Y005277D02*
X015441Y004565D01*
X014013Y003137D01*
X009053Y003137D01*
X008733Y002817D01*
X008733Y002657D01*
X008573Y002497D01*
X008253Y002497D01*
X008093Y002337D01*
X015441Y004565D02*
X015670Y004337D01*
X016413Y004337D01*
X016653Y004337D01*
X016733Y004417D01*
X020893Y004417D01*
X020973Y004337D01*
X016456Y004294D02*
X016456Y003850D01*
X016456Y004294D02*
X016413Y004337D01*
X022173Y007137D02*
X022173Y007777D01*
X022333Y007937D01*
X022813Y007937D01*
X022973Y008097D01*
X022973Y008493D01*
X022972Y008494D01*
X022973Y008496D01*
X022973Y008897D01*
X022813Y009057D01*
X022333Y009057D01*
X021853Y009537D01*
X021853Y010337D01*
X022310Y010794D01*
X022310Y011010D01*
X022310Y011320D01*
X022013Y011617D01*
X020619Y011617D01*
X020214Y011212D01*
X020129Y011297D01*
X019373Y011297D01*
X020505Y009913D02*
X021602Y011010D01*
X020505Y009913D02*
X020214Y009913D01*
X022972Y008494D02*
X022973Y008336D01*
D22*
X021998Y008069D02*
X021893Y007964D01*
X021843Y007843D01*
X021843Y007711D01*
X021843Y007387D01*
X020611Y007387D01*
X020600Y007390D01*
X020562Y007387D01*
X020523Y007387D01*
X020513Y007383D01*
X020501Y007381D01*
X020467Y007364D01*
X020432Y007349D01*
X020423Y007341D01*
X020413Y007335D01*
X020388Y007306D01*
X020361Y007279D01*
X020357Y007268D01*
X020292Y007191D01*
X020292Y007657D01*
X020169Y007780D01*
X019366Y007780D01*
X019243Y007657D01*
X019243Y006932D01*
X019366Y006809D01*
X019492Y006809D01*
X019318Y006635D01*
X019318Y006646D01*
X019266Y006772D01*
X019169Y006869D01*
X019068Y006911D01*
X019026Y007012D01*
X018929Y007109D01*
X018802Y007162D01*
X018742Y007162D01*
X018705Y007199D01*
X018635Y007269D01*
X018543Y007307D01*
X016811Y007307D01*
X016769Y007349D01*
X016642Y007402D01*
X016505Y007402D01*
X016378Y007349D01*
X016281Y007252D01*
X016228Y007126D01*
X016228Y007067D01*
X015231Y007067D01*
X015266Y007102D01*
X015318Y007228D01*
X015318Y007366D01*
X015266Y007492D01*
X015223Y007535D01*
X015223Y008527D01*
X015223Y008627D01*
X015185Y008719D01*
X014998Y008906D01*
X014998Y008966D01*
X014946Y009092D01*
X014849Y009189D01*
X014722Y009242D01*
X014585Y009242D01*
X014458Y009189D01*
X014361Y009092D01*
X014308Y008966D01*
X014308Y008828D01*
X014361Y008702D01*
X014458Y008605D01*
X014585Y008552D01*
X014645Y008552D01*
X014723Y008473D01*
X014723Y007535D01*
X014681Y007492D01*
X014628Y007366D01*
X014628Y007228D01*
X014681Y007102D01*
X014715Y007067D01*
X014123Y007067D01*
X014032Y007029D01*
X013961Y006959D01*
X013430Y006427D01*
X011531Y006427D01*
X011489Y006469D01*
X011362Y006522D01*
X011225Y006522D01*
X011098Y006469D01*
X011001Y006372D01*
X010948Y006246D01*
X010948Y006108D01*
X011001Y005982D01*
X011098Y005885D01*
X011225Y005832D01*
X011362Y005832D01*
X011489Y005885D01*
X011531Y005927D01*
X012069Y005927D01*
X012068Y005926D01*
X012068Y005788D01*
X012121Y005662D01*
X012218Y005565D01*
X012345Y005512D01*
X012405Y005512D01*
X012610Y005307D01*
X012357Y005307D01*
X011915Y005749D01*
X011823Y005787D01*
X011723Y005787D01*
X009483Y005787D01*
X009392Y005749D01*
X009321Y005679D01*
X008885Y005242D01*
X008825Y005242D01*
X008698Y005189D01*
X008601Y005092D01*
X008557Y004987D01*
X008555Y004987D01*
X008555Y005672D01*
X008642Y005672D01*
X008769Y005725D01*
X008866Y005822D01*
X008918Y005948D01*
X008918Y006086D01*
X008866Y006212D01*
X008769Y006309D01*
X008642Y006362D01*
X008505Y006362D01*
X008378Y006309D01*
X008335Y006267D01*
X005477Y006267D01*
X005355Y006389D01*
X005263Y006427D01*
X005229Y006427D01*
X005186Y006532D01*
X005106Y006612D01*
X005283Y006612D01*
X005406Y006735D01*
X005406Y007139D01*
X005410Y007150D01*
X005410Y007517D01*
X005427Y007524D01*
X006040Y008137D01*
X006133Y008230D01*
X006183Y008351D01*
X006183Y009014D01*
X007621Y007576D01*
X007505Y007460D01*
X007505Y006735D01*
X007628Y006612D01*
X008432Y006612D01*
X008555Y006735D01*
X008555Y006802D01*
X008592Y006765D01*
X008912Y006445D01*
X009003Y006407D01*
X009103Y006407D01*
X009615Y006407D01*
X009658Y006365D01*
X009785Y006312D01*
X009922Y006312D01*
X010049Y006365D01*
X010146Y006462D01*
X010198Y006588D01*
X010198Y006726D01*
X010146Y006852D01*
X010049Y006949D01*
X009922Y007002D01*
X009785Y007002D01*
X009658Y006949D01*
X009615Y006907D01*
X009157Y006907D01*
X008983Y007080D01*
X008983Y007407D01*
X008983Y007507D01*
X008945Y007599D01*
X008865Y007679D01*
X008795Y007749D01*
X008703Y007787D01*
X008117Y007787D01*
X006494Y009410D01*
X006518Y009468D01*
X006518Y009606D01*
X006474Y009711D01*
X006577Y009814D01*
X006577Y010460D01*
X006503Y010535D01*
X006503Y010552D01*
X006518Y010588D01*
X006518Y010726D01*
X006466Y010852D01*
X006369Y010949D01*
X006242Y011002D01*
X006105Y011002D01*
X005978Y010949D01*
X005881Y010852D01*
X005828Y010726D01*
X005828Y010588D01*
X005843Y010552D01*
X005843Y010461D01*
X005842Y010460D01*
X005842Y009814D01*
X005902Y009754D01*
X005881Y009732D01*
X005858Y009678D01*
X005748Y009789D01*
X005756Y009809D01*
X005756Y010091D01*
X005648Y010352D01*
X005449Y010552D01*
X005188Y010660D01*
X004905Y010660D01*
X004644Y010552D01*
X004463Y010371D01*
X004463Y011746D01*
X020281Y011746D01*
X020193Y011658D01*
X019635Y011658D01*
X019604Y011627D01*
X019478Y011627D01*
X019442Y011642D01*
X019305Y011642D01*
X019178Y011589D01*
X019081Y011492D01*
X019028Y011366D01*
X019028Y011228D01*
X019081Y011102D01*
X019178Y011005D01*
X019204Y010994D01*
X019098Y010949D01*
X019055Y010907D01*
X008783Y010907D01*
X008683Y010907D01*
X008592Y010869D01*
X007889Y010166D01*
X007818Y010096D01*
X007780Y010004D01*
X007780Y009355D01*
X007628Y009355D01*
X007505Y009232D01*
X007505Y008507D01*
X007628Y008384D01*
X008432Y008384D01*
X008555Y008507D01*
X008555Y009232D01*
X008432Y009355D01*
X008280Y009355D01*
X008280Y009850D01*
X008837Y010407D01*
X013702Y010407D01*
X013668Y010326D01*
X013668Y010188D01*
X013721Y010062D01*
X013818Y009965D01*
X013945Y009912D01*
X014003Y009912D01*
X014041Y009822D01*
X014138Y009725D01*
X014265Y009672D01*
X014402Y009672D01*
X014529Y009725D01*
X014571Y009767D01*
X018415Y009767D01*
X018458Y009725D01*
X018585Y009672D01*
X018722Y009672D01*
X018849Y009725D01*
X018946Y009822D01*
X018998Y009948D01*
X018998Y010007D01*
X019089Y010045D01*
X019186Y010142D01*
X019238Y010268D01*
X019238Y010312D01*
X019362Y010312D01*
X019489Y010365D01*
X019586Y010462D01*
X019638Y010588D01*
X019638Y010726D01*
X019612Y010788D01*
X019635Y010766D01*
X020793Y010766D01*
X020916Y010889D01*
X020916Y011287D01*
X021300Y011287D01*
X021294Y011265D01*
X021294Y011038D01*
X021573Y011038D01*
X021573Y010981D01*
X021294Y010981D01*
X021294Y010754D01*
X021304Y010715D01*
X021324Y010681D01*
X021352Y010653D01*
X021386Y010634D01*
X021424Y010623D01*
X021573Y010623D01*
X021573Y010981D01*
X021630Y010981D01*
X021630Y010623D01*
X021673Y010623D01*
X021666Y010617D01*
X021573Y010524D01*
X021523Y010403D01*
X021523Y009827D01*
X020996Y009827D01*
X020889Y009783D01*
X020856Y009750D01*
X020856Y009863D01*
X020264Y009863D01*
X020264Y009963D01*
X020164Y009963D01*
X020164Y010299D01*
X019702Y010299D01*
X019664Y010289D01*
X019630Y010269D01*
X019602Y010241D01*
X019582Y010207D01*
X019572Y010169D01*
X019572Y009963D01*
X018998Y009963D01*
X018963Y009864D02*
X020164Y009864D01*
X020164Y009863D02*
X019572Y009863D01*
X019572Y009657D01*
X019582Y009619D01*
X019602Y009584D01*
X019630Y009556D01*
X019664Y009537D01*
X019702Y009527D01*
X020164Y009527D01*
X020164Y009863D01*
X020164Y009963D01*
X020264Y009963D01*
X020264Y010299D01*
X020726Y010299D01*
X020764Y010289D01*
X020798Y010269D01*
X020826Y010241D01*
X020846Y010207D01*
X020856Y010169D01*
X020856Y009963D01*
X021523Y009963D01*
X021523Y009864D02*
X020264Y009864D01*
X020264Y009863D02*
X020264Y009527D01*
X020633Y009527D01*
X020079Y008972D01*
X020074Y008972D01*
X020074Y009047D01*
X020064Y009085D01*
X020044Y009119D01*
X020017Y009147D01*
X019982Y009167D01*
X019944Y009177D01*
X019688Y009177D01*
X019432Y009177D01*
X019394Y009167D01*
X019360Y009147D01*
X019332Y009119D01*
X019312Y009085D01*
X019302Y009047D01*
X019302Y008939D01*
X019323Y008939D01*
X019322Y008938D01*
X019302Y008938D01*
X019302Y008918D01*
X019242Y008858D01*
X019242Y008602D01*
X019242Y008251D01*
X019302Y008191D01*
X019302Y008171D01*
X019322Y008171D01*
X019323Y008170D01*
X019302Y008170D01*
X019302Y008062D01*
X019312Y008024D01*
X019332Y007990D01*
X019360Y007962D01*
X019394Y007942D01*
X019432Y007932D01*
X019688Y007932D01*
X019688Y008128D01*
X019688Y008128D01*
X019688Y007932D01*
X019944Y007932D01*
X019982Y007942D01*
X020017Y007962D01*
X020044Y007990D01*
X020064Y008024D01*
X020074Y008062D01*
X020074Y008137D01*
X020525Y008137D01*
X020640Y008137D01*
X020747Y008181D01*
X020798Y008232D01*
X020802Y008232D01*
X020929Y008285D01*
X020955Y008311D01*
X020955Y008251D01*
X021015Y008191D01*
X021015Y008171D01*
X021035Y008171D01*
X021035Y008170D01*
X021015Y008170D01*
X021015Y008062D01*
X021025Y008024D01*
X021045Y007990D01*
X021073Y007962D01*
X021107Y007942D01*
X021145Y007932D01*
X021401Y007932D01*
X021657Y007932D01*
X021695Y007942D01*
X021729Y007962D01*
X021757Y007990D01*
X021777Y008024D01*
X021787Y008062D01*
X021787Y008170D01*
X021766Y008170D01*
X021767Y008171D01*
X021787Y008171D01*
X021787Y008191D01*
X021847Y008251D01*
X021847Y008493D01*
X021896Y008444D01*
X021896Y008171D01*
X021998Y008069D01*
X021976Y008091D02*
X021787Y008091D01*
X021787Y008189D02*
X021896Y008189D01*
X021896Y008288D02*
X021847Y008288D01*
X021847Y008386D02*
X021896Y008386D01*
X021855Y008485D02*
X021847Y008485D01*
X021401Y008128D02*
X021401Y007932D01*
X021401Y008128D01*
X021401Y008128D01*
X021401Y008091D02*
X021401Y008091D01*
X021401Y007992D02*
X021401Y007992D01*
X021758Y007992D02*
X021922Y007992D01*
X021864Y007894D02*
X015223Y007894D01*
X015223Y007992D02*
X019331Y007992D01*
X019302Y008091D02*
X015223Y008091D01*
X015223Y008189D02*
X019302Y008189D01*
X019242Y008288D02*
X015223Y008288D01*
X015223Y008386D02*
X019242Y008386D01*
X019242Y008485D02*
X015223Y008485D01*
X015223Y008583D02*
X019242Y008583D01*
X019242Y008682D02*
X015200Y008682D01*
X015123Y008780D02*
X019242Y008780D01*
X019263Y008879D02*
X015025Y008879D01*
X014993Y008978D02*
X019302Y008978D01*
X019310Y009076D02*
X014952Y009076D01*
X014863Y009175D02*
X019424Y009175D01*
X019688Y009175D02*
X019688Y009175D01*
X019688Y009177D02*
X019688Y008981D01*
X019688Y008981D01*
X019688Y009177D01*
X019688Y009076D02*
X019688Y009076D01*
X019953Y009175D02*
X020281Y009175D01*
X020379Y009273D02*
X008514Y009273D01*
X008555Y009175D02*
X012683Y009175D01*
X012698Y009189D02*
X012601Y009092D01*
X012548Y008966D01*
X012548Y008905D01*
X011561Y007919D01*
X011523Y007827D01*
X011523Y007727D01*
X011523Y007535D01*
X011481Y007492D01*
X011460Y007441D01*
X011362Y007482D01*
X011225Y007482D01*
X011098Y007429D01*
X011001Y007332D01*
X010948Y007206D01*
X010948Y007068D01*
X011001Y006942D01*
X011098Y006845D01*
X011225Y006792D01*
X011285Y006792D01*
X011312Y006765D01*
X011403Y006727D01*
X011883Y006727D01*
X011983Y006727D01*
X012075Y006765D01*
X012235Y006925D01*
X012305Y006995D01*
X012343Y007087D01*
X012343Y007193D01*
X013702Y008552D01*
X013762Y008552D01*
X013889Y008605D01*
X013986Y008702D01*
X014038Y008828D01*
X014038Y008966D01*
X013986Y009092D01*
X013889Y009189D01*
X013762Y009242D01*
X013625Y009242D01*
X013498Y009189D01*
X013401Y009092D01*
X013348Y008966D01*
X013348Y008906D01*
X013215Y008772D01*
X013238Y008828D01*
X013238Y008966D01*
X013186Y009092D01*
X013089Y009189D01*
X012962Y009242D01*
X012825Y009242D01*
X012698Y009189D01*
X012594Y009076D02*
X008555Y009076D01*
X008555Y008978D02*
X012553Y008978D01*
X012522Y008879D02*
X008555Y008879D01*
X008555Y008780D02*
X012423Y008780D01*
X012325Y008682D02*
X008555Y008682D01*
X008555Y008583D02*
X012226Y008583D01*
X012128Y008485D02*
X008533Y008485D01*
X008435Y008386D02*
X012029Y008386D01*
X011931Y008288D02*
X007616Y008288D01*
X007626Y008386D02*
X007517Y008386D01*
X007527Y008485D02*
X007419Y008485D01*
X007505Y008583D02*
X007320Y008583D01*
X007222Y008682D02*
X007505Y008682D01*
X007505Y008780D02*
X007123Y008780D01*
X007025Y008879D02*
X007505Y008879D01*
X007505Y008978D02*
X006926Y008978D01*
X006828Y009076D02*
X007505Y009076D01*
X007505Y009175D02*
X006729Y009175D01*
X006631Y009273D02*
X007546Y009273D01*
X007780Y009372D02*
X006532Y009372D01*
X006518Y009470D02*
X007780Y009470D01*
X007780Y009569D02*
X006518Y009569D01*
X006493Y009667D02*
X007780Y009667D01*
X007780Y009766D02*
X007142Y009766D01*
X007134Y009761D02*
X007168Y009781D01*
X007196Y009809D01*
X007216Y009843D01*
X007226Y009881D01*
X007226Y010108D01*
X006948Y010108D01*
X006948Y010166D01*
X007226Y010166D01*
X007226Y010393D01*
X007216Y010431D01*
X007196Y010465D01*
X007168Y010493D01*
X007134Y010513D01*
X007096Y010523D01*
X006947Y010523D01*
X006947Y010166D01*
X006890Y010166D01*
X006890Y010523D01*
X006741Y010523D01*
X006703Y010513D01*
X006669Y010493D01*
X006641Y010465D01*
X006621Y010431D01*
X006611Y010393D01*
X006611Y010166D01*
X006890Y010166D01*
X006890Y010108D01*
X006947Y010108D01*
X006947Y009751D01*
X007096Y009751D01*
X007134Y009761D01*
X007221Y009864D02*
X007780Y009864D01*
X007780Y009963D02*
X007226Y009963D01*
X007226Y010062D02*
X007804Y010062D01*
X007883Y010160D02*
X006948Y010160D01*
X006890Y010160D02*
X006577Y010160D01*
X006611Y010108D02*
X006611Y009881D01*
X006621Y009843D01*
X006641Y009809D01*
X006669Y009781D01*
X006703Y009761D01*
X006741Y009751D01*
X006890Y009751D01*
X006890Y010108D01*
X006611Y010108D01*
X006611Y010062D02*
X006577Y010062D01*
X006577Y009963D02*
X006611Y009963D01*
X006616Y009864D02*
X006577Y009864D01*
X006529Y009766D02*
X006695Y009766D01*
X006890Y009766D02*
X006947Y009766D01*
X006947Y009864D02*
X006890Y009864D01*
X006890Y009963D02*
X006947Y009963D01*
X006947Y010062D02*
X006890Y010062D01*
X006890Y010259D02*
X006947Y010259D01*
X006947Y010357D02*
X006890Y010357D01*
X006890Y010456D02*
X006947Y010456D01*
X007202Y010456D02*
X008178Y010456D01*
X008080Y010357D02*
X007226Y010357D01*
X007226Y010259D02*
X007981Y010259D01*
X008393Y009963D02*
X013821Y009963D01*
X013721Y010062D02*
X008491Y010062D01*
X008590Y010160D02*
X013680Y010160D01*
X013668Y010259D02*
X008688Y010259D01*
X008787Y010357D02*
X013681Y010357D01*
X014023Y009864D02*
X008294Y009864D01*
X008280Y009766D02*
X014096Y009766D01*
X014570Y009766D02*
X018416Y009766D01*
X018890Y009766D02*
X019572Y009766D01*
X019572Y009667D02*
X008280Y009667D01*
X008280Y009569D02*
X019617Y009569D01*
X020164Y009569D02*
X020264Y009569D01*
X020264Y009667D02*
X020164Y009667D01*
X020164Y009766D02*
X020264Y009766D01*
X020264Y009863D02*
X020164Y009863D01*
X020164Y009963D02*
X019572Y009963D01*
X019572Y010062D02*
X019106Y010062D01*
X019193Y010160D02*
X019572Y010160D01*
X019619Y010259D02*
X019234Y010259D01*
X019471Y010357D02*
X021523Y010357D01*
X021523Y010259D02*
X020808Y010259D01*
X020856Y010160D02*
X021523Y010160D01*
X021523Y010062D02*
X020856Y010062D01*
X020856Y009963D02*
X020264Y009963D01*
X020264Y010062D02*
X020164Y010062D01*
X020164Y010160D02*
X020264Y010160D01*
X020264Y010259D02*
X020164Y010259D01*
X019580Y010456D02*
X021545Y010456D01*
X021604Y010554D02*
X019624Y010554D01*
X019638Y010653D02*
X021353Y010653D01*
X021295Y010751D02*
X019628Y010751D01*
X019097Y010948D02*
X006370Y010948D01*
X006467Y010850D02*
X008573Y010850D01*
X008474Y010751D02*
X006508Y010751D01*
X006518Y010653D02*
X008376Y010653D01*
X008277Y010554D02*
X006504Y010554D01*
X006577Y010456D02*
X006635Y010456D01*
X006611Y010357D02*
X006577Y010357D01*
X006577Y010259D02*
X006611Y010259D01*
X005842Y010259D02*
X005687Y010259D01*
X005728Y010160D02*
X005842Y010160D01*
X005842Y010062D02*
X005756Y010062D01*
X005756Y009963D02*
X005842Y009963D01*
X005842Y009864D02*
X005756Y009864D01*
X005771Y009766D02*
X005890Y009766D01*
X005842Y010357D02*
X005644Y010357D01*
X005545Y010456D02*
X005842Y010456D01*
X005842Y010554D02*
X005443Y010554D01*
X005205Y010653D02*
X005828Y010653D01*
X005839Y010751D02*
X004463Y010751D01*
X004463Y010653D02*
X004888Y010653D01*
X004650Y010554D02*
X004463Y010554D01*
X004463Y010456D02*
X004548Y010456D01*
X004463Y010850D02*
X005880Y010850D01*
X005977Y010948D02*
X004463Y010948D01*
X004463Y011047D02*
X019135Y011047D01*
X019063Y011146D02*
X004463Y011146D01*
X004463Y011244D02*
X019028Y011244D01*
X019028Y011343D02*
X004463Y011343D01*
X004463Y011441D02*
X019060Y011441D01*
X019128Y011540D02*
X004463Y011540D01*
X004463Y011638D02*
X019296Y011638D01*
X019451Y011638D02*
X019615Y011638D01*
X020272Y011737D02*
X004463Y011737D01*
X008280Y009470D02*
X020576Y009470D01*
X020478Y009372D02*
X008280Y009372D01*
X006613Y008583D02*
X006183Y008583D01*
X006183Y008485D02*
X006712Y008485D01*
X006810Y008386D02*
X006183Y008386D01*
X006157Y008288D02*
X006909Y008288D01*
X007007Y008189D02*
X006092Y008189D01*
X005994Y008091D02*
X007106Y008091D01*
X007205Y007992D02*
X005895Y007992D01*
X005796Y007894D02*
X007303Y007894D01*
X007402Y007795D02*
X005698Y007795D01*
X005599Y007696D02*
X007500Y007696D01*
X007599Y007598D02*
X005501Y007598D01*
X005410Y007499D02*
X007544Y007499D01*
X007505Y007401D02*
X005410Y007401D01*
X005410Y007302D02*
X007505Y007302D01*
X007505Y007204D02*
X005410Y007204D01*
X005406Y007105D02*
X007505Y007105D01*
X007505Y007007D02*
X005406Y007007D01*
X005406Y006908D02*
X007505Y006908D01*
X007505Y006810D02*
X005406Y006810D01*
X005381Y006711D02*
X007529Y006711D01*
X007628Y006613D02*
X005283Y006613D01*
X005193Y006514D02*
X008843Y006514D01*
X008744Y006613D02*
X008432Y006613D01*
X008531Y006711D02*
X008646Y006711D01*
X008592Y006765D02*
X008592Y006765D01*
X009057Y007007D02*
X010974Y007007D01*
X010948Y007105D02*
X008983Y007105D01*
X008983Y007204D02*
X010948Y007204D01*
X010988Y007302D02*
X008983Y007302D01*
X008983Y007401D02*
X011069Y007401D01*
X011488Y007499D02*
X008983Y007499D01*
X008945Y007598D02*
X011523Y007598D01*
X011523Y007696D02*
X008847Y007696D01*
X008865Y007679D02*
X008865Y007679D01*
X008109Y007795D02*
X011523Y007795D01*
X011551Y007894D02*
X008010Y007894D01*
X007912Y007992D02*
X011635Y007992D01*
X011733Y008091D02*
X007813Y008091D01*
X007714Y008189D02*
X011832Y008189D01*
X012748Y007598D02*
X014723Y007598D01*
X014723Y007696D02*
X012846Y007696D01*
X012945Y007795D02*
X014723Y007795D01*
X014723Y007894D02*
X013043Y007894D01*
X013142Y007992D02*
X014723Y007992D01*
X014723Y008091D02*
X013240Y008091D01*
X013339Y008189D02*
X014723Y008189D01*
X014723Y008288D02*
X013437Y008288D01*
X013536Y008386D02*
X014723Y008386D01*
X014712Y008485D02*
X013635Y008485D01*
X013838Y008583D02*
X014509Y008583D01*
X014380Y008682D02*
X013966Y008682D01*
X014018Y008780D02*
X014328Y008780D01*
X014308Y008879D02*
X014038Y008879D01*
X014033Y008978D02*
X014313Y008978D01*
X014354Y009076D02*
X013992Y009076D01*
X013903Y009175D02*
X014443Y009175D01*
X013483Y009175D02*
X013103Y009175D01*
X013192Y009076D02*
X013394Y009076D01*
X013353Y008978D02*
X013233Y008978D01*
X013238Y008879D02*
X013322Y008879D01*
X013223Y008780D02*
X013218Y008780D01*
X015223Y007795D02*
X021843Y007795D01*
X021843Y007696D02*
X020253Y007696D01*
X020292Y007598D02*
X021843Y007598D01*
X021843Y007499D02*
X020292Y007499D01*
X020292Y007401D02*
X021843Y007401D01*
X021935Y006887D02*
X020690Y006887D01*
X020018Y006081D01*
X020018Y006009D01*
X020169Y006009D01*
X020292Y005886D01*
X020292Y005160D01*
X020169Y005037D01*
X019383Y005037D01*
X019383Y004767D01*
X019345Y004675D01*
X019275Y004605D01*
X019195Y004525D01*
X019103Y004487D01*
X019003Y004487D01*
X018171Y004487D01*
X018129Y004445D01*
X023260Y004445D01*
X023260Y004543D02*
X019213Y004543D01*
X019311Y004642D02*
X023260Y004642D01*
X023260Y004740D02*
X019372Y004740D01*
X019383Y004839D02*
X023260Y004839D01*
X023260Y004937D02*
X019383Y004937D01*
X019383Y005036D02*
X023260Y005036D01*
X023260Y005037D02*
X023260Y001107D01*
X020227Y001107D01*
X020365Y001245D01*
X020447Y001443D01*
X020447Y001630D01*
X020681Y001395D01*
X020752Y001325D01*
X020843Y001287D01*
X022283Y001287D01*
X022383Y001287D01*
X022475Y001325D01*
X022822Y001672D01*
X022882Y001672D01*
X023009Y001725D01*
X023106Y001822D01*
X023158Y001948D01*
X023158Y002086D01*
X023106Y002212D01*
X023009Y002309D01*
X022882Y002362D01*
X022745Y002362D01*
X022618Y002309D01*
X022589Y002281D01*
X022635Y002543D01*
X022575Y002883D01*
X022575Y002883D01*
X022402Y003182D01*
X022138Y003405D01*
X022138Y003405D01*
X021813Y003523D01*
X021690Y003523D01*
X021640Y003523D01*
X021590Y003523D01*
X021467Y003523D01*
X021143Y003405D01*
X020878Y003182D01*
X020705Y002883D01*
X020645Y002543D01*
X020645Y002543D01*
X020705Y002203D01*
X020705Y002202D01*
X020874Y001909D01*
X020555Y002229D01*
X020463Y002267D01*
X020374Y002267D01*
X020447Y002443D01*
X020447Y002658D01*
X020365Y002856D01*
X020213Y003008D01*
X020014Y003091D01*
X019799Y003091D01*
X019601Y003008D01*
X019449Y002856D01*
X019367Y002658D01*
X019367Y002443D01*
X019440Y002267D01*
X018038Y002267D01*
X018038Y002268D01*
X018038Y002406D01*
X017986Y002532D01*
X017889Y002629D01*
X017762Y002682D01*
X017625Y002682D01*
X017498Y002629D01*
X017455Y002587D01*
X012303Y002587D01*
X012269Y002587D01*
X012226Y002692D01*
X012129Y002789D01*
X012002Y002842D01*
X011865Y002842D01*
X011738Y002789D01*
X011641Y002692D01*
X011588Y002566D01*
X011588Y002428D01*
X011641Y002302D01*
X011738Y002205D01*
X011865Y002152D01*
X011925Y002152D01*
X011952Y002125D01*
X012043Y002087D01*
X012143Y002087D01*
X012303Y002087D01*
X015746Y002087D01*
X015746Y002086D01*
X015746Y001948D01*
X015746Y001947D01*
X009151Y001947D01*
X009186Y001982D01*
X009238Y002108D01*
X009238Y002246D01*
X009205Y002325D01*
X009322Y002325D01*
X009457Y002381D01*
X009561Y002485D01*
X009617Y002620D01*
X009617Y002766D01*
X009561Y002901D01*
X009457Y003004D01*
X009322Y003060D01*
X009176Y003060D01*
X009041Y003004D01*
X008938Y002901D01*
X008882Y002766D01*
X008882Y002620D01*
X008922Y002522D01*
X008825Y002522D01*
X008698Y002469D01*
X008655Y002427D01*
X008363Y002427D01*
X008272Y002389D01*
X008201Y002319D01*
X008093Y002210D01*
X007863Y002441D01*
X007863Y002632D01*
X007922Y002632D01*
X008049Y002685D01*
X008146Y002782D01*
X008198Y002908D01*
X008198Y003046D01*
X008189Y003069D01*
X008432Y003069D01*
X008555Y003192D01*
X008555Y003726D01*
X008581Y003752D01*
X008642Y003752D01*
X008769Y003805D01*
X008866Y003902D01*
X008893Y003968D01*
X008921Y003902D01*
X009018Y003805D01*
X009145Y003752D01*
X009282Y003752D01*
X009348Y003780D01*
X009348Y003708D01*
X009401Y003582D01*
X009498Y003485D01*
X009625Y003432D01*
X009762Y003432D01*
X009889Y003485D01*
X009931Y003527D01*
X010870Y003527D01*
X010921Y003475D01*
X010992Y003405D01*
X011083Y003367D01*
X011403Y003367D01*
X011503Y003367D01*
X011595Y003405D01*
X011717Y003527D01*
X011990Y003527D01*
X012041Y003475D01*
X012112Y003405D01*
X012203Y003367D01*
X012523Y003367D01*
X012623Y003367D01*
X012715Y003405D01*
X012837Y003527D01*
X013295Y003527D01*
X013338Y003485D01*
X013465Y003432D01*
X013602Y003432D01*
X013729Y003485D01*
X013826Y003582D01*
X013878Y003708D01*
X013878Y003846D01*
X013826Y003972D01*
X013729Y004069D01*
X013662Y004097D01*
X013729Y004125D01*
X013826Y004222D01*
X013878Y004348D01*
X013878Y004486D01*
X013826Y004612D01*
X013729Y004709D01*
X013662Y004737D01*
X013729Y004765D01*
X013826Y004862D01*
X013878Y004988D01*
X013878Y005126D01*
X013826Y005252D01*
X013729Y005349D01*
X013602Y005402D01*
X013558Y005402D01*
X013558Y005446D01*
X013506Y005572D01*
X013409Y005669D01*
X013282Y005722D01*
X013145Y005722D01*
X013018Y005669D01*
X012986Y005638D01*
X012758Y005866D01*
X012758Y005926D01*
X012758Y005927D01*
X013483Y005927D01*
X013583Y005927D01*
X013675Y005965D01*
X014032Y006322D01*
X014041Y006302D01*
X014138Y006205D01*
X014265Y006152D01*
X014283Y006152D01*
X014283Y005742D01*
X014406Y005619D01*
X015052Y005619D01*
X015140Y005707D01*
X015225Y005672D01*
X015362Y005672D01*
X015474Y005718D01*
X015493Y005671D01*
X015493Y005629D01*
X015537Y005523D01*
X015588Y005472D01*
X015588Y005468D01*
X015641Y005342D01*
X015738Y005245D01*
X015865Y005192D01*
X016002Y005192D01*
X016129Y005245D01*
X016226Y005342D01*
X016278Y005468D01*
X016278Y005561D01*
X016485Y005561D01*
X016608Y005684D01*
X016608Y006330D01*
X016485Y006453D01*
X015996Y006453D01*
X015980Y006437D01*
X015850Y006567D01*
X016868Y006567D01*
X016868Y006508D01*
X016916Y006393D01*
X016772Y006393D01*
X016734Y006383D01*
X016700Y006363D01*
X016672Y006335D01*
X016652Y006301D01*
X016642Y006263D01*
X016642Y006036D01*
X016920Y006036D01*
X016920Y005978D01*
X016642Y005978D01*
X016642Y005751D01*
X016652Y005713D01*
X016672Y005679D01*
X016700Y005651D01*
X016734Y005631D01*
X016772Y005621D01*
X016920Y005621D01*
X016920Y005978D01*
X016978Y005978D01*
X016978Y005621D01*
X017126Y005621D01*
X017165Y005631D01*
X017199Y005651D01*
X017227Y005679D01*
X017246Y005713D01*
X017257Y005751D01*
X017257Y005978D01*
X016978Y005978D01*
X016978Y006036D01*
X017257Y006036D01*
X017257Y006232D01*
X017282Y006232D01*
X017409Y006285D01*
X017451Y006327D01*
X018735Y006327D01*
X018778Y006285D01*
X018905Y006232D01*
X018919Y006232D01*
X018883Y006147D01*
X018883Y004987D01*
X018171Y004987D01*
X018129Y005029D01*
X018002Y005082D01*
X017865Y005082D01*
X017738Y005029D01*
X017641Y004932D01*
X017588Y004806D01*
X017588Y004668D01*
X017641Y004542D01*
X017738Y004445D01*
X013878Y004445D01*
X013877Y004346D02*
X023260Y004346D01*
X023260Y004247D02*
X016041Y004247D01*
X015992Y004296D02*
X016115Y004173D01*
X016115Y003527D01*
X015992Y003404D01*
X015503Y003404D01*
X015380Y003527D01*
X015380Y003599D01*
X015362Y003592D01*
X015225Y003592D01*
X015098Y003645D01*
X015001Y003742D01*
X014948Y003868D01*
X014948Y004006D01*
X015001Y004132D01*
X015098Y004229D01*
X015225Y004282D01*
X015362Y004282D01*
X015451Y004245D01*
X015503Y004296D01*
X015992Y004296D01*
X016178Y004178D02*
X016159Y004144D01*
X016149Y004106D01*
X016149Y003879D01*
X016427Y003879D01*
X016427Y004236D01*
X016279Y004236D01*
X016241Y004226D01*
X016206Y004206D01*
X016178Y004178D01*
X016162Y004149D02*
X016115Y004149D01*
X016115Y004050D02*
X016149Y004050D01*
X016149Y003952D02*
X016115Y003952D01*
X016115Y003853D02*
X016427Y003853D01*
X016427Y003879D02*
X016427Y003821D01*
X016485Y003821D01*
X016485Y003879D01*
X016763Y003879D01*
X016763Y004106D01*
X016753Y004144D01*
X016733Y004178D01*
X016706Y004206D01*
X016671Y004226D01*
X016633Y004236D01*
X016485Y004236D01*
X016485Y003879D01*
X016427Y003879D01*
X016427Y003821D02*
X016149Y003821D01*
X016149Y003594D01*
X016159Y003556D01*
X016178Y003522D01*
X016206Y003494D01*
X016241Y003474D01*
X016279Y003464D01*
X016427Y003464D01*
X016427Y003821D01*
X016485Y003821D02*
X016485Y003464D01*
X016633Y003464D01*
X016671Y003474D01*
X016706Y003494D01*
X016733Y003522D01*
X016753Y003556D01*
X016763Y003594D01*
X016763Y003821D01*
X016485Y003821D01*
X016485Y003853D02*
X023260Y003853D01*
X023260Y003755D02*
X016763Y003755D01*
X016763Y003656D02*
X023260Y003656D01*
X023260Y003558D02*
X016754Y003558D01*
X016485Y003558D02*
X016427Y003558D01*
X016427Y003656D02*
X016485Y003656D01*
X016485Y003755D02*
X016427Y003755D01*
X016149Y003755D02*
X016115Y003755D01*
X016115Y003656D02*
X016149Y003656D01*
X016158Y003558D02*
X016115Y003558D01*
X016047Y003459D02*
X021293Y003459D01*
X021467Y003523D02*
X021467Y003523D01*
X021590Y003523D02*
X021590Y003523D01*
X021690Y003523D02*
X021690Y003523D01*
X021813Y003523D02*
X021813Y003523D01*
X021988Y003459D02*
X023260Y003459D01*
X023260Y003361D02*
X022190Y003361D01*
X022308Y003262D02*
X023260Y003262D01*
X023260Y003164D02*
X022413Y003164D01*
X022402Y003182D02*
X022402Y003182D01*
X022470Y003065D02*
X023260Y003065D01*
X023260Y002966D02*
X022527Y002966D01*
X022578Y002868D02*
X023260Y002868D01*
X023260Y002769D02*
X022595Y002769D01*
X022613Y002671D02*
X023260Y002671D01*
X023260Y002572D02*
X022630Y002572D01*
X022635Y002543D02*
X022635Y002543D01*
X022623Y002474D02*
X023260Y002474D01*
X023260Y002375D02*
X022606Y002375D01*
X023041Y002277D02*
X023260Y002277D01*
X023260Y002178D02*
X023120Y002178D01*
X023158Y002080D02*
X023260Y002080D01*
X023260Y001981D02*
X023158Y001981D01*
X023131Y001882D02*
X023260Y001882D01*
X023260Y001784D02*
X023068Y001784D01*
X022914Y001685D02*
X023260Y001685D01*
X023260Y001587D02*
X022737Y001587D01*
X022638Y001488D02*
X023260Y001488D01*
X023260Y001390D02*
X022539Y001390D01*
X022393Y001291D02*
X023260Y001291D01*
X023260Y001193D02*
X020312Y001193D01*
X020384Y001291D02*
X020833Y001291D01*
X020687Y001390D02*
X020425Y001390D01*
X020447Y001488D02*
X020588Y001488D01*
X020490Y001587D02*
X020447Y001587D01*
X020803Y001981D02*
X020833Y001981D01*
X020776Y002080D02*
X020704Y002080D01*
X020719Y002178D02*
X020606Y002178D01*
X020692Y002277D02*
X020378Y002277D01*
X020419Y002375D02*
X020675Y002375D01*
X020657Y002474D02*
X020447Y002474D01*
X020447Y002572D02*
X020650Y002572D01*
X020668Y002671D02*
X020441Y002671D01*
X020401Y002769D02*
X020685Y002769D01*
X020702Y002868D02*
X020353Y002868D01*
X020255Y002966D02*
X020753Y002966D01*
X020705Y002883D02*
X020705Y002883D01*
X020810Y003065D02*
X020076Y003065D01*
X019738Y003065D02*
X008190Y003065D01*
X008198Y002966D02*
X009003Y002966D01*
X008924Y002868D02*
X008181Y002868D01*
X008133Y002769D02*
X008883Y002769D01*
X008882Y002671D02*
X008015Y002671D01*
X007863Y002572D02*
X008901Y002572D01*
X008708Y002474D02*
X007863Y002474D01*
X007929Y002375D02*
X008258Y002375D01*
X008159Y002277D02*
X008027Y002277D01*
X009185Y001981D02*
X015746Y001981D01*
X015746Y002080D02*
X009226Y002080D01*
X009238Y002178D02*
X011802Y002178D01*
X011666Y002277D02*
X009225Y002277D01*
X009443Y002375D02*
X011610Y002375D01*
X011588Y002474D02*
X009550Y002474D01*
X009597Y002572D02*
X011591Y002572D01*
X011632Y002671D02*
X009617Y002671D01*
X009615Y002769D02*
X011718Y002769D01*
X012149Y002769D02*
X019413Y002769D01*
X019372Y002671D02*
X017789Y002671D01*
X017946Y002572D02*
X019367Y002572D01*
X019367Y002474D02*
X018010Y002474D01*
X018038Y002375D02*
X019395Y002375D01*
X019436Y002277D02*
X018038Y002277D01*
X017598Y002671D02*
X012235Y002671D01*
X012058Y003459D02*
X011649Y003459D01*
X010938Y003459D02*
X009827Y003459D01*
X009559Y003459D02*
X008555Y003459D01*
X008555Y003361D02*
X021090Y003361D01*
X020973Y003262D02*
X008555Y003262D01*
X008527Y003164D02*
X020867Y003164D01*
X020878Y003182D02*
X020878Y003182D01*
X019559Y002966D02*
X009495Y002966D01*
X009575Y002868D02*
X019460Y002868D01*
X016763Y003952D02*
X023260Y003952D01*
X023260Y004050D02*
X016763Y004050D01*
X016750Y004149D02*
X023260Y004149D01*
X023260Y005037D02*
X022515Y005037D01*
X022392Y005160D01*
X022392Y005886D01*
X022515Y006009D01*
X023260Y006009D01*
X023260Y006809D01*
X022515Y006809D01*
X022424Y006900D01*
X022369Y006845D01*
X022242Y006792D01*
X022105Y006792D01*
X021978Y006845D01*
X021935Y006887D01*
X022062Y006810D02*
X020626Y006810D01*
X020543Y006711D02*
X023260Y006711D01*
X023260Y006613D02*
X020461Y006613D01*
X020379Y006514D02*
X023260Y006514D01*
X023260Y006415D02*
X020297Y006415D01*
X020215Y006317D02*
X023260Y006317D01*
X023260Y006218D02*
X020132Y006218D01*
X020050Y006120D02*
X023260Y006120D01*
X023260Y006021D02*
X020018Y006021D01*
X020255Y005923D02*
X022429Y005923D01*
X022392Y005824D02*
X020292Y005824D01*
X020292Y005726D02*
X022392Y005726D01*
X022392Y005627D02*
X020292Y005627D01*
X020292Y005529D02*
X022392Y005529D01*
X022392Y005430D02*
X020292Y005430D01*
X020292Y005331D02*
X022392Y005331D01*
X022392Y005233D02*
X020292Y005233D01*
X020266Y005134D02*
X022418Y005134D01*
X018883Y005134D02*
X015115Y005134D01*
X015115Y005100D02*
X015115Y005249D01*
X014758Y005249D01*
X014758Y005306D01*
X015115Y005306D01*
X015115Y005455D01*
X015105Y005493D01*
X015085Y005527D01*
X015057Y005555D01*
X015023Y005575D01*
X014985Y005585D01*
X014758Y005585D01*
X014758Y005306D01*
X014700Y005306D01*
X014700Y005249D01*
X014343Y005249D01*
X014343Y005100D01*
X014353Y005062D01*
X014373Y005028D01*
X014401Y005000D01*
X014435Y004980D01*
X014473Y004970D01*
X014700Y004970D01*
X014700Y005248D01*
X014758Y005248D01*
X014758Y004970D01*
X014985Y004970D01*
X015023Y004980D01*
X015057Y005000D01*
X015085Y005028D01*
X015105Y005062D01*
X015115Y005100D01*
X015090Y005036D02*
X017753Y005036D01*
X017646Y004937D02*
X013857Y004937D01*
X013878Y005036D02*
X014368Y005036D01*
X014343Y005134D02*
X013875Y005134D01*
X013834Y005233D02*
X014343Y005233D01*
X014343Y005306D02*
X014700Y005306D01*
X014700Y005585D01*
X014473Y005585D01*
X014435Y005575D01*
X014401Y005555D01*
X014373Y005527D01*
X014353Y005493D01*
X014343Y005455D01*
X014343Y005306D01*
X014343Y005331D02*
X013747Y005331D01*
X013558Y005430D02*
X014343Y005430D01*
X014374Y005529D02*
X013524Y005529D01*
X013451Y005627D02*
X014397Y005627D01*
X014299Y005726D02*
X012898Y005726D01*
X012800Y005824D02*
X014283Y005824D01*
X014283Y005923D02*
X012758Y005923D01*
X012155Y005627D02*
X012037Y005627D01*
X012094Y005726D02*
X011938Y005726D01*
X012068Y005824D02*
X008867Y005824D01*
X008908Y005923D02*
X011060Y005923D01*
X010984Y006021D02*
X008918Y006021D01*
X008904Y006120D02*
X010948Y006120D01*
X010948Y006218D02*
X008860Y006218D01*
X008751Y006317D02*
X009773Y006317D01*
X009934Y006317D02*
X010978Y006317D01*
X011044Y006415D02*
X010100Y006415D01*
X010167Y006514D02*
X011205Y006514D01*
X011381Y006514D02*
X013517Y006514D01*
X013615Y006613D02*
X010198Y006613D01*
X010198Y006711D02*
X013714Y006711D01*
X013812Y006810D02*
X012119Y006810D01*
X012218Y006908D02*
X013911Y006908D01*
X014009Y007007D02*
X012310Y007007D01*
X012343Y007105D02*
X014679Y007105D01*
X014638Y007204D02*
X012354Y007204D01*
X012452Y007302D02*
X014628Y007302D01*
X014643Y007401D02*
X012551Y007401D01*
X012649Y007499D02*
X014688Y007499D01*
X015223Y007598D02*
X019243Y007598D01*
X019243Y007499D02*
X015259Y007499D01*
X015304Y007401D02*
X016502Y007401D01*
X016645Y007401D02*
X019243Y007401D01*
X019243Y007302D02*
X018554Y007302D01*
X018700Y007204D02*
X019243Y007204D01*
X019243Y007105D02*
X018933Y007105D01*
X019028Y007007D02*
X019243Y007007D01*
X019266Y006908D02*
X019075Y006908D01*
X019228Y006810D02*
X019365Y006810D01*
X019394Y006711D02*
X019291Y006711D01*
X018745Y006317D02*
X017441Y006317D01*
X017257Y006218D02*
X018913Y006218D01*
X018883Y006120D02*
X017257Y006120D01*
X016978Y006021D02*
X018883Y006021D01*
X018883Y005923D02*
X017257Y005923D01*
X017257Y005824D02*
X018883Y005824D01*
X018883Y005726D02*
X017250Y005726D01*
X017150Y005627D02*
X018883Y005627D01*
X018883Y005529D02*
X016278Y005529D01*
X016262Y005430D02*
X018883Y005430D01*
X018883Y005331D02*
X016216Y005331D01*
X016101Y005233D02*
X018883Y005233D01*
X018883Y005036D02*
X018113Y005036D01*
X017602Y004839D02*
X013803Y004839D01*
X013670Y004740D02*
X017588Y004740D01*
X017599Y004642D02*
X013796Y004642D01*
X013854Y004543D02*
X017640Y004543D01*
X017738Y004445D02*
X017865Y004392D01*
X018002Y004392D01*
X018129Y004445D01*
X016485Y004149D02*
X016427Y004149D01*
X016427Y004050D02*
X016485Y004050D01*
X016485Y003952D02*
X016427Y003952D01*
X015454Y004247D02*
X015445Y004247D01*
X015141Y004247D02*
X013836Y004247D01*
X013753Y004149D02*
X015017Y004149D01*
X014967Y004050D02*
X013748Y004050D01*
X013834Y003952D02*
X014948Y003952D01*
X014954Y003853D02*
X013875Y003853D01*
X013878Y003755D02*
X014995Y003755D01*
X015086Y003656D02*
X013857Y003656D01*
X013802Y003558D02*
X015380Y003558D01*
X015448Y003459D02*
X013667Y003459D01*
X013399Y003459D02*
X012769Y003459D01*
X009425Y003558D02*
X008555Y003558D01*
X008555Y003656D02*
X009370Y003656D01*
X009348Y003755D02*
X009288Y003755D01*
X009138Y003755D02*
X008648Y003755D01*
X008817Y003853D02*
X008969Y003853D01*
X008900Y003952D02*
X008886Y003952D01*
X008577Y005036D02*
X008555Y005036D01*
X008555Y005134D02*
X008643Y005134D01*
X008555Y005233D02*
X008803Y005233D01*
X008974Y005331D02*
X008555Y005331D01*
X008555Y005430D02*
X009073Y005430D01*
X009171Y005529D02*
X008555Y005529D01*
X008555Y005627D02*
X009270Y005627D01*
X009368Y005726D02*
X008770Y005726D01*
X008396Y006317D02*
X005427Y006317D01*
X005291Y006415D02*
X008983Y006415D01*
X009156Y006908D02*
X009616Y006908D01*
X010090Y006908D02*
X011034Y006908D01*
X011182Y006810D02*
X010163Y006810D01*
X011527Y005923D02*
X012068Y005923D01*
X012135Y005529D02*
X012305Y005529D01*
X012234Y005430D02*
X012487Y005430D01*
X012585Y005331D02*
X012332Y005331D01*
X013731Y006021D02*
X014283Y006021D01*
X014283Y006120D02*
X013829Y006120D01*
X013928Y006218D02*
X014124Y006218D01*
X014034Y006317D02*
X014027Y006317D01*
X015061Y005627D02*
X015494Y005627D01*
X015535Y005529D02*
X015084Y005529D01*
X015115Y005430D02*
X015604Y005430D01*
X015651Y005331D02*
X015115Y005331D01*
X015115Y005233D02*
X015766Y005233D01*
X016551Y005627D02*
X016748Y005627D01*
X016649Y005726D02*
X016608Y005726D01*
X016608Y005824D02*
X016642Y005824D01*
X016642Y005923D02*
X016608Y005923D01*
X016608Y006021D02*
X016920Y006021D01*
X016920Y005923D02*
X016978Y005923D01*
X016978Y005824D02*
X016920Y005824D01*
X016920Y005726D02*
X016978Y005726D01*
X016978Y005627D02*
X016920Y005627D01*
X016642Y006120D02*
X016608Y006120D01*
X016608Y006218D02*
X016642Y006218D01*
X016661Y006317D02*
X016608Y006317D01*
X016523Y006415D02*
X016907Y006415D01*
X016868Y006514D02*
X015903Y006514D01*
X016228Y007105D02*
X015267Y007105D01*
X015308Y007204D02*
X016261Y007204D01*
X016331Y007302D02*
X015318Y007302D01*
X015223Y007696D02*
X019282Y007696D01*
X019688Y007992D02*
X019688Y007992D01*
X019688Y008091D02*
X019688Y008091D01*
X020046Y007992D02*
X021043Y007992D01*
X021015Y008091D02*
X020074Y008091D01*
X020756Y008189D02*
X021015Y008189D01*
X020955Y008288D02*
X020932Y008288D01*
X020084Y008978D02*
X020074Y008978D01*
X020067Y009076D02*
X020182Y009076D01*
X020856Y009766D02*
X020872Y009766D01*
X021573Y010653D02*
X021630Y010653D01*
X021630Y010751D02*
X021573Y010751D01*
X021573Y010850D02*
X021630Y010850D01*
X021630Y010948D02*
X021573Y010948D01*
X021631Y010981D02*
X021631Y011038D01*
X021909Y011038D01*
X021909Y011254D01*
X021943Y011221D01*
X021943Y010893D01*
X021909Y010859D01*
X021909Y010981D01*
X021631Y010981D01*
X021909Y010948D02*
X021943Y010948D01*
X021943Y011047D02*
X021909Y011047D01*
X021909Y011146D02*
X021943Y011146D01*
X021920Y011244D02*
X021909Y011244D01*
X021294Y011244D02*
X020916Y011244D01*
X020916Y011146D02*
X021294Y011146D01*
X021294Y011047D02*
X020916Y011047D01*
X020916Y010948D02*
X021294Y010948D01*
X021294Y010850D02*
X020877Y010850D01*
X020385Y007302D02*
X020292Y007302D01*
X020292Y007204D02*
X020303Y007204D01*
X022284Y006810D02*
X022515Y006810D01*
X014758Y005529D02*
X014700Y005529D01*
X014700Y005430D02*
X014758Y005430D01*
X014758Y005331D02*
X014700Y005331D01*
X014700Y005233D02*
X014758Y005233D01*
X014758Y005134D02*
X014700Y005134D01*
X014700Y005036D02*
X014758Y005036D01*
X006515Y008682D02*
X006183Y008682D01*
X006183Y008780D02*
X006416Y008780D01*
X006318Y008879D02*
X006183Y008879D01*
X006183Y008978D02*
X006219Y008978D01*
M02*
