G75*
G70*
%OFA0B0*%
%FSLAX24Y24*%
%IPPOS*%
%LPD*%
%AMOC8*
5,1,8,0,0,1.08239X$1,22.5*
%
%ADD10C,0.0000*%
D10*
X004253Y000897D02*
X004253Y011956D01*
X023470Y011956D01*
X023470Y000897D01*
X004253Y000897D01*
X009252Y002373D02*
X009254Y002398D01*
X009260Y002422D01*
X009269Y002444D01*
X009282Y002465D01*
X009298Y002484D01*
X009317Y002500D01*
X009338Y002513D01*
X009360Y002522D01*
X009384Y002528D01*
X009409Y002530D01*
X009434Y002528D01*
X009458Y002522D01*
X009480Y002513D01*
X009501Y002500D01*
X009520Y002484D01*
X009536Y002465D01*
X009549Y002444D01*
X009558Y002422D01*
X009564Y002398D01*
X009566Y002373D01*
X009564Y002348D01*
X009558Y002324D01*
X009549Y002302D01*
X009536Y002281D01*
X009520Y002262D01*
X009501Y002246D01*
X009480Y002233D01*
X009458Y002224D01*
X009434Y002218D01*
X009409Y002216D01*
X009384Y002218D01*
X009360Y002224D01*
X009338Y002233D01*
X009317Y002246D01*
X009298Y002262D01*
X009282Y002281D01*
X009269Y002302D01*
X009260Y002324D01*
X009254Y002348D01*
X009252Y002373D01*
X011674Y004794D02*
X011676Y004819D01*
X011682Y004843D01*
X011691Y004865D01*
X011704Y004886D01*
X011720Y004905D01*
X011739Y004921D01*
X011760Y004934D01*
X011782Y004943D01*
X011806Y004949D01*
X011831Y004951D01*
X011856Y004949D01*
X011880Y004943D01*
X011902Y004934D01*
X011923Y004921D01*
X011942Y004905D01*
X011958Y004886D01*
X011971Y004865D01*
X011980Y004843D01*
X011986Y004819D01*
X011988Y004794D01*
X011986Y004769D01*
X011980Y004745D01*
X011971Y004723D01*
X011958Y004702D01*
X011942Y004683D01*
X011923Y004667D01*
X011902Y004654D01*
X011880Y004645D01*
X011856Y004639D01*
X011831Y004637D01*
X011806Y004639D01*
X011782Y004645D01*
X011760Y004654D01*
X011739Y004667D01*
X011720Y004683D01*
X011704Y004702D01*
X011691Y004723D01*
X011682Y004745D01*
X011676Y004769D01*
X011674Y004794D01*
X021070Y002143D02*
X021072Y002193D01*
X021078Y002243D01*
X021088Y002293D01*
X021101Y002341D01*
X021118Y002389D01*
X021139Y002435D01*
X021163Y002479D01*
X021191Y002521D01*
X021222Y002561D01*
X021256Y002598D01*
X021293Y002633D01*
X021332Y002664D01*
X021373Y002693D01*
X021417Y002718D01*
X021463Y002740D01*
X021510Y002758D01*
X021558Y002772D01*
X021607Y002783D01*
X021657Y002790D01*
X021707Y002793D01*
X021758Y002792D01*
X021808Y002787D01*
X021858Y002778D01*
X021906Y002766D01*
X021954Y002749D01*
X022000Y002729D01*
X022045Y002706D01*
X022088Y002679D01*
X022128Y002649D01*
X022166Y002616D01*
X022201Y002580D01*
X022234Y002541D01*
X022263Y002500D01*
X022289Y002457D01*
X022312Y002412D01*
X022331Y002365D01*
X022346Y002317D01*
X022358Y002268D01*
X022366Y002218D01*
X022370Y002168D01*
X022370Y002118D01*
X022366Y002068D01*
X022358Y002018D01*
X022346Y001969D01*
X022331Y001921D01*
X022312Y001874D01*
X022289Y001829D01*
X022263Y001786D01*
X022234Y001745D01*
X022201Y001706D01*
X022166Y001670D01*
X022128Y001637D01*
X022088Y001607D01*
X022045Y001580D01*
X022000Y001557D01*
X021954Y001537D01*
X021906Y001520D01*
X021858Y001508D01*
X021808Y001499D01*
X021758Y001494D01*
X021707Y001493D01*
X021657Y001496D01*
X021607Y001503D01*
X021558Y001514D01*
X021510Y001528D01*
X021463Y001546D01*
X021417Y001568D01*
X021373Y001593D01*
X021332Y001622D01*
X021293Y001653D01*
X021256Y001688D01*
X021222Y001725D01*
X021191Y001765D01*
X021163Y001807D01*
X021139Y001851D01*
X021118Y001897D01*
X021101Y001945D01*
X021088Y001993D01*
X021078Y002043D01*
X021072Y002093D01*
X021070Y002143D01*
M02*
