%
M48
M72
T01C0.0130
T02C0.0315
T03C0.0320
T04C0.0394
T05C0.0400
T06C0.1300
%
T01
X7613Y1217
X8573Y1857
X8893Y2177
X8093Y2337
X7853Y2977
X9693Y3777
X9213Y4097
X8573Y4097
X8093Y4737
X8893Y4897
X9533Y4897
X10013Y4417
X11293Y3937
X12413Y3937
X13213Y4097
X13533Y3777
X13533Y4417
X13213Y4737
X13533Y5057
X13213Y5377
X13053Y5857
X12413Y5857
X11293Y6177
X11133Y6657
X11293Y7137
X11773Y7297
X13053Y6657
X14333Y6497
X15293Y6017
X15293Y5537
X15933Y5537
X16733Y5537
X17933Y4737
X16733Y4417
X16893Y3937
X15293Y3937
X11933Y2497
X16091Y2017
X17533Y1377
X17933Y1457
X18333Y1697
X16893Y1217
X17693Y2337
X20973Y4337
X18973Y6577
X18733Y6817
X17853Y6817
X17213Y6577
X16573Y7057
X14973Y7297
X14653Y8897
X13693Y8897
X12893Y8897
X14333Y10017
X14013Y10257
X15773Y8897
X18653Y10017
X18893Y10337
X19293Y10657
X19373Y11297
X20733Y8577
X21053Y7617
X22173Y7137
X22813Y2017
X9853Y6657
X8573Y6017
X6653Y5537
X6013Y5057
X5053Y5857
X4893Y6337
X6173Y9537
X6653Y9537
X6173Y10657
T02
X11671Y5114
X9249Y2693
T03
X19907Y2551
X19907Y1551
T04
X22763Y9950
X5047Y9950
T05
X4993Y1562
X5993Y1562
X6993Y1562
X6993Y2562
X5993Y2562
X4993Y2562
T06
X21640Y2543
M30
