G75*
G70*
%OFA0B0*%
%FSLAX24Y24*%
%IPPOS*%
%LPD*%
%AMOC8*
5,1,8,0,0,1.08239X$1,22.5*
%
%ADD10OC8,0.0740*%
%ADD11C,0.0660*%
%ADD12R,0.0220X0.0500*%
%ADD13R,0.0500X0.0220*%
%ADD14R,0.0984X0.1260*%
%ADD15R,0.1299X0.0315*%
%ADD16R,0.0984X0.0315*%
%ADD17R,0.0315X0.0984*%
%ADD18C,0.1000*%
%ADD19R,0.0138X0.0630*%
%ADD20R,0.0551X0.0551*%
%ADD21R,0.0886X0.1772*%
%ADD22R,0.0984X0.0472*%
%ADD23R,0.0472X0.0315*%
%ADD24R,0.0866X0.0236*%
%ADD25R,0.0630X0.0827*%
%ADD26C,0.0080*%
%ADD27C,0.0270*%
%ADD28C,0.0160*%
%ADD29C,0.0100*%
%ADD30C,0.0240*%
D10*
X004993Y001562D03*
X005993Y001562D03*
X006993Y001562D03*
X006993Y002562D03*
X005993Y002562D03*
X004993Y002562D03*
D11*
X019907Y002551D03*
X019907Y001551D03*
D12*
X016899Y003207D03*
X016584Y003207D03*
X016269Y003207D03*
X015954Y003207D03*
X015639Y003207D03*
X015324Y003207D03*
X015009Y003207D03*
X014694Y003207D03*
X014694Y006587D03*
X015009Y006587D03*
X015324Y006587D03*
X015639Y006587D03*
X015954Y006587D03*
X016269Y006587D03*
X016584Y006587D03*
X016899Y006587D03*
D13*
X017487Y005999D03*
X017487Y005684D03*
X017487Y005369D03*
X017487Y005054D03*
X017487Y004740D03*
X017487Y004425D03*
X017487Y004110D03*
X017487Y003795D03*
X014107Y003795D03*
X014107Y004110D03*
X014107Y004425D03*
X014107Y004740D03*
X014107Y005054D03*
X014107Y005369D03*
X014107Y005684D03*
X014107Y005999D03*
D14*
X010785Y005153D03*
X010785Y002004D03*
D15*
X005214Y007353D03*
D16*
X006991Y007353D03*
D17*
X006521Y008323D03*
X006021Y008323D03*
X005521Y008323D03*
X005521Y006382D03*
X006021Y006382D03*
X006521Y006382D03*
D18*
X005047Y009950D03*
X022763Y009950D03*
D19*
X017895Y009436D03*
X017619Y009436D03*
X017344Y009436D03*
X017068Y009436D03*
X016793Y009436D03*
X016517Y009436D03*
X016241Y009436D03*
X015966Y009436D03*
X015690Y009436D03*
X015415Y009436D03*
X015139Y009436D03*
X014863Y009436D03*
X014588Y009436D03*
X014312Y009436D03*
X014037Y009436D03*
X013761Y009436D03*
X013486Y009436D03*
X013210Y009436D03*
X012934Y009436D03*
X012659Y009436D03*
X012383Y009436D03*
X012108Y009436D03*
X011832Y009436D03*
X011556Y009436D03*
X011281Y009436D03*
X011005Y009436D03*
X010730Y009436D03*
X010454Y009436D03*
X010178Y009436D03*
X009903Y009436D03*
D20*
X019473Y006875D03*
X020969Y006875D03*
D21*
X020091Y004834D03*
X022754Y004834D03*
D22*
X022639Y006602D03*
X022639Y007901D03*
D23*
X018253Y007793D03*
X017253Y007793D03*
X016253Y007793D03*
X015253Y007793D03*
X014253Y007793D03*
X013253Y007793D03*
X012253Y007793D03*
X011253Y007793D03*
X010253Y007793D03*
X009253Y007793D03*
X009181Y007105D03*
X010470Y007042D03*
X009181Y006396D03*
X010470Y006333D03*
X010253Y008501D03*
X009253Y008501D03*
X011253Y008501D03*
X012253Y008501D03*
X013253Y008501D03*
X014253Y008501D03*
X015253Y008501D03*
X016253Y008501D03*
X017253Y008501D03*
X018253Y008501D03*
X008321Y003522D03*
X008321Y002813D03*
D24*
X007334Y003773D03*
X007334Y004273D03*
X007334Y004773D03*
X007334Y005273D03*
X005287Y005273D03*
X005287Y004773D03*
X005287Y004273D03*
X005287Y003773D03*
D25*
X012551Y001752D03*
X015071Y001752D03*
D26*
X015009Y001814D01*
X015009Y003207D01*
X014694Y003207D02*
X013239Y001752D01*
X012551Y001752D01*
X011613Y001137D02*
X016813Y001137D01*
X016893Y001217D01*
X016899Y001303D01*
X016899Y003207D01*
X016269Y003207D02*
X016269Y002339D01*
X016091Y002017D01*
X017373Y002177D02*
X017373Y002497D01*
X017533Y002657D01*
X017533Y003748D01*
X017487Y003795D01*
X017773Y004097D02*
X017933Y003937D01*
X017933Y002337D01*
X017693Y002337D01*
X017933Y002337D02*
X017933Y001457D01*
X017533Y001377D02*
X017533Y002017D01*
X017373Y002177D01*
X018333Y001697D02*
X018333Y003937D01*
X017853Y004417D01*
X017494Y004417D01*
X017487Y004425D01*
X017489Y004737D02*
X017933Y004737D01*
X017489Y004737D02*
X017487Y004740D01*
X017487Y005054D02*
X017489Y005057D01*
X018493Y005057D01*
X018653Y005217D01*
X018653Y006017D01*
X018493Y006177D01*
X018493Y006497D01*
X018333Y006657D01*
X018333Y006977D01*
X018493Y007137D01*
X018813Y007137D01*
X018973Y007297D01*
X018973Y009057D01*
X019293Y009377D01*
X019293Y010657D01*
X018893Y010337D02*
X018893Y010257D01*
X018973Y010177D01*
X018973Y009857D01*
X018813Y009697D01*
X018813Y007457D01*
X018653Y007297D01*
X018333Y007297D01*
X018173Y007137D01*
X018173Y006497D01*
X018333Y006337D01*
X018333Y005377D01*
X017494Y005377D01*
X017487Y005369D01*
X017487Y005684D02*
X017499Y005697D01*
X017853Y005697D01*
X018013Y005857D01*
X018013Y006657D01*
X017853Y006817D01*
X017487Y006930D02*
X018013Y007457D01*
X018573Y007457D01*
X018653Y007537D01*
X018653Y010017D01*
X014588Y009436D02*
X014588Y008962D01*
X014653Y008897D01*
X013693Y008897D02*
X013373Y008897D01*
X013210Y009060D01*
X013210Y009436D01*
X012934Y009436D02*
X012934Y008938D01*
X012893Y008897D01*
X014037Y009436D02*
X014037Y010234D01*
X014013Y010257D01*
X014312Y009996D02*
X014312Y009436D01*
X014312Y009996D02*
X014333Y010017D01*
X014973Y007297D02*
X015009Y007261D01*
X015009Y006587D01*
X016584Y006587D02*
X016584Y007046D01*
X016573Y007057D01*
X017487Y006930D02*
X017487Y005999D01*
X017213Y006577D02*
X017203Y006587D01*
X016899Y006587D01*
X018733Y006817D02*
X018733Y006257D01*
X019133Y005857D01*
X019133Y002324D01*
X019907Y001551D01*
X019907Y002551D02*
X019373Y003084D01*
X019373Y005937D01*
X018973Y006337D01*
X018973Y006577D01*
X021693Y005895D02*
X022813Y004775D01*
X022813Y002017D01*
X017773Y004097D02*
X017499Y004097D01*
X017487Y004110D01*
X015639Y003207D02*
X015613Y003181D01*
X014107Y003795D02*
X013231Y003795D01*
X013533Y003777D01*
X013546Y004110D02*
X013213Y004097D01*
X013546Y004110D02*
X014107Y004110D01*
X014099Y004417D02*
X013533Y004417D01*
X013213Y004737D02*
X014104Y004737D01*
X014107Y004740D01*
X014107Y004425D02*
X014099Y004417D01*
X014107Y005054D02*
X013536Y005054D01*
X013533Y005057D01*
X013221Y005369D02*
X014107Y005369D01*
X014099Y005377D01*
X013221Y005369D02*
X013213Y005377D01*
X012413Y005857D02*
X012413Y003937D01*
X012253Y004257D02*
X011773Y003777D01*
X011773Y002657D01*
X011933Y002497D01*
X010785Y002004D02*
X010785Y003429D01*
X011293Y003937D01*
X011613Y003937D02*
X012093Y004417D01*
X012093Y005377D01*
X011613Y005857D01*
X011613Y006977D01*
X011293Y007137D01*
X011773Y007297D02*
X011773Y006017D01*
X012253Y005537D01*
X012253Y004257D01*
X011613Y003937D02*
X011613Y001137D01*
X008893Y002177D02*
X008893Y004897D01*
X009533Y004897D02*
X009533Y006017D01*
X009181Y006369D01*
X009181Y006396D01*
X009853Y006657D02*
X009853Y004737D01*
X009693Y004577D01*
X009693Y003777D01*
X009213Y004097D02*
X009213Y005697D01*
X008893Y006017D01*
X008573Y006017D01*
X010013Y005857D02*
X010013Y004417D01*
X008733Y003937D02*
X008573Y004097D01*
X008733Y003937D02*
X008733Y002497D01*
X008573Y002337D01*
X008573Y001857D01*
X007613Y001817D02*
X007613Y001217D01*
X007613Y001817D02*
X007373Y002057D01*
X006493Y002057D01*
X005998Y001562D01*
X005993Y001562D01*
X006813Y004737D02*
X006021Y005529D01*
X006021Y006382D01*
X005521Y006382D02*
X005476Y006337D01*
X005053Y005857D01*
X005053Y005915D01*
X005521Y006382D01*
X004893Y006337D02*
X004893Y007032D01*
X005214Y007353D01*
X006021Y008323D02*
X006013Y008331D01*
X006013Y009377D01*
X006173Y009537D01*
X010330Y006173D02*
X010470Y006333D01*
X010330Y006173D02*
X010013Y005857D01*
X010973Y005857D02*
X011293Y006177D01*
X010973Y005857D02*
X010973Y005182D01*
X010785Y005153D01*
X008093Y004737D02*
X008057Y004773D01*
X007334Y004773D01*
X007298Y004737D01*
X006813Y004737D01*
X006917Y005273D02*
X007334Y005273D01*
X006917Y005273D02*
X006653Y005537D01*
D27*
X006653Y005537D03*
X006013Y005057D03*
X005053Y005857D03*
X004893Y006337D03*
X008093Y004737D03*
X008893Y004897D03*
X009533Y004897D03*
X010013Y004417D03*
X009213Y004097D03*
X008573Y004097D03*
X009693Y003777D03*
X011293Y003937D03*
X012413Y003937D03*
X013213Y004097D03*
X013533Y003777D03*
X013533Y004417D03*
X013213Y004737D03*
X013533Y005057D03*
X013213Y005377D03*
X013053Y005857D03*
X012413Y005857D03*
X011293Y006177D03*
X011133Y006657D03*
X011293Y007137D03*
X011773Y007297D03*
X013053Y006657D03*
X014333Y006497D03*
X015293Y006017D03*
X015293Y005537D03*
X015933Y005537D03*
X016733Y005537D03*
X017933Y004737D03*
X016733Y004417D03*
X016893Y003937D03*
X015293Y003937D03*
X011933Y002497D03*
X008893Y002177D03*
X008573Y001857D03*
X008093Y002337D03*
X007853Y002977D03*
X007613Y001217D03*
X016091Y002017D03*
X017533Y001377D03*
X017933Y001457D03*
X018333Y001697D03*
X016893Y001217D03*
X017693Y002337D03*
X020973Y004337D03*
X018973Y006577D03*
X018733Y006817D03*
X017853Y006817D03*
X017213Y006577D03*
X016573Y007057D03*
X014973Y007297D03*
X014653Y008897D03*
X013693Y008897D03*
X012893Y008897D03*
X014333Y010017D03*
X014013Y010257D03*
X015773Y008897D03*
X018653Y010017D03*
X018893Y010337D03*
X019293Y010657D03*
X019373Y011297D03*
X020733Y008577D03*
X021053Y007617D03*
X022173Y007137D03*
X022813Y002017D03*
X009853Y006657D03*
X008573Y006017D03*
X006653Y009537D03*
X006173Y009537D03*
X006173Y010657D03*
D28*
X005047Y009950D02*
X005047Y008798D01*
X005521Y008323D01*
X006493Y008351D02*
X006521Y008323D01*
X006521Y007823D01*
X006991Y007353D01*
X005287Y005273D02*
X004629Y005273D01*
X004573Y005217D01*
X004573Y002982D01*
X004993Y002562D01*
X006013Y003581D01*
X006013Y005057D01*
X007334Y003773D02*
X008069Y003773D01*
X008321Y003522D01*
X007853Y002977D02*
X007933Y002817D01*
X008317Y002817D01*
X008321Y002813D01*
X008093Y002337D02*
X007773Y002337D01*
X007613Y002497D01*
X006973Y002497D01*
X007293Y002817D01*
X007293Y003732D01*
X007334Y003773D01*
X007334Y002902D01*
X006993Y002562D01*
X015293Y005537D02*
X015639Y005883D01*
X015639Y006587D01*
X015933Y006497D02*
X015933Y005537D01*
X016253Y006017D02*
X016733Y005537D01*
X016253Y006017D02*
X016253Y006571D01*
X016269Y006587D01*
X015954Y006587D02*
X015954Y007667D01*
X015921Y007700D01*
X016013Y007793D01*
X015324Y007722D02*
X015253Y007793D01*
X015324Y007722D02*
X015324Y006587D01*
X015324Y006048D01*
X015293Y006017D01*
X015293Y006556D02*
X015324Y006587D01*
X019473Y006875D02*
X020733Y008136D01*
X020733Y008577D01*
X021053Y007617D02*
X021053Y006960D01*
X020969Y006875D01*
X016253Y008501D02*
X016169Y008501D01*
X015773Y008897D01*
X015378Y008501D01*
X015253Y008501D01*
X014253Y008501D01*
X013253Y008501D01*
X016893Y003937D02*
X016584Y003628D01*
X016584Y003207D01*
X015639Y003207D02*
X015639Y003591D01*
D29*
X004463Y001852D02*
X004463Y006999D01*
X004477Y006985D01*
X004643Y006985D01*
X004643Y006575D01*
X004601Y006532D01*
X004548Y006406D01*
X004548Y006268D01*
X004601Y006142D01*
X004698Y006045D01*
X004749Y006023D01*
X004708Y005926D01*
X004708Y005788D01*
X004761Y005662D01*
X004858Y005565D01*
X004914Y005541D01*
X004834Y005541D01*
X004796Y005531D01*
X004761Y005511D01*
X004734Y005483D01*
X004714Y005449D01*
X004704Y005411D01*
X004704Y005282D01*
X005277Y005282D01*
X005277Y005264D01*
X004704Y005264D01*
X004704Y005135D01*
X004714Y005097D01*
X004732Y005066D01*
X004644Y004978D01*
X004644Y004568D01*
X004689Y004523D01*
X004644Y004478D01*
X004644Y004068D01*
X004689Y004023D01*
X004644Y003978D01*
X004644Y003568D01*
X004767Y003445D01*
X005807Y003445D01*
X005930Y003568D01*
X005930Y003978D01*
X005885Y004023D01*
X005930Y004068D01*
X005930Y004478D01*
X005885Y004523D01*
X005930Y004568D01*
X005930Y004978D01*
X005842Y005066D01*
X005859Y005097D01*
X005870Y005135D01*
X005870Y005264D01*
X005296Y005264D01*
X005296Y005282D01*
X005870Y005282D01*
X005870Y005327D01*
X005879Y005317D01*
X006672Y004525D01*
X006719Y004506D01*
X006691Y004478D01*
X006691Y004068D01*
X006736Y004023D01*
X006691Y003978D01*
X006691Y003568D01*
X006814Y003445D01*
X007003Y003445D01*
X007003Y003142D01*
X006753Y003142D01*
X006493Y002882D01*
X006234Y003142D01*
X005753Y003142D01*
X005451Y002839D01*
X005209Y003082D01*
X005043Y003082D01*
X005043Y002612D01*
X004943Y002612D01*
X004943Y003082D01*
X004778Y003082D01*
X004473Y002777D01*
X004473Y002611D01*
X004943Y002611D01*
X004943Y002512D01*
X004473Y002512D01*
X004473Y002346D01*
X004716Y002104D01*
X004463Y001852D01*
X004463Y001882D02*
X004494Y001882D01*
X004463Y001981D02*
X004593Y001981D01*
X004691Y002080D02*
X004463Y002080D01*
X004463Y002178D02*
X004641Y002178D01*
X004543Y002277D02*
X004463Y002277D01*
X004463Y002375D02*
X004473Y002375D01*
X004463Y002474D02*
X004473Y002474D01*
X004463Y002572D02*
X004943Y002572D01*
X004943Y002671D02*
X005043Y002671D01*
X005043Y002769D02*
X004943Y002769D01*
X004943Y002868D02*
X005043Y002868D01*
X005043Y002966D02*
X004943Y002966D01*
X004943Y003065D02*
X005043Y003065D01*
X005225Y003065D02*
X005677Y003065D01*
X005578Y002966D02*
X005324Y002966D01*
X005422Y002868D02*
X005480Y002868D01*
X004761Y003065D02*
X004463Y003065D01*
X004463Y003164D02*
X007003Y003164D01*
X007003Y003262D02*
X004463Y003262D01*
X004463Y003361D02*
X007003Y003361D01*
X006800Y003459D02*
X005821Y003459D01*
X005920Y003558D02*
X006701Y003558D01*
X006691Y003656D02*
X005930Y003656D01*
X005930Y003755D02*
X006691Y003755D01*
X006691Y003853D02*
X005930Y003853D01*
X005930Y003952D02*
X006691Y003952D01*
X006708Y004050D02*
X005912Y004050D01*
X005930Y004149D02*
X006691Y004149D01*
X006691Y004247D02*
X005930Y004247D01*
X005930Y004346D02*
X006691Y004346D01*
X006691Y004445D02*
X005930Y004445D01*
X005905Y004543D02*
X006654Y004543D01*
X006555Y004642D02*
X005930Y004642D01*
X005930Y004740D02*
X006456Y004740D01*
X006358Y004839D02*
X005930Y004839D01*
X005930Y004937D02*
X006259Y004937D01*
X006161Y005036D02*
X005872Y005036D01*
X005869Y005134D02*
X006062Y005134D01*
X005964Y005233D02*
X005870Y005233D01*
X005296Y005282D02*
X005278Y005282D01*
X005278Y005541D01*
X005192Y005541D01*
X005249Y005565D01*
X005346Y005662D01*
X005353Y005680D01*
X005765Y005680D01*
X005771Y005686D01*
X005771Y005686D01*
X005771Y005533D01*
X005739Y005541D01*
X005296Y005541D01*
X005296Y005282D01*
X005296Y005331D02*
X005278Y005331D01*
X005278Y005430D02*
X005296Y005430D01*
X005296Y005529D02*
X005278Y005529D01*
X005311Y005627D02*
X005771Y005627D01*
X004795Y005627D02*
X004463Y005627D01*
X004463Y005529D02*
X004792Y005529D01*
X004709Y005430D02*
X004463Y005430D01*
X004463Y005331D02*
X004704Y005331D01*
X004704Y005233D02*
X004463Y005233D01*
X004463Y005134D02*
X004704Y005134D01*
X004701Y005036D02*
X004463Y005036D01*
X004463Y004937D02*
X004644Y004937D01*
X004644Y004839D02*
X004463Y004839D01*
X004463Y004740D02*
X004644Y004740D01*
X004644Y004642D02*
X004463Y004642D01*
X004463Y004543D02*
X004668Y004543D01*
X004644Y004445D02*
X004463Y004445D01*
X004463Y004346D02*
X004644Y004346D01*
X004644Y004247D02*
X004463Y004247D01*
X004463Y004149D02*
X004644Y004149D01*
X004661Y004050D02*
X004463Y004050D01*
X004463Y003952D02*
X004644Y003952D01*
X004644Y003853D02*
X004463Y003853D01*
X004463Y003755D02*
X004644Y003755D01*
X004644Y003656D02*
X004463Y003656D01*
X004463Y003558D02*
X004654Y003558D01*
X004752Y003459D02*
X004463Y003459D01*
X004463Y002966D02*
X004663Y002966D01*
X004564Y002868D02*
X004463Y002868D01*
X004463Y002769D02*
X004473Y002769D01*
X004463Y002671D02*
X004473Y002671D01*
X006310Y003065D02*
X006677Y003065D01*
X006578Y002966D02*
X006409Y002966D01*
X007600Y002787D02*
X007624Y002844D01*
X007624Y003445D01*
X007854Y003445D01*
X007874Y003465D01*
X007874Y003277D01*
X007997Y003154D01*
X008483Y003154D01*
X008483Y003120D01*
X008349Y003120D01*
X008349Y002842D01*
X008292Y002842D01*
X008292Y003120D01*
X008065Y003120D01*
X008027Y003110D01*
X007992Y003090D01*
X007964Y003062D01*
X007945Y003028D01*
X007934Y002990D01*
X007934Y002842D01*
X008292Y002842D01*
X008292Y002784D01*
X007934Y002784D01*
X007934Y002645D01*
X007898Y002629D01*
X007895Y002627D01*
X007893Y002627D01*
X007777Y002743D01*
X007671Y002787D01*
X007600Y002787D01*
X007624Y002868D02*
X007934Y002868D01*
X007934Y002966D02*
X007624Y002966D01*
X007624Y003065D02*
X007967Y003065D01*
X007988Y003164D02*
X007624Y003164D01*
X007624Y003262D02*
X007890Y003262D01*
X007874Y003361D02*
X007624Y003361D01*
X007868Y003459D02*
X007874Y003459D01*
X008292Y003065D02*
X008349Y003065D01*
X008349Y002966D02*
X008292Y002966D01*
X008292Y002868D02*
X008349Y002868D01*
X007934Y002769D02*
X007714Y002769D01*
X007850Y002671D02*
X007934Y002671D01*
X013409Y005669D02*
X013459Y005619D01*
X013647Y005619D01*
X013647Y005802D01*
X013647Y006196D01*
X013770Y006319D01*
X014374Y006319D01*
X014374Y006924D01*
X014497Y007047D01*
X014735Y007047D01*
X014681Y007102D01*
X014628Y007228D01*
X014628Y007366D01*
X014681Y007492D01*
X014778Y007589D01*
X014867Y007626D01*
X014867Y007764D01*
X015224Y007764D01*
X015224Y007821D01*
X014867Y007821D01*
X014867Y007970D01*
X014877Y008008D01*
X014897Y008042D01*
X014925Y008070D01*
X014959Y008090D01*
X014997Y008100D01*
X015224Y008100D01*
X015224Y007822D01*
X015282Y007822D01*
X015282Y008100D01*
X015509Y008100D01*
X015547Y008090D01*
X015582Y008070D01*
X015609Y008042D01*
X015629Y008008D01*
X015639Y007970D01*
X015639Y007821D01*
X015282Y007821D01*
X015282Y007764D01*
X015639Y007764D01*
X015639Y007615D01*
X015629Y007577D01*
X015609Y007543D01*
X015582Y007515D01*
X015547Y007495D01*
X015509Y007485D01*
X015282Y007485D01*
X015282Y007764D01*
X015224Y007764D01*
X015224Y007534D01*
X015266Y007492D01*
X015318Y007366D01*
X015318Y007228D01*
X015266Y007102D01*
X015259Y007095D01*
X015259Y006994D01*
X015266Y006987D01*
X015319Y006987D01*
X015319Y006934D01*
X015324Y006929D01*
X015329Y006934D01*
X015329Y006987D01*
X015382Y006987D01*
X015442Y007047D01*
X015836Y007047D01*
X015896Y006987D01*
X015949Y006987D01*
X015949Y006934D01*
X015954Y006929D01*
X015959Y006934D01*
X015959Y006987D01*
X016012Y006987D01*
X016072Y007047D01*
X016228Y007047D01*
X016228Y007126D01*
X016281Y007252D01*
X016378Y007349D01*
X016505Y007402D01*
X016642Y007402D01*
X016769Y007349D01*
X016866Y007252D01*
X016918Y007126D01*
X016918Y007047D01*
X017096Y007047D01*
X017219Y006924D01*
X017219Y006922D01*
X017237Y006922D01*
X017237Y006980D01*
X017275Y007072D01*
X017807Y007604D01*
X017807Y007871D01*
X017699Y007979D01*
X017699Y007548D01*
X017576Y007425D01*
X016930Y007425D01*
X016807Y007548D01*
X016807Y007871D01*
X016572Y008106D01*
X016561Y008134D01*
X015930Y008134D01*
X015807Y008257D01*
X015807Y008453D01*
X015773Y008487D01*
X015699Y008413D01*
X015699Y008257D01*
X015576Y008134D01*
X014930Y008134D01*
X014853Y008211D01*
X014654Y008211D01*
X014576Y008134D01*
X013930Y008134D01*
X013853Y008211D01*
X013654Y008211D01*
X013576Y008134D01*
X012930Y008134D01*
X012807Y008257D01*
X012807Y008559D01*
X012699Y008604D01*
X012699Y008257D01*
X012576Y008134D01*
X011930Y008134D01*
X011807Y008257D01*
X011807Y008580D01*
X011750Y008637D01*
X011699Y008637D01*
X011699Y008257D01*
X011576Y008134D01*
X010930Y008134D01*
X010807Y008257D01*
X010807Y008580D01*
X010714Y008673D01*
X010714Y008650D01*
X010699Y008615D01*
X010699Y008257D01*
X010576Y008134D01*
X009930Y008134D01*
X009893Y008171D01*
X009614Y008171D01*
X009576Y008134D01*
X008930Y008134D01*
X008807Y008257D01*
X008807Y008746D01*
X008930Y008869D01*
X009576Y008869D01*
X009614Y008831D01*
X009893Y008831D01*
X009930Y008869D01*
X010194Y008869D01*
X010194Y008971D01*
X010179Y008971D01*
X010179Y009031D01*
X010178Y009031D01*
X010178Y008971D01*
X010090Y008971D01*
X010052Y008982D01*
X010041Y008988D01*
X010030Y008982D01*
X009991Y008971D01*
X009903Y008971D01*
X009903Y009436D01*
X009903Y009436D01*
X009903Y009437D01*
X009903Y009437D01*
X009903Y009901D01*
X009991Y009901D01*
X010030Y009891D01*
X010041Y009885D01*
X010052Y009891D01*
X010090Y009901D01*
X010178Y009901D01*
X010178Y009841D01*
X010179Y009842D01*
X010179Y009901D01*
X010238Y009901D01*
X010298Y009961D01*
X010610Y009961D01*
X010849Y009961D01*
X011161Y009961D01*
X011221Y009901D01*
X011281Y009901D01*
X011281Y009841D01*
X011281Y009842D01*
X011281Y009901D01*
X011369Y009901D01*
X011408Y009891D01*
X011419Y009885D01*
X011430Y009891D01*
X011468Y009901D01*
X011556Y009901D01*
X011556Y009437D01*
X011557Y009437D01*
X011775Y009437D01*
X011832Y009437D01*
X011832Y009437D01*
X011832Y009901D01*
X011921Y009901D01*
X011959Y009891D01*
X011970Y009885D01*
X011981Y009891D01*
X012019Y009901D01*
X012107Y009901D01*
X012107Y009437D01*
X012108Y009437D01*
X012108Y009901D01*
X012196Y009901D01*
X012234Y009891D01*
X012245Y009885D01*
X012256Y009891D01*
X012294Y009901D01*
X012383Y009901D01*
X012383Y009841D01*
X012383Y009842D01*
X012383Y009901D01*
X012443Y009901D01*
X012503Y009961D01*
X012815Y009961D01*
X013090Y009961D01*
X013366Y009961D01*
X013426Y009901D01*
X013485Y009901D01*
X013485Y009842D01*
X013486Y009841D01*
X013486Y009901D01*
X013574Y009901D01*
X013612Y009891D01*
X013623Y009885D01*
X013634Y009891D01*
X013672Y009901D01*
X013761Y009901D01*
X013761Y009841D01*
X013761Y009842D01*
X013761Y009901D01*
X013787Y009901D01*
X013787Y009996D01*
X013721Y010062D01*
X013668Y010188D01*
X013668Y010326D01*
X013721Y010452D01*
X013818Y010549D01*
X013945Y010602D01*
X014082Y010602D01*
X014209Y010549D01*
X014306Y010452D01*
X014343Y010362D01*
X014402Y010362D01*
X014529Y010309D01*
X014626Y010212D01*
X014678Y010086D01*
X014678Y009961D01*
X014744Y009961D01*
X014804Y009901D01*
X014863Y009901D01*
X014863Y009842D01*
X014864Y009841D01*
X014864Y009901D01*
X014952Y009901D01*
X014990Y009891D01*
X015001Y009885D01*
X015012Y009891D01*
X015050Y009901D01*
X015139Y009901D01*
X015139Y009437D01*
X015139Y009437D01*
X015139Y009901D01*
X015228Y009901D01*
X015266Y009891D01*
X015277Y009885D01*
X015288Y009891D01*
X015326Y009901D01*
X015414Y009901D01*
X015414Y009841D01*
X015415Y009842D01*
X015415Y009901D01*
X015474Y009901D01*
X015534Y009961D01*
X015846Y009961D01*
X015906Y009901D01*
X015966Y009901D01*
X015966Y009842D01*
X015966Y009842D01*
X015966Y009901D01*
X016026Y009901D01*
X016086Y009961D01*
X016397Y009961D01*
X016673Y009961D01*
X016948Y009961D01*
X017224Y009961D01*
X017500Y009961D01*
X017775Y009961D01*
X017835Y009901D01*
X017895Y009901D01*
X017895Y009841D01*
X017895Y009842D01*
X017895Y009901D01*
X017984Y009901D01*
X018022Y009891D01*
X018056Y009871D01*
X018084Y009843D01*
X018104Y009809D01*
X018114Y009771D01*
X018114Y009437D01*
X017898Y009437D01*
X017898Y009436D01*
X018114Y009436D01*
X018114Y009102D01*
X018104Y009064D01*
X018087Y009035D01*
X018253Y008869D01*
X018403Y008869D01*
X018403Y009779D01*
X018361Y009822D01*
X018308Y009948D01*
X018308Y010086D01*
X018361Y010212D01*
X018458Y010309D01*
X018548Y010347D01*
X018548Y010406D01*
X018601Y010532D01*
X018698Y010629D01*
X018825Y010682D01*
X018948Y010682D01*
X018948Y010726D01*
X019001Y010852D01*
X019098Y010949D01*
X019225Y011002D01*
X019362Y011002D01*
X019489Y010949D01*
X019586Y010852D01*
X019638Y010726D01*
X019638Y010588D01*
X019586Y010462D01*
X019543Y010419D01*
X019543Y009327D01*
X019505Y009235D01*
X019435Y009165D01*
X019223Y008953D01*
X019223Y007361D01*
X019548Y007361D01*
X020443Y008256D01*
X020443Y008379D01*
X020441Y008382D01*
X020388Y008508D01*
X020388Y008646D01*
X020441Y008772D01*
X020538Y008869D01*
X020665Y008922D01*
X020802Y008922D01*
X020929Y008869D01*
X021026Y008772D01*
X021078Y008646D01*
X021078Y008508D01*
X021026Y008382D01*
X021023Y008379D01*
X021023Y008194D01*
X021023Y008078D01*
X020979Y007972D01*
X020959Y007951D01*
X020985Y007962D01*
X021122Y007962D01*
X021249Y007909D01*
X021346Y007812D01*
X021398Y007686D01*
X021398Y007548D01*
X021346Y007422D01*
X021343Y007419D01*
X021343Y007349D01*
X021363Y007329D01*
X021363Y007363D01*
X021413Y007484D01*
X021506Y007577D01*
X021937Y008007D01*
X021937Y008224D01*
X022060Y008347D01*
X022433Y008347D01*
X022433Y009318D01*
X022361Y009348D01*
X022161Y009548D01*
X022053Y009809D01*
X022053Y010091D01*
X022161Y010352D01*
X022361Y010552D01*
X022622Y010660D01*
X022904Y010660D01*
X023165Y010552D01*
X023260Y010457D01*
X023260Y011746D01*
X004463Y011746D01*
X004463Y010240D01*
X004505Y010312D01*
X004557Y010380D01*
X004617Y010440D01*
X004685Y010492D01*
X004758Y010534D01*
X004837Y010567D01*
X004919Y010589D01*
X004998Y010599D01*
X004998Y009999D01*
X005095Y009999D01*
X005095Y010599D01*
X005174Y010589D01*
X005256Y010567D01*
X005335Y010534D01*
X005408Y010492D01*
X005476Y010440D01*
X005536Y010380D01*
X005588Y010312D01*
X005631Y010238D01*
X005663Y010160D01*
X013680Y010160D01*
X013613Y010097D02*
X013613Y010657D01*
X013829Y010554D02*
X005287Y010554D01*
X005095Y010554D02*
X004998Y010554D01*
X004998Y010456D02*
X005095Y010456D01*
X005095Y010357D02*
X004998Y010357D01*
X004998Y010259D02*
X005095Y010259D01*
X005095Y010160D02*
X004998Y010160D01*
X004998Y010062D02*
X005095Y010062D01*
X005095Y009999D02*
X005696Y009999D01*
X005685Y010077D01*
X005663Y010160D01*
X005687Y010062D02*
X013721Y010062D01*
X013613Y010097D02*
X013773Y009937D01*
X013773Y009449D01*
X013761Y009436D01*
X013486Y009436D01*
X013489Y009436D02*
X013489Y009437D01*
X013704Y009437D01*
X013758Y009437D01*
X013758Y009436D01*
X013542Y009436D01*
X013489Y009436D01*
X013485Y009864D02*
X013486Y009864D01*
X013761Y009864D02*
X013761Y009864D01*
X013787Y009963D02*
X005095Y009963D01*
X005095Y009999D02*
X005095Y009902D01*
X005696Y009902D01*
X005685Y009823D01*
X005663Y009741D01*
X005631Y009662D01*
X005588Y009588D01*
X005536Y009521D01*
X005476Y009460D01*
X005408Y009409D01*
X005335Y009366D01*
X005256Y009333D01*
X005174Y009311D01*
X005095Y009301D01*
X005095Y009901D01*
X004998Y009901D01*
X004998Y009301D01*
X004919Y009311D01*
X004837Y009333D01*
X004758Y009366D01*
X004685Y009409D01*
X004617Y009460D01*
X004557Y009521D01*
X004505Y009588D01*
X004463Y009661D01*
X004463Y007706D01*
X004477Y007720D01*
X005262Y007720D01*
X005243Y007739D01*
X005224Y007773D01*
X005213Y007811D01*
X005213Y008294D01*
X005492Y008294D01*
X005492Y008352D01*
X005213Y008352D01*
X005213Y008835D01*
X005224Y008873D01*
X005243Y008907D01*
X005271Y008935D01*
X005306Y008955D01*
X005344Y008965D01*
X005492Y008965D01*
X005492Y008352D01*
X005550Y008352D01*
X005550Y008965D01*
X005698Y008965D01*
X005713Y008961D01*
X005763Y009012D01*
X005763Y009327D01*
X005763Y009427D01*
X005801Y009519D01*
X005828Y009546D01*
X005828Y009606D01*
X005881Y009732D01*
X005978Y009829D01*
X006105Y009882D01*
X006242Y009882D01*
X006369Y009829D01*
X006413Y009785D01*
X006458Y009829D01*
X006585Y009882D01*
X006722Y009882D01*
X006849Y009829D01*
X006946Y009732D01*
X006998Y009606D01*
X006998Y009468D01*
X006946Y009342D01*
X006849Y009245D01*
X006823Y009234D01*
X006823Y008967D01*
X006888Y008902D01*
X006888Y007866D01*
X007034Y007720D01*
X007571Y007720D01*
X007694Y007597D01*
X007694Y007435D01*
X008821Y007435D01*
X008858Y007472D01*
X009504Y007472D01*
X009605Y007372D01*
X010109Y007372D01*
X010147Y007409D01*
X010793Y007409D01*
X010843Y007360D01*
X010935Y007322D01*
X010978Y007278D01*
X011001Y007332D01*
X011098Y007429D01*
X011225Y007482D01*
X011362Y007482D01*
X011460Y007441D01*
X011478Y007485D01*
X011282Y007485D01*
X011282Y007764D01*
X011282Y007821D01*
X011639Y007821D01*
X011639Y007970D01*
X011629Y008008D01*
X011609Y008042D01*
X011582Y008070D01*
X011547Y008090D01*
X011509Y008100D01*
X011282Y008100D01*
X011282Y007822D01*
X011224Y007822D01*
X011224Y008100D01*
X010997Y008100D01*
X010959Y008090D01*
X010925Y008070D01*
X010897Y008042D01*
X010877Y008008D01*
X010867Y007970D01*
X010867Y007821D01*
X011224Y007821D01*
X011224Y007764D01*
X010867Y007764D01*
X010867Y007615D01*
X010877Y007577D01*
X010897Y007543D01*
X010925Y007515D01*
X010959Y007495D01*
X010997Y007485D01*
X011224Y007485D01*
X011224Y007764D01*
X011282Y007764D01*
X011639Y007764D01*
X011639Y007615D01*
X011639Y007615D01*
X011705Y007642D01*
X011842Y007642D01*
X011867Y007632D01*
X011867Y007764D01*
X012224Y007764D01*
X012224Y007821D01*
X011867Y007821D01*
X011867Y007970D01*
X011877Y008008D01*
X011897Y008042D01*
X011925Y008070D01*
X011959Y008090D01*
X011997Y008100D01*
X012224Y008100D01*
X012224Y007822D01*
X012282Y007822D01*
X012282Y008100D01*
X012509Y008100D01*
X012547Y008090D01*
X012582Y008070D01*
X012609Y008042D01*
X012629Y008008D01*
X012639Y007970D01*
X012639Y007821D01*
X012282Y007821D01*
X012282Y007764D01*
X012639Y007764D01*
X012639Y007615D01*
X012629Y007577D01*
X012609Y007543D01*
X012582Y007515D01*
X012547Y007495D01*
X012509Y007485D01*
X012282Y007485D01*
X012282Y007764D01*
X012224Y007764D01*
X012224Y007485D01*
X012069Y007485D01*
X012118Y007366D01*
X012118Y007228D01*
X012066Y007102D01*
X012023Y007059D01*
X012023Y006121D01*
X012112Y006032D01*
X012121Y006052D01*
X012218Y006149D01*
X012345Y006202D01*
X012482Y006202D01*
X012609Y006149D01*
X012706Y006052D01*
X012723Y006010D01*
X012723Y006552D01*
X012708Y006588D01*
X012708Y006726D01*
X012761Y006852D01*
X012858Y006949D01*
X012985Y007002D01*
X013122Y007002D01*
X013249Y006949D01*
X013346Y006852D01*
X013398Y006726D01*
X013398Y006588D01*
X013383Y006552D01*
X013383Y005962D01*
X013398Y005926D01*
X013398Y005788D01*
X013358Y005691D01*
X013409Y005669D01*
X013451Y005627D02*
X013647Y005627D01*
X013647Y005726D02*
X013372Y005726D01*
X013398Y005824D02*
X013647Y005824D01*
X013647Y005923D02*
X013398Y005923D01*
X013383Y006021D02*
X013647Y006021D01*
X013647Y006120D02*
X013383Y006120D01*
X013383Y006218D02*
X013669Y006218D01*
X013767Y006317D02*
X013383Y006317D01*
X013383Y006415D02*
X014374Y006415D01*
X014374Y006514D02*
X013383Y006514D01*
X013398Y006613D02*
X014374Y006613D01*
X014374Y006711D02*
X013398Y006711D01*
X013363Y006810D02*
X014374Y006810D01*
X014374Y006908D02*
X013290Y006908D01*
X012816Y006908D02*
X012023Y006908D01*
X012023Y006810D02*
X012743Y006810D01*
X012708Y006711D02*
X012023Y006711D01*
X012023Y006613D02*
X012708Y006613D01*
X012723Y006514D02*
X012023Y006514D01*
X012023Y006415D02*
X012723Y006415D01*
X012723Y006317D02*
X012023Y006317D01*
X012023Y006218D02*
X012723Y006218D01*
X012723Y006120D02*
X012638Y006120D01*
X012719Y006021D02*
X012723Y006021D01*
X012188Y006120D02*
X012024Y006120D01*
X012023Y007007D02*
X014457Y007007D01*
X014679Y007105D02*
X012067Y007105D01*
X012108Y007204D02*
X014638Y007204D01*
X014628Y007302D02*
X012118Y007302D01*
X012104Y007401D02*
X014643Y007401D01*
X014688Y007499D02*
X014554Y007499D01*
X014547Y007495D02*
X014582Y007515D01*
X014609Y007543D01*
X014629Y007577D01*
X014639Y007615D01*
X014639Y007764D01*
X014282Y007764D01*
X014282Y007821D01*
X014639Y007821D01*
X014639Y007970D01*
X014629Y008008D01*
X014609Y008042D01*
X014582Y008070D01*
X014547Y008090D01*
X014509Y008100D01*
X014282Y008100D01*
X014282Y007822D01*
X014224Y007822D01*
X014224Y008100D01*
X013997Y008100D01*
X013959Y008090D01*
X013925Y008070D01*
X013897Y008042D01*
X013877Y008008D01*
X013867Y007970D01*
X013867Y007821D01*
X014224Y007821D01*
X014224Y007764D01*
X013867Y007764D01*
X013867Y007615D01*
X013877Y007577D01*
X013897Y007543D01*
X013925Y007515D01*
X013959Y007495D01*
X013997Y007485D01*
X014224Y007485D01*
X014224Y007764D01*
X014282Y007764D01*
X014282Y007485D01*
X014509Y007485D01*
X014547Y007495D01*
X014635Y007598D02*
X014798Y007598D01*
X014867Y007696D02*
X014639Y007696D01*
X014282Y007696D02*
X014224Y007696D01*
X014224Y007598D02*
X014282Y007598D01*
X014282Y007499D02*
X014224Y007499D01*
X013952Y007499D02*
X013554Y007499D01*
X013547Y007495D02*
X013582Y007515D01*
X013609Y007543D01*
X013629Y007577D01*
X013639Y007615D01*
X013639Y007764D01*
X013282Y007764D01*
X013282Y007821D01*
X013639Y007821D01*
X013639Y007970D01*
X013629Y008008D01*
X013609Y008042D01*
X013582Y008070D01*
X013547Y008090D01*
X013509Y008100D01*
X013282Y008100D01*
X013282Y007822D01*
X013224Y007822D01*
X013224Y008100D01*
X012997Y008100D01*
X012959Y008090D01*
X012925Y008070D01*
X012897Y008042D01*
X012877Y008008D01*
X012867Y007970D01*
X012867Y007821D01*
X013224Y007821D01*
X013224Y007764D01*
X012867Y007764D01*
X012867Y007615D01*
X012877Y007577D01*
X012897Y007543D01*
X012925Y007515D01*
X012959Y007495D01*
X012997Y007485D01*
X013224Y007485D01*
X013224Y007764D01*
X013282Y007764D01*
X013282Y007485D01*
X013509Y007485D01*
X013547Y007495D01*
X013635Y007598D02*
X013872Y007598D01*
X013867Y007696D02*
X013639Y007696D01*
X013282Y007696D02*
X013224Y007696D01*
X013224Y007598D02*
X013282Y007598D01*
X013282Y007499D02*
X013224Y007499D01*
X012952Y007499D02*
X012554Y007499D01*
X012635Y007598D02*
X012872Y007598D01*
X012867Y007696D02*
X012639Y007696D01*
X012282Y007696D02*
X012224Y007696D01*
X012224Y007598D02*
X012282Y007598D01*
X012282Y007499D02*
X012224Y007499D01*
X011867Y007696D02*
X011639Y007696D01*
X011282Y007696D02*
X011224Y007696D01*
X011224Y007598D02*
X011282Y007598D01*
X011282Y007499D02*
X011224Y007499D01*
X011069Y007401D02*
X010802Y007401D01*
X010952Y007499D02*
X010554Y007499D01*
X010547Y007495D02*
X010582Y007515D01*
X010609Y007543D01*
X010629Y007577D01*
X010639Y007615D01*
X010639Y007764D01*
X010282Y007764D01*
X010282Y007821D01*
X010639Y007821D01*
X010639Y007970D01*
X010629Y008008D01*
X010609Y008042D01*
X010582Y008070D01*
X010547Y008090D01*
X010509Y008100D01*
X010282Y008100D01*
X010282Y007822D01*
X010224Y007822D01*
X010224Y008100D01*
X009997Y008100D01*
X009959Y008090D01*
X009925Y008070D01*
X009897Y008042D01*
X009877Y008008D01*
X009867Y007970D01*
X009867Y007821D01*
X010224Y007821D01*
X010224Y007764D01*
X009867Y007764D01*
X009867Y007615D01*
X009877Y007577D01*
X009897Y007543D01*
X009925Y007515D01*
X009959Y007495D01*
X009997Y007485D01*
X010224Y007485D01*
X010224Y007764D01*
X010282Y007764D01*
X010282Y007485D01*
X010509Y007485D01*
X010547Y007495D01*
X010635Y007598D02*
X010872Y007598D01*
X010867Y007696D02*
X010639Y007696D01*
X010282Y007696D02*
X010224Y007696D01*
X010224Y007598D02*
X010282Y007598D01*
X010282Y007499D02*
X010224Y007499D01*
X010138Y007401D02*
X009576Y007401D01*
X009547Y007495D02*
X009582Y007515D01*
X009609Y007543D01*
X009629Y007577D01*
X009639Y007615D01*
X009639Y007764D01*
X009282Y007764D01*
X009282Y007821D01*
X009639Y007821D01*
X009639Y007970D01*
X009629Y008008D01*
X009609Y008042D01*
X009582Y008070D01*
X009547Y008090D01*
X009509Y008100D01*
X009282Y008100D01*
X009282Y007822D01*
X009224Y007822D01*
X009224Y008100D01*
X008997Y008100D01*
X008959Y008090D01*
X008925Y008070D01*
X008897Y008042D01*
X008877Y008008D01*
X008867Y007970D01*
X008867Y007821D01*
X009224Y007821D01*
X009224Y007764D01*
X008867Y007764D01*
X008867Y007615D01*
X008877Y007577D01*
X008897Y007543D01*
X008925Y007515D01*
X008959Y007495D01*
X008997Y007485D01*
X009224Y007485D01*
X009224Y007764D01*
X009282Y007764D01*
X009282Y007485D01*
X009509Y007485D01*
X009547Y007495D01*
X009554Y007499D02*
X009952Y007499D01*
X009872Y007598D02*
X009635Y007598D01*
X009639Y007696D02*
X009867Y007696D01*
X010224Y007795D02*
X009282Y007795D01*
X009224Y007795D02*
X006959Y007795D01*
X006888Y007894D02*
X008867Y007894D01*
X008873Y007992D02*
X006888Y007992D01*
X006888Y008091D02*
X008962Y008091D01*
X008875Y008189D02*
X006888Y008189D01*
X006888Y008288D02*
X008807Y008288D01*
X008807Y008386D02*
X006888Y008386D01*
X006888Y008485D02*
X008807Y008485D01*
X008807Y008583D02*
X006888Y008583D01*
X006888Y008682D02*
X008807Y008682D01*
X008842Y008780D02*
X006888Y008780D01*
X006888Y008879D02*
X010194Y008879D01*
X010178Y008978D02*
X010179Y008978D01*
X010067Y008978D02*
X010014Y008978D01*
X009903Y008978D02*
X009903Y008978D01*
X009903Y008971D02*
X009903Y009436D01*
X010122Y009436D01*
X010175Y009436D01*
X010175Y009437D01*
X010122Y009437D01*
X009903Y009437D01*
X009903Y009901D01*
X009814Y009901D01*
X009776Y009891D01*
X009742Y009871D01*
X009714Y009843D01*
X009694Y009809D01*
X009684Y009771D01*
X009684Y009437D01*
X009902Y009437D01*
X009902Y009436D01*
X009684Y009436D01*
X009684Y009102D01*
X009694Y009064D01*
X009714Y009029D01*
X009742Y009001D01*
X009776Y008982D01*
X009814Y008971D01*
X009903Y008971D01*
X009903Y009076D02*
X009903Y009076D01*
X009903Y009175D02*
X009903Y009175D01*
X009903Y009273D02*
X009903Y009273D01*
X009903Y009372D02*
X009903Y009372D01*
X009903Y009436D02*
X009903Y010547D01*
X010013Y010657D01*
X011853Y010657D02*
X011853Y009458D01*
X011874Y009436D01*
X012108Y009436D01*
X012108Y009437D01*
X012326Y009437D01*
X012380Y009437D01*
X012380Y009436D01*
X012326Y009436D01*
X012108Y009436D01*
X012383Y009436D01*
X012107Y009436D02*
X012051Y009436D01*
X011832Y009436D01*
X011832Y009437D01*
X011832Y009901D01*
X011743Y009901D01*
X011705Y009891D01*
X011694Y009885D01*
X011683Y009891D01*
X011645Y009901D01*
X011557Y009901D01*
X011557Y009437D01*
X011557Y009436D01*
X011775Y009436D01*
X011832Y009436D01*
X011556Y009436D01*
X011500Y009436D01*
X011284Y009436D01*
X011284Y009437D01*
X011500Y009437D01*
X011556Y009437D01*
X011556Y009436D01*
X011281Y009436D01*
X011005Y009436D02*
X011005Y009025D01*
X011133Y008897D01*
X011858Y008897D01*
X012253Y008501D01*
X011807Y008485D02*
X011699Y008485D01*
X011699Y008583D02*
X011803Y008583D01*
X011807Y008386D02*
X011699Y008386D01*
X011699Y008288D02*
X011807Y008288D01*
X011875Y008189D02*
X011632Y008189D01*
X011544Y008091D02*
X011962Y008091D01*
X011873Y007992D02*
X011633Y007992D01*
X011639Y007894D02*
X011867Y007894D01*
X012224Y007894D02*
X012282Y007894D01*
X012282Y007992D02*
X012224Y007992D01*
X012224Y008091D02*
X012282Y008091D01*
X012544Y008091D02*
X012962Y008091D01*
X012875Y008189D02*
X012632Y008189D01*
X012699Y008288D02*
X012807Y008288D01*
X012807Y008386D02*
X012699Y008386D01*
X012699Y008485D02*
X012807Y008485D01*
X012749Y008583D02*
X012699Y008583D01*
X013224Y008091D02*
X013282Y008091D01*
X013282Y007992D02*
X013224Y007992D01*
X013224Y007894D02*
X013282Y007894D01*
X013282Y007795D02*
X014224Y007795D01*
X014282Y007795D02*
X015224Y007795D01*
X015282Y007795D02*
X016224Y007795D01*
X016224Y007821D02*
X016224Y007764D01*
X015867Y007764D01*
X015867Y007615D01*
X015877Y007577D01*
X015897Y007543D01*
X015925Y007515D01*
X015959Y007495D01*
X015997Y007485D01*
X016224Y007485D01*
X016224Y007764D01*
X016282Y007764D01*
X016282Y007821D01*
X016639Y007821D01*
X016639Y007970D01*
X016629Y008008D01*
X016609Y008042D01*
X016582Y008070D01*
X016547Y008090D01*
X016509Y008100D01*
X016282Y008100D01*
X016282Y007822D01*
X016224Y007822D01*
X016224Y008100D01*
X015997Y008100D01*
X015959Y008090D01*
X015925Y008070D01*
X015897Y008042D01*
X015877Y008008D01*
X015867Y007970D01*
X015867Y007821D01*
X016224Y007821D01*
X016282Y007795D02*
X016807Y007795D01*
X016807Y007696D02*
X016639Y007696D01*
X016639Y007764D02*
X016639Y007615D01*
X016629Y007577D01*
X016609Y007543D01*
X016582Y007515D01*
X016547Y007495D01*
X016509Y007485D01*
X016282Y007485D01*
X016282Y007764D01*
X016639Y007764D01*
X016639Y007894D02*
X016785Y007894D01*
X016686Y007992D02*
X016633Y007992D01*
X016588Y008091D02*
X016544Y008091D01*
X016282Y008091D02*
X016224Y008091D01*
X016224Y007992D02*
X016282Y007992D01*
X016282Y007894D02*
X016224Y007894D01*
X015867Y007894D02*
X015639Y007894D01*
X015633Y007992D02*
X015873Y007992D01*
X015962Y008091D02*
X015544Y008091D01*
X015632Y008189D02*
X015875Y008189D01*
X015807Y008288D02*
X015699Y008288D01*
X015699Y008386D02*
X015807Y008386D01*
X015775Y008485D02*
X015771Y008485D01*
X016253Y008501D02*
X016517Y008765D01*
X016517Y009436D01*
X016793Y009436D02*
X016793Y008253D01*
X017253Y007793D01*
X017699Y007795D02*
X017807Y007795D01*
X017807Y007696D02*
X017699Y007696D01*
X017699Y007598D02*
X017801Y007598D01*
X017702Y007499D02*
X017651Y007499D01*
X017604Y007401D02*
X016645Y007401D01*
X016554Y007499D02*
X016856Y007499D01*
X016807Y007598D02*
X016635Y007598D01*
X016282Y007598D02*
X016224Y007598D01*
X016224Y007696D02*
X016282Y007696D01*
X016282Y007499D02*
X016224Y007499D01*
X015952Y007499D02*
X015554Y007499D01*
X015635Y007598D02*
X015872Y007598D01*
X015867Y007696D02*
X015639Y007696D01*
X015282Y007696D02*
X015224Y007696D01*
X015224Y007598D02*
X015282Y007598D01*
X015282Y007499D02*
X015259Y007499D01*
X015304Y007401D02*
X016502Y007401D01*
X016331Y007302D02*
X015318Y007302D01*
X015308Y007204D02*
X016261Y007204D01*
X016228Y007105D02*
X015267Y007105D01*
X015259Y007007D02*
X015402Y007007D01*
X015876Y007007D02*
X016032Y007007D01*
X016816Y007302D02*
X017505Y007302D01*
X017406Y007204D02*
X016886Y007204D01*
X016918Y007105D02*
X017308Y007105D01*
X017248Y007007D02*
X017136Y007007D01*
X018253Y007793D02*
X017853Y008193D01*
X017853Y008577D01*
X017344Y009086D01*
X017344Y009436D01*
X017619Y009436D02*
X017619Y009135D01*
X018253Y008501D01*
X018243Y008879D02*
X018403Y008879D01*
X018403Y008978D02*
X018145Y008978D01*
X018107Y009076D02*
X018403Y009076D01*
X018403Y009175D02*
X018114Y009175D01*
X018114Y009273D02*
X018403Y009273D01*
X018403Y009372D02*
X018114Y009372D01*
X018114Y009470D02*
X018403Y009470D01*
X018403Y009569D02*
X018114Y009569D01*
X018114Y009667D02*
X018403Y009667D01*
X018403Y009766D02*
X018114Y009766D01*
X018063Y009864D02*
X018343Y009864D01*
X018308Y009963D02*
X014678Y009963D01*
X014678Y010062D02*
X018308Y010062D01*
X018339Y010160D02*
X014647Y010160D01*
X014579Y010259D02*
X018407Y010259D01*
X018548Y010357D02*
X014413Y010357D01*
X014302Y010456D02*
X018569Y010456D01*
X018623Y010554D02*
X014197Y010554D01*
X013724Y010456D02*
X005455Y010456D01*
X005554Y010357D02*
X013681Y010357D01*
X013668Y010259D02*
X005619Y010259D01*
X005691Y009864D02*
X006062Y009864D01*
X005914Y009766D02*
X005670Y009766D01*
X005633Y009667D02*
X005854Y009667D01*
X005828Y009569D02*
X005573Y009569D01*
X005486Y009470D02*
X005781Y009470D01*
X005763Y009372D02*
X005345Y009372D01*
X005095Y009372D02*
X004998Y009372D01*
X004998Y009470D02*
X005095Y009470D01*
X005095Y009569D02*
X004998Y009569D01*
X004998Y009667D02*
X005095Y009667D01*
X005095Y009766D02*
X004998Y009766D01*
X004998Y009864D02*
X005095Y009864D01*
X004520Y009569D02*
X004463Y009569D01*
X004463Y009470D02*
X004607Y009470D01*
X004748Y009372D02*
X004463Y009372D01*
X004463Y009273D02*
X005763Y009273D01*
X005763Y009175D02*
X004463Y009175D01*
X004463Y009076D02*
X005763Y009076D01*
X005729Y008978D02*
X004463Y008978D01*
X004463Y008879D02*
X005227Y008879D01*
X005213Y008780D02*
X004463Y008780D01*
X004463Y008682D02*
X005213Y008682D01*
X005213Y008583D02*
X004463Y008583D01*
X004463Y008485D02*
X005213Y008485D01*
X005213Y008386D02*
X004463Y008386D01*
X004463Y008288D02*
X005213Y008288D01*
X005213Y008189D02*
X004463Y008189D01*
X004463Y008091D02*
X005213Y008091D01*
X005213Y007992D02*
X004463Y007992D01*
X004463Y007894D02*
X005213Y007894D01*
X005218Y007795D02*
X004463Y007795D01*
X005492Y008386D02*
X005550Y008386D01*
X005550Y008485D02*
X005492Y008485D01*
X005492Y008583D02*
X005550Y008583D01*
X005550Y008682D02*
X005492Y008682D01*
X005492Y008780D02*
X005550Y008780D01*
X005550Y008879D02*
X005492Y008879D01*
X006823Y008978D02*
X009791Y008978D01*
X009691Y009076D02*
X006823Y009076D01*
X006823Y009175D02*
X009684Y009175D01*
X009684Y009273D02*
X006877Y009273D01*
X006958Y009372D02*
X009684Y009372D01*
X009684Y009470D02*
X006998Y009470D01*
X006998Y009569D02*
X009684Y009569D01*
X009684Y009667D02*
X006973Y009667D01*
X006912Y009766D02*
X009684Y009766D01*
X009735Y009864D02*
X006764Y009864D01*
X006542Y009864D02*
X006284Y009864D01*
X004807Y010554D02*
X004463Y010554D01*
X004463Y010456D02*
X004638Y010456D01*
X004540Y010357D02*
X004463Y010357D01*
X004463Y010259D02*
X004474Y010259D01*
X004463Y010653D02*
X018754Y010653D01*
X018959Y010751D02*
X004463Y010751D01*
X004463Y010850D02*
X019000Y010850D01*
X019097Y010948D02*
X004463Y010948D01*
X004463Y011047D02*
X023260Y011047D01*
X023260Y011146D02*
X004463Y011146D01*
X004463Y011244D02*
X023260Y011244D01*
X023260Y011343D02*
X004463Y011343D01*
X004463Y011441D02*
X023260Y011441D01*
X023260Y011540D02*
X004463Y011540D01*
X004463Y011638D02*
X023260Y011638D01*
X023260Y011737D02*
X004463Y011737D01*
X009903Y009864D02*
X009903Y009864D01*
X009903Y009766D02*
X009903Y009766D01*
X009903Y009667D02*
X009903Y009667D01*
X009903Y009569D02*
X009903Y009569D01*
X009903Y009470D02*
X009903Y009470D01*
X009903Y009436D02*
X010178Y009436D01*
X010454Y009436D02*
X010454Y008702D01*
X010253Y008501D01*
X010699Y008485D02*
X010807Y008485D01*
X010804Y008583D02*
X010699Y008583D01*
X010699Y008386D02*
X010807Y008386D01*
X010807Y008288D02*
X010699Y008288D01*
X010632Y008189D02*
X010875Y008189D01*
X010962Y008091D02*
X010544Y008091D01*
X010633Y007992D02*
X010873Y007992D01*
X010867Y007894D02*
X010639Y007894D01*
X010282Y007894D02*
X010224Y007894D01*
X010224Y007992D02*
X010282Y007992D01*
X010282Y008091D02*
X010224Y008091D01*
X009962Y008091D02*
X009544Y008091D01*
X009633Y007992D02*
X009873Y007992D01*
X009867Y007894D02*
X009639Y007894D01*
X009282Y007894D02*
X009224Y007894D01*
X009224Y007992D02*
X009282Y007992D01*
X009282Y008091D02*
X009224Y008091D01*
X009224Y007696D02*
X009282Y007696D01*
X009282Y007598D02*
X009224Y007598D01*
X009224Y007499D02*
X009282Y007499D01*
X008952Y007499D02*
X007694Y007499D01*
X007693Y007598D02*
X008872Y007598D01*
X008867Y007696D02*
X007594Y007696D01*
X010282Y007795D02*
X011224Y007795D01*
X011282Y007795D02*
X012224Y007795D01*
X012282Y007795D02*
X013224Y007795D01*
X012867Y007894D02*
X012639Y007894D01*
X012633Y007992D02*
X012873Y007992D01*
X013544Y008091D02*
X013962Y008091D01*
X013875Y008189D02*
X013632Y008189D01*
X013633Y007992D02*
X013873Y007992D01*
X013867Y007894D02*
X013639Y007894D01*
X014224Y007894D02*
X014282Y007894D01*
X014282Y007992D02*
X014224Y007992D01*
X014224Y008091D02*
X014282Y008091D01*
X014544Y008091D02*
X014962Y008091D01*
X014875Y008189D02*
X014632Y008189D01*
X014633Y007992D02*
X014873Y007992D01*
X014867Y007894D02*
X014639Y007894D01*
X015224Y007894D02*
X015282Y007894D01*
X015282Y007992D02*
X015224Y007992D01*
X015224Y008091D02*
X015282Y008091D01*
X015335Y008869D02*
X014998Y008869D01*
X014998Y008966D01*
X014991Y008982D01*
X015001Y008988D01*
X015012Y008982D01*
X015050Y008971D01*
X015139Y008971D01*
X015228Y008971D01*
X015266Y008982D01*
X015277Y008988D01*
X015288Y008982D01*
X015326Y008971D01*
X015414Y008971D01*
X015414Y009031D01*
X015415Y009031D01*
X015415Y008971D01*
X015430Y008971D01*
X015430Y008970D01*
X015428Y008966D01*
X015428Y008962D01*
X015335Y008869D01*
X015345Y008879D02*
X014998Y008879D01*
X014993Y008978D02*
X015027Y008978D01*
X015139Y008978D02*
X015139Y008978D01*
X015139Y008971D02*
X015139Y009436D01*
X015139Y009436D01*
X015139Y008971D01*
X015139Y009076D02*
X015139Y009076D01*
X015139Y009175D02*
X015139Y009175D01*
X015139Y009273D02*
X015139Y009273D01*
X015139Y009372D02*
X015139Y009372D01*
X015139Y009436D02*
X015082Y009436D01*
X014867Y009436D01*
X014867Y009437D01*
X015082Y009437D01*
X015139Y009437D01*
X015139Y009436D01*
X015415Y009436D01*
X015415Y009978D01*
X015613Y010177D01*
X015966Y010177D01*
X015966Y009436D01*
X015966Y010610D01*
X016013Y010657D01*
X015966Y010370D02*
X015966Y010177D01*
X015966Y009864D02*
X015966Y009864D01*
X015966Y009842D02*
X015966Y009842D01*
X015415Y009864D02*
X015414Y009864D01*
X015139Y009864D02*
X015139Y009864D01*
X015139Y009766D02*
X015139Y009766D01*
X015139Y009667D02*
X015139Y009667D01*
X015139Y009569D02*
X015139Y009569D01*
X015139Y009470D02*
X015139Y009470D01*
X015139Y009437D02*
X015358Y009437D01*
X015411Y009437D01*
X015411Y009436D01*
X015358Y009436D01*
X015139Y009436D01*
X014863Y009436D01*
X015139Y009436D02*
X015139Y009437D01*
X015690Y009436D02*
X015690Y008980D01*
X015773Y008897D01*
X015415Y008978D02*
X015414Y008978D01*
X015303Y008978D02*
X015251Y008978D01*
X017068Y008882D02*
X017213Y008737D01*
X017213Y008541D01*
X017253Y008501D01*
X017068Y008882D02*
X017068Y009436D01*
X017895Y009436D02*
X017895Y010539D01*
X018013Y010657D01*
X019490Y010948D02*
X023260Y010948D01*
X023260Y010850D02*
X019587Y010850D01*
X019628Y010751D02*
X023260Y010751D01*
X023260Y010653D02*
X022922Y010653D01*
X023160Y010554D02*
X023260Y010554D01*
X022604Y010653D02*
X019638Y010653D01*
X019624Y010554D02*
X022366Y010554D01*
X022265Y010456D02*
X019580Y010456D01*
X019543Y010357D02*
X022166Y010357D01*
X022122Y010259D02*
X019543Y010259D01*
X019543Y010160D02*
X022082Y010160D01*
X022053Y010062D02*
X019543Y010062D01*
X019543Y009963D02*
X022053Y009963D01*
X022053Y009864D02*
X019543Y009864D01*
X019543Y009766D02*
X022071Y009766D01*
X022112Y009667D02*
X019543Y009667D01*
X019543Y009569D02*
X022152Y009569D01*
X022239Y009470D02*
X019543Y009470D01*
X019543Y009372D02*
X022337Y009372D01*
X022433Y009273D02*
X019521Y009273D01*
X019444Y009175D02*
X022433Y009175D01*
X022433Y009076D02*
X019346Y009076D01*
X019247Y008978D02*
X022433Y008978D01*
X022433Y008879D02*
X020906Y008879D01*
X021018Y008780D02*
X022433Y008780D01*
X022433Y008682D02*
X021063Y008682D01*
X021078Y008583D02*
X022433Y008583D01*
X022433Y008485D02*
X021068Y008485D01*
X021028Y008386D02*
X022433Y008386D01*
X022001Y008288D02*
X021023Y008288D01*
X021023Y008189D02*
X021937Y008189D01*
X021937Y008091D02*
X021023Y008091D01*
X020987Y007992D02*
X021922Y007992D01*
X021823Y007894D02*
X021264Y007894D01*
X021353Y007795D02*
X021725Y007795D01*
X021626Y007696D02*
X021394Y007696D01*
X021398Y007598D02*
X021528Y007598D01*
X021429Y007499D02*
X021378Y007499D01*
X021379Y007401D02*
X021343Y007401D01*
X022023Y007160D02*
X022318Y007455D01*
X023218Y007455D01*
X023260Y007496D01*
X023260Y006915D01*
X023251Y006930D01*
X023223Y006958D01*
X023189Y006978D01*
X023151Y006988D01*
X022689Y006988D01*
X022689Y006652D01*
X022589Y006652D01*
X022589Y006988D01*
X022127Y006988D01*
X022089Y006978D01*
X022055Y006958D01*
X022027Y006930D01*
X022023Y006924D01*
X022023Y007160D01*
X022023Y007105D02*
X023260Y007105D01*
X023260Y007007D02*
X022023Y007007D01*
X022067Y007204D02*
X023260Y007204D01*
X023260Y007302D02*
X022165Y007302D01*
X022264Y007401D02*
X023260Y007401D01*
X022689Y006908D02*
X022589Y006908D01*
X022589Y006810D02*
X022689Y006810D01*
X022689Y006711D02*
X022589Y006711D01*
X022589Y006552D02*
X022689Y006552D01*
X022689Y006216D01*
X023151Y006216D01*
X023189Y006226D01*
X023223Y006245D01*
X023251Y006273D01*
X023260Y006288D01*
X023260Y005930D01*
X022224Y005930D01*
X022175Y005880D01*
X022023Y006032D01*
X022023Y006280D01*
X022027Y006273D01*
X022055Y006245D01*
X022089Y006226D01*
X022127Y006216D01*
X022589Y006216D01*
X022589Y006552D01*
X022589Y006514D02*
X022689Y006514D01*
X022689Y006415D02*
X022589Y006415D01*
X022589Y006317D02*
X022689Y006317D01*
X022689Y006218D02*
X022589Y006218D01*
X022117Y006218D02*
X022023Y006218D01*
X022023Y006120D02*
X023260Y006120D01*
X023260Y006218D02*
X023161Y006218D01*
X023260Y006021D02*
X022034Y006021D01*
X022132Y005923D02*
X022217Y005923D01*
X019588Y007401D02*
X019223Y007401D01*
X019223Y007499D02*
X019687Y007499D01*
X019785Y007598D02*
X019223Y007598D01*
X019223Y007696D02*
X019884Y007696D01*
X019982Y007795D02*
X019223Y007795D01*
X019223Y007894D02*
X020081Y007894D01*
X020179Y007992D02*
X019223Y007992D01*
X019223Y008091D02*
X020278Y008091D01*
X020376Y008189D02*
X019223Y008189D01*
X019223Y008288D02*
X020443Y008288D01*
X020439Y008386D02*
X019223Y008386D01*
X019223Y008485D02*
X020398Y008485D01*
X020388Y008583D02*
X019223Y008583D01*
X019223Y008682D02*
X020403Y008682D01*
X020449Y008780D02*
X019223Y008780D01*
X019223Y008879D02*
X020561Y008879D01*
X017895Y009864D02*
X017895Y009864D01*
X014864Y009864D02*
X014863Y009864D01*
X012383Y009864D02*
X012383Y009864D01*
X012108Y009864D02*
X012107Y009864D01*
X012107Y009766D02*
X012108Y009766D01*
X012107Y009667D02*
X012108Y009667D01*
X012107Y009569D02*
X012108Y009569D01*
X012107Y009470D02*
X012108Y009470D01*
X012107Y009437D02*
X012107Y009436D01*
X012107Y009437D02*
X012051Y009437D01*
X011832Y009437D01*
X011832Y009436D02*
X011853Y009458D01*
X011832Y009470D02*
X011832Y009470D01*
X011832Y009437D02*
X011832Y009436D01*
X011832Y009569D02*
X011832Y009569D01*
X011832Y009667D02*
X011832Y009667D01*
X011832Y009766D02*
X011832Y009766D01*
X011832Y009864D02*
X011832Y009864D01*
X011557Y009864D02*
X011556Y009864D01*
X011556Y009766D02*
X011557Y009766D01*
X011556Y009667D02*
X011557Y009667D01*
X011556Y009569D02*
X011557Y009569D01*
X011556Y009470D02*
X011557Y009470D01*
X011281Y009864D02*
X011281Y009864D01*
X010730Y009436D02*
X010730Y009025D01*
X011253Y008501D01*
X011224Y008091D02*
X011282Y008091D01*
X011282Y007992D02*
X011224Y007992D01*
X011224Y007894D02*
X011282Y007894D01*
X010988Y007302D02*
X010955Y007302D01*
X014566Y006127D02*
X014566Y005802D01*
X014566Y005487D01*
X014566Y005172D01*
X014566Y004857D01*
X014566Y004543D01*
X016403Y004543D01*
X016403Y004522D02*
X016388Y004486D01*
X016388Y004348D01*
X016441Y004222D01*
X016538Y004125D01*
X016589Y004103D01*
X016548Y004006D01*
X016548Y004002D01*
X016420Y003874D01*
X016338Y003792D01*
X016294Y003685D01*
X016294Y003667D01*
X016151Y003667D01*
X015757Y003667D01*
X015697Y003607D01*
X015644Y003607D01*
X015644Y003554D01*
X015639Y003549D01*
X015634Y003554D01*
X015634Y003607D01*
X015581Y003607D01*
X015521Y003667D01*
X015206Y003667D01*
X014891Y003667D01*
X014566Y003667D01*
X014566Y003913D01*
X014566Y004228D01*
X014566Y004543D01*
X014566Y004445D02*
X016388Y004445D01*
X016403Y004522D02*
X016403Y005432D01*
X016388Y005468D01*
X016388Y005472D01*
X016007Y005853D01*
X015963Y005959D01*
X015963Y006075D01*
X015963Y006187D01*
X015959Y006187D01*
X015959Y006240D01*
X015954Y006245D01*
X015949Y006240D01*
X015949Y006187D01*
X015929Y006187D01*
X015929Y005825D01*
X015885Y005719D01*
X015803Y005637D01*
X015638Y005472D01*
X015638Y005468D01*
X015586Y005342D01*
X015489Y005245D01*
X015362Y005192D01*
X015225Y005192D01*
X015098Y005245D01*
X015001Y005342D01*
X014948Y005468D01*
X014948Y005606D01*
X015001Y005732D01*
X015098Y005829D01*
X015225Y005882D01*
X015228Y005882D01*
X015349Y006003D01*
X015349Y006187D01*
X015329Y006187D01*
X015329Y006240D01*
X015324Y006245D01*
X015319Y006240D01*
X015319Y006187D01*
X015266Y006187D01*
X015206Y006127D01*
X014812Y006127D01*
X014566Y006127D01*
X014566Y006120D02*
X015349Y006120D01*
X015349Y006021D02*
X014566Y006021D01*
X014566Y005923D02*
X015269Y005923D01*
X015093Y005824D02*
X014566Y005824D01*
X014566Y005726D02*
X014998Y005726D01*
X014957Y005627D02*
X014566Y005627D01*
X014566Y005529D02*
X014948Y005529D01*
X014964Y005430D02*
X014566Y005430D01*
X014566Y005331D02*
X015011Y005331D01*
X015126Y005233D02*
X014566Y005233D01*
X014566Y005134D02*
X016403Y005134D01*
X016403Y005036D02*
X014566Y005036D01*
X014566Y004937D02*
X016403Y004937D01*
X016403Y004839D02*
X014566Y004839D01*
X014566Y004740D02*
X016403Y004740D01*
X016403Y004642D02*
X014566Y004642D01*
X014566Y004346D02*
X016389Y004346D01*
X016430Y004247D02*
X014566Y004247D01*
X014566Y004149D02*
X016513Y004149D01*
X016567Y004050D02*
X014566Y004050D01*
X014566Y003952D02*
X016498Y003952D01*
X016399Y003853D02*
X014566Y003853D01*
X014566Y003755D02*
X016323Y003755D01*
X015746Y003656D02*
X015532Y003656D01*
X015634Y003558D02*
X015644Y003558D01*
X015461Y005233D02*
X016403Y005233D01*
X016403Y005331D02*
X015576Y005331D01*
X015622Y005430D02*
X016403Y005430D01*
X016332Y005529D02*
X015695Y005529D01*
X015793Y005627D02*
X016233Y005627D01*
X016134Y005726D02*
X015888Y005726D01*
X015929Y005824D02*
X016036Y005824D01*
X015978Y005923D02*
X015929Y005923D01*
X015929Y006021D02*
X015963Y006021D01*
X015963Y006120D02*
X015929Y006120D01*
X015949Y006218D02*
X015959Y006218D01*
X015329Y006218D02*
X015319Y006218D01*
X017699Y007894D02*
X017785Y007894D01*
X010179Y009864D02*
X010178Y009864D01*
X004643Y006908D02*
X004463Y006908D01*
X004463Y006810D02*
X004643Y006810D01*
X004643Y006711D02*
X004463Y006711D01*
X004463Y006613D02*
X004643Y006613D01*
X004593Y006514D02*
X004463Y006514D01*
X004463Y006415D02*
X004552Y006415D01*
X004548Y006317D02*
X004463Y006317D01*
X004463Y006218D02*
X004569Y006218D01*
X004623Y006120D02*
X004463Y006120D01*
X004463Y006021D02*
X004748Y006021D01*
X004708Y005923D02*
X004463Y005923D01*
X004463Y005824D02*
X004708Y005824D01*
X004734Y005726D02*
X004463Y005726D01*
D30*
X006991Y007353D02*
X007239Y007105D01*
X009181Y007105D01*
X009244Y007042D01*
X010470Y007042D01*
X010748Y007042D01*
X011133Y006657D01*
X013053Y006657D02*
X013053Y005857D01*
X014253Y006577D02*
X014253Y007793D01*
X015253Y007793D01*
X016013Y007793D01*
X016253Y007793D01*
X014253Y007793D02*
X008958Y007793D01*
X008653Y008097D01*
X008653Y009297D01*
X007293Y010657D01*
X010013Y010657D01*
X011853Y010657D01*
X013613Y010657D01*
X016013Y010657D01*
X018013Y010657D01*
X018733Y010657D01*
X019373Y011297D01*
X022763Y009950D02*
X022763Y008025D01*
X022639Y007901D01*
X022297Y007901D01*
X021693Y007297D01*
X021693Y005895D01*
X022754Y004834D01*
X020969Y004422D02*
X020973Y004337D01*
X020969Y004422D02*
X020969Y006875D01*
X022173Y007137D02*
X022639Y006671D01*
X022639Y006602D01*
X020091Y006257D02*
X019473Y006875D01*
X020091Y006257D02*
X020091Y004834D01*
X016733Y004417D02*
X016733Y005537D01*
X015933Y005537D02*
X015293Y004897D01*
X015293Y003937D01*
X015639Y003591D01*
X014333Y006497D02*
X014253Y006577D01*
X014253Y007793D02*
X013253Y007793D01*
X012253Y007793D01*
X011253Y007793D01*
X010253Y007793D01*
X009253Y007793D01*
X009253Y008501D02*
X010253Y008501D01*
X006653Y009537D02*
X006493Y009377D01*
X006493Y008351D01*
X005047Y009950D02*
X005234Y010137D01*
X005653Y010137D01*
X006173Y010657D01*
X007293Y010657D01*
M02*
