G75*
G70*
%OFA0B0*%
%FSLAX24Y24*%
%IPPOS*%
%LPD*%
%AMOC8*
5,1,8,0,0,1.08239X$1,22.5*
%
%ADD10OC8,0.0820*%
%ADD11C,0.0740*%
%ADD12R,0.0395X0.0552*%
%ADD13C,0.1380*%
%ADD14C,0.0395*%
%ADD15C,0.1080*%
%ADD16R,0.0552X0.0257*%
%ADD17R,0.0552X0.0395*%
%ADD18R,0.1064X0.0552*%
%ADD19R,0.0710X0.0631*%
D10*
X004993Y001562D03*
X005993Y001562D03*
X006993Y001562D03*
X006993Y002562D03*
X005993Y002562D03*
X004993Y002562D03*
D11*
X019907Y002551D03*
X019907Y001551D03*
D12*
X016456Y003850D03*
X015747Y003850D03*
X016241Y006007D03*
X016949Y006007D03*
X022263Y008494D03*
X022972Y008494D03*
X022310Y011010D03*
X021602Y011010D03*
X006919Y010137D03*
X006210Y010137D03*
D13*
X021640Y002543D03*
D14*
X011671Y005114D03*
X009249Y002693D03*
D15*
X005047Y009950D03*
X022763Y009950D03*
D16*
X021401Y008938D03*
X021401Y008682D03*
X021401Y008427D03*
X021401Y008171D03*
X019688Y008171D03*
X019688Y008427D03*
X019688Y008682D03*
X019688Y008938D03*
D17*
X014729Y005986D03*
X014729Y005277D03*
D18*
X020214Y009913D03*
X020214Y011212D03*
D19*
X019768Y007295D03*
X022917Y007295D03*
X022917Y005523D03*
X019768Y005523D03*
X008030Y005326D03*
X004881Y005326D03*
X004881Y003554D03*
X008030Y003554D03*
X008030Y007098D03*
X004881Y007098D03*
X004881Y008869D03*
X008030Y008869D03*
M02*
