G75*
G70*
%OFA0B0*%
%FSLAX24Y24*%
%IPPOS*%
%LPD*%
%AMOC8*
5,1,8,0,0,1.08239X$1,22.5*
%
%ADD10C,0.0000*%
%ADD11C,0.0080*%
%ADD12C,0.0020*%
%ADD13C,0.0040*%
%ADD14C,0.0060*%
%ADD15R,0.0160X0.0230*%
%ADD16C,0.0160*%
%ADD17C,0.0050*%
%ADD18C,0.0030*%
D10*
X004253Y000897D02*
X004253Y011956D01*
X023470Y011956D01*
X023470Y000897D01*
X004253Y000897D01*
X009252Y002373D02*
X009254Y002398D01*
X009260Y002422D01*
X009269Y002444D01*
X009282Y002465D01*
X009298Y002484D01*
X009317Y002500D01*
X009338Y002513D01*
X009360Y002522D01*
X009384Y002528D01*
X009409Y002530D01*
X009434Y002528D01*
X009458Y002522D01*
X009480Y002513D01*
X009501Y002500D01*
X009520Y002484D01*
X009536Y002465D01*
X009549Y002444D01*
X009558Y002422D01*
X009564Y002398D01*
X009566Y002373D01*
X009564Y002348D01*
X009558Y002324D01*
X009549Y002302D01*
X009536Y002281D01*
X009520Y002262D01*
X009501Y002246D01*
X009480Y002233D01*
X009458Y002224D01*
X009434Y002218D01*
X009409Y002216D01*
X009384Y002218D01*
X009360Y002224D01*
X009338Y002233D01*
X009317Y002246D01*
X009298Y002262D01*
X009282Y002281D01*
X009269Y002302D01*
X009260Y002324D01*
X009254Y002348D01*
X009252Y002373D01*
X011674Y004794D02*
X011676Y004819D01*
X011682Y004843D01*
X011691Y004865D01*
X011704Y004886D01*
X011720Y004905D01*
X011739Y004921D01*
X011760Y004934D01*
X011782Y004943D01*
X011806Y004949D01*
X011831Y004951D01*
X011856Y004949D01*
X011880Y004943D01*
X011902Y004934D01*
X011923Y004921D01*
X011942Y004905D01*
X011958Y004886D01*
X011971Y004865D01*
X011980Y004843D01*
X011986Y004819D01*
X011988Y004794D01*
X011986Y004769D01*
X011980Y004745D01*
X011971Y004723D01*
X011958Y004702D01*
X011942Y004683D01*
X011923Y004667D01*
X011902Y004654D01*
X011880Y004645D01*
X011856Y004639D01*
X011831Y004637D01*
X011806Y004639D01*
X011782Y004645D01*
X011760Y004654D01*
X011739Y004667D01*
X011720Y004683D01*
X011704Y004702D01*
X011691Y004723D01*
X011682Y004745D01*
X011676Y004769D01*
X011674Y004794D01*
X021070Y002143D02*
X021072Y002193D01*
X021078Y002243D01*
X021088Y002293D01*
X021101Y002341D01*
X021118Y002389D01*
X021139Y002435D01*
X021163Y002479D01*
X021191Y002521D01*
X021222Y002561D01*
X021256Y002598D01*
X021293Y002633D01*
X021332Y002664D01*
X021373Y002693D01*
X021417Y002718D01*
X021463Y002740D01*
X021510Y002758D01*
X021558Y002772D01*
X021607Y002783D01*
X021657Y002790D01*
X021707Y002793D01*
X021758Y002792D01*
X021808Y002787D01*
X021858Y002778D01*
X021906Y002766D01*
X021954Y002749D01*
X022000Y002729D01*
X022045Y002706D01*
X022088Y002679D01*
X022128Y002649D01*
X022166Y002616D01*
X022201Y002580D01*
X022234Y002541D01*
X022263Y002500D01*
X022289Y002457D01*
X022312Y002412D01*
X022331Y002365D01*
X022346Y002317D01*
X022358Y002268D01*
X022366Y002218D01*
X022370Y002168D01*
X022370Y002118D01*
X022366Y002068D01*
X022358Y002018D01*
X022346Y001969D01*
X022331Y001921D01*
X022312Y001874D01*
X022289Y001829D01*
X022263Y001786D01*
X022234Y001745D01*
X022201Y001706D01*
X022166Y001670D01*
X022128Y001637D01*
X022088Y001607D01*
X022045Y001580D01*
X022000Y001557D01*
X021954Y001537D01*
X021906Y001520D01*
X021858Y001508D01*
X021808Y001499D01*
X021758Y001494D01*
X021707Y001493D01*
X021657Y001496D01*
X021607Y001503D01*
X021558Y001514D01*
X021510Y001528D01*
X021463Y001546D01*
X021417Y001568D01*
X021373Y001593D01*
X021332Y001622D01*
X021293Y001653D01*
X021256Y001688D01*
X021222Y001725D01*
X021191Y001765D01*
X021163Y001807D01*
X021139Y001851D01*
X021118Y001897D01*
X021101Y001945D01*
X021088Y001993D01*
X021078Y002043D01*
X021072Y002093D01*
X021070Y002143D01*
D11*
X020419Y002911D02*
X022426Y002911D01*
X022426Y003010D01*
X020419Y003010D02*
X020419Y002911D01*
X020419Y004978D02*
X020419Y005077D01*
X022426Y005077D01*
X022426Y004978D01*
X022247Y005307D02*
X023191Y005307D01*
X023191Y005898D01*
X022247Y005898D02*
X022247Y005307D01*
X022247Y006685D02*
X022247Y007118D01*
X022404Y007276D01*
X023034Y007276D01*
X023191Y007118D01*
X023191Y006685D01*
X020753Y006897D02*
X020503Y006897D01*
X020503Y006647D01*
X020332Y006866D02*
X020003Y006866D01*
X020003Y006788D02*
X020214Y006788D01*
X020128Y006897D02*
X019753Y006897D01*
X020003Y006945D02*
X020306Y006945D01*
X020378Y006897D02*
X020003Y006647D01*
X020003Y007147D01*
X020378Y006897D01*
X020503Y006897D02*
X020503Y007147D01*
X020189Y007023D02*
X020003Y007023D01*
X020003Y007102D02*
X020071Y007102D01*
X020097Y006709D02*
X020003Y006709D01*
X013307Y004282D02*
X012362Y004282D01*
X013307Y004282D02*
X013307Y002235D01*
X012401Y002235D01*
X010294Y001609D02*
X010221Y001640D01*
X010149Y001675D01*
X010079Y001712D01*
X010011Y001753D01*
X009944Y001797D01*
X009879Y001844D01*
X009817Y001894D01*
X009757Y001946D01*
X009699Y002001D01*
X009644Y002059D01*
X007493Y001312D02*
X007493Y002812D01*
X007243Y003062D01*
X006743Y003062D01*
X006493Y002812D01*
X006493Y001312D01*
X006243Y001062D01*
X005743Y001062D01*
X005493Y001312D01*
X005493Y002812D01*
X005243Y003062D01*
X004743Y003062D01*
X004493Y002812D01*
X004493Y001312D01*
X004743Y001062D01*
X005243Y001062D01*
X005493Y001312D01*
X006493Y001312D02*
X006743Y001062D01*
X007243Y001062D01*
X007493Y001312D01*
X007243Y000930D02*
X006743Y000930D01*
X006493Y002812D02*
X006243Y003062D01*
X005743Y003062D01*
X005493Y002812D01*
X005273Y004368D02*
X005037Y004368D01*
X005037Y004605D01*
X006769Y004368D02*
X007005Y004368D01*
X007005Y004644D01*
X007005Y006061D02*
X007005Y006337D01*
X006769Y006337D01*
X005273Y006337D02*
X005037Y006337D01*
X005037Y006101D01*
X011574Y001606D02*
X011655Y001640D01*
X011734Y001677D01*
X011812Y001719D01*
X011887Y001764D01*
X011960Y001812D01*
X012031Y001863D01*
X012100Y001918D01*
X012166Y001976D01*
X012229Y002037D01*
X012289Y002100D01*
X012347Y002167D01*
X012401Y002236D01*
X009245Y002759D02*
X009222Y002841D01*
X009204Y002924D01*
X009189Y003008D01*
X009179Y003093D01*
X009173Y003178D01*
X009171Y003264D01*
X009173Y003349D01*
X009179Y003434D01*
X009190Y003519D01*
X009204Y003603D01*
X009223Y003687D01*
X009245Y003769D01*
X009272Y003850D01*
X009302Y003930D01*
X009336Y004008D01*
X009374Y004085D01*
X009416Y004159D01*
X009461Y004232D01*
X009510Y004302D01*
X009562Y004369D01*
X009617Y004435D01*
X009676Y004497D01*
X009737Y004556D01*
X009801Y004613D01*
X009868Y004666D01*
X009937Y004716D01*
X010009Y004763D01*
X010082Y004806D01*
X010158Y004845D01*
X010236Y004881D01*
X010315Y004912D01*
X012145Y004559D02*
X012194Y004508D01*
X012240Y004455D01*
X012283Y004399D01*
X012324Y004342D01*
X012363Y004283D01*
D12*
X011283Y003727D02*
X011213Y003727D01*
X011190Y003704D01*
X011190Y003680D01*
X011213Y003657D01*
X011283Y003657D01*
X011213Y003657D02*
X011190Y003634D01*
X011190Y003610D01*
X011213Y003587D01*
X011283Y003587D01*
X011283Y003727D01*
X011136Y003727D02*
X011136Y003610D01*
X011113Y003587D01*
X011066Y003587D01*
X011043Y003610D01*
X011043Y003727D01*
X010989Y003727D02*
X010895Y003727D01*
X010895Y003704D01*
X010989Y003610D01*
X010989Y003587D01*
X010895Y003587D01*
X010841Y003587D02*
X010748Y003587D01*
X010694Y003587D02*
X010601Y003587D01*
X010547Y003587D02*
X010547Y003727D01*
X010477Y003727D01*
X010453Y003704D01*
X010453Y003657D01*
X010477Y003634D01*
X010547Y003634D01*
X010500Y003634D02*
X010453Y003587D01*
X010601Y003727D02*
X010694Y003727D01*
X010694Y003587D01*
X010694Y003657D02*
X010647Y003657D01*
X010748Y003704D02*
X010841Y003610D01*
X010841Y003587D01*
X010841Y003727D02*
X010748Y003727D01*
X010748Y003704D01*
X009123Y004947D02*
X009123Y005087D01*
X009053Y005087D01*
X009030Y005064D01*
X009030Y005017D01*
X009053Y004994D01*
X009123Y004994D01*
X009077Y004994D02*
X009030Y004947D01*
X008976Y004947D02*
X008883Y004947D01*
X008929Y004947D02*
X008929Y005087D01*
X008976Y005040D01*
X008163Y005047D02*
X008163Y004907D01*
X008163Y004954D02*
X008093Y004954D01*
X008070Y004977D01*
X008070Y005024D01*
X008093Y005047D01*
X008163Y005047D01*
X008117Y004954D02*
X008070Y004907D01*
X008016Y004930D02*
X007993Y004907D01*
X007946Y004907D01*
X007923Y004930D01*
X007923Y004954D01*
X007946Y004977D01*
X007969Y004977D01*
X007946Y004977D02*
X007923Y005000D01*
X007923Y005024D01*
X007946Y005047D01*
X007993Y005047D01*
X008016Y005024D01*
X006603Y005587D02*
X006603Y005727D01*
X006533Y005727D01*
X006510Y005704D01*
X006510Y005680D01*
X006533Y005657D01*
X006603Y005657D01*
X006533Y005657D02*
X006510Y005634D01*
X006510Y005610D01*
X006533Y005587D01*
X006603Y005587D01*
X006456Y005587D02*
X006456Y005727D01*
X006409Y005680D01*
X006363Y005727D01*
X006363Y005587D01*
X006309Y005587D02*
X006309Y005727D01*
X006239Y005727D01*
X006215Y005704D01*
X006215Y005657D01*
X006239Y005634D01*
X006309Y005634D01*
X006161Y005610D02*
X006068Y005704D01*
X006068Y005610D01*
X006091Y005587D01*
X006138Y005587D01*
X006161Y005610D01*
X006161Y005704D01*
X006138Y005727D01*
X006091Y005727D01*
X006068Y005704D01*
X006014Y005704D02*
X006014Y005680D01*
X005991Y005657D01*
X005944Y005657D01*
X005921Y005634D01*
X005921Y005610D01*
X005944Y005587D01*
X005991Y005587D01*
X006014Y005610D01*
X006014Y005634D01*
X005991Y005657D01*
X005944Y005657D02*
X005921Y005680D01*
X005921Y005704D01*
X005944Y005727D01*
X005991Y005727D01*
X006014Y005704D01*
X005867Y005727D02*
X005867Y005657D01*
X005820Y005680D01*
X005797Y005680D01*
X005773Y005657D01*
X005773Y005610D01*
X005797Y005587D01*
X005843Y005587D01*
X005867Y005610D01*
X005867Y005727D02*
X005773Y005727D01*
X007163Y006547D02*
X007256Y006547D01*
X007163Y006640D01*
X007163Y006664D01*
X007186Y006687D01*
X007233Y006687D01*
X007256Y006664D01*
X007310Y006664D02*
X007333Y006687D01*
X007380Y006687D01*
X007403Y006664D01*
X007403Y006570D01*
X007380Y006547D01*
X007333Y006547D01*
X007310Y006570D01*
X009055Y006570D02*
X009079Y006547D01*
X009125Y006547D01*
X009149Y006570D01*
X009149Y006617D02*
X009102Y006640D01*
X009079Y006640D01*
X009055Y006617D01*
X009055Y006570D01*
X009149Y006617D02*
X009149Y006687D01*
X009055Y006687D01*
X009249Y006687D02*
X009249Y006547D01*
X009203Y006547D02*
X009296Y006547D01*
X009350Y006570D02*
X009373Y006547D01*
X009420Y006547D01*
X009443Y006570D01*
X009443Y006664D01*
X009420Y006687D01*
X009373Y006687D01*
X009350Y006664D01*
X009296Y006640D02*
X009249Y006687D01*
X010055Y006687D02*
X010102Y006664D01*
X010149Y006617D01*
X010079Y006617D01*
X010055Y006594D01*
X010055Y006570D01*
X010079Y006547D01*
X010125Y006547D01*
X010149Y006570D01*
X010149Y006617D01*
X010203Y006547D02*
X010296Y006547D01*
X010249Y006547D02*
X010249Y006687D01*
X010296Y006640D01*
X010350Y006664D02*
X010373Y006687D01*
X010420Y006687D01*
X010443Y006664D01*
X010443Y006570D01*
X010420Y006547D01*
X010373Y006547D01*
X010350Y006570D01*
X011055Y006664D02*
X011149Y006570D01*
X011149Y006547D01*
X011203Y006547D02*
X011296Y006547D01*
X011249Y006547D02*
X011249Y006687D01*
X011296Y006640D01*
X011350Y006664D02*
X011373Y006687D01*
X011420Y006687D01*
X011443Y006664D01*
X011443Y006570D01*
X011420Y006547D01*
X011373Y006547D01*
X011350Y006570D01*
X011149Y006687D02*
X011055Y006687D01*
X011055Y006664D01*
X012123Y006617D02*
X012216Y006617D01*
X012146Y006687D01*
X012146Y006547D01*
X012270Y006547D02*
X012317Y006594D01*
X012293Y006594D02*
X012363Y006594D01*
X012363Y006547D02*
X012363Y006687D01*
X012293Y006687D01*
X012270Y006664D01*
X012270Y006617D01*
X012293Y006594D01*
X013055Y006640D02*
X013149Y006547D01*
X013055Y006547D01*
X013055Y006640D02*
X013055Y006664D01*
X013079Y006687D01*
X013125Y006687D01*
X013149Y006664D01*
X013249Y006687D02*
X013249Y006547D01*
X013203Y006547D02*
X013296Y006547D01*
X013350Y006570D02*
X013373Y006547D01*
X013420Y006547D01*
X013443Y006570D01*
X013443Y006664D01*
X013420Y006687D01*
X013373Y006687D01*
X013350Y006664D01*
X013296Y006640D02*
X013249Y006687D01*
X014055Y006617D02*
X014149Y006617D01*
X014079Y006687D01*
X014079Y006547D01*
X014203Y006547D02*
X014296Y006547D01*
X014249Y006547D02*
X014249Y006687D01*
X014296Y006640D01*
X014350Y006664D02*
X014373Y006687D01*
X014420Y006687D01*
X014443Y006664D01*
X014443Y006570D01*
X014420Y006547D01*
X014373Y006547D01*
X014350Y006570D01*
X015055Y006547D02*
X015149Y006547D01*
X015102Y006547D02*
X015102Y006687D01*
X015149Y006640D01*
X015203Y006547D02*
X015296Y006547D01*
X015249Y006547D02*
X015249Y006687D01*
X015296Y006640D01*
X015350Y006664D02*
X015373Y006687D01*
X015420Y006687D01*
X015443Y006664D01*
X015443Y006570D01*
X015420Y006547D01*
X015373Y006547D01*
X015350Y006570D01*
X016055Y006570D02*
X016079Y006547D01*
X016125Y006547D01*
X016149Y006570D01*
X016203Y006547D02*
X016296Y006547D01*
X016249Y006547D02*
X016249Y006687D01*
X016296Y006640D01*
X016350Y006664D02*
X016373Y006687D01*
X016420Y006687D01*
X016443Y006664D01*
X016443Y006570D01*
X016420Y006547D01*
X016373Y006547D01*
X016350Y006570D01*
X016149Y006664D02*
X016125Y006687D01*
X016079Y006687D01*
X016055Y006664D01*
X016055Y006640D01*
X016079Y006617D01*
X016055Y006594D01*
X016055Y006570D01*
X016079Y006617D02*
X016102Y006617D01*
X017055Y006570D02*
X017079Y006547D01*
X017125Y006547D01*
X017149Y006570D01*
X017055Y006664D01*
X017055Y006570D01*
X017149Y006570D02*
X017149Y006664D01*
X017125Y006687D01*
X017079Y006687D01*
X017055Y006664D01*
X017203Y006547D02*
X017296Y006547D01*
X017249Y006547D02*
X017249Y006687D01*
X017296Y006640D01*
X017350Y006664D02*
X017373Y006687D01*
X017420Y006687D01*
X017443Y006664D01*
X017443Y006570D01*
X017420Y006547D01*
X017373Y006547D01*
X017350Y006570D01*
X018123Y006570D02*
X018146Y006547D01*
X018193Y006547D01*
X018216Y006570D01*
X018216Y006594D01*
X018193Y006617D01*
X018146Y006617D01*
X018123Y006594D01*
X018123Y006570D01*
X018146Y006617D02*
X018123Y006640D01*
X018123Y006664D01*
X018146Y006687D01*
X018193Y006687D01*
X018216Y006664D01*
X018216Y006640D01*
X018193Y006617D01*
X018270Y006570D02*
X018293Y006547D01*
X018340Y006547D01*
X018363Y006570D01*
X018363Y006664D01*
X018340Y006687D01*
X018293Y006687D01*
X018270Y006664D01*
X020137Y007187D02*
X020231Y007187D01*
X020184Y007187D02*
X020184Y007327D01*
X020231Y007280D01*
X020284Y007304D02*
X020308Y007327D01*
X020378Y007327D01*
X020378Y007187D01*
X020308Y007187D01*
X020284Y007210D01*
X020284Y007304D01*
X016517Y003527D02*
X016470Y003480D01*
X016470Y003387D01*
X016470Y003457D02*
X016563Y003457D01*
X016563Y003480D02*
X016517Y003527D01*
X016563Y003480D02*
X016563Y003387D01*
X016369Y003387D02*
X016369Y003527D01*
X016323Y003527D02*
X016416Y003527D01*
X016269Y003527D02*
X016222Y003480D01*
X016175Y003527D01*
X016175Y003387D01*
X016121Y003387D02*
X016028Y003387D01*
X015974Y003410D02*
X015951Y003387D01*
X015904Y003387D01*
X015881Y003410D01*
X015881Y003457D01*
X015927Y003457D01*
X015881Y003504D02*
X015904Y003527D01*
X015951Y003527D01*
X015974Y003504D01*
X015974Y003410D01*
X016075Y003457D02*
X016121Y003457D01*
X016121Y003527D02*
X016121Y003387D01*
X016121Y003527D02*
X016028Y003527D01*
X015827Y003480D02*
X015780Y003527D01*
X015733Y003480D01*
X015733Y003387D01*
X015733Y003457D02*
X015827Y003457D01*
X015827Y003480D02*
X015827Y003387D01*
X016269Y003387D02*
X016269Y003527D01*
D13*
X021239Y004757D02*
X021372Y004757D01*
X021306Y004757D02*
X021306Y004957D01*
X021372Y004890D01*
X021460Y004757D02*
X021593Y004757D01*
X021593Y004957D01*
X022479Y006117D02*
X022612Y006117D01*
X022546Y006117D02*
X022546Y006317D01*
X022612Y006250D01*
X022700Y006284D02*
X022733Y006317D01*
X022800Y006317D01*
X022833Y006284D01*
X022833Y006150D01*
X022800Y006117D01*
X022733Y006117D01*
X022700Y006150D01*
D14*
X019287Y005283D02*
X019287Y002283D01*
X019237Y002283D01*
X018137Y002283D01*
X018087Y002283D01*
X018087Y005283D01*
X018089Y005300D01*
X018093Y005317D01*
X018100Y005333D01*
X018110Y005347D01*
X018123Y005360D01*
X018137Y005370D01*
X018153Y005377D01*
X018170Y005381D01*
X018187Y005383D01*
X019187Y005383D01*
X019204Y005381D01*
X019221Y005377D01*
X019237Y005370D01*
X019251Y005360D01*
X019264Y005347D01*
X019274Y005333D01*
X019281Y005317D01*
X019285Y005300D01*
X019287Y005283D01*
X017176Y004757D02*
X014556Y004757D01*
X014417Y004617D01*
X014417Y001997D01*
X017176Y001997D01*
X017176Y004757D01*
X018687Y004033D02*
X018687Y003833D01*
X018387Y003833D01*
X018387Y003683D02*
X018987Y003683D01*
X018987Y003533D01*
X018387Y003533D01*
X018387Y003683D01*
X018387Y003383D02*
X018687Y003383D01*
X018687Y003183D01*
X018687Y003383D02*
X018987Y003383D01*
X018987Y003833D02*
X018687Y003833D01*
X019237Y002283D02*
X019237Y002133D01*
X018137Y002133D01*
X018137Y002283D01*
X014576Y004457D02*
X014578Y004480D01*
X014584Y004503D01*
X014593Y004524D01*
X014606Y004544D01*
X014622Y004561D01*
X014640Y004575D01*
X014660Y004586D01*
X014682Y004594D01*
X014705Y004598D01*
X014729Y004598D01*
X014752Y004594D01*
X014774Y004586D01*
X014794Y004575D01*
X014812Y004561D01*
X014828Y004544D01*
X014841Y004524D01*
X014850Y004503D01*
X014856Y004480D01*
X014858Y004457D01*
X014856Y004434D01*
X014850Y004411D01*
X014841Y004390D01*
X014828Y004370D01*
X014812Y004353D01*
X014794Y004339D01*
X014774Y004328D01*
X014752Y004320D01*
X014729Y004316D01*
X014705Y004316D01*
X014682Y004320D01*
X014660Y004328D01*
X014640Y004339D01*
X014622Y004353D01*
X014606Y004370D01*
X014593Y004390D01*
X014584Y004411D01*
X014578Y004434D01*
X014576Y004457D01*
X014489Y006509D02*
X014489Y006745D01*
X014017Y006745D02*
X014017Y006509D01*
X013489Y006509D02*
X013489Y006745D01*
X013017Y006745D02*
X013017Y006509D01*
X012489Y006509D02*
X012489Y006745D01*
X012017Y006745D02*
X012017Y006509D01*
X011489Y006509D02*
X011489Y006745D01*
X011017Y006745D02*
X011017Y006509D01*
X010489Y006509D02*
X010489Y006745D01*
X010017Y006745D02*
X010017Y006509D01*
X009489Y006509D02*
X009489Y006745D01*
X009017Y006745D02*
X009017Y006509D01*
X007489Y006468D02*
X007489Y006704D01*
X007017Y006704D02*
X007017Y006468D01*
X007825Y005109D02*
X007825Y004872D01*
X008297Y004872D02*
X008297Y005109D01*
X008794Y005126D02*
X008794Y004890D01*
X009266Y004890D02*
X009266Y005126D01*
X015017Y006509D02*
X015017Y006745D01*
X015489Y006745D02*
X015489Y006509D01*
X016017Y006509D02*
X016017Y006745D01*
X016489Y006745D02*
X016489Y006509D01*
X017017Y006509D02*
X017017Y006745D01*
X017489Y006745D02*
X017489Y006509D01*
X018017Y006509D02*
X018017Y006745D01*
X018489Y006745D02*
X018489Y006509D01*
D15*
X018487Y001998D03*
X018887Y001998D03*
D16*
X018887Y001883D02*
X018887Y001783D01*
X018907Y001763D01*
X018487Y001783D02*
X018487Y001933D01*
X018487Y001783D02*
X018467Y001763D01*
D17*
X022319Y006441D02*
X023119Y006441D01*
X021188Y008179D02*
X021188Y009360D01*
X021779Y009360D01*
X021779Y010541D01*
X021188Y010541D01*
X021188Y011722D01*
X006031Y011722D02*
X006031Y008179D01*
X005115Y006179D02*
X005117Y006197D01*
X005123Y006213D01*
X005132Y006228D01*
X005145Y006241D01*
X005160Y006250D01*
X005176Y006256D01*
X005194Y006258D01*
X005212Y006256D01*
X005228Y006250D01*
X005243Y006241D01*
X005256Y006228D01*
X005265Y006213D01*
X005271Y006197D01*
X005273Y006179D01*
X005271Y006161D01*
X005265Y006145D01*
X005256Y006130D01*
X005243Y006117D01*
X005228Y006108D01*
X005212Y006102D01*
X005194Y006100D01*
X005176Y006102D01*
X005160Y006108D01*
X005145Y006117D01*
X005132Y006130D01*
X005123Y006145D01*
X005117Y006161D01*
X005115Y006179D01*
D18*
X009755Y008497D02*
X009755Y008594D01*
X009804Y008642D01*
X009852Y008642D01*
X009900Y008594D01*
X009900Y008545D01*
X009900Y008594D02*
X009949Y008642D01*
X009997Y008642D01*
X010046Y008594D01*
X010046Y008497D01*
X009997Y008449D01*
X009804Y008449D02*
X009755Y008497D01*
X009804Y008743D02*
X009997Y008937D01*
X009804Y008937D01*
X009755Y008888D01*
X009755Y008792D01*
X009804Y008743D01*
X009997Y008743D01*
X010046Y008792D01*
X010046Y008888D01*
X009997Y008937D01*
X012492Y008888D02*
X012492Y008792D01*
X012540Y008743D01*
X012733Y008937D01*
X012540Y008937D01*
X012492Y008888D01*
X012540Y008743D02*
X012733Y008743D01*
X012782Y008792D01*
X012782Y008888D01*
X012733Y008937D01*
X012733Y008642D02*
X012782Y008594D01*
X012782Y008497D01*
X012733Y008449D01*
X012733Y008642D02*
X012685Y008642D01*
X012492Y008449D01*
X012492Y008642D01*
X015228Y008642D02*
X015228Y008449D01*
X015228Y008545D02*
X015518Y008545D01*
X015421Y008449D01*
X015470Y008743D02*
X015276Y008743D01*
X015470Y008937D01*
X015276Y008937D01*
X015228Y008888D01*
X015228Y008792D01*
X015276Y008743D01*
X015470Y008743D02*
X015518Y008792D01*
X015518Y008888D01*
X015470Y008937D01*
X017787Y008976D02*
X017787Y008783D01*
X017787Y008879D02*
X018077Y008879D01*
X017980Y008783D01*
M02*
