G75*
G70*
%OFA0B0*%
%FSLAX24Y24*%
%IPPOS*%
%LPD*%
%AMOC8*
5,1,8,0,0,1.08239X$1,22.5*
%
%ADD10OC8,0.0820*%
%ADD11C,0.0740*%
%ADD12C,0.1380*%
%ADD13R,0.0300X0.0580*%
%ADD14R,0.0580X0.0300*%
%ADD15R,0.1064X0.1340*%
%ADD16C,0.0395*%
%ADD17R,0.1379X0.0395*%
%ADD18R,0.1064X0.0395*%
%ADD19R,0.0395X0.1064*%
%ADD20R,0.0552X0.0395*%
%ADD21C,0.1080*%
%ADD22R,0.0218X0.0710*%
%ADD23R,0.0631X0.0631*%
%ADD24R,0.0966X0.1852*%
%ADD25R,0.0710X0.0631*%
%ADD26C,0.0350*%
D10*
X004993Y001562D03*
X005993Y001562D03*
X006993Y001562D03*
X006993Y002562D03*
X005993Y002562D03*
X004993Y002562D03*
D11*
X018187Y001483D03*
X019187Y001483D03*
D12*
X021720Y002143D03*
D13*
X016899Y001687D03*
X016584Y001687D03*
X016269Y001687D03*
X015954Y001687D03*
X015639Y001687D03*
X015324Y001687D03*
X015009Y001687D03*
X014694Y001687D03*
X014694Y005067D03*
X015009Y005067D03*
X015324Y005067D03*
X015639Y005067D03*
X015954Y005067D03*
X016269Y005067D03*
X016584Y005067D03*
X016899Y005067D03*
D14*
X017487Y004479D03*
X017487Y004164D03*
X017487Y003849D03*
X017487Y003534D03*
X017487Y003220D03*
X017487Y002905D03*
X017487Y002590D03*
X017487Y002275D03*
X014107Y002275D03*
X014107Y002590D03*
X014107Y002905D03*
X014107Y003220D03*
X014107Y003534D03*
X014107Y003849D03*
X014107Y004164D03*
X014107Y004479D03*
D15*
X010945Y004833D03*
X010945Y001684D03*
D16*
X009409Y002373D03*
X011831Y004794D03*
D17*
X005214Y005353D03*
D18*
X006991Y005353D03*
D19*
X006521Y006323D03*
X006021Y006323D03*
X005521Y006323D03*
X005521Y004382D03*
X006021Y004382D03*
X006521Y004382D03*
D20*
X008061Y004636D03*
X009030Y004653D03*
X009030Y005362D03*
X008061Y005345D03*
X007253Y006232D03*
X007253Y006940D03*
X009253Y006981D03*
X010253Y006981D03*
X011253Y006981D03*
X012253Y006981D03*
X013253Y006981D03*
X014253Y006981D03*
X015253Y006981D03*
X016253Y006981D03*
X017253Y006981D03*
X018253Y006981D03*
X018253Y006273D03*
X017253Y006273D03*
X016253Y006273D03*
X015253Y006273D03*
X014253Y006273D03*
X013253Y006273D03*
X012253Y006273D03*
X011253Y006273D03*
X010253Y006273D03*
X009253Y006273D03*
D21*
X005047Y009950D03*
X022763Y009950D03*
D22*
X017895Y009436D03*
X017619Y009436D03*
X017344Y009436D03*
X017068Y009436D03*
X016793Y009436D03*
X016517Y009436D03*
X016241Y009436D03*
X015966Y009436D03*
X015690Y009436D03*
X015415Y009436D03*
X015139Y009436D03*
X014863Y009436D03*
X014588Y009436D03*
X014312Y009436D03*
X014037Y009436D03*
X013761Y009436D03*
X013486Y009436D03*
X013210Y009436D03*
X012934Y009436D03*
X012659Y009436D03*
X012383Y009436D03*
X012108Y009436D03*
X011832Y009436D03*
X011556Y009436D03*
X011281Y009436D03*
X011005Y009436D03*
X010730Y009436D03*
X010454Y009436D03*
X010178Y009436D03*
X009903Y009436D03*
D23*
X019473Y006875D03*
X020969Y006875D03*
D24*
X020091Y003994D03*
X022754Y003994D03*
D25*
X022719Y005740D03*
X022719Y006843D03*
D26*
X022173Y006177D03*
X021053Y007617D03*
X020733Y008577D03*
X018653Y010017D03*
X018893Y010337D03*
X019293Y010657D03*
X019373Y011297D03*
X014333Y010017D03*
X014013Y010257D03*
X013693Y007377D03*
X012893Y007377D03*
X014653Y007377D03*
X015773Y007377D03*
X014973Y005777D03*
X014333Y004977D03*
X015293Y004497D03*
X015293Y004017D03*
X015933Y004017D03*
X016733Y004017D03*
X015693Y003217D03*
X016091Y002897D03*
X016733Y003057D03*
X016893Y002337D03*
X018333Y002417D03*
X017933Y003217D03*
X015293Y002417D03*
X013533Y002257D03*
X013213Y002577D03*
X013533Y002897D03*
X013293Y003217D03*
X013533Y003537D03*
X013213Y003857D03*
X013053Y004337D03*
X012493Y003857D03*
X011693Y004337D03*
X013053Y005297D03*
X011773Y005937D03*
X011453Y005697D03*
X010253Y005297D03*
X009853Y005137D03*
X009613Y004337D03*
X008893Y003937D03*
X008573Y003697D03*
X008973Y003377D03*
X009453Y003137D03*
X009213Y002817D03*
X008893Y002177D03*
X008573Y001857D03*
X008093Y002337D03*
X009933Y002257D03*
X011293Y002577D03*
X011853Y002017D03*
X012413Y002577D03*
X011693Y001217D03*
X007613Y001217D03*
X007293Y003617D03*
X006013Y003617D03*
X005493Y003617D03*
X004693Y004517D03*
X004893Y006337D03*
X006093Y007137D03*
X008573Y004337D03*
X009613Y003537D03*
X016573Y005537D03*
X017213Y005057D03*
X017853Y005297D03*
X018733Y005297D03*
X018973Y005057D03*
X020973Y002897D03*
X022813Y002017D03*
X017613Y001457D03*
X017213Y001377D03*
M02*
