G75*
G70*
%OFA0B0*%
%FSLAX24Y24*%
%IPPOS*%
%LPD*%
%AMOC8*
5,1,8,0,0,1.08239X$1,22.5*
%
%ADD10C,0.0000*%
D10*
X004253Y000897D02*
X004253Y011956D01*
X023470Y011956D01*
X023470Y000897D01*
X004253Y000897D01*
X009092Y002693D02*
X009094Y002718D01*
X009100Y002742D01*
X009109Y002764D01*
X009122Y002785D01*
X009138Y002804D01*
X009157Y002820D01*
X009178Y002833D01*
X009200Y002842D01*
X009224Y002848D01*
X009249Y002850D01*
X009274Y002848D01*
X009298Y002842D01*
X009320Y002833D01*
X009341Y002820D01*
X009360Y002804D01*
X009376Y002785D01*
X009389Y002764D01*
X009398Y002742D01*
X009404Y002718D01*
X009406Y002693D01*
X009404Y002668D01*
X009398Y002644D01*
X009389Y002622D01*
X009376Y002601D01*
X009360Y002582D01*
X009341Y002566D01*
X009320Y002553D01*
X009298Y002544D01*
X009274Y002538D01*
X009249Y002536D01*
X009224Y002538D01*
X009200Y002544D01*
X009178Y002553D01*
X009157Y002566D01*
X009138Y002582D01*
X009122Y002601D01*
X009109Y002622D01*
X009100Y002644D01*
X009094Y002668D01*
X009092Y002693D01*
X011514Y005114D02*
X011516Y005139D01*
X011522Y005163D01*
X011531Y005185D01*
X011544Y005206D01*
X011560Y005225D01*
X011579Y005241D01*
X011600Y005254D01*
X011622Y005263D01*
X011646Y005269D01*
X011671Y005271D01*
X011696Y005269D01*
X011720Y005263D01*
X011742Y005254D01*
X011763Y005241D01*
X011782Y005225D01*
X011798Y005206D01*
X011811Y005185D01*
X011820Y005163D01*
X011826Y005139D01*
X011828Y005114D01*
X011826Y005089D01*
X011820Y005065D01*
X011811Y005043D01*
X011798Y005022D01*
X011782Y005003D01*
X011763Y004987D01*
X011742Y004974D01*
X011720Y004965D01*
X011696Y004959D01*
X011671Y004957D01*
X011646Y004959D01*
X011622Y004965D01*
X011600Y004974D01*
X011579Y004987D01*
X011560Y005003D01*
X011544Y005022D01*
X011531Y005043D01*
X011522Y005065D01*
X011516Y005089D01*
X011514Y005114D01*
X020990Y002543D02*
X020992Y002593D01*
X020998Y002643D01*
X021008Y002693D01*
X021021Y002741D01*
X021038Y002789D01*
X021059Y002835D01*
X021083Y002879D01*
X021111Y002921D01*
X021142Y002961D01*
X021176Y002998D01*
X021213Y003033D01*
X021252Y003064D01*
X021293Y003093D01*
X021337Y003118D01*
X021383Y003140D01*
X021430Y003158D01*
X021478Y003172D01*
X021527Y003183D01*
X021577Y003190D01*
X021627Y003193D01*
X021678Y003192D01*
X021728Y003187D01*
X021778Y003178D01*
X021826Y003166D01*
X021874Y003149D01*
X021920Y003129D01*
X021965Y003106D01*
X022008Y003079D01*
X022048Y003049D01*
X022086Y003016D01*
X022121Y002980D01*
X022154Y002941D01*
X022183Y002900D01*
X022209Y002857D01*
X022232Y002812D01*
X022251Y002765D01*
X022266Y002717D01*
X022278Y002668D01*
X022286Y002618D01*
X022290Y002568D01*
X022290Y002518D01*
X022286Y002468D01*
X022278Y002418D01*
X022266Y002369D01*
X022251Y002321D01*
X022232Y002274D01*
X022209Y002229D01*
X022183Y002186D01*
X022154Y002145D01*
X022121Y002106D01*
X022086Y002070D01*
X022048Y002037D01*
X022008Y002007D01*
X021965Y001980D01*
X021920Y001957D01*
X021874Y001937D01*
X021826Y001920D01*
X021778Y001908D01*
X021728Y001899D01*
X021678Y001894D01*
X021627Y001893D01*
X021577Y001896D01*
X021527Y001903D01*
X021478Y001914D01*
X021430Y001928D01*
X021383Y001946D01*
X021337Y001968D01*
X021293Y001993D01*
X021252Y002022D01*
X021213Y002053D01*
X021176Y002088D01*
X021142Y002125D01*
X021111Y002165D01*
X021083Y002207D01*
X021059Y002251D01*
X021038Y002297D01*
X021021Y002345D01*
X021008Y002393D01*
X020998Y002443D01*
X020992Y002493D01*
X020990Y002543D01*
M02*
