%
M48
M72
T01C0.0130
T02C0.0315
T03C0.0320
T04C0.0394
T05C0.0400
T06C0.1300
%
T01
X5493Y3617
X6013Y3617
X7293Y3617
X8573Y3697
X8893Y3937
X8573Y4337
X9613Y4337
X9613Y3537
X8973Y3377
X9453Y3137
X9213Y2817
X8893Y2177
X8573Y1857
X8093Y2337
X9933Y2257
X11293Y2577
X11853Y2017
X12413Y2577
X13213Y2577
X13533Y2257
X13533Y2897
X13293Y3217
X13533Y3537
X13213Y3857
X13053Y4337
X12493Y3857
X11693Y4337
X13053Y5297
X14333Y4977
X15293Y4497
X15293Y4017
X15933Y4017
X16733Y4017
X15693Y3217
X16091Y2897
X16733Y3057
X16893Y2337
X18333Y2417
X17933Y3217
X15293Y2417
X17213Y1377
X17613Y1457
X20973Y2897
X22813Y2017
X18973Y5057
X18733Y5297
X17853Y5297
X17213Y5057
X16573Y5537
X14973Y5777
X14653Y7377
X13693Y7377
X12893Y7377
X11773Y5937
X11453Y5697
X10253Y5297
X9853Y5137
X6093Y7137
X4893Y6337
X4693Y4517
X7613Y1217
X11693Y1217
X22173Y6177
X21053Y7617
X20733Y8577
X18653Y10017
X18893Y10337
X19293Y10657
X19373Y11297
X14333Y10017
X14013Y10257
X15773Y7377
T02
X11831Y4794
X9409Y2373
T03
X18187Y1483
X19187Y1483
T04
X22763Y9950
X5047Y9950
T05
X4993Y1562
X5993Y1562
X6993Y1562
X6993Y2562
X5993Y2562
X4993Y2562
T06
X21720Y2143
M30
