G75*
G70*
%OFA0B0*%
%FSLAX24Y24*%
%IPPOS*%
%LPD*%
%AMOC8*
5,1,8,0,0,1.08239X$1,22.5*
%
%ADD10C,0.0000*%
%ADD11C,0.0100*%
%ADD12R,0.0143X0.0006*%
%ADD13R,0.0171X0.0006*%
%ADD14R,0.0142X0.0006*%
%ADD15R,0.0114X0.0006*%
%ADD16R,0.0057X0.0006*%
%ADD17R,0.0057X0.0006*%
%ADD18R,0.0114X0.0006*%
%ADD19R,0.0171X0.0006*%
%ADD20R,0.0086X0.0006*%
%ADD21R,0.0085X0.0006*%
%ADD22R,0.0029X0.0006*%
%ADD23R,0.0199X0.0006*%
%ADD24R,0.0200X0.0006*%
%ADD25R,0.0599X0.0006*%
%ADD26R,0.0285X0.0006*%
%ADD27R,0.0256X0.0006*%
%ADD28R,0.0399X0.0006*%
%ADD29R,0.0228X0.0006*%
%ADD30R,0.0627X0.0006*%
%ADD31R,0.0456X0.0006*%
%ADD32R,0.0257X0.0006*%
%ADD33R,0.0228X0.0006*%
%ADD34R,0.0655X0.0006*%
%ADD35R,0.0513X0.0006*%
%ADD36R,0.0684X0.0006*%
%ADD37R,0.0570X0.0006*%
%ADD38R,0.0313X0.0006*%
%ADD39R,0.0342X0.0006*%
%ADD40R,0.0370X0.0006*%
%ADD41R,0.0427X0.0006*%
%ADD42R,0.0912X0.0006*%
%ADD43R,0.0712X0.0006*%
%ADD44C,0.0040*%
%ADD45C,0.0020*%
%ADD46C,0.0050*%
%ADD47C,0.0080*%
%ADD48C,0.0060*%
D10*
X004253Y000897D02*
X004253Y011956D01*
X023470Y011956D01*
X023470Y000897D01*
X004253Y000897D01*
X009252Y002373D02*
X009254Y002398D01*
X009260Y002422D01*
X009269Y002444D01*
X009282Y002465D01*
X009298Y002484D01*
X009317Y002500D01*
X009338Y002513D01*
X009360Y002522D01*
X009384Y002528D01*
X009409Y002530D01*
X009434Y002528D01*
X009458Y002522D01*
X009480Y002513D01*
X009501Y002500D01*
X009520Y002484D01*
X009536Y002465D01*
X009549Y002444D01*
X009558Y002422D01*
X009564Y002398D01*
X009566Y002373D01*
X009564Y002348D01*
X009558Y002324D01*
X009549Y002302D01*
X009536Y002281D01*
X009520Y002262D01*
X009501Y002246D01*
X009480Y002233D01*
X009458Y002224D01*
X009434Y002218D01*
X009409Y002216D01*
X009384Y002218D01*
X009360Y002224D01*
X009338Y002233D01*
X009317Y002246D01*
X009298Y002262D01*
X009282Y002281D01*
X009269Y002302D01*
X009260Y002324D01*
X009254Y002348D01*
X009252Y002373D01*
X011674Y004794D02*
X011676Y004819D01*
X011682Y004843D01*
X011691Y004865D01*
X011704Y004886D01*
X011720Y004905D01*
X011739Y004921D01*
X011760Y004934D01*
X011782Y004943D01*
X011806Y004949D01*
X011831Y004951D01*
X011856Y004949D01*
X011880Y004943D01*
X011902Y004934D01*
X011923Y004921D01*
X011942Y004905D01*
X011958Y004886D01*
X011971Y004865D01*
X011980Y004843D01*
X011986Y004819D01*
X011988Y004794D01*
X011986Y004769D01*
X011980Y004745D01*
X011971Y004723D01*
X011958Y004702D01*
X011942Y004683D01*
X011923Y004667D01*
X011902Y004654D01*
X011880Y004645D01*
X011856Y004639D01*
X011831Y004637D01*
X011806Y004639D01*
X011782Y004645D01*
X011760Y004654D01*
X011739Y004667D01*
X011720Y004683D01*
X011704Y004702D01*
X011691Y004723D01*
X011682Y004745D01*
X011676Y004769D01*
X011674Y004794D01*
X021070Y002143D02*
X021072Y002193D01*
X021078Y002243D01*
X021088Y002293D01*
X021101Y002341D01*
X021118Y002389D01*
X021139Y002435D01*
X021163Y002479D01*
X021191Y002521D01*
X021222Y002561D01*
X021256Y002598D01*
X021293Y002633D01*
X021332Y002664D01*
X021373Y002693D01*
X021417Y002718D01*
X021463Y002740D01*
X021510Y002758D01*
X021558Y002772D01*
X021607Y002783D01*
X021657Y002790D01*
X021707Y002793D01*
X021758Y002792D01*
X021808Y002787D01*
X021858Y002778D01*
X021906Y002766D01*
X021954Y002749D01*
X022000Y002729D01*
X022045Y002706D01*
X022088Y002679D01*
X022128Y002649D01*
X022166Y002616D01*
X022201Y002580D01*
X022234Y002541D01*
X022263Y002500D01*
X022289Y002457D01*
X022312Y002412D01*
X022331Y002365D01*
X022346Y002317D01*
X022358Y002268D01*
X022366Y002218D01*
X022370Y002168D01*
X022370Y002118D01*
X022366Y002068D01*
X022358Y002018D01*
X022346Y001969D01*
X022331Y001921D01*
X022312Y001874D01*
X022289Y001829D01*
X022263Y001786D01*
X022234Y001745D01*
X022201Y001706D01*
X022166Y001670D01*
X022128Y001637D01*
X022088Y001607D01*
X022045Y001580D01*
X022000Y001557D01*
X021954Y001537D01*
X021906Y001520D01*
X021858Y001508D01*
X021808Y001499D01*
X021758Y001494D01*
X021707Y001493D01*
X021657Y001496D01*
X021607Y001503D01*
X021558Y001514D01*
X021510Y001528D01*
X021463Y001546D01*
X021417Y001568D01*
X021373Y001593D01*
X021332Y001622D01*
X021293Y001653D01*
X021256Y001688D01*
X021222Y001725D01*
X021191Y001765D01*
X021163Y001807D01*
X021139Y001851D01*
X021118Y001897D01*
X021101Y001945D01*
X021088Y001993D01*
X021078Y002043D01*
X021072Y002093D01*
X021070Y002143D01*
D11*
X019214Y002547D02*
X019214Y011602D01*
X008584Y011602D02*
X008584Y002547D01*
D12*
X019911Y003776D03*
X019911Y003781D03*
X019911Y003787D03*
X019911Y003793D03*
X019911Y003798D03*
X020025Y004517D03*
X020025Y004522D03*
X020025Y004528D03*
X020025Y004534D03*
X020025Y004539D03*
X021621Y004631D03*
X021621Y004636D03*
X021621Y004642D03*
X021621Y004648D03*
X021621Y004653D03*
X021621Y004773D03*
X021621Y004779D03*
X021621Y004785D03*
X021621Y004790D03*
X021621Y004796D03*
X022761Y004830D03*
X022761Y004836D03*
X022761Y004842D03*
X022761Y004847D03*
X022761Y004853D03*
X021906Y003912D03*
X021906Y003907D03*
X021906Y003901D03*
X021906Y003895D03*
X021906Y003890D03*
D13*
X021835Y004545D03*
X021835Y004551D03*
X021835Y004557D03*
X021835Y004562D03*
X021835Y004568D03*
X021607Y004568D03*
X021607Y004562D03*
X021607Y004557D03*
X021607Y004551D03*
X021607Y004545D03*
X021607Y004745D03*
X021607Y004750D03*
X021607Y004756D03*
X021607Y004762D03*
X021607Y004767D03*
X021835Y004767D03*
X021835Y004762D03*
X021835Y004756D03*
X021835Y004750D03*
X021835Y004745D03*
X022063Y004745D03*
X022063Y004750D03*
X022063Y004756D03*
X022063Y004762D03*
X022063Y004767D03*
X022063Y004682D03*
X022063Y004676D03*
X022063Y004671D03*
X022063Y004665D03*
X022063Y004659D03*
X022063Y004653D03*
X022063Y004648D03*
X022063Y004642D03*
X022063Y004636D03*
X022063Y004631D03*
X022063Y004568D03*
X022063Y004562D03*
X022063Y004557D03*
X022063Y004551D03*
X022063Y004545D03*
X022747Y004545D03*
X022747Y004551D03*
X022747Y004557D03*
X022747Y004562D03*
X022747Y004568D03*
X022747Y004688D03*
X022747Y004693D03*
X022747Y004699D03*
X022747Y004705D03*
X022747Y004710D03*
X022747Y004802D03*
X022747Y004807D03*
X022747Y004813D03*
X022747Y004819D03*
X022747Y004824D03*
X023203Y004767D03*
X023203Y004762D03*
X023203Y004756D03*
X023203Y004750D03*
X023203Y004745D03*
X023203Y004511D03*
X023203Y004505D03*
X023203Y004500D03*
X023203Y004494D03*
X023203Y004488D03*
X019783Y004545D03*
X019783Y004551D03*
X019783Y004557D03*
X019783Y004562D03*
X019783Y004568D03*
X019783Y004631D03*
X019783Y004636D03*
X019783Y004642D03*
X019783Y004648D03*
X019783Y004653D03*
X019783Y004659D03*
X019783Y004665D03*
X019783Y004671D03*
X019783Y004676D03*
X019783Y004682D03*
X019783Y004745D03*
X019783Y004750D03*
X019783Y004756D03*
X019783Y004762D03*
X019783Y004767D03*
X019555Y004767D03*
X019555Y004762D03*
X019555Y004756D03*
X019555Y004750D03*
X019555Y004745D03*
X019555Y004568D03*
X019555Y004562D03*
X019555Y004557D03*
X019555Y004551D03*
X019555Y004545D03*
D14*
X019541Y004539D03*
X019541Y004534D03*
X019541Y004528D03*
X019541Y004522D03*
X019541Y004517D03*
X019569Y004631D03*
X019569Y004636D03*
X019569Y004642D03*
X019569Y004648D03*
X019569Y004653D03*
X019541Y004659D03*
X019541Y004665D03*
X019541Y004671D03*
X019541Y004676D03*
X019541Y004682D03*
X019569Y004773D03*
X019569Y004779D03*
X019569Y004785D03*
X019569Y004790D03*
X019569Y004796D03*
X019769Y004796D03*
X019769Y004790D03*
X019769Y004785D03*
X019769Y004779D03*
X019769Y004773D03*
X021593Y004682D03*
X021593Y004676D03*
X021593Y004671D03*
X021593Y004665D03*
X021593Y004659D03*
X021593Y004539D03*
X021593Y004534D03*
X021593Y004528D03*
X021593Y004522D03*
X021593Y004517D03*
X021821Y004517D03*
X021821Y004522D03*
X021821Y004528D03*
X021821Y004534D03*
X021821Y004539D03*
X021849Y004631D03*
X021849Y004636D03*
X021849Y004642D03*
X021849Y004648D03*
X021849Y004653D03*
X021821Y004659D03*
X021821Y004665D03*
X021821Y004671D03*
X021821Y004676D03*
X021821Y004682D03*
X021849Y004773D03*
X021849Y004779D03*
X021849Y004785D03*
X021849Y004790D03*
X021849Y004796D03*
X022049Y004796D03*
X022049Y004790D03*
X022049Y004785D03*
X022049Y004779D03*
X022049Y004773D03*
X022733Y004739D03*
X022733Y004733D03*
X022733Y004728D03*
X022733Y004722D03*
X022733Y004716D03*
X022733Y004539D03*
X022733Y004534D03*
X022733Y004528D03*
X022733Y004522D03*
X022733Y004517D03*
X023217Y004482D03*
X023217Y004477D03*
X023217Y004471D03*
X023217Y004465D03*
X023217Y004460D03*
X023217Y004574D03*
X023217Y004579D03*
X023217Y004585D03*
X023217Y004591D03*
X023217Y004596D03*
X023217Y004602D03*
X023217Y004608D03*
X023217Y004614D03*
X023217Y004619D03*
X023217Y004625D03*
X023217Y004773D03*
X023217Y004779D03*
X023217Y004785D03*
X023217Y004790D03*
X023217Y004796D03*
D15*
X022975Y004796D03*
X022975Y004790D03*
X022975Y004785D03*
X022975Y004779D03*
X022975Y004773D03*
X022975Y004767D03*
X022975Y004762D03*
X022975Y004756D03*
X022975Y004750D03*
X022975Y004745D03*
X022063Y004539D03*
X022063Y004534D03*
X022063Y004528D03*
X022063Y004522D03*
X022063Y004517D03*
X019783Y004517D03*
X019783Y004522D03*
X019783Y004528D03*
X019783Y004534D03*
X019783Y004539D03*
D16*
X019840Y004574D03*
X019840Y004579D03*
X019840Y004585D03*
X019840Y004591D03*
X019840Y004596D03*
X019840Y004602D03*
X019840Y004608D03*
X019840Y004614D03*
X019840Y004619D03*
X019840Y004625D03*
X019840Y004688D03*
X019840Y004693D03*
X019840Y004699D03*
X019840Y004705D03*
X019840Y004710D03*
X019840Y004716D03*
X019840Y004722D03*
X019840Y004728D03*
X019840Y004733D03*
X019840Y004739D03*
X020382Y004745D03*
X020382Y004750D03*
X020382Y004756D03*
X020382Y004762D03*
X020382Y004767D03*
X020382Y004773D03*
X020382Y004779D03*
X020382Y004785D03*
X020382Y004790D03*
X020382Y004796D03*
X020382Y004625D03*
X020382Y004619D03*
X020382Y004614D03*
X020382Y004608D03*
X020382Y004602D03*
X020382Y004596D03*
X020382Y004591D03*
X020382Y004585D03*
X020382Y004579D03*
X020382Y004574D03*
X020382Y004568D03*
X020382Y004562D03*
X020382Y004557D03*
X020382Y004551D03*
X020382Y004545D03*
X020382Y004539D03*
X020382Y004534D03*
X020382Y004528D03*
X020382Y004522D03*
X020382Y004517D03*
X020382Y004511D03*
X020382Y004505D03*
X020382Y004500D03*
X020382Y004494D03*
X020382Y004488D03*
X020382Y004482D03*
X020382Y004477D03*
X020382Y004471D03*
X020382Y004465D03*
X020382Y004460D03*
X021550Y004688D03*
X021550Y004693D03*
X021550Y004699D03*
X021550Y004705D03*
X021550Y004710D03*
X021550Y004716D03*
X021550Y004722D03*
X021550Y004728D03*
X021550Y004733D03*
X021550Y004739D03*
X022120Y004733D03*
X022120Y004728D03*
X022120Y004722D03*
X022120Y004716D03*
X022120Y004710D03*
X022120Y004705D03*
X022120Y004699D03*
X022120Y004693D03*
X022120Y004688D03*
X022120Y004739D03*
X022120Y004625D03*
X022120Y004619D03*
X022120Y004614D03*
X022120Y004608D03*
X022120Y004602D03*
X022120Y004596D03*
X022120Y004591D03*
X022120Y004585D03*
X022120Y004579D03*
X022120Y004574D03*
X022690Y004574D03*
X022690Y004579D03*
X022690Y004585D03*
X022690Y004591D03*
X022690Y004596D03*
X022690Y004602D03*
X022690Y004608D03*
X022690Y004614D03*
X022690Y004619D03*
X022690Y004625D03*
X022690Y004631D03*
X022690Y004636D03*
X022690Y004642D03*
X022690Y004648D03*
X022690Y004653D03*
X022690Y004659D03*
X022690Y004665D03*
X022690Y004671D03*
X022690Y004676D03*
X022690Y004682D03*
X022690Y004745D03*
X022690Y004750D03*
X022690Y004756D03*
X022690Y004762D03*
X022690Y004767D03*
X022690Y004773D03*
X022690Y004779D03*
X022690Y004785D03*
X022690Y004790D03*
X022690Y004796D03*
X022975Y004739D03*
X022975Y004733D03*
X022975Y004728D03*
X022975Y004722D03*
X022975Y004716D03*
X022975Y004710D03*
X022975Y004705D03*
X022975Y004699D03*
X022975Y004693D03*
X022975Y004688D03*
X022975Y004682D03*
X022975Y004676D03*
X022975Y004671D03*
X022975Y004665D03*
X022975Y004659D03*
X022975Y004653D03*
X022975Y004648D03*
X022975Y004642D03*
X022975Y004636D03*
X022975Y004631D03*
X022975Y004625D03*
X022975Y004619D03*
X022975Y004614D03*
X022975Y004608D03*
X022975Y004602D03*
X022975Y004511D03*
X022975Y004505D03*
X022975Y004500D03*
X022975Y004494D03*
X022975Y004488D03*
X022975Y004482D03*
X022975Y004477D03*
X022975Y004471D03*
X022975Y004465D03*
X022975Y004460D03*
X023260Y004517D03*
X023260Y004522D03*
X023260Y004528D03*
X023260Y004534D03*
X023260Y004539D03*
X023260Y004545D03*
X023260Y004551D03*
X023260Y004557D03*
X023260Y004562D03*
X023260Y004568D03*
X023260Y004631D03*
X023260Y004636D03*
X023260Y004642D03*
X023260Y004648D03*
X023260Y004653D03*
X023260Y004659D03*
X023260Y004665D03*
X023260Y004671D03*
X023260Y004676D03*
X023260Y004682D03*
X023260Y004688D03*
X023260Y004693D03*
X023260Y004699D03*
X023260Y004705D03*
X023260Y004710D03*
X023260Y004716D03*
X023260Y004722D03*
X023260Y004728D03*
X023260Y004733D03*
X023260Y004739D03*
D17*
X023146Y004739D03*
X023146Y004733D03*
X023146Y004728D03*
X023146Y004722D03*
X023146Y004716D03*
X023146Y004710D03*
X023146Y004705D03*
X023146Y004699D03*
X023146Y004693D03*
X023146Y004688D03*
X023146Y004682D03*
X023146Y004676D03*
X023146Y004671D03*
X023146Y004665D03*
X023146Y004659D03*
X023146Y004653D03*
X023146Y004648D03*
X023146Y004642D03*
X023146Y004636D03*
X023146Y004631D03*
X023146Y004568D03*
X023146Y004562D03*
X023146Y004557D03*
X023146Y004551D03*
X023146Y004545D03*
X023146Y004539D03*
X023146Y004534D03*
X023146Y004528D03*
X023146Y004522D03*
X023146Y004517D03*
X022804Y004574D03*
X022804Y004579D03*
X022804Y004585D03*
X022804Y004591D03*
X022804Y004596D03*
X022804Y004602D03*
X022804Y004608D03*
X022804Y004614D03*
X022804Y004619D03*
X022804Y004625D03*
X022804Y004631D03*
X022804Y004636D03*
X022804Y004642D03*
X022804Y004648D03*
X022804Y004653D03*
X022804Y004659D03*
X022804Y004665D03*
X022804Y004671D03*
X022804Y004676D03*
X022804Y004682D03*
X022348Y004676D03*
X022348Y004671D03*
X022348Y004665D03*
X022348Y004659D03*
X022348Y004653D03*
X022348Y004648D03*
X022348Y004642D03*
X022348Y004636D03*
X022348Y004631D03*
X022348Y004682D03*
X022348Y004688D03*
X022348Y004693D03*
X022348Y004699D03*
X022348Y004705D03*
X022348Y004710D03*
X022348Y004716D03*
X022348Y004722D03*
X022348Y004728D03*
X022348Y004733D03*
X022348Y004739D03*
X022348Y004745D03*
X022348Y004750D03*
X022348Y004756D03*
X022348Y004762D03*
X022348Y004767D03*
X022348Y004773D03*
X022348Y004779D03*
X022348Y004785D03*
X022348Y004790D03*
X022348Y004796D03*
X022206Y004796D03*
X022206Y004790D03*
X022206Y004785D03*
X022206Y004779D03*
X022206Y004773D03*
X022206Y004767D03*
X022206Y004762D03*
X022206Y004756D03*
X022206Y004750D03*
X022206Y004745D03*
X022206Y004739D03*
X022206Y004733D03*
X022206Y004728D03*
X022206Y004722D03*
X022206Y004716D03*
X022206Y004710D03*
X022206Y004705D03*
X022206Y004699D03*
X022206Y004693D03*
X022206Y004688D03*
X022206Y004682D03*
X022206Y004676D03*
X022206Y004671D03*
X022206Y004665D03*
X022206Y004659D03*
X022206Y004653D03*
X022206Y004648D03*
X022206Y004642D03*
X022206Y004636D03*
X022206Y004631D03*
X022206Y004511D03*
X022206Y004505D03*
X022206Y004500D03*
X022206Y004494D03*
X022206Y004488D03*
X022206Y004482D03*
X022206Y004477D03*
X022206Y004471D03*
X022206Y004465D03*
X022206Y004460D03*
X022348Y004460D03*
X022348Y004465D03*
X022348Y004471D03*
X022348Y004477D03*
X022348Y004482D03*
X022348Y004488D03*
X022348Y004494D03*
X022348Y004500D03*
X022348Y004505D03*
X022348Y004511D03*
X022006Y004574D03*
X022006Y004579D03*
X022006Y004585D03*
X022006Y004591D03*
X022006Y004596D03*
X022006Y004602D03*
X022006Y004608D03*
X022006Y004614D03*
X022006Y004619D03*
X022006Y004625D03*
X021892Y004625D03*
X021892Y004619D03*
X021892Y004614D03*
X021892Y004608D03*
X021892Y004602D03*
X021892Y004596D03*
X021892Y004591D03*
X021892Y004585D03*
X021892Y004579D03*
X021892Y004574D03*
X021778Y004688D03*
X021778Y004693D03*
X021778Y004699D03*
X021778Y004705D03*
X021778Y004710D03*
X021778Y004716D03*
X021778Y004722D03*
X021778Y004728D03*
X021778Y004733D03*
X021778Y004739D03*
X021664Y004625D03*
X021664Y004619D03*
X021664Y004614D03*
X021664Y004608D03*
X021664Y004602D03*
X021664Y004596D03*
X021664Y004591D03*
X021664Y004585D03*
X021664Y004579D03*
X021664Y004574D03*
X021208Y004574D03*
X021208Y004579D03*
X021208Y004585D03*
X021208Y004591D03*
X021208Y004596D03*
X021208Y004602D03*
X021208Y004608D03*
X021208Y004614D03*
X021208Y004619D03*
X021208Y004625D03*
X021208Y004631D03*
X021208Y004636D03*
X021208Y004642D03*
X021208Y004648D03*
X021208Y004653D03*
X021208Y004659D03*
X021208Y004665D03*
X021208Y004671D03*
X021208Y004676D03*
X021208Y004682D03*
X021208Y004688D03*
X021208Y004693D03*
X021208Y004699D03*
X021208Y004705D03*
X021208Y004710D03*
X021208Y004716D03*
X021208Y004722D03*
X021208Y004728D03*
X021208Y004733D03*
X021208Y004739D03*
X021094Y004739D03*
X021094Y004733D03*
X021094Y004728D03*
X021094Y004722D03*
X021094Y004716D03*
X021094Y004710D03*
X021094Y004705D03*
X021094Y004699D03*
X021094Y004693D03*
X021094Y004688D03*
X021094Y004682D03*
X021094Y004676D03*
X021094Y004671D03*
X021094Y004665D03*
X021094Y004659D03*
X021094Y004653D03*
X021094Y004648D03*
X021094Y004642D03*
X021094Y004636D03*
X021094Y004631D03*
X021094Y004625D03*
X021094Y004619D03*
X021094Y004614D03*
X021094Y004608D03*
X021094Y004602D03*
X021094Y004596D03*
X021094Y004591D03*
X021094Y004585D03*
X021094Y004579D03*
X021094Y004574D03*
X020923Y004574D03*
X020923Y004579D03*
X020923Y004585D03*
X020923Y004591D03*
X020923Y004596D03*
X020923Y004602D03*
X020923Y004608D03*
X020923Y004614D03*
X020923Y004619D03*
X020923Y004625D03*
X020923Y004568D03*
X020923Y004562D03*
X020923Y004557D03*
X020923Y004551D03*
X020923Y004545D03*
X020923Y004539D03*
X020923Y004534D03*
X020923Y004528D03*
X020923Y004522D03*
X020923Y004517D03*
X020923Y004511D03*
X020923Y004505D03*
X020923Y004500D03*
X020923Y004494D03*
X020923Y004488D03*
X020923Y004482D03*
X020923Y004477D03*
X020923Y004471D03*
X020923Y004465D03*
X020923Y004460D03*
X020524Y004465D03*
X020524Y004460D03*
X020524Y004471D03*
X020524Y004477D03*
X020524Y004482D03*
X020524Y004488D03*
X020524Y004494D03*
X020524Y004500D03*
X020524Y004505D03*
X020524Y004511D03*
X020524Y004517D03*
X020524Y004522D03*
X020524Y004528D03*
X020524Y004534D03*
X020524Y004539D03*
X020524Y004545D03*
X020524Y004551D03*
X020524Y004557D03*
X020524Y004562D03*
X020524Y004568D03*
X020524Y004574D03*
X020524Y004579D03*
X020524Y004585D03*
X020524Y004591D03*
X020524Y004596D03*
X020524Y004602D03*
X020524Y004608D03*
X020524Y004614D03*
X020524Y004619D03*
X020524Y004625D03*
X020524Y004745D03*
X020524Y004750D03*
X020524Y004756D03*
X020524Y004762D03*
X020524Y004767D03*
X020524Y004773D03*
X020524Y004779D03*
X020524Y004785D03*
X020524Y004790D03*
X020524Y004796D03*
X020239Y004739D03*
X020239Y004733D03*
X020239Y004728D03*
X020239Y004722D03*
X020239Y004716D03*
X020239Y004710D03*
X020239Y004705D03*
X020239Y004699D03*
X020239Y004693D03*
X020239Y004688D03*
X020239Y004682D03*
X020239Y004676D03*
X020239Y004671D03*
X020239Y004665D03*
X020239Y004659D03*
X020239Y004653D03*
X020239Y004648D03*
X020239Y004642D03*
X020239Y004636D03*
X020239Y004631D03*
X020239Y004625D03*
X020239Y004619D03*
X020239Y004614D03*
X020239Y004608D03*
X020239Y004602D03*
X020239Y004511D03*
X020239Y004505D03*
X020239Y004500D03*
X020239Y004494D03*
X020239Y004488D03*
X020239Y004482D03*
X020239Y004477D03*
X020239Y004471D03*
X020239Y004465D03*
X020239Y004460D03*
X020068Y004574D03*
X020068Y004579D03*
X020068Y004585D03*
X020068Y004591D03*
X020068Y004596D03*
X020068Y004602D03*
X020068Y004608D03*
X020068Y004614D03*
X020068Y004619D03*
X020068Y004625D03*
X020068Y004631D03*
X020068Y004636D03*
X020068Y004642D03*
X020068Y004648D03*
X020068Y004653D03*
X020068Y004659D03*
X020068Y004665D03*
X020068Y004671D03*
X020068Y004676D03*
X020068Y004682D03*
X020068Y004688D03*
X020068Y004693D03*
X020068Y004699D03*
X020068Y004705D03*
X020068Y004710D03*
X020068Y004716D03*
X020068Y004722D03*
X020068Y004728D03*
X020068Y004733D03*
X020068Y004739D03*
X020068Y004745D03*
X020068Y004750D03*
X020068Y004756D03*
X020068Y004762D03*
X020068Y004767D03*
X020068Y004773D03*
X020068Y004779D03*
X020068Y004785D03*
X020068Y004790D03*
X020068Y004796D03*
X019954Y004625D03*
X019954Y004619D03*
X019954Y004614D03*
X019954Y004608D03*
X019954Y004602D03*
X019954Y004596D03*
X019954Y004591D03*
X019954Y004585D03*
X019954Y004579D03*
X019954Y004574D03*
X019726Y004574D03*
X019726Y004579D03*
X019726Y004585D03*
X019726Y004591D03*
X019726Y004596D03*
X019726Y004602D03*
X019726Y004608D03*
X019726Y004614D03*
X019726Y004619D03*
X019726Y004625D03*
X019612Y004625D03*
X019612Y004619D03*
X019612Y004614D03*
X019612Y004608D03*
X019612Y004602D03*
X019612Y004596D03*
X019612Y004591D03*
X019612Y004585D03*
X019612Y004579D03*
X019612Y004574D03*
X019498Y004688D03*
X019498Y004693D03*
X019498Y004699D03*
X019498Y004705D03*
X019498Y004710D03*
X019498Y004716D03*
X019498Y004722D03*
X019498Y004728D03*
X019498Y004733D03*
X019498Y004739D03*
D18*
X020239Y004745D03*
X020239Y004750D03*
X020239Y004756D03*
X020239Y004762D03*
X020239Y004767D03*
X020239Y004773D03*
X020239Y004779D03*
X020239Y004785D03*
X020239Y004790D03*
X020239Y004796D03*
X021151Y004790D03*
X021151Y004785D03*
X021151Y004779D03*
X021151Y004773D03*
X021151Y004796D03*
X021151Y004539D03*
X021151Y004534D03*
X021151Y004528D03*
X021151Y004522D03*
X021151Y004517D03*
D19*
X021151Y004545D03*
X021151Y004551D03*
X021151Y004557D03*
X021151Y004562D03*
X021151Y004568D03*
X021151Y004745D03*
X021151Y004750D03*
X021151Y004756D03*
X021151Y004762D03*
X021151Y004767D03*
X020011Y004568D03*
X020011Y004562D03*
X020011Y004557D03*
X020011Y004551D03*
X020011Y004545D03*
D20*
X020253Y004545D03*
X020253Y004551D03*
X020253Y004557D03*
X020253Y004562D03*
X020253Y004568D03*
X020253Y004574D03*
X020253Y004579D03*
X020253Y004585D03*
X020253Y004591D03*
X020253Y004596D03*
X020510Y004688D03*
X020510Y004693D03*
X020510Y004699D03*
X020510Y004705D03*
X020510Y004710D03*
X020510Y004716D03*
X020510Y004722D03*
X020510Y004728D03*
X020510Y004733D03*
X020510Y004739D03*
X021906Y003941D03*
X021906Y003935D03*
X021906Y003930D03*
X021906Y003924D03*
X021906Y003918D03*
X022220Y004517D03*
X022220Y004522D03*
X022220Y004528D03*
X022220Y004534D03*
X022220Y004539D03*
X022220Y004545D03*
X022220Y004551D03*
X022220Y004557D03*
X022220Y004562D03*
X022220Y004568D03*
X022334Y004568D03*
X022334Y004562D03*
X022334Y004557D03*
X022334Y004551D03*
X022334Y004545D03*
X022334Y004539D03*
X022334Y004534D03*
X022334Y004528D03*
X022334Y004522D03*
X022334Y004517D03*
X019911Y003770D03*
X019911Y003764D03*
X019911Y003759D03*
X019911Y003753D03*
X019911Y003747D03*
D21*
X020396Y004688D03*
X020396Y004693D03*
X020396Y004699D03*
X020396Y004705D03*
X020396Y004710D03*
X020396Y004716D03*
X020396Y004722D03*
X020396Y004728D03*
X020396Y004733D03*
X020396Y004739D03*
X022989Y004596D03*
X022989Y004591D03*
X022989Y004585D03*
X022989Y004579D03*
X022989Y004574D03*
X022989Y004568D03*
X022989Y004562D03*
X022989Y004557D03*
X022989Y004551D03*
X022989Y004545D03*
D22*
X022277Y004631D03*
X022277Y004636D03*
X022277Y004642D03*
X022277Y004648D03*
X022277Y004653D03*
X022277Y004659D03*
X022277Y004665D03*
X022277Y004671D03*
X022277Y004676D03*
X022277Y004682D03*
X021906Y003969D03*
X021906Y003964D03*
X021906Y003958D03*
X021906Y003952D03*
X021906Y003947D03*
X020453Y004574D03*
X020453Y004579D03*
X020453Y004585D03*
X020453Y004591D03*
X020453Y004596D03*
X020453Y004602D03*
X020453Y004608D03*
X020453Y004614D03*
X020453Y004619D03*
X020453Y004625D03*
X019911Y003741D03*
X019911Y003736D03*
X019911Y003730D03*
X019911Y003724D03*
X019911Y003719D03*
D23*
X019911Y003804D03*
X019911Y003810D03*
X019911Y003816D03*
X019911Y003821D03*
X019911Y003827D03*
X019569Y004203D03*
X019569Y004209D03*
X019569Y004215D03*
X019569Y004220D03*
X019569Y004226D03*
X020453Y004631D03*
X020453Y004636D03*
X020453Y004642D03*
X020453Y004648D03*
X020453Y004653D03*
X020453Y004659D03*
X020453Y004665D03*
X020453Y004671D03*
X020453Y004676D03*
X020453Y004682D03*
X020709Y004112D03*
X020709Y004106D03*
X020709Y004101D03*
X020709Y004095D03*
X020709Y004089D03*
X020709Y003599D03*
X020709Y003593D03*
X020709Y003588D03*
X020709Y003582D03*
X020709Y003576D03*
X021564Y003485D03*
X021564Y003479D03*
X021564Y003474D03*
X021564Y003468D03*
X021564Y003462D03*
X021906Y003861D03*
X021906Y003867D03*
X021906Y003873D03*
X021906Y003878D03*
X021906Y003884D03*
X022676Y003855D03*
X022676Y003850D03*
X022676Y003844D03*
X022676Y003838D03*
X022676Y003833D03*
X022676Y003599D03*
X022676Y003593D03*
X022676Y003588D03*
X022676Y003582D03*
X022676Y003576D03*
X022676Y004089D03*
X022676Y004095D03*
X022676Y004101D03*
X022676Y004106D03*
X022676Y004112D03*
D24*
X022277Y004574D03*
X022277Y004579D03*
X022277Y004585D03*
X022277Y004591D03*
X022277Y004596D03*
X022277Y004602D03*
X022277Y004608D03*
X022277Y004614D03*
X022277Y004619D03*
X022277Y004625D03*
X021137Y004112D03*
X021137Y004106D03*
X021137Y004101D03*
X021137Y004095D03*
X021137Y004089D03*
X021137Y003599D03*
X021137Y003593D03*
X021137Y003588D03*
X021137Y003582D03*
X021137Y003576D03*
D25*
X022989Y003485D03*
X022989Y003479D03*
X022989Y003474D03*
X022989Y003468D03*
X022989Y003462D03*
X022989Y004203D03*
X022989Y004209D03*
X022989Y004215D03*
X022989Y004220D03*
X022989Y004226D03*
D26*
X023146Y004112D03*
X023146Y004106D03*
X023146Y004101D03*
X023146Y004095D03*
X023146Y004089D03*
X023146Y004083D03*
X023146Y004078D03*
X023146Y004072D03*
X023146Y004066D03*
X023146Y004061D03*
X023146Y004055D03*
X023146Y004049D03*
X023146Y004044D03*
X023146Y004038D03*
X023146Y004032D03*
X023146Y004026D03*
X023146Y004021D03*
X023146Y004015D03*
X023146Y004009D03*
X023146Y004004D03*
X023146Y003998D03*
X023146Y003992D03*
X023146Y003987D03*
X023146Y003981D03*
X023146Y003975D03*
X023146Y003969D03*
X023146Y003964D03*
X023146Y003958D03*
X023146Y003952D03*
X023146Y003947D03*
X023146Y003941D03*
X023146Y003935D03*
X023146Y003930D03*
X023146Y003924D03*
X023146Y003918D03*
X023146Y003912D03*
X023146Y003907D03*
X023146Y003901D03*
X023146Y003895D03*
X023146Y003890D03*
X023146Y003884D03*
X023146Y003878D03*
X023146Y003873D03*
X023146Y003867D03*
X023146Y003861D03*
X023146Y003855D03*
X023146Y003850D03*
X023146Y003844D03*
X023146Y003838D03*
X023146Y003833D03*
X023146Y003713D03*
X023146Y003707D03*
X023146Y003702D03*
X023146Y003696D03*
X023146Y003690D03*
X023146Y003684D03*
X023146Y003679D03*
X023146Y003673D03*
X023146Y003667D03*
X023146Y003662D03*
X023146Y003656D03*
X023146Y003650D03*
X023146Y003645D03*
X023146Y003639D03*
X023146Y003633D03*
X023146Y003627D03*
X023146Y003622D03*
X023146Y003616D03*
X023146Y003610D03*
X023146Y003605D03*
X023146Y003599D03*
X023146Y003593D03*
X023146Y003588D03*
X023146Y003582D03*
X023146Y003576D03*
X022234Y003542D03*
X022234Y003536D03*
X022234Y003531D03*
X022234Y003525D03*
X022234Y003519D03*
X022234Y003804D03*
X022234Y003810D03*
X022234Y003816D03*
X022234Y003821D03*
X022234Y003827D03*
X022234Y003833D03*
X022234Y003838D03*
X022234Y003844D03*
X022234Y003850D03*
X022234Y003855D03*
X022234Y003861D03*
X022234Y003867D03*
X022234Y003873D03*
X022234Y003878D03*
X022234Y003884D03*
X022234Y003890D03*
X022234Y003895D03*
X022234Y003901D03*
X022234Y003907D03*
X022234Y003912D03*
X022234Y003918D03*
X022234Y003924D03*
X022234Y003930D03*
X022234Y003935D03*
X022234Y003941D03*
X022234Y003947D03*
X022234Y003952D03*
X022234Y003958D03*
X022234Y003964D03*
X022234Y003969D03*
X022234Y003975D03*
X022234Y003981D03*
X022234Y003987D03*
X022234Y003992D03*
X022234Y003998D03*
X022234Y004004D03*
X022234Y004009D03*
X022234Y004015D03*
X022234Y004021D03*
X022234Y004026D03*
X022234Y004032D03*
X022234Y004038D03*
X022234Y004044D03*
X022234Y004049D03*
X022234Y004055D03*
X022234Y004061D03*
X022234Y004066D03*
X022234Y004072D03*
X022234Y004078D03*
X022234Y004083D03*
X022234Y004089D03*
X022234Y004095D03*
X022234Y004101D03*
X022234Y004106D03*
X022234Y004112D03*
X022234Y004118D03*
X022234Y004123D03*
X022234Y004129D03*
X022234Y004135D03*
X022234Y004140D03*
X022234Y004146D03*
X022234Y004152D03*
X022234Y004158D03*
X022234Y004163D03*
X022234Y004169D03*
X022234Y004175D03*
X022234Y004180D03*
X022234Y004186D03*
X022234Y004192D03*
X022234Y004197D03*
X022234Y004203D03*
X022234Y004209D03*
X022234Y004215D03*
X022234Y004220D03*
X022234Y004226D03*
X021180Y004026D03*
X021180Y004021D03*
X021180Y004015D03*
X021180Y004009D03*
X021180Y004004D03*
X021180Y003998D03*
X021180Y003992D03*
X021180Y003987D03*
X021180Y003981D03*
X021180Y003975D03*
X021180Y003969D03*
X021180Y003964D03*
X021180Y003958D03*
X021180Y003952D03*
X021180Y003947D03*
X021180Y003941D03*
X021180Y003935D03*
X021180Y003930D03*
X021180Y003924D03*
X021180Y003918D03*
X021180Y003912D03*
X021180Y003907D03*
X021180Y003901D03*
X021180Y003895D03*
X021180Y003890D03*
X021180Y003884D03*
X021180Y003878D03*
X021180Y003873D03*
X021180Y003867D03*
X021180Y003861D03*
X021180Y003855D03*
X021180Y003850D03*
X021180Y003844D03*
X021180Y003838D03*
X021180Y003833D03*
X021180Y003827D03*
X021180Y003821D03*
X021180Y003816D03*
X021180Y003810D03*
X021180Y003804D03*
X021180Y003798D03*
X021180Y003793D03*
X021180Y003787D03*
X021180Y003781D03*
X021180Y003776D03*
X021180Y003770D03*
X021180Y003764D03*
X021180Y003759D03*
X021180Y003753D03*
X021180Y003747D03*
X021180Y003741D03*
X021180Y003736D03*
X021180Y003730D03*
X021180Y003724D03*
X021180Y003719D03*
X021180Y003713D03*
X021180Y003707D03*
X021180Y003702D03*
X021180Y003696D03*
X021180Y003690D03*
X021180Y003684D03*
X021180Y003679D03*
X021180Y003673D03*
X021180Y003667D03*
X021180Y003662D03*
X021607Y003570D03*
X021607Y003565D03*
X021607Y003559D03*
X021607Y003553D03*
X021607Y003548D03*
X020667Y003662D03*
X020667Y003667D03*
X020667Y003673D03*
X020667Y003679D03*
X020667Y003684D03*
X020667Y003690D03*
X020667Y003696D03*
X020667Y003702D03*
X020667Y003707D03*
X020667Y003713D03*
X020667Y003719D03*
X020667Y003724D03*
X020667Y003730D03*
X020667Y003736D03*
X020667Y003741D03*
X020667Y003747D03*
X020667Y003753D03*
X020667Y003759D03*
X020667Y003764D03*
X020667Y003770D03*
X020667Y003776D03*
X020667Y003781D03*
X020667Y003787D03*
X020667Y003793D03*
X020667Y003798D03*
X020667Y003804D03*
X020667Y003810D03*
X020667Y003816D03*
X020667Y003821D03*
X020667Y003827D03*
X020667Y003833D03*
X020667Y003838D03*
X020667Y003844D03*
X020667Y003850D03*
X020667Y003855D03*
X020667Y003861D03*
X020667Y003867D03*
X020667Y003873D03*
X020667Y003878D03*
X020667Y003884D03*
X020667Y003890D03*
X020667Y003895D03*
X020667Y003901D03*
X020667Y003907D03*
X020667Y003912D03*
X020667Y003918D03*
X020667Y003924D03*
X020667Y003930D03*
X020667Y003935D03*
X020667Y003941D03*
X020667Y003947D03*
X020667Y003952D03*
X020667Y003958D03*
X020667Y003964D03*
X020667Y003969D03*
X020667Y003975D03*
X020667Y003981D03*
X020667Y003987D03*
X020667Y003992D03*
X020667Y003998D03*
X020667Y004004D03*
X020667Y004009D03*
X020667Y004015D03*
X020667Y004021D03*
X020667Y004026D03*
X020239Y004146D03*
X020239Y004152D03*
X020239Y004158D03*
X020239Y004163D03*
X020239Y004169D03*
X020239Y003884D03*
X020239Y003878D03*
X020239Y003873D03*
X020239Y003867D03*
X020239Y003861D03*
X020239Y003855D03*
X020239Y003850D03*
X020239Y003844D03*
X020239Y003838D03*
X020239Y003833D03*
X020239Y003827D03*
X020239Y003821D03*
X020239Y003816D03*
X020239Y003810D03*
X020239Y003804D03*
X020239Y003798D03*
X020239Y003793D03*
X020239Y003787D03*
X020239Y003781D03*
X020239Y003776D03*
X020239Y003770D03*
X020239Y003764D03*
X020239Y003759D03*
X020239Y003753D03*
X020239Y003747D03*
X020239Y003741D03*
X020239Y003736D03*
X020239Y003730D03*
X020239Y003724D03*
X020239Y003719D03*
X020239Y003713D03*
X020239Y003707D03*
X020239Y003702D03*
X020239Y003696D03*
X020239Y003690D03*
X020239Y003684D03*
X020239Y003679D03*
X020239Y003673D03*
X020239Y003667D03*
X020239Y003662D03*
X020239Y003656D03*
X020239Y003650D03*
X020239Y003645D03*
X020239Y003639D03*
X020239Y003633D03*
X020239Y003627D03*
X020239Y003622D03*
X020239Y003616D03*
X020239Y003610D03*
X020239Y003605D03*
X020239Y003599D03*
X020239Y003593D03*
X020239Y003588D03*
X020239Y003582D03*
X020239Y003576D03*
X020239Y003570D03*
X020239Y003565D03*
X020239Y003559D03*
X020239Y003553D03*
X020239Y003548D03*
X020239Y003542D03*
X020239Y003536D03*
X020239Y003531D03*
X020239Y003525D03*
X020239Y003519D03*
X020239Y003513D03*
X020239Y003508D03*
X020239Y003502D03*
X020239Y003496D03*
X020239Y003491D03*
X020239Y003485D03*
X020239Y003479D03*
X020239Y003474D03*
X020239Y003468D03*
X020239Y003462D03*
X019612Y004118D03*
X019612Y004123D03*
X019612Y004129D03*
X019612Y004135D03*
X019612Y004140D03*
D27*
X019598Y004146D03*
X019598Y004152D03*
X019598Y004158D03*
X019598Y004163D03*
X019598Y004169D03*
X019598Y003884D03*
X019598Y003878D03*
X019598Y003873D03*
X019598Y003867D03*
X019598Y003861D03*
X019598Y003855D03*
X019598Y003850D03*
X019598Y003844D03*
X019598Y003838D03*
X019598Y003833D03*
X019598Y003827D03*
X019598Y003821D03*
X019598Y003816D03*
X019598Y003810D03*
X019598Y003804D03*
X019598Y003798D03*
X019598Y003793D03*
X019598Y003787D03*
X019598Y003781D03*
X019598Y003776D03*
X019598Y003770D03*
X019598Y003764D03*
X019598Y003759D03*
X019598Y003753D03*
X019598Y003747D03*
X019598Y003741D03*
X019598Y003736D03*
X019598Y003730D03*
X019598Y003724D03*
X019598Y003719D03*
X019598Y003713D03*
X019598Y003707D03*
X019598Y003702D03*
X019598Y003696D03*
X019598Y003690D03*
X019598Y003684D03*
X019598Y003679D03*
X019598Y003673D03*
X019598Y003667D03*
X019598Y003662D03*
X019598Y003656D03*
X019598Y003650D03*
X019598Y003645D03*
X019598Y003639D03*
X019598Y003633D03*
X019598Y003627D03*
X019598Y003622D03*
X019598Y003616D03*
X019598Y003610D03*
X019598Y003605D03*
X019598Y003599D03*
X019598Y003593D03*
X019598Y003588D03*
X019598Y003582D03*
X019598Y003576D03*
X019598Y003570D03*
X019598Y003565D03*
X019598Y003559D03*
X019598Y003553D03*
X019598Y003548D03*
X019598Y003542D03*
X019598Y003536D03*
X019598Y003531D03*
X019598Y003525D03*
X019598Y003519D03*
X019598Y003513D03*
X019598Y003508D03*
X019598Y003502D03*
X019598Y003496D03*
X019598Y003491D03*
X019598Y003485D03*
X019598Y003479D03*
X019598Y003474D03*
X019598Y003468D03*
X019598Y003462D03*
X019911Y003833D03*
X019911Y003838D03*
X019911Y003844D03*
X019911Y003850D03*
X019911Y003855D03*
X020681Y004032D03*
X020681Y004038D03*
X020681Y004044D03*
X020681Y004049D03*
X020681Y004055D03*
X021165Y004049D03*
X021165Y004044D03*
X021165Y004038D03*
X021165Y004032D03*
X021165Y004055D03*
X021593Y004049D03*
X021593Y004044D03*
X021593Y004038D03*
X021593Y004032D03*
X021593Y004026D03*
X021593Y004021D03*
X021593Y004015D03*
X021593Y004009D03*
X021593Y004004D03*
X021593Y003998D03*
X021593Y003992D03*
X021593Y003987D03*
X021593Y003981D03*
X021593Y003975D03*
X021593Y003969D03*
X021593Y003964D03*
X021593Y003958D03*
X021593Y003952D03*
X021593Y003947D03*
X021593Y003941D03*
X021593Y003935D03*
X021593Y003930D03*
X021593Y003924D03*
X021593Y003918D03*
X021593Y003912D03*
X021593Y003907D03*
X021593Y003901D03*
X021593Y003895D03*
X021593Y003890D03*
X021593Y003884D03*
X021593Y003878D03*
X021593Y003873D03*
X021593Y003867D03*
X021593Y003861D03*
X021593Y003855D03*
X021593Y003850D03*
X021593Y003844D03*
X021593Y003838D03*
X021593Y003833D03*
X021593Y003827D03*
X021593Y003821D03*
X021593Y003816D03*
X021593Y003810D03*
X021593Y003804D03*
X021906Y003833D03*
X021906Y003838D03*
X021906Y003844D03*
X021906Y003850D03*
X021906Y003855D03*
X021593Y004055D03*
X021593Y004061D03*
X021593Y004066D03*
X021593Y004072D03*
X021593Y004078D03*
X021593Y004083D03*
X021593Y004089D03*
X021593Y004095D03*
X021593Y004101D03*
X021593Y004106D03*
X021593Y004112D03*
X021593Y004118D03*
X021593Y004123D03*
X021593Y004129D03*
X021593Y004135D03*
X021593Y004140D03*
X021593Y004146D03*
X021593Y004152D03*
X021593Y004158D03*
X021593Y004163D03*
X021593Y004169D03*
X021593Y004175D03*
X021593Y004180D03*
X021593Y004186D03*
X021593Y004192D03*
X021593Y004197D03*
X021593Y004203D03*
X021593Y004209D03*
X021593Y004215D03*
X021593Y004220D03*
X021593Y004226D03*
X021165Y003656D03*
X021165Y003650D03*
X021165Y003645D03*
X021165Y003639D03*
X021165Y003633D03*
X021593Y003542D03*
X021593Y003536D03*
X021593Y003531D03*
X021593Y003525D03*
X021593Y003519D03*
X020681Y003633D03*
X020681Y003639D03*
X020681Y003645D03*
X020681Y003650D03*
X020681Y003656D03*
X022647Y003645D03*
X022647Y003650D03*
X022647Y003656D03*
X022647Y003662D03*
X022647Y003667D03*
X022647Y003673D03*
X022647Y003679D03*
X022647Y003684D03*
X022647Y003639D03*
X022647Y003633D03*
X022647Y003890D03*
X022647Y003895D03*
X022647Y003901D03*
X022647Y003907D03*
X022647Y003912D03*
X022647Y003918D03*
X022647Y003924D03*
X022647Y003930D03*
X022647Y003935D03*
X022647Y003941D03*
X022647Y003947D03*
X022647Y003952D03*
X022647Y003958D03*
X022647Y003964D03*
X022647Y003969D03*
X022647Y003975D03*
X022647Y003981D03*
X022647Y003987D03*
X022647Y003992D03*
X022647Y003998D03*
X022647Y004004D03*
X022647Y004009D03*
X022647Y004015D03*
X022647Y004021D03*
X022647Y004026D03*
X022647Y004032D03*
X022647Y004038D03*
X022647Y004044D03*
X022647Y004049D03*
X022647Y004055D03*
D28*
X022177Y003656D03*
X022177Y003650D03*
X022177Y003645D03*
X022177Y003639D03*
X022177Y003633D03*
X021664Y003662D03*
X021664Y003667D03*
X021664Y003673D03*
X021664Y003679D03*
X021664Y003684D03*
X020923Y003485D03*
X020923Y003479D03*
X020923Y003474D03*
X020923Y003468D03*
X020923Y003462D03*
X020182Y004032D03*
X020182Y004038D03*
X020182Y004044D03*
X020182Y004049D03*
X020182Y004055D03*
X019669Y004026D03*
X019669Y004021D03*
X019669Y004015D03*
X019669Y004009D03*
X019669Y004004D03*
X020923Y004203D03*
X020923Y004209D03*
X020923Y004215D03*
X020923Y004220D03*
X020923Y004226D03*
D29*
X020268Y004220D03*
X020268Y004215D03*
X020268Y004209D03*
X020268Y004203D03*
X020268Y004226D03*
X022263Y003485D03*
X022263Y003479D03*
X022263Y003474D03*
X022263Y003468D03*
X022263Y003462D03*
D30*
X022975Y003491D03*
X022975Y003496D03*
X022975Y003502D03*
X022975Y003508D03*
X022975Y003513D03*
X022975Y004175D03*
X022975Y004180D03*
X022975Y004186D03*
X022975Y004192D03*
X022975Y004197D03*
D31*
X022149Y003713D03*
X022149Y003707D03*
X022149Y003702D03*
X022149Y003696D03*
X022149Y003690D03*
X020923Y003513D03*
X020923Y003508D03*
X020923Y003502D03*
X020923Y003496D03*
X020923Y003491D03*
X020154Y003975D03*
X020154Y003981D03*
X020154Y003987D03*
X020154Y003992D03*
X020154Y003998D03*
X020923Y004175D03*
X020923Y004180D03*
X020923Y004186D03*
X020923Y004192D03*
X020923Y004197D03*
D32*
X020253Y004192D03*
X020253Y004197D03*
X020253Y004186D03*
X020253Y004180D03*
X020253Y004175D03*
X022248Y003513D03*
X022248Y003508D03*
X022248Y003502D03*
X022248Y003496D03*
X022248Y003491D03*
D33*
X022662Y003605D03*
X022662Y003610D03*
X022662Y003616D03*
X022662Y003622D03*
X022662Y003627D03*
X022662Y003690D03*
X022662Y003696D03*
X022662Y003702D03*
X022662Y003707D03*
X022662Y003713D03*
X022662Y003861D03*
X022662Y003867D03*
X022662Y003873D03*
X022662Y003878D03*
X022662Y003884D03*
X022662Y004061D03*
X022662Y004066D03*
X022662Y004072D03*
X022662Y004078D03*
X022662Y004083D03*
X021579Y003513D03*
X021579Y003508D03*
X021579Y003502D03*
X021579Y003496D03*
X021579Y003491D03*
X021151Y003605D03*
X021151Y003610D03*
X021151Y003616D03*
X021151Y003622D03*
X021151Y003627D03*
X020695Y003622D03*
X020695Y003627D03*
X020695Y003616D03*
X020695Y003610D03*
X020695Y003605D03*
X020695Y004061D03*
X020695Y004066D03*
X020695Y004072D03*
X020695Y004078D03*
X020695Y004083D03*
X021151Y004078D03*
X021151Y004083D03*
X021151Y004072D03*
X021151Y004066D03*
X021151Y004061D03*
X019584Y004175D03*
X019584Y004180D03*
X019584Y004186D03*
X019584Y004192D03*
X019584Y004197D03*
D34*
X022961Y004169D03*
X022961Y004163D03*
X022961Y004158D03*
X022961Y004152D03*
X022961Y004146D03*
X022961Y003798D03*
X022961Y003793D03*
X022961Y003787D03*
X022961Y003781D03*
X022961Y003776D03*
X022961Y003542D03*
X022961Y003536D03*
X022961Y003531D03*
X022961Y003525D03*
X022961Y003519D03*
D35*
X020923Y003519D03*
X020923Y003525D03*
X020923Y003531D03*
X020923Y003536D03*
X020923Y003542D03*
X020923Y004146D03*
X020923Y004152D03*
X020923Y004158D03*
X020923Y004163D03*
X020923Y004169D03*
D36*
X022947Y004140D03*
X022947Y004135D03*
X022947Y004129D03*
X022947Y004123D03*
X022947Y004118D03*
X022947Y003827D03*
X022947Y003821D03*
X022947Y003816D03*
X022947Y003810D03*
X022947Y003804D03*
X022947Y003770D03*
X022947Y003764D03*
X022947Y003759D03*
X022947Y003753D03*
X022947Y003747D03*
X022947Y003570D03*
X022947Y003565D03*
X022947Y003559D03*
X022947Y003553D03*
X022947Y003548D03*
D37*
X020923Y003548D03*
X020923Y003553D03*
X020923Y003559D03*
X020923Y003565D03*
X020923Y003570D03*
X020923Y004118D03*
X020923Y004123D03*
X020923Y004129D03*
X020923Y004135D03*
X020923Y004140D03*
D38*
X020225Y004135D03*
X020225Y004140D03*
X020225Y004129D03*
X020225Y004123D03*
X020225Y004118D03*
X019911Y003884D03*
X019911Y003878D03*
X019911Y003873D03*
X019911Y003867D03*
X019911Y003861D03*
X019626Y004089D03*
X019626Y004095D03*
X019626Y004101D03*
X019626Y004106D03*
X019626Y004112D03*
X021621Y003599D03*
X021621Y003593D03*
X021621Y003588D03*
X021621Y003582D03*
X021621Y003576D03*
X021906Y003804D03*
X021906Y003810D03*
X021906Y003816D03*
X021906Y003821D03*
X021906Y003827D03*
X022220Y003570D03*
X022220Y003565D03*
X022220Y003559D03*
X022220Y003553D03*
X022220Y003548D03*
D39*
X022206Y003576D03*
X022206Y003582D03*
X022206Y003588D03*
X022206Y003593D03*
X022206Y003599D03*
X021636Y003605D03*
X021636Y003610D03*
X021636Y003616D03*
X021636Y003622D03*
X021636Y003627D03*
X020211Y004089D03*
X020211Y004095D03*
X020211Y004101D03*
X020211Y004106D03*
X020211Y004112D03*
X019641Y004083D03*
X019641Y004078D03*
X019641Y004072D03*
X019641Y004066D03*
X019641Y004061D03*
D40*
X019655Y004055D03*
X019655Y004049D03*
X019655Y004044D03*
X019655Y004038D03*
X019655Y004032D03*
X020196Y004061D03*
X020196Y004066D03*
X020196Y004072D03*
X020196Y004078D03*
X020196Y004083D03*
X021650Y003656D03*
X021650Y003650D03*
X021650Y003645D03*
X021650Y003639D03*
X021650Y003633D03*
X022191Y003627D03*
X022191Y003622D03*
X022191Y003616D03*
X022191Y003610D03*
X022191Y003605D03*
D41*
X022163Y003662D03*
X022163Y003667D03*
X022163Y003673D03*
X022163Y003679D03*
X022163Y003684D03*
X021678Y003690D03*
X021678Y003696D03*
X021678Y003702D03*
X021678Y003707D03*
X021678Y003713D03*
X020168Y004004D03*
X020168Y004009D03*
X020168Y004015D03*
X020168Y004021D03*
X020168Y004026D03*
X019683Y003998D03*
X019683Y003992D03*
X019683Y003987D03*
X019683Y003981D03*
X019683Y003975D03*
D42*
X019926Y003969D03*
X019926Y003964D03*
X019926Y003958D03*
X019926Y003952D03*
X019926Y003947D03*
X019926Y003941D03*
X019926Y003935D03*
X019926Y003930D03*
X019926Y003924D03*
X019926Y003918D03*
X019926Y003912D03*
X019926Y003907D03*
X019926Y003901D03*
X019926Y003895D03*
X019926Y003890D03*
X021921Y003798D03*
X021921Y003793D03*
X021921Y003787D03*
X021921Y003781D03*
X021921Y003776D03*
X021921Y003770D03*
X021921Y003764D03*
X021921Y003759D03*
X021921Y003753D03*
X021921Y003747D03*
X021921Y003741D03*
X021921Y003736D03*
X021921Y003730D03*
X021921Y003724D03*
X021921Y003719D03*
D43*
X022932Y003719D03*
X022932Y003724D03*
X022932Y003730D03*
X022932Y003736D03*
X022932Y003741D03*
D44*
X020360Y010517D02*
X020393Y010550D01*
X020393Y010684D01*
X020360Y010717D01*
X020293Y010717D01*
X020260Y010684D01*
X020172Y010684D02*
X020139Y010717D01*
X020072Y010717D01*
X020039Y010684D01*
X020039Y010550D01*
X020072Y010517D01*
X020139Y010517D01*
X020172Y010550D01*
X020172Y010584D01*
X020139Y010617D01*
X020039Y010617D01*
X020260Y010550D02*
X020293Y010517D01*
X020360Y010517D01*
D45*
X021843Y010947D02*
X021843Y010970D01*
X021936Y011064D01*
X021936Y011087D01*
X021990Y011064D02*
X022013Y011087D01*
X022060Y011087D01*
X022083Y011064D01*
X022083Y010970D01*
X022060Y010947D01*
X022013Y010947D01*
X021990Y010970D01*
X021936Y010947D02*
X021843Y010947D01*
X021043Y008927D02*
X021043Y008787D01*
X020997Y008834D01*
X020950Y008787D01*
X020950Y008927D01*
X020896Y008927D02*
X020896Y008834D01*
X020849Y008787D01*
X020803Y008834D01*
X020803Y008927D01*
X020749Y008927D02*
X020655Y008787D01*
X020601Y008834D02*
X020555Y008787D01*
X020555Y008927D01*
X020601Y008927D02*
X020508Y008927D01*
X020454Y008904D02*
X020431Y008927D01*
X020384Y008927D01*
X020361Y008904D01*
X020361Y008880D01*
X020384Y008857D01*
X020454Y008857D01*
X020454Y008904D01*
X020454Y008857D02*
X020407Y008810D01*
X020361Y008787D01*
X020307Y008787D02*
X020213Y008787D01*
X020213Y008810D01*
X020307Y008904D01*
X020307Y008927D01*
X020159Y008904D02*
X020136Y008927D01*
X020089Y008927D01*
X020066Y008904D01*
X020066Y008857D01*
X020089Y008834D01*
X020113Y008834D01*
X020159Y008857D01*
X020159Y008787D01*
X020066Y008787D01*
X020655Y008927D02*
X020749Y008787D01*
X020803Y008857D02*
X020896Y008857D01*
X022483Y008544D02*
X022483Y008520D01*
X022506Y008497D01*
X022576Y008497D01*
X022576Y008544D01*
X022553Y008567D01*
X022506Y008567D01*
X022483Y008544D01*
X022529Y008450D02*
X022576Y008497D01*
X022529Y008450D02*
X022483Y008427D01*
X022630Y008450D02*
X022653Y008427D01*
X022700Y008427D01*
X022723Y008450D01*
X022723Y008544D01*
X022700Y008567D01*
X022653Y008567D01*
X022630Y008544D01*
X016643Y004604D02*
X016643Y004558D01*
X016620Y004534D01*
X016573Y004534D02*
X016550Y004581D01*
X016550Y004604D01*
X016573Y004628D01*
X016620Y004628D01*
X016643Y004604D01*
X016573Y004534D02*
X016503Y004534D01*
X016503Y004628D01*
X016526Y004480D02*
X016503Y004457D01*
X016503Y004410D01*
X016526Y004387D01*
X016620Y004387D01*
X016643Y004410D01*
X016643Y004457D01*
X016620Y004480D01*
X014843Y004144D02*
X014843Y004050D01*
X014820Y004027D01*
X014773Y004027D01*
X014750Y004050D01*
X014696Y004097D02*
X014603Y004097D01*
X014626Y004167D02*
X014626Y004027D01*
X014696Y004097D01*
X014750Y004144D02*
X014773Y004167D01*
X014820Y004167D01*
X014843Y004144D01*
X016046Y002468D02*
X016023Y002444D01*
X016023Y002398D01*
X016046Y002374D01*
X016046Y002320D02*
X016023Y002297D01*
X016023Y002250D01*
X016046Y002227D01*
X016140Y002227D01*
X016163Y002250D01*
X016163Y002297D01*
X016140Y002320D01*
X016140Y002374D02*
X016163Y002398D01*
X016163Y002444D01*
X016140Y002468D01*
X016117Y002468D01*
X016093Y002444D01*
X016093Y002421D01*
X016093Y002444D02*
X016070Y002468D01*
X016046Y002468D01*
D46*
X020102Y005169D02*
X020102Y007649D01*
X022583Y007649D01*
X022583Y005169D01*
X020102Y005169D01*
X021079Y006282D02*
X021079Y006552D01*
X020899Y006552D01*
X021193Y006552D02*
X021374Y006552D01*
X021374Y006282D01*
X021193Y006282D01*
X021284Y006417D02*
X021374Y006417D01*
X020751Y006409D02*
X020753Y006457D01*
X020759Y006505D01*
X020769Y006552D01*
X020782Y006598D01*
X020800Y006643D01*
X020820Y006687D01*
X020845Y006729D01*
X020873Y006768D01*
X020903Y006805D01*
X020937Y006839D01*
X020974Y006871D01*
X021012Y006900D01*
X021053Y006925D01*
X021096Y006947D01*
X021141Y006965D01*
X021187Y006979D01*
X021234Y006990D01*
X021282Y006997D01*
X021330Y007000D01*
X021378Y006999D01*
X021426Y006994D01*
X021474Y006985D01*
X021520Y006973D01*
X021565Y006956D01*
X021609Y006936D01*
X021651Y006913D01*
X021691Y006886D01*
X021729Y006856D01*
X021764Y006823D01*
X021796Y006787D01*
X021826Y006749D01*
X021852Y006708D01*
X021874Y006665D01*
X021894Y006621D01*
X021909Y006576D01*
X021921Y006529D01*
X021929Y006481D01*
X021933Y006433D01*
X021933Y006385D01*
X021929Y006337D01*
X021921Y006289D01*
X021909Y006242D01*
X021894Y006197D01*
X021874Y006153D01*
X021852Y006110D01*
X021826Y006069D01*
X021796Y006031D01*
X021764Y005995D01*
X021729Y005962D01*
X021691Y005932D01*
X021651Y005905D01*
X021609Y005882D01*
X021565Y005862D01*
X021520Y005845D01*
X021474Y005833D01*
X021426Y005824D01*
X021378Y005819D01*
X021330Y005818D01*
X021282Y005821D01*
X021234Y005828D01*
X021187Y005839D01*
X021141Y005853D01*
X021096Y005871D01*
X021053Y005893D01*
X021012Y005918D01*
X020974Y005947D01*
X020937Y005979D01*
X020903Y006013D01*
X020873Y006050D01*
X020845Y006089D01*
X020820Y006131D01*
X020800Y006175D01*
X020782Y006220D01*
X020769Y006266D01*
X020759Y006313D01*
X020753Y006361D01*
X020751Y006409D01*
X021488Y006462D02*
X021488Y006507D01*
X021533Y006552D01*
X021623Y006552D01*
X021668Y006507D01*
X021623Y006417D02*
X021533Y006417D01*
X021488Y006462D01*
X021488Y006327D02*
X021533Y006282D01*
X021623Y006282D01*
X021668Y006327D01*
X021668Y006372D01*
X021623Y006417D01*
X020614Y010412D02*
X019814Y010412D01*
X007696Y009224D02*
X007696Y006743D01*
X005215Y006743D01*
X005215Y009224D01*
X007696Y009224D01*
X006988Y008112D02*
X006988Y007842D01*
X006808Y008112D01*
X006808Y007842D01*
X006694Y007842D02*
X006694Y008112D01*
X006513Y008112D01*
X006399Y008112D02*
X006219Y007842D01*
X006104Y007842D02*
X005924Y007842D01*
X006014Y007842D02*
X006014Y008112D01*
X006219Y008112D02*
X006399Y007842D01*
X006513Y007842D02*
X006694Y007842D01*
X006694Y007977D02*
X006604Y007977D01*
X005864Y007984D02*
X005866Y008032D01*
X005872Y008080D01*
X005882Y008127D01*
X005895Y008173D01*
X005913Y008218D01*
X005933Y008262D01*
X005958Y008304D01*
X005986Y008343D01*
X006016Y008380D01*
X006050Y008414D01*
X006087Y008446D01*
X006125Y008475D01*
X006166Y008500D01*
X006209Y008522D01*
X006254Y008540D01*
X006300Y008554D01*
X006347Y008565D01*
X006395Y008572D01*
X006443Y008575D01*
X006491Y008574D01*
X006539Y008569D01*
X006587Y008560D01*
X006633Y008548D01*
X006678Y008531D01*
X006722Y008511D01*
X006764Y008488D01*
X006804Y008461D01*
X006842Y008431D01*
X006877Y008398D01*
X006909Y008362D01*
X006939Y008324D01*
X006965Y008283D01*
X006987Y008240D01*
X007007Y008196D01*
X007022Y008151D01*
X007034Y008104D01*
X007042Y008056D01*
X007046Y008008D01*
X007046Y007960D01*
X007042Y007912D01*
X007034Y007864D01*
X007022Y007817D01*
X007007Y007772D01*
X006987Y007728D01*
X006965Y007685D01*
X006939Y007644D01*
X006909Y007606D01*
X006877Y007570D01*
X006842Y007537D01*
X006804Y007507D01*
X006764Y007480D01*
X006722Y007457D01*
X006678Y007437D01*
X006633Y007420D01*
X006587Y007408D01*
X006539Y007399D01*
X006491Y007394D01*
X006443Y007393D01*
X006395Y007396D01*
X006347Y007403D01*
X006300Y007414D01*
X006254Y007428D01*
X006209Y007446D01*
X006166Y007468D01*
X006125Y007493D01*
X006087Y007522D01*
X006050Y007554D01*
X006016Y007588D01*
X005986Y007625D01*
X005958Y007664D01*
X005933Y007706D01*
X005913Y007750D01*
X005895Y007795D01*
X005882Y007841D01*
X005872Y007888D01*
X005866Y007936D01*
X005864Y007984D01*
X005215Y005680D02*
X005215Y003200D01*
X007696Y003200D01*
X007696Y005680D01*
X005215Y005680D01*
X006014Y004592D02*
X005924Y004502D01*
X005924Y004322D01*
X006104Y004322D02*
X006104Y004502D01*
X006014Y004592D01*
X006219Y004592D02*
X006399Y004592D01*
X006399Y004322D01*
X006219Y004322D01*
X006309Y004457D02*
X006399Y004457D01*
X005864Y004440D02*
X005866Y004488D01*
X005872Y004536D01*
X005882Y004583D01*
X005895Y004629D01*
X005913Y004674D01*
X005933Y004718D01*
X005958Y004760D01*
X005986Y004799D01*
X006016Y004836D01*
X006050Y004870D01*
X006087Y004902D01*
X006125Y004931D01*
X006166Y004956D01*
X006209Y004978D01*
X006254Y004996D01*
X006300Y005010D01*
X006347Y005021D01*
X006395Y005028D01*
X006443Y005031D01*
X006491Y005030D01*
X006539Y005025D01*
X006587Y005016D01*
X006633Y005004D01*
X006678Y004987D01*
X006722Y004967D01*
X006764Y004944D01*
X006804Y004917D01*
X006842Y004887D01*
X006877Y004854D01*
X006909Y004818D01*
X006939Y004780D01*
X006965Y004739D01*
X006987Y004696D01*
X007007Y004652D01*
X007022Y004607D01*
X007034Y004560D01*
X007042Y004512D01*
X007046Y004464D01*
X007046Y004416D01*
X007042Y004368D01*
X007034Y004320D01*
X007022Y004273D01*
X007007Y004228D01*
X006987Y004184D01*
X006965Y004141D01*
X006939Y004100D01*
X006909Y004062D01*
X006877Y004026D01*
X006842Y003993D01*
X006804Y003963D01*
X006764Y003936D01*
X006722Y003913D01*
X006678Y003893D01*
X006633Y003876D01*
X006587Y003864D01*
X006539Y003855D01*
X006491Y003850D01*
X006443Y003849D01*
X006395Y003852D01*
X006347Y003859D01*
X006300Y003870D01*
X006254Y003884D01*
X006209Y003902D01*
X006166Y003924D01*
X006125Y003949D01*
X006087Y003978D01*
X006050Y004010D01*
X006016Y004044D01*
X005986Y004081D01*
X005958Y004120D01*
X005933Y004162D01*
X005913Y004206D01*
X005895Y004251D01*
X005882Y004297D01*
X005872Y004344D01*
X005866Y004392D01*
X005864Y004440D01*
X006513Y004457D02*
X006559Y004502D01*
X006694Y004502D01*
X006694Y004592D02*
X006694Y004322D01*
X006559Y004322D01*
X006513Y004367D01*
X006513Y004457D01*
X006604Y004502D02*
X006513Y004592D01*
X006808Y004457D02*
X006853Y004502D01*
X006988Y004502D01*
X006988Y004592D02*
X006988Y004322D01*
X006853Y004322D01*
X006808Y004367D01*
X006808Y004457D01*
D47*
X009676Y001777D02*
X009756Y001857D01*
X009836Y001857D01*
X009916Y001697D02*
X009676Y001697D01*
X009676Y001777D02*
X009676Y001377D01*
X009916Y001377D01*
X009996Y001457D01*
X009996Y001617D01*
X009916Y001697D01*
X010191Y001697D02*
X010432Y001697D01*
X010512Y001617D01*
X010512Y001457D01*
X010432Y001377D01*
X010191Y001377D01*
X010191Y001777D01*
X010271Y001857D01*
X010351Y001857D01*
X010707Y001617D02*
X010707Y001457D01*
X010787Y001377D01*
X010947Y001377D01*
X011027Y001457D01*
X011027Y001617D01*
X010947Y001697D01*
X010787Y001697D01*
X010707Y001617D01*
X011223Y001697D02*
X011543Y001697D01*
X011543Y001217D01*
X012254Y001377D02*
X012494Y001377D01*
X012574Y001457D01*
X012494Y001537D01*
X012334Y001537D01*
X012254Y001617D01*
X012334Y001697D01*
X012574Y001697D01*
X012770Y001697D02*
X013010Y001697D01*
X013090Y001617D01*
X013090Y001457D01*
X013010Y001377D01*
X012770Y001377D01*
X012770Y001217D02*
X012770Y001697D01*
X013285Y001617D02*
X013285Y001457D01*
X013365Y001377D01*
X013525Y001377D01*
X013605Y001457D01*
X013605Y001617D01*
X013525Y001697D01*
X013365Y001697D01*
X013285Y001617D01*
X013801Y001617D02*
X013801Y001457D01*
X013881Y001377D01*
X014041Y001377D01*
X014121Y001457D01*
X014121Y001617D01*
X014041Y001697D01*
X013881Y001697D01*
X013801Y001617D01*
X014316Y001617D02*
X014316Y001377D01*
X014316Y001617D02*
X014396Y001697D01*
X014477Y001617D01*
X014557Y001697D01*
X014637Y001617D01*
X014637Y001377D01*
X014826Y001377D02*
X015066Y001537D01*
X014826Y001697D01*
X015066Y001697D02*
X015066Y001217D01*
X015262Y001377D02*
X015502Y001377D01*
X015582Y001457D01*
X015582Y001617D01*
X015502Y001697D01*
X015262Y001697D01*
X015777Y001697D02*
X015777Y001457D01*
X015857Y001377D01*
X016018Y001377D01*
X016018Y001537D02*
X015777Y001537D01*
X016018Y001537D02*
X016098Y001617D01*
X016018Y001697D01*
X015777Y001697D01*
X016293Y001617D02*
X016293Y001537D01*
X016373Y001457D01*
X016613Y001457D01*
X016373Y001457D02*
X016293Y001377D01*
X016293Y001297D01*
X016373Y001217D01*
X016613Y001217D01*
X016613Y001697D01*
X016373Y001697D01*
X016293Y001617D01*
X009480Y001617D02*
X009480Y001457D01*
X009400Y001377D01*
X009240Y001377D01*
X009160Y001457D01*
X009160Y001537D01*
X009480Y001537D01*
X009480Y001617D02*
X009400Y001697D01*
X009240Y001697D01*
X008965Y001697D02*
X008965Y001377D01*
X008965Y001537D02*
X008805Y001377D01*
X008725Y001377D01*
X019993Y008003D02*
X021096Y008003D01*
X021096Y009106D01*
X019993Y009106D01*
X019993Y008003D01*
X020702Y008279D02*
X020978Y008279D01*
X020976Y008256D01*
X020971Y008234D01*
X020961Y008213D01*
X020949Y008194D01*
X020933Y008177D01*
X020915Y008163D01*
X020895Y008153D01*
X020874Y008145D01*
X020851Y008141D01*
X020829Y008141D01*
X020806Y008145D01*
X020785Y008153D01*
X020765Y008163D01*
X020747Y008177D01*
X020731Y008194D01*
X020719Y008213D01*
X020709Y008234D01*
X020704Y008256D01*
X020702Y008279D01*
X020529Y009578D02*
X019899Y009578D01*
X019741Y009736D01*
X019741Y010169D01*
X020686Y010169D02*
X020686Y009736D01*
X020529Y009578D01*
X020686Y010956D02*
X020686Y011547D01*
X019741Y011547D01*
X019741Y010956D01*
D48*
X021838Y010773D02*
X022074Y010773D01*
X022074Y011246D02*
X021838Y011246D01*
X022499Y008731D02*
X022736Y008731D01*
X022736Y008258D02*
X022499Y008258D01*
X016713Y004723D02*
X016477Y004723D01*
X016477Y004251D02*
X016713Y004251D01*
X014965Y004230D02*
X014965Y003994D01*
X014493Y003994D02*
X014493Y004230D01*
X015984Y002646D02*
X016220Y002646D01*
X016220Y002174D02*
X015984Y002174D01*
M02*
