G75*
G70*
%OFA0B0*%
%FSLAX24Y24*%
%IPPOS*%
%LPD*%
%AMOC8*
5,1,8,0,0,1.08239X$1,22.5*
%
%ADD10OC8,0.0820*%
%ADD11C,0.0740*%
%ADD12R,0.0395X0.0552*%
%ADD13C,0.1380*%
%ADD14C,0.0395*%
%ADD15C,0.1080*%
%ADD16R,0.0552X0.0257*%
%ADD17R,0.0552X0.0395*%
%ADD18R,0.0710X0.0631*%
%ADD19C,0.0350*%
D10*
X004993Y001562D03*
X005993Y001562D03*
X006993Y001562D03*
X006993Y002562D03*
X005993Y002562D03*
X004993Y002562D03*
D11*
X018187Y001483D03*
X019187Y001483D03*
D12*
X016456Y002410D03*
X015747Y002410D03*
X016241Y004487D03*
X016949Y004487D03*
X022263Y008494D03*
X022972Y008494D03*
X022310Y011010D03*
X021602Y011010D03*
D13*
X021720Y002143D03*
D14*
X011831Y004794D03*
X009409Y002373D03*
D15*
X005047Y009950D03*
X022763Y009950D03*
D16*
X021401Y008938D03*
X021401Y008682D03*
X021401Y008427D03*
X021401Y008171D03*
X019688Y008171D03*
X019688Y008427D03*
X019688Y008682D03*
X019688Y008938D03*
D17*
X014729Y004466D03*
X014729Y003757D03*
D18*
X019768Y005523D03*
X022917Y005523D03*
X022917Y007295D03*
X019768Y007295D03*
X020214Y010011D03*
X020214Y011114D03*
X008030Y008869D03*
X004881Y008869D03*
X004881Y007098D03*
X004881Y005326D03*
X008030Y005326D03*
X008030Y007098D03*
X008030Y003554D03*
X004881Y003554D03*
D19*
X005493Y003617D03*
X006013Y003617D03*
X007293Y003617D03*
X008573Y003697D03*
X008893Y003937D03*
X008573Y004337D03*
X009613Y004337D03*
X009613Y003537D03*
X008973Y003377D03*
X009453Y003137D03*
X009213Y002817D03*
X008893Y002177D03*
X008573Y001857D03*
X008093Y002337D03*
X009933Y002257D03*
X011293Y002577D03*
X011853Y002017D03*
X012413Y002577D03*
X013213Y002577D03*
X013533Y002257D03*
X013533Y002897D03*
X013293Y003217D03*
X013533Y003537D03*
X013213Y003857D03*
X013053Y004337D03*
X012493Y003857D03*
X011693Y004337D03*
X013053Y005297D03*
X014333Y004977D03*
X015293Y004497D03*
X015293Y004017D03*
X015933Y004017D03*
X016733Y004017D03*
X015693Y003217D03*
X016091Y002897D03*
X016733Y003057D03*
X016893Y002337D03*
X018333Y002417D03*
X017933Y003217D03*
X015293Y002417D03*
X017213Y001377D03*
X017613Y001457D03*
X020973Y002897D03*
X022813Y002017D03*
X018973Y005057D03*
X018733Y005297D03*
X017853Y005297D03*
X017213Y005057D03*
X016573Y005537D03*
X014973Y005777D03*
X014653Y007377D03*
X013693Y007377D03*
X012893Y007377D03*
X011773Y005937D03*
X011453Y005697D03*
X010253Y005297D03*
X009853Y005137D03*
X006093Y007137D03*
X004893Y006337D03*
X004693Y004517D03*
X007613Y001217D03*
X011693Y001217D03*
X022173Y006177D03*
X021053Y007617D03*
X020733Y008577D03*
X018653Y010017D03*
X018893Y010337D03*
X019293Y010657D03*
X019373Y011297D03*
X014333Y010017D03*
X014013Y010257D03*
X015773Y007377D03*
M02*
