G75*
G70*
%OFA0B0*%
%FSLAX24Y24*%
%IPPOS*%
%LPD*%
%AMOC8*
5,1,8,0,0,1.08239X$1,22.5*
%
%ADD10C,0.0740*%
%ADD11OC8,0.0480*%
%ADD12OC8,0.0740*%
%ADD13C,0.0100*%
D10*
X016328Y001101D03*
X016328Y002101D03*
X016328Y003101D03*
X016328Y004101D03*
X016328Y005101D03*
X016328Y006101D03*
D11*
X012328Y006101D03*
X012328Y005101D03*
X008328Y005101D03*
X008328Y006101D03*
X009328Y003101D03*
X009328Y002101D03*
X012328Y002101D03*
X012328Y003101D03*
X004328Y001351D03*
X003328Y001351D03*
X003828Y000601D03*
D12*
X003328Y004101D03*
X004328Y004101D03*
X004328Y005101D03*
X003328Y005101D03*
X003328Y006101D03*
X004328Y006101D03*
D13*
X002538Y006887D02*
X002538Y000311D01*
X003482Y000311D01*
X003378Y000414D01*
X003378Y000787D01*
X003492Y000901D01*
X003142Y000901D01*
X002878Y001164D01*
X002878Y001537D01*
X003142Y001801D01*
X003515Y001801D01*
X003778Y001537D01*
X003778Y001164D01*
X003664Y001051D01*
X003992Y001051D01*
X003878Y001164D01*
X003878Y001537D01*
X004142Y001801D01*
X004515Y001801D01*
X004778Y001537D01*
X004778Y001164D01*
X004515Y000901D01*
X004164Y000901D01*
X004278Y000787D01*
X004278Y000414D01*
X004174Y000311D01*
X017088Y000311D01*
X017088Y006887D01*
X002538Y006887D01*
X002538Y006802D02*
X017088Y006802D01*
X017088Y006703D02*
X002538Y006703D01*
X002538Y006605D02*
X003097Y006605D01*
X003113Y006621D02*
X002808Y006316D01*
X002808Y006151D01*
X003278Y006151D01*
X003278Y006621D01*
X003113Y006621D01*
X002998Y006506D02*
X002538Y006506D01*
X002538Y006408D02*
X002900Y006408D01*
X002808Y006309D02*
X002538Y006309D01*
X002538Y006210D02*
X002808Y006210D01*
X002808Y006051D02*
X002808Y005885D01*
X003050Y005643D01*
X002748Y005341D01*
X002748Y004861D01*
X003008Y004601D01*
X002748Y004341D01*
X002748Y003861D01*
X003088Y003521D01*
X003568Y003521D01*
X003828Y003781D01*
X004088Y003521D01*
X004568Y003521D01*
X004908Y003861D01*
X004908Y004341D01*
X007721Y004341D01*
X008878Y003183D01*
X008878Y002914D01*
X009142Y002651D01*
X009411Y002651D01*
X009511Y002551D01*
X009142Y002551D01*
X008878Y002287D01*
X008878Y001914D01*
X009142Y001651D01*
X009515Y001651D01*
X009778Y001914D01*
X009778Y002283D01*
X011108Y000954D01*
X011108Y000954D01*
X011181Y000880D01*
X011276Y000841D01*
X015276Y000841D01*
X015380Y000841D01*
X015475Y000880D01*
X015748Y001153D01*
X015748Y000985D01*
X015836Y000772D01*
X016000Y000609D01*
X016213Y000521D01*
X016444Y000521D01*
X016657Y000609D01*
X016820Y000772D01*
X016908Y000985D01*
X016908Y001216D01*
X016820Y001429D01*
X016657Y001592D01*
X016637Y001601D01*
X016657Y001609D01*
X016820Y001772D01*
X016908Y001985D01*
X016908Y002216D01*
X016820Y002429D01*
X016657Y002592D01*
X016637Y002601D01*
X016657Y002609D01*
X016820Y002772D01*
X016908Y002985D01*
X016908Y003216D01*
X016820Y003429D01*
X016657Y003592D01*
X016637Y003601D01*
X016657Y003609D01*
X016820Y003772D01*
X016908Y003985D01*
X016908Y004216D01*
X016820Y004429D01*
X016657Y004592D01*
X016637Y004601D01*
X016657Y004609D01*
X016820Y004772D01*
X016908Y004985D01*
X016908Y005216D01*
X016820Y005429D01*
X016657Y005592D01*
X016557Y005634D01*
X016601Y005656D01*
X016667Y005704D01*
X016725Y005762D01*
X016773Y005828D01*
X016810Y005901D01*
X016835Y005979D01*
X016847Y006051D01*
X016378Y006051D01*
X016378Y006151D01*
X016278Y006151D01*
X016278Y006619D01*
X016206Y006608D01*
X016129Y006583D01*
X016056Y006546D01*
X015989Y006497D01*
X015932Y006440D01*
X015883Y006373D01*
X015846Y006300D01*
X015821Y006223D01*
X015810Y006151D01*
X016278Y006151D01*
X016278Y006051D01*
X015810Y006051D01*
X015821Y005979D01*
X015846Y005901D01*
X015883Y005828D01*
X015932Y005762D01*
X015989Y005704D01*
X016056Y005656D01*
X016099Y005634D01*
X016000Y005592D01*
X015836Y005429D01*
X015748Y005216D01*
X015748Y004985D01*
X015836Y004772D01*
X016000Y004609D01*
X016020Y004601D01*
X016000Y004592D01*
X015836Y004429D01*
X015748Y004216D01*
X015748Y003985D01*
X015836Y003772D01*
X016000Y003609D01*
X016020Y003601D01*
X016000Y003592D01*
X015836Y003429D01*
X015748Y003216D01*
X015748Y002985D01*
X015836Y002772D01*
X016000Y002609D01*
X016020Y002601D01*
X016000Y002592D01*
X015836Y002429D01*
X015748Y002216D01*
X015748Y001985D01*
X015777Y001917D01*
X015220Y001361D01*
X011436Y001361D01*
X009778Y003018D01*
X009778Y003287D01*
X009515Y003551D01*
X009246Y003551D01*
X008146Y004651D01*
X008515Y004651D01*
X008778Y004914D01*
X008778Y005283D01*
X011878Y002183D01*
X011878Y001914D01*
X012142Y001651D01*
X012515Y001651D01*
X012778Y001914D01*
X012778Y002287D01*
X012515Y002551D01*
X012246Y002551D01*
X012146Y002651D01*
X012515Y002651D01*
X012778Y002914D01*
X012778Y003287D01*
X012515Y003551D01*
X012142Y003551D01*
X011878Y003287D01*
X011878Y002918D01*
X008778Y006018D01*
X008778Y006287D01*
X008515Y006551D01*
X008142Y006551D01*
X007878Y006287D01*
X007878Y005914D01*
X008142Y005651D01*
X008411Y005651D01*
X008511Y005551D01*
X008142Y005551D01*
X007878Y005287D01*
X007878Y004914D01*
X007969Y004824D01*
X007880Y004861D01*
X004908Y004861D01*
X004908Y005341D01*
X004648Y005601D01*
X004908Y005861D01*
X004908Y006341D01*
X004568Y006681D01*
X004088Y006681D01*
X003786Y006379D01*
X003544Y006621D01*
X003378Y006621D01*
X003378Y006151D01*
X003278Y006151D01*
X003278Y006051D01*
X002808Y006051D01*
X002808Y006013D02*
X002538Y006013D01*
X002538Y005915D02*
X002808Y005915D01*
X002877Y005816D02*
X002538Y005816D01*
X002538Y005718D02*
X002976Y005718D01*
X003026Y005619D02*
X002538Y005619D01*
X002538Y005521D02*
X002928Y005521D01*
X002829Y005422D02*
X002538Y005422D01*
X002538Y005324D02*
X002748Y005324D01*
X002748Y005225D02*
X002538Y005225D01*
X002538Y005126D02*
X002748Y005126D01*
X002748Y005028D02*
X002538Y005028D01*
X002538Y004929D02*
X002748Y004929D01*
X002778Y004831D02*
X002538Y004831D01*
X002538Y004732D02*
X002876Y004732D01*
X002975Y004634D02*
X002538Y004634D01*
X002538Y004535D02*
X002942Y004535D01*
X002844Y004437D02*
X002538Y004437D01*
X002538Y004338D02*
X002748Y004338D01*
X002748Y004240D02*
X002538Y004240D01*
X002538Y004141D02*
X002748Y004141D01*
X002748Y004043D02*
X002538Y004043D01*
X002538Y003944D02*
X002748Y003944D01*
X002763Y003845D02*
X002538Y003845D01*
X002538Y003747D02*
X002862Y003747D01*
X002960Y003648D02*
X002538Y003648D01*
X002538Y003550D02*
X003059Y003550D01*
X002538Y003451D02*
X008610Y003451D01*
X008709Y003353D02*
X002538Y003353D01*
X002538Y003254D02*
X008807Y003254D01*
X008878Y003156D02*
X002538Y003156D01*
X002538Y003057D02*
X008878Y003057D01*
X008878Y002959D02*
X002538Y002959D01*
X002538Y002860D02*
X008933Y002860D01*
X009031Y002761D02*
X002538Y002761D01*
X002538Y002663D02*
X009130Y002663D01*
X009497Y002564D02*
X002538Y002564D01*
X002538Y002466D02*
X009057Y002466D01*
X008958Y002367D02*
X002538Y002367D01*
X002538Y002269D02*
X008878Y002269D01*
X008878Y002170D02*
X002538Y002170D01*
X002538Y002072D02*
X008878Y002072D01*
X008878Y001973D02*
X002538Y001973D01*
X002538Y001875D02*
X008918Y001875D01*
X009017Y001776D02*
X004539Y001776D01*
X004638Y001677D02*
X009115Y001677D01*
X009541Y001677D02*
X010384Y001677D01*
X010285Y001776D02*
X009640Y001776D01*
X009738Y001875D02*
X010187Y001875D01*
X010088Y001973D02*
X009778Y001973D01*
X009778Y002072D02*
X009990Y002072D01*
X009891Y002170D02*
X009778Y002170D01*
X009778Y002269D02*
X009793Y002269D01*
X010232Y002564D02*
X011497Y002564D01*
X011595Y002466D02*
X010331Y002466D01*
X010429Y002367D02*
X011694Y002367D01*
X011793Y002269D02*
X010528Y002269D01*
X010626Y002170D02*
X011878Y002170D01*
X011878Y002072D02*
X010725Y002072D01*
X010823Y001973D02*
X011878Y001973D01*
X011918Y001875D02*
X010922Y001875D01*
X011021Y001776D02*
X012017Y001776D01*
X012115Y001677D02*
X011119Y001677D01*
X011218Y001579D02*
X015439Y001579D01*
X015340Y001480D02*
X011316Y001480D01*
X011415Y001382D02*
X015242Y001382D01*
X015328Y001101D02*
X016328Y002101D01*
X016862Y001875D02*
X017088Y001875D01*
X017088Y001776D02*
X016821Y001776D01*
X016725Y001677D02*
X017088Y001677D01*
X017088Y001579D02*
X016670Y001579D01*
X016769Y001480D02*
X017088Y001480D01*
X017088Y001382D02*
X016840Y001382D01*
X016880Y001283D02*
X017088Y001283D01*
X017088Y001185D02*
X016908Y001185D01*
X016908Y001086D02*
X017088Y001086D01*
X017088Y000988D02*
X016908Y000988D01*
X016868Y000889D02*
X017088Y000889D01*
X017088Y000791D02*
X016827Y000791D01*
X016740Y000692D02*
X017088Y000692D01*
X017088Y000594D02*
X016619Y000594D01*
X017088Y000495D02*
X004278Y000495D01*
X004278Y000594D02*
X016037Y000594D01*
X015917Y000692D02*
X004278Y000692D01*
X004275Y000791D02*
X015829Y000791D01*
X015788Y000889D02*
X015484Y000889D01*
X015583Y000988D02*
X015748Y000988D01*
X015748Y001086D02*
X015681Y001086D01*
X015328Y001101D02*
X011328Y001101D01*
X009328Y003101D01*
X007828Y004601D01*
X003828Y004601D01*
X003328Y005101D01*
X004667Y005619D02*
X008442Y005619D01*
X008112Y005521D02*
X004728Y005521D01*
X004827Y005422D02*
X008013Y005422D01*
X007915Y005324D02*
X004908Y005324D01*
X004908Y005225D02*
X007878Y005225D01*
X007878Y005126D02*
X004908Y005126D01*
X004908Y005028D02*
X007878Y005028D01*
X007878Y004929D02*
X004908Y004929D01*
X004908Y004338D02*
X007723Y004338D01*
X007822Y004240D02*
X004908Y004240D01*
X004908Y004141D02*
X007920Y004141D01*
X008019Y004043D02*
X004908Y004043D01*
X004908Y003944D02*
X008117Y003944D01*
X008216Y003845D02*
X004893Y003845D01*
X004794Y003747D02*
X008314Y003747D01*
X008413Y003648D02*
X004696Y003648D01*
X004597Y003550D02*
X008511Y003550D01*
X009050Y003747D02*
X010314Y003747D01*
X010216Y003845D02*
X008951Y003845D01*
X008853Y003944D02*
X010117Y003944D01*
X010019Y004043D02*
X008754Y004043D01*
X008656Y004141D02*
X009920Y004141D01*
X009822Y004240D02*
X008557Y004240D01*
X008458Y004338D02*
X009723Y004338D01*
X009625Y004437D02*
X008360Y004437D01*
X008261Y004535D02*
X009526Y004535D01*
X009428Y004634D02*
X008163Y004634D01*
X007962Y004831D02*
X007952Y004831D01*
X008596Y004732D02*
X009329Y004732D01*
X009230Y004831D02*
X008695Y004831D01*
X008778Y004929D02*
X009132Y004929D01*
X009033Y005028D02*
X008778Y005028D01*
X008778Y005126D02*
X008935Y005126D01*
X008836Y005225D02*
X008778Y005225D01*
X009374Y005422D02*
X012013Y005422D01*
X011915Y005324D02*
X009473Y005324D01*
X009572Y005225D02*
X011878Y005225D01*
X011878Y005287D02*
X011878Y004914D01*
X012142Y004651D01*
X012515Y004651D01*
X012778Y004914D01*
X012778Y005287D01*
X012515Y005551D01*
X012142Y005551D01*
X011878Y005287D01*
X011878Y005126D02*
X009670Y005126D01*
X009769Y005028D02*
X011878Y005028D01*
X011878Y004929D02*
X009867Y004929D01*
X009966Y004831D02*
X011962Y004831D01*
X012060Y004732D02*
X010064Y004732D01*
X010163Y004634D02*
X015975Y004634D01*
X015876Y004732D02*
X012596Y004732D01*
X012695Y004831D02*
X015812Y004831D01*
X015771Y004929D02*
X012778Y004929D01*
X012778Y005028D02*
X015748Y005028D01*
X015748Y005126D02*
X012778Y005126D01*
X012778Y005225D02*
X015752Y005225D01*
X015793Y005324D02*
X012742Y005324D01*
X012643Y005422D02*
X015834Y005422D01*
X015928Y005521D02*
X012545Y005521D01*
X012515Y005651D02*
X012778Y005914D01*
X012778Y006287D01*
X012515Y006551D01*
X012142Y006551D01*
X011878Y006287D01*
X011878Y005914D01*
X012142Y005651D01*
X012515Y005651D01*
X012582Y005718D02*
X015976Y005718D01*
X015892Y005816D02*
X012680Y005816D01*
X012778Y005915D02*
X015842Y005915D01*
X015816Y006013D02*
X012778Y006013D01*
X012778Y006112D02*
X016278Y006112D01*
X016378Y006112D02*
X017088Y006112D01*
X017088Y006013D02*
X016841Y006013D01*
X016814Y005915D02*
X017088Y005915D01*
X017088Y005816D02*
X016764Y005816D01*
X016681Y005718D02*
X017088Y005718D01*
X017088Y005619D02*
X016592Y005619D01*
X016728Y005521D02*
X017088Y005521D01*
X017088Y005422D02*
X016823Y005422D01*
X016864Y005324D02*
X017088Y005324D01*
X017088Y005225D02*
X016904Y005225D01*
X016908Y005126D02*
X017088Y005126D01*
X017088Y005028D02*
X016908Y005028D01*
X016885Y004929D02*
X017088Y004929D01*
X017088Y004831D02*
X016844Y004831D01*
X016780Y004732D02*
X017088Y004732D01*
X017088Y004634D02*
X016681Y004634D01*
X016714Y004535D02*
X017088Y004535D01*
X017088Y004437D02*
X016812Y004437D01*
X016858Y004338D02*
X017088Y004338D01*
X017088Y004240D02*
X016898Y004240D01*
X016908Y004141D02*
X017088Y004141D01*
X017088Y004043D02*
X016908Y004043D01*
X016891Y003944D02*
X017088Y003944D01*
X017088Y003845D02*
X016850Y003845D01*
X016794Y003747D02*
X017088Y003747D01*
X017088Y003648D02*
X016696Y003648D01*
X016699Y003550D02*
X017088Y003550D01*
X017088Y003451D02*
X016798Y003451D01*
X016852Y003353D02*
X017088Y003353D01*
X017088Y003254D02*
X016892Y003254D01*
X016908Y003156D02*
X017088Y003156D01*
X017088Y003057D02*
X016908Y003057D01*
X016897Y002959D02*
X017088Y002959D01*
X017088Y002860D02*
X016856Y002860D01*
X016809Y002761D02*
X017088Y002761D01*
X017088Y002663D02*
X016711Y002663D01*
X016685Y002564D02*
X017088Y002564D01*
X017088Y002466D02*
X016783Y002466D01*
X016846Y002367D02*
X017088Y002367D01*
X017088Y002269D02*
X016886Y002269D01*
X016908Y002170D02*
X017088Y002170D01*
X017088Y002072D02*
X016908Y002072D01*
X016903Y001973D02*
X017088Y001973D01*
X015972Y002564D02*
X012232Y002564D01*
X012527Y002663D02*
X015946Y002663D01*
X015847Y002761D02*
X012625Y002761D01*
X012724Y002860D02*
X015800Y002860D01*
X015759Y002959D02*
X012778Y002959D01*
X012778Y003057D02*
X015748Y003057D01*
X015748Y003156D02*
X012778Y003156D01*
X012778Y003254D02*
X015764Y003254D01*
X015805Y003353D02*
X012713Y003353D01*
X012614Y003451D02*
X015858Y003451D01*
X015957Y003550D02*
X012516Y003550D01*
X012141Y003550D02*
X011247Y003550D01*
X011345Y003451D02*
X012042Y003451D01*
X011944Y003353D02*
X011444Y003353D01*
X011542Y003254D02*
X011878Y003254D01*
X011878Y003156D02*
X011641Y003156D01*
X011739Y003057D02*
X011878Y003057D01*
X011878Y002959D02*
X011838Y002959D01*
X011300Y002761D02*
X010035Y002761D01*
X010134Y002663D02*
X011398Y002663D01*
X011201Y002860D02*
X009937Y002860D01*
X009838Y002959D02*
X011103Y002959D01*
X011004Y003057D02*
X009778Y003057D01*
X009778Y003156D02*
X010906Y003156D01*
X010807Y003254D02*
X009778Y003254D01*
X009713Y003353D02*
X010709Y003353D01*
X010610Y003451D02*
X009614Y003451D01*
X009516Y003550D02*
X010511Y003550D01*
X010413Y003648D02*
X009148Y003648D01*
X010557Y004240D02*
X015758Y004240D01*
X015799Y004338D02*
X010458Y004338D01*
X010360Y004437D02*
X015844Y004437D01*
X015942Y004535D02*
X010261Y004535D01*
X010656Y004141D02*
X015748Y004141D01*
X015748Y004043D02*
X010754Y004043D01*
X010853Y003944D02*
X015765Y003944D01*
X015806Y003845D02*
X010951Y003845D01*
X011050Y003747D02*
X015862Y003747D01*
X015960Y003648D02*
X011148Y003648D01*
X012599Y002466D02*
X015873Y002466D01*
X015811Y002367D02*
X012698Y002367D01*
X012778Y002269D02*
X015770Y002269D01*
X015748Y002170D02*
X012778Y002170D01*
X012778Y002072D02*
X015748Y002072D01*
X015753Y001973D02*
X012778Y001973D01*
X012738Y001875D02*
X015734Y001875D01*
X015636Y001776D02*
X012640Y001776D01*
X012541Y001677D02*
X015537Y001677D01*
X017088Y000396D02*
X004260Y000396D01*
X003396Y000396D02*
X002538Y000396D01*
X002538Y000495D02*
X003378Y000495D01*
X003378Y000594D02*
X002538Y000594D01*
X002538Y000692D02*
X003378Y000692D01*
X003382Y000791D02*
X002538Y000791D01*
X002538Y000889D02*
X003480Y000889D01*
X003055Y000988D02*
X002538Y000988D01*
X002538Y001086D02*
X002956Y001086D01*
X002878Y001185D02*
X002538Y001185D01*
X002538Y001283D02*
X002878Y001283D01*
X002878Y001382D02*
X002538Y001382D01*
X002538Y001480D02*
X002878Y001480D01*
X002920Y001579D02*
X002538Y001579D01*
X002538Y001677D02*
X003019Y001677D01*
X003117Y001776D02*
X002538Y001776D01*
X003539Y001776D02*
X004117Y001776D01*
X004019Y001677D02*
X003638Y001677D01*
X003736Y001579D02*
X003920Y001579D01*
X003878Y001480D02*
X003778Y001480D01*
X003778Y001382D02*
X003878Y001382D01*
X003878Y001283D02*
X003778Y001283D01*
X003778Y001185D02*
X003878Y001185D01*
X003956Y001086D02*
X003700Y001086D01*
X004176Y000889D02*
X011172Y000889D01*
X011074Y000988D02*
X004601Y000988D01*
X004700Y001086D02*
X010975Y001086D01*
X010877Y001185D02*
X004778Y001185D01*
X004778Y001283D02*
X010778Y001283D01*
X010679Y001382D02*
X004778Y001382D01*
X004778Y001480D02*
X010581Y001480D01*
X010482Y001579D02*
X004736Y001579D01*
X004059Y003550D02*
X003597Y003550D01*
X003696Y003648D02*
X003960Y003648D01*
X003862Y003747D02*
X003794Y003747D01*
X004765Y005718D02*
X008075Y005718D01*
X007976Y005816D02*
X004864Y005816D01*
X004908Y005915D02*
X007878Y005915D01*
X007878Y006013D02*
X004908Y006013D01*
X004908Y006112D02*
X007878Y006112D01*
X007878Y006210D02*
X004908Y006210D01*
X004908Y006309D02*
X007900Y006309D01*
X007999Y006408D02*
X004842Y006408D01*
X004743Y006506D02*
X008097Y006506D01*
X008559Y006506D02*
X012097Y006506D01*
X011999Y006408D02*
X008658Y006408D01*
X008756Y006309D02*
X011900Y006309D01*
X011878Y006210D02*
X008778Y006210D01*
X008778Y006112D02*
X011878Y006112D01*
X011878Y006013D02*
X008783Y006013D01*
X008882Y005915D02*
X011878Y005915D01*
X011976Y005816D02*
X008980Y005816D01*
X009079Y005718D02*
X012075Y005718D01*
X012112Y005521D02*
X009276Y005521D01*
X009177Y005619D02*
X016064Y005619D01*
X016378Y006151D02*
X016847Y006151D01*
X016835Y006223D01*
X016810Y006300D01*
X016773Y006373D01*
X016725Y006440D01*
X016667Y006497D01*
X016601Y006546D01*
X016528Y006583D01*
X016450Y006608D01*
X016378Y006619D01*
X016378Y006151D01*
X016378Y006210D02*
X016278Y006210D01*
X016278Y006309D02*
X016378Y006309D01*
X016378Y006408D02*
X016278Y006408D01*
X016278Y006506D02*
X016378Y006506D01*
X016378Y006605D02*
X016278Y006605D01*
X016196Y006605D02*
X004644Y006605D01*
X004012Y006605D02*
X003560Y006605D01*
X003658Y006506D02*
X003913Y006506D01*
X003815Y006408D02*
X003757Y006408D01*
X003378Y006408D02*
X003278Y006408D01*
X003278Y006309D02*
X003378Y006309D01*
X003378Y006210D02*
X003278Y006210D01*
X003278Y006112D02*
X002538Y006112D01*
X003278Y006506D02*
X003378Y006506D01*
X003378Y006605D02*
X003278Y006605D01*
X008328Y006101D02*
X012328Y002101D01*
X012778Y006210D02*
X015819Y006210D01*
X015851Y006309D02*
X012756Y006309D01*
X012658Y006408D02*
X015908Y006408D01*
X016001Y006506D02*
X012559Y006506D01*
X016460Y006605D02*
X017088Y006605D01*
X017088Y006506D02*
X016655Y006506D01*
X016748Y006408D02*
X017088Y006408D01*
X017088Y006309D02*
X016806Y006309D01*
X016837Y006210D02*
X017088Y006210D01*
M02*
