G75*
G70*
%OFA0B0*%
%FSLAX24Y24*%
%IPPOS*%
%LPD*%
%AMOC8*
5,1,8,0,0,1.08239X$1,22.5*
%
%ADD10C,0.0000*%
%ADD11C,0.0080*%
%ADD12C,0.0050*%
%ADD13C,0.0060*%
%ADD14C,0.0100*%
%ADD15R,0.0340X0.0240*%
D10*
X002328Y000101D02*
X002328Y007097D01*
X017298Y007097D01*
X017298Y000101D01*
X002328Y000101D01*
D11*
X005618Y000391D02*
X005828Y000391D01*
X005898Y000461D01*
X005898Y000531D01*
X005828Y000601D01*
X005618Y000601D01*
X005828Y000601D02*
X005898Y000671D01*
X005898Y000741D01*
X005828Y000811D01*
X005618Y000811D01*
X005618Y000391D01*
X006079Y000391D02*
X006359Y000391D01*
X006539Y000461D02*
X006609Y000391D01*
X006749Y000391D01*
X006819Y000461D01*
X006819Y000531D01*
X006749Y000601D01*
X006609Y000601D01*
X006539Y000671D01*
X006539Y000741D01*
X006609Y000811D01*
X006749Y000811D01*
X006819Y000741D01*
X006999Y000741D02*
X006999Y000811D01*
X006999Y000741D02*
X007139Y000601D01*
X007139Y000391D01*
X007139Y000601D02*
X007279Y000741D01*
X007279Y000811D01*
X007460Y000811D02*
X007740Y000391D01*
X007740Y000811D01*
X007920Y000741D02*
X007920Y000461D01*
X007990Y000391D01*
X008130Y000391D01*
X008200Y000461D01*
X008200Y000741D02*
X008130Y000811D01*
X007990Y000811D01*
X007920Y000741D01*
X007460Y000811D02*
X007460Y000391D01*
X008841Y000391D02*
X008841Y000671D01*
X008981Y000811D01*
X009121Y000671D01*
X009121Y000391D01*
X009301Y000391D02*
X009511Y000391D01*
X009581Y000461D01*
X009581Y000741D01*
X009511Y000811D01*
X009301Y000811D01*
X009301Y000391D01*
X009121Y000601D02*
X008841Y000601D01*
X009761Y000601D02*
X010042Y000601D01*
X010042Y000671D02*
X010042Y000391D01*
X010222Y000391D02*
X010222Y000811D01*
X010432Y000811D01*
X010502Y000741D01*
X010502Y000601D01*
X010432Y000531D01*
X010222Y000531D01*
X010042Y000671D02*
X009901Y000811D01*
X009761Y000671D01*
X009761Y000391D01*
X010682Y000811D02*
X010962Y000811D01*
X010822Y000811D02*
X010822Y000391D01*
X011142Y000391D02*
X011423Y000391D01*
X011603Y000391D02*
X011603Y000811D01*
X011813Y000811D01*
X011883Y000741D01*
X011883Y000601D01*
X011813Y000531D01*
X011603Y000531D01*
X011743Y000531D02*
X011883Y000391D01*
X011283Y000601D02*
X011142Y000601D01*
X011142Y000811D02*
X011142Y000391D01*
X011142Y000811D02*
X011423Y000811D01*
X012524Y000671D02*
X012664Y000811D01*
X012664Y000391D01*
X012524Y000391D02*
X012804Y000391D01*
X012984Y000391D02*
X012984Y000461D01*
X013054Y000461D01*
X013054Y000391D01*
X012984Y000391D01*
X013214Y000461D02*
X013494Y000741D01*
X013494Y000461D01*
X013424Y000391D01*
X013284Y000391D01*
X013214Y000461D01*
X013214Y000741D01*
X013284Y000811D01*
X013424Y000811D01*
X013494Y000741D01*
X014368Y000961D02*
X014438Y000891D01*
X014578Y000891D01*
X014648Y000961D01*
X014648Y001101D01*
X014508Y001101D01*
X014829Y001031D02*
X015039Y001031D01*
X015109Y001101D01*
X015109Y001241D01*
X015039Y001311D01*
X014829Y001311D01*
X014829Y000891D01*
X014969Y001031D02*
X015109Y000891D01*
X015289Y000891D02*
X015289Y001311D01*
X015569Y000891D01*
X015569Y001311D01*
X015828Y001351D02*
X016078Y001601D01*
X015828Y001851D01*
X015828Y002351D01*
X016078Y002601D01*
X015828Y002851D01*
X015828Y003351D01*
X016078Y003601D01*
X015828Y003851D01*
X015828Y004351D01*
X016078Y004601D01*
X015828Y004851D01*
X015828Y005351D01*
X016078Y005601D01*
X015828Y005851D01*
X015828Y006351D01*
X016078Y006601D01*
X016578Y006601D01*
X016828Y006351D01*
X016828Y005851D01*
X016578Y005601D01*
X016828Y005351D01*
X016828Y004851D01*
X016578Y004601D01*
X016828Y004351D01*
X016828Y003851D01*
X016578Y003601D01*
X016828Y003351D01*
X016828Y002851D01*
X016578Y002601D01*
X016828Y002351D01*
X016828Y001851D01*
X016578Y001601D01*
X016828Y001351D01*
X016828Y000851D01*
X016578Y000601D01*
X016078Y000601D01*
X015828Y000851D01*
X015828Y001351D01*
X014648Y001241D02*
X014578Y001311D01*
X014438Y001311D01*
X014368Y001241D01*
X014368Y000961D01*
X014508Y001891D02*
X014508Y002101D01*
X014648Y002241D01*
X014648Y002311D01*
X014829Y002311D02*
X014829Y001891D01*
X015109Y001891D01*
X015289Y001891D02*
X015569Y001891D01*
X015289Y001891D02*
X015289Y002311D01*
X015109Y002311D02*
X014829Y002311D01*
X014508Y002101D02*
X014368Y002241D01*
X014368Y002311D01*
X014829Y002101D02*
X014969Y002101D01*
X015109Y002891D02*
X014969Y003031D01*
X015039Y003031D02*
X015109Y003101D01*
X015109Y003241D01*
X015039Y003311D01*
X014829Y003311D01*
X014829Y002891D01*
X014648Y002961D02*
X014648Y003241D01*
X014578Y003311D01*
X014438Y003311D01*
X014368Y003241D01*
X014368Y002961D01*
X014438Y002891D01*
X014578Y002891D01*
X014648Y002961D01*
X014829Y003031D02*
X015039Y003031D01*
X015289Y002961D02*
X015359Y002891D01*
X015499Y002891D01*
X015569Y002961D01*
X015569Y003101D01*
X015429Y003101D01*
X015289Y003241D02*
X015289Y002961D01*
X015289Y003241D02*
X015359Y003311D01*
X015499Y003311D01*
X015569Y003241D01*
X015499Y003891D02*
X015289Y003891D01*
X015289Y004311D01*
X015499Y004311D01*
X015569Y004241D01*
X015569Y003961D01*
X015499Y003891D01*
X015109Y003891D02*
X014829Y003891D01*
X014829Y004311D01*
X015109Y004311D01*
X014969Y004101D02*
X014829Y004101D01*
X014648Y004101D02*
X014578Y004031D01*
X014368Y004031D01*
X014508Y004031D02*
X014648Y003891D01*
X014368Y003891D02*
X014368Y004311D01*
X014578Y004311D01*
X014648Y004241D01*
X014648Y004101D01*
X013078Y003601D02*
X011578Y003601D01*
X012118Y003891D02*
X012118Y004311D01*
X012328Y004311D01*
X012398Y004241D01*
X012398Y004101D01*
X012328Y004031D01*
X012118Y004031D01*
X012579Y003961D02*
X012579Y004241D01*
X012649Y004311D01*
X012789Y004311D01*
X012859Y004241D01*
X012859Y003961D02*
X012789Y003891D01*
X012649Y003891D01*
X012579Y003961D01*
X011069Y004961D02*
X010999Y004891D01*
X010859Y004891D01*
X010789Y004961D01*
X011069Y005241D01*
X011069Y004961D01*
X010789Y004961D02*
X010789Y005241D01*
X010859Y005311D01*
X010999Y005311D01*
X011069Y005241D01*
X010609Y005241D02*
X010609Y005171D01*
X010329Y004891D01*
X010609Y004891D01*
X010148Y004891D02*
X009868Y004891D01*
X010148Y005171D01*
X010148Y005241D01*
X010078Y005311D01*
X009938Y005311D01*
X009868Y005241D01*
X010329Y005241D02*
X010399Y005311D01*
X010539Y005311D01*
X010609Y005241D01*
X010609Y005891D02*
X010329Y005891D01*
X010469Y005891D02*
X010469Y006311D01*
X010329Y006171D01*
X010148Y006101D02*
X010148Y005961D01*
X010078Y005891D01*
X009938Y005891D01*
X009868Y005961D01*
X009868Y006101D02*
X010008Y006171D01*
X010078Y006171D01*
X010148Y006101D01*
X009868Y006101D02*
X009868Y006311D01*
X010148Y006311D01*
X010789Y006241D02*
X010859Y006311D01*
X010999Y006311D01*
X011069Y006241D01*
X010789Y005961D01*
X010859Y005891D01*
X010999Y005891D01*
X011069Y005961D01*
X011069Y006241D01*
X010789Y006241D02*
X010789Y005961D01*
X007578Y006601D02*
X007578Y003601D01*
X004828Y003601D01*
X004828Y006601D01*
X007578Y006601D01*
X009118Y004311D02*
X009328Y004311D01*
X009398Y004241D01*
X009398Y004171D01*
X009328Y004101D01*
X009118Y004101D01*
X009328Y004101D02*
X009398Y004031D01*
X009398Y003961D01*
X009328Y003891D01*
X009118Y003891D01*
X009118Y004311D01*
X009579Y004311D02*
X009579Y003891D01*
X009859Y003891D01*
X010078Y003601D02*
X008578Y003601D01*
X007328Y003851D02*
X006328Y003851D01*
X004990Y002741D02*
X004920Y002811D01*
X004780Y002811D01*
X004710Y002741D01*
X004710Y002461D01*
X004990Y002741D01*
X004990Y002461D01*
X004920Y002391D01*
X004780Y002391D01*
X004710Y002461D01*
X004529Y002741D02*
X004249Y002461D01*
X004249Y002391D01*
X004069Y002391D02*
X003789Y002391D01*
X003929Y002391D02*
X003929Y002811D01*
X003789Y002671D01*
X003609Y002741D02*
X003539Y002811D01*
X003399Y002811D01*
X003329Y002741D01*
X003329Y002671D01*
X003399Y002601D01*
X003539Y002601D01*
X003609Y002531D01*
X003609Y002461D01*
X003539Y002391D01*
X003399Y002391D01*
X003329Y002461D01*
X003148Y002461D02*
X003078Y002391D01*
X002868Y002391D01*
X002868Y002811D01*
X003078Y002811D01*
X003148Y002741D01*
X003148Y002671D01*
X003078Y002601D01*
X002868Y002601D01*
X003078Y002601D02*
X003148Y002531D01*
X003148Y002461D01*
X004249Y002811D02*
X004529Y002811D01*
X004529Y002741D01*
X006079Y000811D02*
X006079Y000391D01*
X014368Y004891D02*
X014578Y004891D01*
X014648Y004961D01*
X014648Y005031D01*
X014578Y005101D01*
X014368Y005101D01*
X014578Y005101D02*
X014648Y005171D01*
X014648Y005241D01*
X014578Y005311D01*
X014368Y005311D01*
X014368Y004891D01*
X014829Y004891D02*
X014829Y005311D01*
X015039Y005311D01*
X015109Y005241D01*
X015109Y005101D01*
X015039Y005031D01*
X014829Y005031D01*
X014969Y005031D02*
X015109Y004891D01*
X015289Y004891D02*
X015289Y005311D01*
X015569Y004891D01*
X015569Y005311D01*
X015569Y005891D02*
X015359Y006101D01*
X015289Y006031D02*
X015569Y006311D01*
X015289Y006311D02*
X015289Y005891D01*
X015109Y005891D02*
X014829Y005891D01*
X014829Y006311D01*
X014648Y006241D02*
X014648Y006171D01*
X014578Y006101D01*
X014368Y006101D01*
X014578Y006101D02*
X014648Y006031D01*
X014648Y005961D01*
X014578Y005891D01*
X014368Y005891D01*
X014368Y006311D01*
X014578Y006311D01*
X014648Y006241D01*
D12*
X007319Y004226D02*
X007319Y004046D01*
X007274Y004001D01*
X007184Y004001D01*
X007139Y004046D01*
X007139Y004226D01*
X007184Y004271D01*
X007274Y004271D01*
X007319Y004226D01*
X007024Y004226D02*
X006979Y004271D01*
X006889Y004271D01*
X006844Y004226D01*
X006844Y004181D01*
X006889Y004136D01*
X006979Y004136D01*
X007024Y004091D01*
X007024Y004046D01*
X006979Y004001D01*
X006889Y004001D01*
X006844Y004046D01*
X006738Y004001D02*
X006648Y004001D01*
X006693Y004001D02*
X006693Y004271D01*
X006648Y004271D02*
X006738Y004271D01*
X006533Y004271D02*
X006443Y004181D01*
X006353Y004271D01*
X006353Y004001D01*
X006533Y004001D02*
X006533Y004271D01*
X005873Y004226D02*
X005873Y004181D01*
X005828Y004136D01*
X005873Y004091D01*
X005873Y004046D01*
X005828Y004001D01*
X005737Y004001D01*
X005692Y004046D01*
X005578Y004046D02*
X005533Y004001D01*
X005443Y004001D01*
X005398Y004046D01*
X005283Y004091D02*
X005193Y004001D01*
X005103Y004091D01*
X005103Y004271D01*
X005283Y004271D02*
X005283Y004091D01*
X005398Y004226D02*
X005443Y004271D01*
X005533Y004271D01*
X005578Y004226D01*
X005578Y004181D01*
X005533Y004136D01*
X005578Y004091D01*
X005578Y004046D01*
X005533Y004136D02*
X005488Y004136D01*
X005692Y004226D02*
X005737Y004271D01*
X005828Y004271D01*
X005873Y004226D01*
X005828Y004136D02*
X005783Y004136D01*
X005828Y005001D02*
X005737Y005001D01*
X005692Y005046D01*
X005737Y005136D02*
X005828Y005136D01*
X005873Y005091D01*
X005873Y005046D01*
X005828Y005001D01*
X005987Y005001D02*
X006077Y005001D01*
X006032Y005001D02*
X006032Y005271D01*
X005987Y005271D02*
X006077Y005271D01*
X005873Y005226D02*
X005828Y005271D01*
X005737Y005271D01*
X005692Y005226D01*
X005692Y005181D01*
X005737Y005136D01*
X005578Y005046D02*
X005578Y005226D01*
X005533Y005271D01*
X005443Y005271D01*
X005398Y005226D01*
X005398Y005046D01*
X005443Y005001D01*
X005533Y005001D01*
X005578Y005046D01*
X005283Y005001D02*
X005283Y005271D01*
X005193Y005181D01*
X005103Y005271D01*
X005103Y005001D01*
X006353Y005046D02*
X006398Y005001D01*
X006488Y005001D01*
X006533Y005046D01*
X006533Y005091D01*
X006488Y005136D01*
X006398Y005136D01*
X006353Y005181D01*
X006353Y005226D01*
X006398Y005271D01*
X006488Y005271D01*
X006533Y005226D01*
X006648Y005226D02*
X006648Y005046D01*
X006693Y005001D01*
X006783Y005001D01*
X006828Y005046D01*
X006942Y005091D02*
X007123Y005271D01*
X006942Y005271D02*
X006942Y005001D01*
X006987Y005136D02*
X007123Y005001D01*
X006828Y005226D02*
X006783Y005271D01*
X006693Y005271D01*
X006648Y005226D01*
X006693Y006001D02*
X006648Y006046D01*
X006693Y006001D02*
X006783Y006001D01*
X006828Y006046D01*
X006828Y006091D01*
X006783Y006136D01*
X006693Y006136D01*
X006648Y006181D01*
X006648Y006226D01*
X006693Y006271D01*
X006783Y006271D01*
X006828Y006226D01*
X006942Y006271D02*
X007123Y006271D01*
X007033Y006271D02*
X007033Y006001D01*
X006533Y006001D02*
X006443Y006091D01*
X006488Y006091D02*
X006353Y006091D01*
X006353Y006001D02*
X006353Y006271D01*
X006488Y006271D01*
X006533Y006226D01*
X006533Y006136D01*
X006488Y006091D01*
X005873Y006046D02*
X005873Y006226D01*
X005828Y006271D01*
X005692Y006271D01*
X005692Y006001D01*
X005828Y006001D01*
X005873Y006046D01*
X005578Y006001D02*
X005578Y006271D01*
X005398Y006271D02*
X005578Y006001D01*
X005398Y006001D02*
X005398Y006271D01*
X005283Y006226D02*
X005238Y006271D01*
X005148Y006271D01*
X005103Y006226D01*
X005103Y006046D01*
X005148Y006001D01*
X005238Y006001D01*
X005283Y006046D01*
X005283Y006136D01*
X005193Y006136D01*
D13*
X009078Y006451D02*
X009078Y005751D01*
X009080Y005734D01*
X009084Y005717D01*
X009091Y005701D01*
X009101Y005687D01*
X009114Y005674D01*
X009128Y005664D01*
X009144Y005657D01*
X009161Y005653D01*
X009178Y005651D01*
X009328Y005651D01*
X009378Y005701D01*
X011278Y005701D01*
X011328Y005651D01*
X011478Y005651D01*
X011478Y005551D02*
X011328Y005551D01*
X011278Y005501D01*
X009378Y005501D01*
X009328Y005551D01*
X009178Y005551D01*
X009161Y005549D01*
X009144Y005545D01*
X009128Y005538D01*
X009114Y005528D01*
X009101Y005515D01*
X009091Y005501D01*
X009084Y005485D01*
X009080Y005468D01*
X009078Y005451D01*
X009078Y004751D01*
X009080Y004734D01*
X009084Y004717D01*
X009091Y004701D01*
X009101Y004687D01*
X009114Y004674D01*
X009128Y004664D01*
X009144Y004657D01*
X009161Y004653D01*
X009178Y004651D01*
X009328Y004651D01*
X009378Y004701D01*
X011278Y004701D01*
X011328Y004651D01*
X011478Y004651D01*
X011495Y004653D01*
X011512Y004657D01*
X011528Y004664D01*
X011542Y004674D01*
X011555Y004687D01*
X011565Y004701D01*
X011572Y004717D01*
X011576Y004734D01*
X011578Y004751D01*
X011578Y005451D01*
X011576Y005468D01*
X011572Y005485D01*
X011565Y005501D01*
X011555Y005515D01*
X011542Y005528D01*
X011528Y005538D01*
X011512Y005545D01*
X011495Y005549D01*
X011478Y005551D01*
X011478Y005651D02*
X011495Y005653D01*
X011512Y005657D01*
X011528Y005664D01*
X011542Y005674D01*
X011555Y005687D01*
X011565Y005701D01*
X011572Y005717D01*
X011576Y005734D01*
X011578Y005751D01*
X011578Y006451D01*
X011576Y006468D01*
X011572Y006485D01*
X011565Y006501D01*
X011555Y006515D01*
X011542Y006528D01*
X011528Y006538D01*
X011512Y006545D01*
X011495Y006549D01*
X011478Y006551D01*
X011328Y006551D01*
X011278Y006501D01*
X009378Y006501D01*
X009328Y006551D01*
X009178Y006551D01*
X009161Y006549D01*
X009144Y006545D01*
X009128Y006538D01*
X009114Y006528D01*
X009101Y006515D01*
X009091Y006501D01*
X009084Y006485D01*
X009080Y006468D01*
X009078Y006451D01*
X008328Y002601D02*
X008330Y002664D01*
X008336Y002726D01*
X008346Y002788D01*
X008359Y002850D01*
X008377Y002910D01*
X008398Y002969D01*
X008423Y003027D01*
X008452Y003083D01*
X008484Y003137D01*
X008519Y003189D01*
X008557Y003238D01*
X008599Y003286D01*
X008643Y003330D01*
X008691Y003372D01*
X008740Y003410D01*
X008792Y003445D01*
X008846Y003477D01*
X008902Y003506D01*
X008960Y003531D01*
X009019Y003552D01*
X009079Y003570D01*
X009141Y003583D01*
X009203Y003593D01*
X009265Y003599D01*
X009328Y003601D01*
X009391Y003599D01*
X009453Y003593D01*
X009515Y003583D01*
X009577Y003570D01*
X009637Y003552D01*
X009696Y003531D01*
X009754Y003506D01*
X009810Y003477D01*
X009864Y003445D01*
X009916Y003410D01*
X009965Y003372D01*
X010013Y003330D01*
X010057Y003286D01*
X010099Y003238D01*
X010137Y003189D01*
X010172Y003137D01*
X010204Y003083D01*
X010233Y003027D01*
X010258Y002969D01*
X010279Y002910D01*
X010297Y002850D01*
X010310Y002788D01*
X010320Y002726D01*
X010326Y002664D01*
X010328Y002601D01*
X010326Y002538D01*
X010320Y002476D01*
X010310Y002414D01*
X010297Y002352D01*
X010279Y002292D01*
X010258Y002233D01*
X010233Y002175D01*
X010204Y002119D01*
X010172Y002065D01*
X010137Y002013D01*
X010099Y001964D01*
X010057Y001916D01*
X010013Y001872D01*
X009965Y001830D01*
X009916Y001792D01*
X009864Y001757D01*
X009810Y001725D01*
X009754Y001696D01*
X009696Y001671D01*
X009637Y001650D01*
X009577Y001632D01*
X009515Y001619D01*
X009453Y001609D01*
X009391Y001603D01*
X009328Y001601D01*
X009265Y001603D01*
X009203Y001609D01*
X009141Y001619D01*
X009079Y001632D01*
X009019Y001650D01*
X008960Y001671D01*
X008902Y001696D01*
X008846Y001725D01*
X008792Y001757D01*
X008740Y001792D01*
X008691Y001830D01*
X008643Y001872D01*
X008599Y001916D01*
X008557Y001964D01*
X008519Y002013D01*
X008484Y002065D01*
X008452Y002119D01*
X008423Y002175D01*
X008398Y002233D01*
X008377Y002292D01*
X008359Y002352D01*
X008346Y002414D01*
X008336Y002476D01*
X008330Y002538D01*
X008328Y002601D01*
X004470Y002051D02*
X003186Y002051D01*
X004470Y002051D02*
X004514Y002008D01*
X004554Y001963D01*
X004592Y001915D01*
X004627Y001865D01*
X004658Y001813D01*
X004686Y001759D01*
X004710Y001703D01*
X004731Y001646D01*
X004748Y001588D01*
X004761Y001528D01*
X004771Y001468D01*
X004776Y001408D01*
X004778Y001347D01*
X004776Y001286D01*
X004770Y001225D01*
X004760Y001165D01*
X004746Y001106D01*
X004728Y001048D01*
X004707Y000991D01*
X004682Y000935D01*
X004654Y000882D01*
X004622Y000830D01*
X004587Y000780D01*
X004549Y000732D01*
X004508Y000688D01*
X004464Y000645D01*
X004418Y000606D01*
X004369Y000570D01*
X004318Y000537D01*
X004264Y000507D01*
X004210Y000481D01*
X003446Y000481D02*
X003392Y000507D01*
X003338Y000537D01*
X003287Y000570D01*
X003238Y000606D01*
X003192Y000645D01*
X003148Y000688D01*
X003107Y000732D01*
X003069Y000780D01*
X003034Y000830D01*
X003002Y000882D01*
X002974Y000935D01*
X002949Y000991D01*
X002928Y001048D01*
X002910Y001106D01*
X002896Y001165D01*
X002886Y001225D01*
X002880Y001286D01*
X002878Y001347D01*
X002880Y001408D01*
X002885Y001468D01*
X002895Y001528D01*
X002908Y001588D01*
X002925Y001646D01*
X002946Y001703D01*
X002970Y001759D01*
X002998Y001813D01*
X003029Y001865D01*
X003064Y001915D01*
X003102Y001963D01*
X003142Y002008D01*
X003186Y002051D01*
X011328Y002601D02*
X011330Y002664D01*
X011336Y002726D01*
X011346Y002788D01*
X011359Y002850D01*
X011377Y002910D01*
X011398Y002969D01*
X011423Y003027D01*
X011452Y003083D01*
X011484Y003137D01*
X011519Y003189D01*
X011557Y003238D01*
X011599Y003286D01*
X011643Y003330D01*
X011691Y003372D01*
X011740Y003410D01*
X011792Y003445D01*
X011846Y003477D01*
X011902Y003506D01*
X011960Y003531D01*
X012019Y003552D01*
X012079Y003570D01*
X012141Y003583D01*
X012203Y003593D01*
X012265Y003599D01*
X012328Y003601D01*
X012391Y003599D01*
X012453Y003593D01*
X012515Y003583D01*
X012577Y003570D01*
X012637Y003552D01*
X012696Y003531D01*
X012754Y003506D01*
X012810Y003477D01*
X012864Y003445D01*
X012916Y003410D01*
X012965Y003372D01*
X013013Y003330D01*
X013057Y003286D01*
X013099Y003238D01*
X013137Y003189D01*
X013172Y003137D01*
X013204Y003083D01*
X013233Y003027D01*
X013258Y002969D01*
X013279Y002910D01*
X013297Y002850D01*
X013310Y002788D01*
X013320Y002726D01*
X013326Y002664D01*
X013328Y002601D01*
X013326Y002538D01*
X013320Y002476D01*
X013310Y002414D01*
X013297Y002352D01*
X013279Y002292D01*
X013258Y002233D01*
X013233Y002175D01*
X013204Y002119D01*
X013172Y002065D01*
X013137Y002013D01*
X013099Y001964D01*
X013057Y001916D01*
X013013Y001872D01*
X012965Y001830D01*
X012916Y001792D01*
X012864Y001757D01*
X012810Y001725D01*
X012754Y001696D01*
X012696Y001671D01*
X012637Y001650D01*
X012577Y001632D01*
X012515Y001619D01*
X012453Y001609D01*
X012391Y001603D01*
X012328Y001601D01*
X012265Y001603D01*
X012203Y001609D01*
X012141Y001619D01*
X012079Y001632D01*
X012019Y001650D01*
X011960Y001671D01*
X011902Y001696D01*
X011846Y001725D01*
X011792Y001757D01*
X011740Y001792D01*
X011691Y001830D01*
X011643Y001872D01*
X011599Y001916D01*
X011557Y001964D01*
X011519Y002013D01*
X011484Y002065D01*
X011452Y002119D01*
X011423Y002175D01*
X011398Y002233D01*
X011377Y002292D01*
X011359Y002352D01*
X011346Y002414D01*
X011336Y002476D01*
X011330Y002538D01*
X011328Y002601D01*
D14*
X011578Y003601D02*
X011524Y003558D01*
X011472Y003512D01*
X011423Y003463D01*
X011376Y003411D01*
X011333Y003357D01*
X011292Y003301D01*
X011255Y003242D01*
X011221Y003182D01*
X011191Y003119D01*
X011164Y003056D01*
X011140Y002990D01*
X011120Y002924D01*
X011104Y002856D01*
X011092Y002788D01*
X011084Y002719D01*
X011079Y002650D01*
X011078Y002580D01*
X011081Y002511D01*
X011088Y002442D01*
X011099Y002374D01*
X011113Y002306D01*
X011132Y002239D01*
X011154Y002173D01*
X011179Y002108D01*
X011208Y002045D01*
X011241Y001984D01*
X011277Y001925D01*
X011316Y001868D01*
X011358Y001812D01*
X011403Y001760D01*
X011451Y001710D01*
X011502Y001663D01*
X011556Y001618D01*
X011611Y001577D01*
X011669Y001539D01*
X011729Y001504D01*
X011791Y001472D01*
X011854Y001444D01*
X011919Y001420D01*
X011985Y001399D01*
X012053Y001382D01*
X012121Y001368D01*
X012190Y001359D01*
X012259Y001353D01*
X012328Y001351D01*
X012397Y001353D01*
X012466Y001359D01*
X012535Y001368D01*
X012603Y001382D01*
X012671Y001399D01*
X012737Y001420D01*
X012802Y001444D01*
X012865Y001472D01*
X012927Y001504D01*
X012987Y001539D01*
X013045Y001577D01*
X013100Y001618D01*
X013154Y001663D01*
X013205Y001710D01*
X013253Y001760D01*
X013298Y001812D01*
X013340Y001868D01*
X013379Y001925D01*
X013415Y001984D01*
X013448Y002045D01*
X013477Y002108D01*
X013502Y002173D01*
X013524Y002239D01*
X013543Y002306D01*
X013557Y002374D01*
X013568Y002442D01*
X013575Y002511D01*
X013578Y002580D01*
X013577Y002650D01*
X013572Y002719D01*
X013564Y002788D01*
X013552Y002856D01*
X013536Y002924D01*
X013516Y002990D01*
X013492Y003056D01*
X013465Y003119D01*
X013435Y003182D01*
X013401Y003242D01*
X013364Y003301D01*
X013323Y003357D01*
X013280Y003411D01*
X013233Y003463D01*
X013184Y003512D01*
X013132Y003558D01*
X013078Y003601D01*
X010078Y003601D02*
X010132Y003558D01*
X010184Y003512D01*
X010233Y003463D01*
X010280Y003411D01*
X010323Y003357D01*
X010364Y003301D01*
X010401Y003242D01*
X010435Y003182D01*
X010465Y003119D01*
X010492Y003056D01*
X010516Y002990D01*
X010536Y002924D01*
X010552Y002856D01*
X010564Y002788D01*
X010572Y002719D01*
X010577Y002650D01*
X010578Y002580D01*
X010575Y002511D01*
X010568Y002442D01*
X010557Y002374D01*
X010543Y002306D01*
X010524Y002239D01*
X010502Y002173D01*
X010477Y002108D01*
X010448Y002045D01*
X010415Y001984D01*
X010379Y001925D01*
X010340Y001868D01*
X010298Y001812D01*
X010253Y001760D01*
X010205Y001710D01*
X010154Y001663D01*
X010100Y001618D01*
X010045Y001577D01*
X009987Y001539D01*
X009927Y001504D01*
X009865Y001472D01*
X009802Y001444D01*
X009737Y001420D01*
X009671Y001399D01*
X009603Y001382D01*
X009535Y001368D01*
X009466Y001359D01*
X009397Y001353D01*
X009328Y001351D01*
X009259Y001353D01*
X009190Y001359D01*
X009121Y001368D01*
X009053Y001382D01*
X008985Y001399D01*
X008919Y001420D01*
X008854Y001444D01*
X008791Y001472D01*
X008729Y001504D01*
X008669Y001539D01*
X008611Y001577D01*
X008556Y001618D01*
X008502Y001663D01*
X008451Y001710D01*
X008403Y001760D01*
X008358Y001812D01*
X008316Y001868D01*
X008277Y001925D01*
X008241Y001984D01*
X008208Y002045D01*
X008179Y002108D01*
X008154Y002173D01*
X008132Y002239D01*
X008113Y002306D01*
X008099Y002374D01*
X008088Y002442D01*
X008081Y002511D01*
X008078Y002580D01*
X008079Y002650D01*
X008084Y002719D01*
X008092Y002788D01*
X008104Y002856D01*
X008120Y002924D01*
X008140Y002990D01*
X008164Y003056D01*
X008191Y003119D01*
X008221Y003182D01*
X008255Y003242D01*
X008292Y003301D01*
X008333Y003357D01*
X008376Y003411D01*
X008423Y003463D01*
X008472Y003512D01*
X008524Y003558D01*
X008578Y003601D01*
D15*
X008908Y005101D03*
X008908Y006101D03*
X011748Y006101D03*
X011748Y005101D03*
M02*
